<?xml version="1.0" encoding="utf-8"?>
<!-- Generator: Adobe Illustrator 16.0.0, SVG Export Plug-In . SVG Version: 6.00 Build 0)  -->
<!DOCTYPE svg PUBLIC "-//W3C//DTD SVG 1.1//EN" "http://www.w3.org/Graphics/SVG/1.1/DTD/svg11.dtd">
<svg version="1.1" id="pilar" xmlns="http://www.w3.org/2000/svg" xmlns:xlink="http://www.w3.org/1999/xlink" x="0px" y="0px"
	 width="202px" height="211px" viewBox="0 0 202 211" enable-background="new 0 0 202 211" xml:space="preserve">
<circle fill="none" cx="101.693" cy="102.978" r="76.477"/>
<path fill="#FFFFFF" d="M9.106,104.365c0-50.811,41.188-92,92-92c50.81,0,92.001,41.189,92.001,92c0,50.81-41.191,92-92.001,92
	C50.294,196.365,9.106,155.175,9.106,104.365z M161.053,104.37c0-33.111-26.839-59.951-59.949-59.951
	c-33.11,0-59.951,26.84-59.951,59.951c0,33.109,26.841,59.95,59.951,59.95C134.214,164.32,161.053,137.479,161.053,104.37z"/>
<path fill="none" d="M168.932,102.334c1.119,37.449-28.33,68.714-65.778,69.838c-37.45,1.121-68.716-28.327-69.838-65.776
	c-1.12-37.45,28.329-68.719,65.779-69.838C136.539,35.437,167.809,64.887,168.932,102.334z"/>
<text transform="matrix(0.1081 -0.9941 0.9941 0.1081 33.3423 99.9385)" fill="#009C33" font-family="'Helvetica-Bold'" font-size="21.858"> </text>
<text transform="matrix(0.2492 -0.9685 0.9685 0.2492 33.7388 93.8633)" fill="#009C33" font-family="'Helvetica-Bold'" font-size="21.858">F</text>
<text transform="matrix(0.4318 -0.902 0.902 0.4318 37.0024 81.1133)" fill="#009C33" font-family="'Helvetica-Bold'" font-size="21.858">L</text>
<text transform="matrix(0.6108 -0.7918 0.7918 0.6108 42.5508 69.1836)" fill="#009C33" font-family="'Helvetica-Bold'" font-size="21.858">A</text>
<text transform="matrix(0.7835 -0.6214 0.6214 0.7835 51.8608 56.8096)" fill="#009C33" font-family="'Helvetica-Bold'" font-size="21.858">M</text>
<text transform="matrix(0.9073 -0.4204 0.4204 0.9073 65.998 45.8213)" fill="#009C33" font-family="'Helvetica-Bold'" font-size="21.858">S</text>
<text transform="matrix(0.9773 -0.2117 0.2117 0.9773 78.9561 39.7148)" fill="#009C33" font-family="'Helvetica-Bold'" font-size="21.858">K</text>
<text transform="matrix(0.9999 -0.0137 0.0137 0.9999 92.04 36.623)" fill="#009C33" font-family="'Helvetica-Bold'" font-size="21.858">Y</text>
<text transform="matrix(0.9815 0.1915 -0.1915 0.9815 106.415 36.2422)" fill="#009C33" font-family="'Helvetica-Bold'" font-size="21.858">D</text>
<text transform="matrix(0.9108 0.4129 -0.4129 0.9108 121.8867 39.2578)" fill="#009C33" font-family="'Helvetica-Bold'" font-size="21.858">D</text>
<text transform="matrix(0.7943 0.6075 -0.6075 0.7943 136.0225 45.6348)" fill="#009C33" font-family="'Helvetica-Bold'" font-size="21.858">A</text>
<text transform="matrix(0.6377 0.7703 -0.7703 0.6377 148.3633 55.0342)" fill="#009C33" font-family="'Helvetica-Bold'" font-size="21.858">N</text>
<text transform="matrix(0.4473 0.8944 -0.8944 0.4473 158.2871 66.9697)" fill="#009C33" font-family="'Helvetica-Bold'" font-size="21.858">D</text>
<text transform="matrix(0.2404 0.9707 -0.9707 0.2404 165.2051 80.8906)" fill="#009C33" font-family="'Helvetica-Bold'" font-size="21.858">E</text>
<path fill="none" d="M178.395,135.855c17.395-42.683-3.104-91.388-45.793-108.783C89.916,9.68,41.213,30.182,23.816,72.867
	c-17.394,42.685,3.108,91.386,45.792,108.782C112.296,199.043,160.999,178.537,178.395,135.855z"/>
<text transform="matrix(0.198 0.9802 -0.9802 0.198 18.2407 115.3369)" fill="#009C33" font-family="'HelveticaNeue-CondensedBold'" font-size="21.3521">U</text>
<text transform="matrix(0.3384 0.941 -0.941 0.3384 20.9287 127.9072)" fill="#009C33" font-family="'HelveticaNeue-CondensedBold'" font-size="21.3521">T</text>
<text transform="matrix(0.4684 0.8835 -0.8835 0.4684 24.897 138.7578)" fill="#009C33" font-family="'HelveticaNeue-CondensedBold'" font-size="21.3521">V</text>
<text transform="matrix(0.59 0.8074 -0.8074 0.59 30.8315 149.6816)" fill="#009C33" font-family="'HelveticaNeue-CondensedBold'" font-size="21.3521">E</text>
<text transform="matrix(0.7015 0.7126 -0.7126 0.7015 37.7266 159.0254)" fill="#009C33" font-family="'HelveticaNeue-CondensedBold'" font-size="21.3521">C</text>
<text transform="matrix(0.8035 0.5953 -0.5953 0.8035 46.8608 168.1455)" fill="#009C33" font-family="'HelveticaNeue-CondensedBold'" font-size="21.3521">K</text>
<text transform="matrix(0.8808 0.4736 -0.4736 0.8808 57.2417 175.6426)" fill="#009C33" font-family="'HelveticaNeue-CondensedBold'" font-size="21.3521">L</text>
<text transform="matrix(0.9397 0.3419 -0.3419 0.9397 67.1455 180.9375)" fill="#009C33" font-family="'HelveticaNeue-CondensedBold'" font-size="21.3521">A</text>
<text transform="matrix(0.9826 0.1856 -0.1856 0.9826 79.7803 185.4219)" fill="#009C33" font-family="'HelveticaNeue-CondensedBold'" font-size="21.3521">D</text>
<text transform="matrix(0.9976 0.0687 -0.0687 0.9976 92.9307 187.627)" fill="#009C33" font-family="'HelveticaNeue-CondensedBold'" font-size="21.3521"> </text>
<text transform="matrix(0.9989 -0.0464 0.0464 0.9989 99.1025 188.1855)" fill="#009C33" font-family="'HelveticaNeue-CondensedBold'" font-size="21.3521">A</text>
<text transform="matrix(0.9798 -0.1998 0.1998 0.9798 112.3857 187.4248)" fill="#009C33" font-family="'HelveticaNeue-CondensedBold'" font-size="21.3521">V</text>
<text transform="matrix(0.9524 -0.3048 0.3048 0.9524 124.167 184.8008)" fill="#009C33" font-family="'HelveticaNeue-CondensedBold'" font-size="21.3521"> </text>
<text transform="matrix(0.9106 -0.4132 0.4132 0.9106 130.1328 183.043)" fill="#009C33" font-family="'HelveticaNeue-CondensedBold'" font-size="21.3521">D</text>
<text transform="matrix(0.8382 -0.5454 0.5454 0.8381 142.4951 177.2344)" fill="#009C33" font-family="'HelveticaNeue-CondensedBold'" font-size="21.3521">E</text>
<text transform="matrix(0.7528 -0.6582 0.6582 0.7528 152.4854 170.5713)" fill="#009C33" font-family="'HelveticaNeue-CondensedBold'" font-size="21.3521">F</text>
<text transform="matrix(0.654 -0.7565 0.7565 0.654 161.125 162.8613)" fill="#009C33" font-family="'HelveticaNeue-CondensedBold'" font-size="21.3521">L</text>
<text transform="matrix(0.5403 -0.8415 0.8415 0.5403 168.1963 154.6924)" fill="#009C33" font-family="'HelveticaNeue-CondensedBold'" font-size="21.3521">A</text>
<text transform="matrix(0.3623 -0.9321 0.932 0.3623 175.7266 143.1582)" fill="#009C33" font-family="'HelveticaNeue-CondensedBold'" font-size="21.3521">M</text>
<text transform="matrix(0.1999 -0.9798 0.9798 0.1999 181.8359 126.9229)" fill="#009C33" font-family="'HelveticaNeue-CondensedBold'" font-size="21.3521">O</text>
<text transform="matrix(0.0857 -0.9963 0.9963 0.0857 184.1699 114.1992)" fill="#009C33" font-family="'HelveticaNeue-CondensedBold'" font-size="21.3521"> </text>
<path fill="#FFFFFF" d="M142.684,80.777l-8.987-8.987c-0.628-0.627-1.645-0.627-2.271,0l-44.618,44.619l-17.73-17.729
	c-0.627-0.627-1.644-0.627-2.27,0l-9.123,9.122c-0.302,0.301-0.47,0.709-0.47,1.135s0.168,0.834,0.47,1.136l27.853,27.853
	c0.302,0.301,0.71,0.47,1.136,0.47s0.834-0.169,1.135-0.47l54.876-54.878c0.3-0.302,0.47-0.71,0.47-1.136
	S142.983,81.078,142.684,80.777z"/>
</svg>
