<?xml version="1.0" encoding="utf-8"?>
<!-- Generator: Adobe Illustrator 16.0.0, SVG Export Plug-In . SVG Version: 6.00 Build 0)  -->
<!DOCTYPE svg PUBLIC "-//W3C//DTD SVG 1.1//EN" "http://www.w3.org/Graphics/SVG/1.1/DTD/svg11.dtd">
<svg version="1.1" id="pilar" xmlns="http://www.w3.org/2000/svg" xmlns:xlink="http://www.w3.org/1999/xlink" x="0px" y="0px"
	 width="202px" height="211px" viewBox="0 0 202 211" enable-background="new 0 0 202 211" xml:space="preserve">
<circle fill="none" cx="101.693" cy="102.978" r="76.477"/>
<path fill="#FFFFFF" d="M9.106,104.365c0-50.811,41.188-92,92-92c50.81,0,92.001,41.189,92.001,92c0,50.81-41.191,92-92.001,92
	C50.294,196.365,9.106,155.175,9.106,104.365z M161.053,104.37c0-33.111-26.839-59.951-59.949-59.951s-59.951,26.84-59.951,59.951
	c0,33.108,26.841,59.95,59.951,59.95S161.053,137.479,161.053,104.37z"/>
<path fill="none" d="M168.932,102.334c1.119,37.449-28.33,68.714-65.777,69.838c-37.45,1.121-68.716-28.326-69.838-65.775
	c-1.12-37.451,28.329-68.72,65.779-69.838C136.539,35.437,167.809,64.887,168.932,102.334z"/>
<g enable-background="new    ">
	<path fill="#009C33" d="M18.939,88.336l2.796-10.864l2.678,0.689l-1.981,7.701l3.504,0.902l1.736-6.75l2.646,0.681l-1.736,6.75
		l6.388,1.644l-0.814,3.163L18.939,88.336z"/>
</g>
<g enable-background="new    ">
	<path fill="#009C33" d="M23.531,72.818l1.419-2.965l11.639,5.571l3.393-7.085l2.551,1.221l-4.812,10.05L23.531,72.818z"/>
</g>
<g enable-background="new    ">
	<path fill="#009C33" d="M33.859,54.695l2.271-2.945l15.855,5.202l-2.178,2.822l-3.193-1.152l-3.539,4.587l1.909,2.819l-2.101,2.722
		L33.859,54.695z M41.477,60.845l2.461-3.19l-6.116-2.208L41.477,60.845z"/>
</g>
<g enable-background="new    ">
	<path fill="#009C33" d="M51.565,36.964l3.707-2.939l9.775,12.326l-2.4,1.903l-6.611-8.337c-0.19-0.239-0.454-0.578-0.791-1.015
		c-0.338-0.437-0.599-0.772-0.784-1.006l5.868,12.197l-2.504,1.985l-10.522-8.505c0.186,0.234,0.452,0.565,0.801,0.993
		c0.349,0.428,0.618,0.762,0.808,1.001l6.611,8.337l-2.399,1.903l-9.775-12.326l3.747-2.972l9.931,7.912L51.565,36.964z"/>
</g>
<g enable-background="new    ">
	<path fill="#009C33" d="M67.616,39.72c0.395,0.608,0.802,1.012,1.223,1.211c0.766,0.357,1.749,0.259,2.948-0.297
		c0.719-0.333,1.267-0.68,1.643-1.043c0.713-0.691,0.883-1.44,0.509-2.248c-0.219-0.472-0.596-0.739-1.132-0.805
		c-0.534-0.058-1.298,0.025-2.292,0.25l-1.702,0.378c-1.674,0.368-2.887,0.486-3.637,0.356c-1.268-0.213-2.226-1.019-2.875-2.421
		c-0.592-1.277-0.613-2.558-0.064-3.84c0.55-1.281,1.735-2.345,3.56-3.19c1.522-0.705,3.006-0.909,4.45-0.609
		c1.444,0.299,2.545,1.196,3.3,2.688l-2.866,1.328c-0.451-0.834-1.118-1.267-2-1.297c-0.587-0.018-1.235,0.138-1.943,0.466
		c-0.787,0.365-1.344,0.812-1.67,1.339c-0.327,0.527-0.361,1.07-0.104,1.625c0.236,0.51,0.644,0.782,1.224,0.82
		c0.376,0.03,1.099-0.066,2.17-0.289l2.778-0.569c1.218-0.251,2.201-0.288,2.949-0.109c1.162,0.278,2.038,1.052,2.627,2.324
		c0.604,1.305,0.602,2.621-0.007,3.95c-0.609,1.329-1.834,2.419-3.674,3.271c-1.879,0.871-3.554,1.132-5.023,0.782
		c-1.47-0.351-2.549-1.269-3.237-2.753L67.616,39.72z"/>
</g>
<g enable-background="new    ">
	<path fill="#009C33" d="M77.305,23.977l3.16-0.685l1.372,6.335l4.568-7.622l4.151-0.899l-4.939,7.69l8.593,7.615l-4.131,0.895
		l-6.191-5.685l-1.207,1.903l1.114,5.143l-3.16,0.685L77.305,23.977z"/>
</g>
<g enable-background="new    ">
	<path fill="#009C33" d="M102.463,20.748l3.726-0.051l-5.126,9.904l0.081,5.897l-3.287,0.045l-0.081-5.897l-5.577-9.757l3.874-0.053
		l3.359,6.806L102.463,20.748z"/>
</g>
<g enable-background="new    ">
	<path fill="#009C33" d="M120.044,23.22c1.015,0.568,1.763,1.393,2.249,2.474c0.389,0.873,0.593,1.776,0.615,2.707
		c0.02,0.933-0.048,1.804-0.206,2.614c-0.4,2.053-1.152,3.711-2.255,4.976c-1.492,1.701-3.406,2.325-5.74,1.87l-6.658-1.3
		l3.014-15.44l6.656,1.299C118.674,22.62,119.448,22.887,120.044,23.22z M113.67,24.413l-1.965,10.077l2.979,0.581
		c1.525,0.298,2.734-0.245,3.629-1.63c0.49-0.76,0.846-1.709,1.068-2.848c0.307-1.57,0.295-2.826-0.033-3.763
		c-0.33-0.938-1.229-1.551-2.697-1.837L113.67,24.413z"/>
</g>
<g enable-background="new    ">
	<path fill="#009C33" d="M138.153,29.734c0.855,0.786,1.396,1.761,1.618,2.924c0.176,0.94,0.167,1.865-0.027,2.777
		s-0.462,1.744-0.803,2.495c-0.863,1.905-1.978,3.346-3.343,4.321c-1.846,1.311-3.852,1.477-6.018,0.494l-6.178-2.801l6.495-14.328
		l6.178,2.801C136.96,28.833,137.651,29.272,138.153,29.734z M131.678,29.423l-4.24,9.352l2.766,1.253
		c1.415,0.642,2.717,0.393,3.907-0.748c0.651-0.625,1.217-1.467,1.696-2.523c0.66-1.458,0.939-2.682,0.836-3.67
		c-0.104-0.987-0.837-1.792-2.2-2.41L131.678,29.423z"/>
</g>
<g enable-background="new    ">
	<path fill="#009C33" d="M150.476,36.884l2.954,2.26l-5.137,15.877l-2.83-2.165l1.139-3.199L142,46.137l-2.811,1.92l-2.732-2.088
		L150.476,36.884z M144.357,44.526l3.201,2.448l2.182-6.125L144.357,44.526z"/>
</g>
<g enable-background="new    ">
	<path fill="#009C33" d="M161.508,46.244l2.197,2.654l-4.467,11.805l8.449-6.994l1.954,2.359L157.523,66.1l-2.096-2.531
		l4.514-12.051l-8.598,7.117l-1.953-2.359L161.508,46.244z"/>
</g>
<g enable-background="new    ">
	<path fill="#009C33" d="M176.921,69.819c0.169,1.149-0.026,2.246-0.586,3.291c-0.455,0.841-1.046,1.554-1.771,2.14
		c-0.726,0.585-1.457,1.063-2.195,1.433c-1.871,0.936-3.643,1.352-5.318,1.249c-2.259-0.144-3.921-1.279-4.984-3.406l-3.034-6.066
		l14.07-7.036l3.034,6.066C176.561,68.368,176.821,69.145,176.921,69.819z M172.087,65.498l-9.183,4.593l1.357,2.716
		c0.695,1.39,1.863,2.017,3.506,1.88c0.9-0.076,1.87-0.373,2.907-0.893c1.432-0.716,2.419-1.49,2.961-2.323
		c0.542-0.832,0.479-1.919-0.19-3.257L172.087,65.498z"/>
</g>
<g enable-background="new    ">
	<path fill="#009C33" d="M180.97,90.687l-2.001-8.081l-3.244,0.804l1.838,7.418l-2.652,0.656l-1.838-7.418l-3.926,0.973l2.094,8.454
		l-2.745,0.68L165.629,82.6l15.271-3.781l2.774,11.199L180.97,90.687z"/>
</g>
<path fill="none" d="M178.395,135.855c17.396-42.684-3.104-91.389-45.793-108.784C89.916,9.68,41.213,30.182,23.816,72.867
	c-17.394,42.685,3.108,91.386,45.792,108.781C112.296,199.043,160.999,178.537,178.395,135.855z"/>
<g enable-background="new    ">
	<path fill="#009C33" d="M23.544,118.296c-0.377,0.076-0.718,0.17-1.021,0.283c-0.304,0.112-0.558,0.257-0.761,0.436
		c-0.204,0.18-0.348,0.397-0.435,0.654c-0.085,0.257-0.093,0.561-0.022,0.909c0.073,0.362,0.198,0.643,0.376,0.839
		s0.395,0.338,0.652,0.424c0.256,0.086,0.546,0.122,0.871,0.107c0.324-0.015,0.674-0.061,1.051-0.137l10.422-2.105l0.609,3.014
		l-10.422,2.105c-0.949,0.192-1.761,0.219-2.435,0.079c-0.675-0.141-1.239-0.396-1.691-0.771c-0.454-0.372-0.801-0.832-1.042-1.379
		c-0.241-0.547-0.424-1.127-0.548-1.741s-0.187-1.219-0.192-1.812c-0.004-0.596,0.12-1.15,0.372-1.665
		c0.251-0.516,0.665-0.97,1.239-1.361c0.574-0.393,1.363-0.689,2.368-0.893l10.422-2.105l0.609,3.014L23.544,118.296z"/>
</g>
<g enable-background="new    ">
	<path fill="#009C33" d="M36.286,133.004l-1.127-3.135l-11.975,4.307l-1.041-2.894l11.976-4.306l-1.127-3.135l2.37-0.853
		l3.295,9.162L36.286,133.004z"/>
</g>
<g enable-background="new    ">
	<path fill="#009C33" d="M30.987,141.765l0.03,0.057l11.02-3.281l1.49,2.811l-15.109,4.048l-1.85-3.49l11.829-10.234l1.54,2.904
		L30.987,141.765z"/>
</g>
<g enable-background="new    ">
	<path fill="#009C33" d="M46.763,149.914l-3.212-4.396l-2.896,2.117l3.023,4.137l-2.034,1.486l-3.023-4.137l-3.31,2.418l3.339,4.569
		l-2.034,1.486l-5.153-7.052l12.309-8.994l5.026,6.879L46.763,149.914z"/>
</g>
<g enable-background="new    ">
	<path fill="#009C33" d="M51.69,155.36c0.175-0.542,0.018-1.062-0.471-1.56c-0.27-0.273-0.566-0.426-0.887-0.459
		c-0.322-0.033-0.697,0.062-1.127,0.285c-0.43,0.224-0.931,0.577-1.503,1.061c-0.572,0.484-1.244,1.105-2.015,1.864
		c-0.822,0.81-1.459,1.491-1.911,2.046c-0.453,0.555-0.761,1.028-0.925,1.419c-0.165,0.392-0.208,0.724-0.128,0.996
		c0.077,0.272,0.232,0.525,0.461,0.759c0.19,0.192,0.4,0.34,0.63,0.441c0.231,0.104,0.505,0.118,0.823,0.045
		c0.318-0.073,0.692-0.25,1.122-0.534c0.429-0.284,0.939-0.715,1.527-1.294l2.156,2.19c-0.588,0.579-1.191,1.083-1.809,1.511
		s-1.246,0.713-1.886,0.854c-0.641,0.141-1.294,0.096-1.962-0.137c-0.667-0.231-1.356-0.707-2.065-1.428
		c-0.809-0.822-1.321-1.605-1.537-2.352c-0.216-0.747-0.203-1.494,0.041-2.242c0.242-0.748,0.67-1.499,1.285-2.255
		c0.615-0.755,1.338-1.542,2.17-2.36c0.821-0.809,1.617-1.518,2.387-2.125c0.77-0.607,1.531-1.027,2.283-1.258
		c0.75-0.231,1.506-0.24,2.265-0.027c0.758,0.211,1.542,0.729,2.351,1.551c0.769,0.78,1.249,1.521,1.439,2.223
		c0.19,0.701,0.201,1.355,0.03,1.963s-0.455,1.162-0.851,1.662s-0.792,0.945-1.188,1.334l-2.157-2.191
		C51.032,156.563,51.515,155.903,51.69,155.36z"/>
</g>
<g enable-background="new    ">
	<path fill="#009C33" d="M55.629,163.269l0.035,0.025l6.758-2.593l2.676,1.983l-7.218,2.783l-1.48,9.745l-2.779-2.06l1.202-6.895
		l-1.939,0.716l-2.694,3.637l-2.471-1.831l9.075-12.248l2.471,1.83L55.629,163.269z"/>
</g>
<g enable-background="new    ">
	<path fill="#009C33" d="M65.403,162.721l2.709,1.455l-6.027,11.209l4.796,2.578l-1.193,2.221l-7.505-4.035L65.403,162.721z"/>
</g>
<g enable-background="new    ">
	<path fill="#009C33" d="M79.722,169.291l-1.421,15.706l-3.009-1.095l0.44-3.271l-3.812-1.387l-1.765,2.789l-3.01-1.096
		l9.005-12.946L79.722,169.291z M76.092,178.081l0.959-6.944l-0.04-0.015l-3.728,5.937L76.092,178.081z"/>
</g>
<g enable-background="new    ">
	<path fill="#009C33" d="M88.757,171.604c1.049,0.198,1.863,0.528,2.441,0.992c0.578,0.466,0.986,1.049,1.223,1.753
		c0.237,0.704,0.333,1.515,0.29,2.435c-0.043,0.918-0.169,1.931-0.377,3.036c-0.249,1.314-0.545,2.442-0.89,3.385
		c-0.345,0.941-0.772,1.689-1.282,2.245c-0.511,0.556-1.124,0.926-1.839,1.108c-0.716,0.184-1.577,0.181-2.584-0.01l-4.762-0.899
		l2.83-14.98L88.757,171.604z M85.761,184.248c0.531,0.1,0.975,0.091,1.331-0.031c0.356-0.12,0.668-0.373,0.937-0.757
		c0.268-0.384,0.498-0.913,0.69-1.586s0.385-1.521,0.578-2.542c0.161-0.854,0.275-1.607,0.34-2.261
		c0.065-0.654,0.051-1.211-0.043-1.671c-0.095-0.459-0.292-0.83-0.594-1.111c-0.301-0.282-0.739-0.478-1.312-0.586l-1.28-0.241
		l-1.989,10.532L85.761,184.248z"/>
</g>
<g enable-background="new    ">
	<path fill="#009C33" d="M106.223,172.594l4.738,15.041l-3.199,0.148l-0.854-3.189l-4.053,0.188l-0.555,3.255l-3.198,0.148
		l3.323-15.416L106.223,172.594z M106.258,182.103l-1.789-6.777l-0.043,0.002l-1.153,6.914L106.258,182.103z"/>
</g>
<g enable-background="new    ">
	<path fill="#009C33" d="M116.99,182.433l0.062-0.013l-0.035-11.498l3.117-0.636l-0.385,15.637l-3.87,0.79l-6.478-14.238
		l3.222-0.657L116.99,182.433z"/>
</g>
<g enable-background="new    ">
	<path fill="#009C33" d="M129.53,166.576c0.972-0.441,1.828-0.638,2.568-0.591s1.41,0.29,2.008,0.729
		c0.599,0.441,1.145,1.049,1.637,1.824c0.493,0.777,0.973,1.679,1.438,2.702c0.553,1.219,0.959,2.312,1.219,3.28
		s0.34,1.826,0.242,2.575c-0.098,0.747-0.387,1.403-0.867,1.964c-0.48,0.562-1.187,1.055-2.119,1.479l-4.414,2.002l-6.3-13.883
		L129.53,166.576z M134.35,178.645c0.493-0.223,0.85-0.486,1.071-0.791c0.223-0.303,0.332-0.689,0.33-1.158
		c-0.001-0.468-0.116-1.032-0.346-1.693c-0.23-0.662-0.56-1.466-0.989-2.413c-0.358-0.789-0.699-1.472-1.022-2.044
		c-0.322-0.572-0.654-1.021-0.995-1.342c-0.342-0.322-0.717-0.512-1.125-0.568c-0.409-0.057-0.879,0.035-1.41,0.277l-1.187,0.537
		l4.429,9.76L134.35,178.645z"/>
</g>
<g enable-background="new    ">
	<path fill="#009C33" d="M143.59,161.34l-4.563,2.97l1.956,3.006l4.295-2.795l1.374,2.111l-4.295,2.795l2.235,3.437l4.743-3.086
		l1.374,2.111l-7.319,4.764l-8.315-12.777l7.142-4.646L143.59,161.34z"/>
</g>
<g enable-background="new    ">
	<path fill="#009C33" d="M149.668,152.784l1.658,1.897l-4.098,3.584l2.359,2.699l3.858-3.373l1.658,1.896l-3.858,3.373l4.357,4.984
		l-2.314,2.023l-10.035-11.478L149.668,152.784z"/>
</g>
<g enable-background="new    ">
	<path fill="#009C33" d="M150.291,152.084l2.01-2.326l9.627,8.322l3.562-4.119l1.906,1.648l-5.571,6.444L150.291,152.084z"/>
</g>
<g enable-background="new    ">
	<path fill="#009C33" d="M159.603,139.861l15.009,4.842l-1.73,2.694l-3.095-1.149l-2.191,3.414l2.332,2.336l-1.73,2.694
		l-10.647-11.634L159.603,139.861z M167.378,145.336l-6.563-2.463l-0.022,0.035l4.971,4.943L167.378,145.336z"/>
</g>
<g enable-background="new    ">
	<path fill="#009C33" d="M163.584,132.32l10.818,1.869l0.016-0.04l-9.233-5.948l1.647-4.239l14.209,5.522l-1.021,2.627
		l-11.343-4.409l-0.016,0.04l10.36,6.938l-0.866,2.229l-12.325-1.882l-0.016,0.04l11.343,4.409l-1.021,2.627l-14.209-5.523
		L163.584,132.32z"/>
</g>
<g enable-background="new    ">
	<path fill="#009C33" d="M171.421,123.871c-0.935-0.299-1.707-0.696-2.317-1.191s-1.04-1.116-1.287-1.864
		c-0.247-0.747-0.255-1.687-0.024-2.816s0.605-1.989,1.126-2.581c0.52-0.591,1.158-0.994,1.914-1.211s1.622-0.279,2.599-0.189
		s2.03,0.251,3.159,0.481c1.145,0.233,2.18,0.499,3.106,0.797c0.927,0.299,1.696,0.695,2.307,1.19
		c0.611,0.495,1.029,1.114,1.256,1.857c0.226,0.744,0.225,1.68-0.006,2.81c-0.231,1.13-0.596,1.993-1.096,2.588
		c-0.499,0.596-1.126,1.001-1.883,1.218c-0.756,0.216-1.618,0.28-2.588,0.191c-0.97-0.09-2.026-0.25-3.171-0.484
		C173.387,124.436,172.354,124.171,171.421,123.871z M177.709,122.104c0.714,0.096,1.306,0.113,1.774,0.057
		c0.47-0.057,0.833-0.2,1.091-0.431c0.258-0.231,0.432-0.569,0.522-1.017c0.091-0.445,0.063-0.825-0.083-1.139
		c-0.146-0.312-0.425-0.588-0.834-0.824c-0.409-0.235-0.962-0.449-1.656-0.643c-0.693-0.191-1.543-0.391-2.548-0.596
		c-1.004-0.205-1.859-0.354-2.567-0.447c-0.707-0.094-1.299-0.112-1.775-0.058c-0.476,0.056-0.842,0.198-1.101,0.429
		c-0.258,0.231-0.433,0.57-0.523,1.016c-0.091,0.447-0.062,0.826,0.083,1.14c0.148,0.313,0.43,0.589,0.846,0.826
		c0.417,0.237,0.968,0.452,1.656,0.644c0.688,0.191,1.533,0.389,2.537,0.594S176.994,122.01,177.709,122.104z"/>
</g>
<path fill="#FFFFFF" d="M142.684,80.777l-8.986-8.987c-0.629-0.627-1.646-0.627-2.271,0l-44.618,44.619L69.078,98.68
	c-0.627-0.627-1.644-0.627-2.27,0l-9.123,9.122c-0.302,0.302-0.47,0.709-0.47,1.136c0,0.426,0.168,0.834,0.47,1.136l27.853,27.853
	c0.302,0.301,0.71,0.471,1.136,0.471c0.426,0,0.834-0.17,1.135-0.471l54.876-54.878c0.299-0.302,0.47-0.71,0.47-1.136
	C143.155,81.486,142.982,81.078,142.684,80.777z"/>
</svg>
