<?xml version="1.0" encoding="utf-8"?>
<!-- Generator: Adobe Illustrator 16.0.0, SVG Export Plug-In . SVG Version: 6.00 Build 0)  -->
<!DOCTYPE svg PUBLIC "-//W3C//DTD SVG 1.1//EN" "http://www.w3.org/Graphics/SVG/1.1/DTD/svg11.dtd">
<svg version="1.1" id="Layer_1" xmlns="http://www.w3.org/2000/svg" xmlns:xlink="http://www.w3.org/1999/xlink" x="0px" y="0px"
	 width="163.321px" height="163.322px" viewBox="0 0 163.321 163.322" enable-background="new 0 0 163.321 163.322"
	 xml:space="preserve">
<circle fill="#398740" cx="78.849" cy="82.431" r="66.468"/>
<path fill="#FFFFFF" d="M0,81.661C0,36.561,36.56,0,81.66,0c45.1,0,81.661,36.561,81.661,81.661c0,45.1-36.562,81.661-81.661,81.661
	C36.56,163.322,0,126.761,0,81.661z M134.87,81.665c0-29.39-23.822-53.214-53.212-53.214c-29.389,0-53.213,23.824-53.213,53.214
	c0,29.389,23.824,53.214,53.213,53.214C111.048,134.879,134.87,111.054,134.87,81.665z"/>
<g>
	<path fill="#398740" d="M8.724,67.461l2.478-9.644l2.376,0.61l-1.756,6.836l3.11,0.799l1.539-5.991l2.35,0.603l-1.54,5.992
		l5.671,1.457l-0.722,2.807L8.724,67.461z"/>
	<path fill="#398740" d="M12.805,53.658l1.26-2.631l10.331,4.944l3.011-6.289l2.265,1.085L25.4,59.688L12.805,53.658z"/>
	<path fill="#398740" d="M21.955,37.594l2.015-2.615l14.076,4.612l-1.932,2.506l-2.836-1.022l-3.14,4.072l1.696,2.503l-1.864,2.417
		L21.955,37.594z M28.718,43.049l2.184-2.832l-5.429-1.958L28.718,43.049z"/>
	<path fill="#398740" d="M37.665,21.851l3.288-2.61l8.683,10.938l-2.13,1.689l-5.872-7.396c-0.169-0.214-0.403-0.514-0.703-0.901
		c-0.299-0.387-0.531-0.685-0.696-0.893L45.448,33.5l-2.221,1.765l-9.344-7.546c0.165,0.208,0.401,0.501,0.711,0.881
		s0.548,0.675,0.717,0.888l5.872,7.398l-2.129,1.689l-8.683-10.938l3.326-2.64l8.817,7.02L37.665,21.851z"/>
	<path fill="#398740" d="M51.892,24.303c0.352,0.541,0.713,0.898,1.085,1.074c0.682,0.317,1.554,0.229,2.618-0.265
		c0.638-0.297,1.124-0.605,1.458-0.928c0.632-0.613,0.781-1.278,0.449-1.995c-0.194-0.417-0.529-0.655-1.005-0.713
		c-0.474-0.052-1.152,0.022-2.034,0.224l-1.512,0.335c-1.485,0.327-2.562,0.435-3.228,0.318c-1.125-0.188-1.976-0.902-2.553-2.146
		c-0.527-1.134-0.547-2.27-0.06-3.407c0.486-1.138,1.538-2.083,3.156-2.835c1.351-0.626,2.668-0.808,3.95-0.544
		c1.283,0.265,2.26,1.06,2.931,2.384l-2.543,1.181c-0.401-0.739-0.992-1.123-1.776-1.149c-0.521-0.016-1.096,0.122-1.724,0.414
		c-0.699,0.325-1.193,0.722-1.482,1.189c-0.289,0.469-0.319,0.949-0.091,1.441c0.21,0.453,0.572,0.696,1.087,0.729
		c0.334,0.026,0.976-0.06,1.926-0.257l2.467-0.508c1.08-0.224,1.953-0.256,2.617-0.099c1.031,0.246,1.809,0.933,2.333,2.062
		c0.537,1.156,0.535,2.326-0.003,3.505c-0.54,1.182-1.627,2.149-3.259,2.908c-1.668,0.773-3.153,1.006-4.459,0.696
		s-2.264-1.124-2.875-2.44L51.892,24.303z"/>
	<path fill="#398740" d="M60.506,10.312l2.806-0.609l1.221,5.622l4.052-6.767l3.685-0.799l-4.382,6.827l7.631,6.757l-3.667,0.795
		l-5.497-5.043l-1.07,1.689l0.99,4.564l-2.806,0.608L60.506,10.312z"/>
	<path fill="#398740" d="M82.867,7.439l3.307-0.045l-4.551,8.79l0.071,5.235l-2.916,0.04l-0.073-5.234l-4.95-8.662l3.439-0.047
		l2.981,6.042L82.867,7.439z"/>
	<path fill="#398740" d="M98.414,9.621c0.9,0.503,1.566,1.233,1.998,2.193c0.346,0.774,0.528,1.575,0.548,2.401
		c0.02,0.828-0.041,1.602-0.181,2.32c-0.354,1.823-1.02,3.296-1.998,4.418c-1.324,1.513-3.021,2.067-5.094,1.665l-5.91-1.148
		L90.44,7.764l5.91,1.147C97.198,9.089,97.886,9.325,98.414,9.621z M92.758,10.684l-1.737,8.946l2.646,0.514
		c1.354,0.264,2.427-0.219,3.22-1.449c0.434-0.675,0.749-1.518,0.945-2.527c0.271-1.396,0.26-2.509-0.032-3.341
		c-0.293-0.832-1.091-1.375-2.396-1.628L92.758,10.684z"/>
	<path fill="#398740" d="M114.47,15.379c0.761,0.696,1.239,1.562,1.439,2.595c0.157,0.833,0.149,1.655-0.021,2.464
		c-0.172,0.81-0.408,1.549-0.71,2.216c-0.765,1.692-1.753,2.972-2.963,3.839c-1.637,1.166-3.417,1.314-5.341,0.444l-5.485-2.479
		l5.75-12.726l5.486,2.479C113.408,14.58,114.023,14.97,114.47,15.379z M108.722,15.109l-3.754,8.305l2.456,1.11
		c1.257,0.567,2.412,0.344,3.467-0.669c0.577-0.557,1.079-1.304,1.503-2.242c0.585-1.295,0.831-2.381,0.738-3.259
		c-0.093-0.876-0.745-1.588-1.955-2.136L108.722,15.109z"/>
	<path fill="#398740" d="M125.438,21.731l2.623,2.003l-4.549,14.096l-2.515-1.92l1.011-2.841l-4.087-3.121l-2.495,1.706L113,29.803
		L125.438,21.731z M120.012,28.519l2.843,2.17l1.933-5.438L120.012,28.519z"/>
	<path fill="#398740" d="M135.237,30.03l1.952,2.354l-3.957,10.481l7.495-6.214l1.735,2.093l-10.75,8.913l-1.861-2.246l3.999-10.7
		l-7.627,6.324l-1.735-2.094L135.237,30.03z"/>
	<path fill="#398740" d="M148.92,50.922c0.151,1.02-0.021,1.994-0.517,2.922c-0.402,0.746-0.927,1.379-1.569,1.9
		c-0.644,0.521-1.292,0.944-1.946,1.272c-1.66,0.834-3.233,1.205-4.72,1.116c-2.006-0.126-3.481-1.133-4.429-3.019l-2.698-5.383
		l12.482-6.26l2.698,5.383C148.599,49.633,148.832,50.322,148.92,50.922z M144.625,47.092l-8.146,4.085l1.208,2.409
		c0.618,1.232,1.656,1.788,3.113,1.665c0.8-0.068,1.66-0.333,2.58-0.795c1.271-0.636,2.146-1.325,2.625-2.065
		c0.481-0.739,0.424-1.703-0.172-2.891L144.625,47.092z"/>
	<path fill="#398740" d="M152.529,69.409l-1.788-7.169l-2.877,0.717l1.641,6.581l-2.353,0.587l-1.642-6.582l-3.483,0.869l1.87,7.5
		l-2.437,0.607l-2.56-10.268l13.55-3.378l2.477,9.938L152.529,69.409z"/>
</g>
<g>
	<path fill="#398740" d="M12.914,94.571c-0.333,0.07-0.634,0.155-0.903,0.258s-0.493,0.233-0.673,0.394
		c-0.181,0.16-0.306,0.354-0.381,0.583c-0.075,0.229-0.079,0.498-0.015,0.808c0.066,0.32,0.18,0.568,0.34,0.741
		c0.159,0.173,0.353,0.297,0.582,0.372c0.229,0.074,0.486,0.104,0.774,0.089c0.286-0.016,0.597-0.058,0.931-0.128l9.236-1.941
		l0.562,2.67l-9.236,1.941c-0.842,0.178-1.562,0.205-2.16,0.087c-0.601-0.119-1.104-0.343-1.507-0.671
		c-0.405-0.328-0.717-0.734-0.935-1.218c-0.218-0.484-0.385-0.997-0.498-1.541c-0.115-0.544-0.176-1.081-0.183-1.608
		c-0.009-0.527,0.098-1.021,0.317-1.48s0.583-0.865,1.091-1.217c0.507-0.352,1.205-0.621,2.096-0.809l9.236-1.941l0.562,2.67
		L12.914,94.571z"/>
	<path fill="#398740" d="M24.325,107.536l-1.021-2.774l-10.6,3.905l-0.943-2.562l10.599-3.904l-1.021-2.774l2.099-0.773l2.987,8.11
		L24.325,107.536z"/>
	<path fill="#398740" d="M19.697,115.372l0.026,0.05l9.76-2.992l1.342,2.483l-13.381,3.702l-1.668-3.084L26.2,106.36l1.389,2.567
		L19.697,115.372z"/>
	<path fill="#398740" d="M33.745,122.475l-2.881-3.88l-2.558,1.899l2.713,3.65l-1.795,1.334l-2.713-3.651l-2.921,2.17l2.996,4.032
		l-1.795,1.333l-4.623-6.222l10.861-8.07l4.51,6.069L33.745,122.475z"/>
	<path fill="#398740" d="M38.177,127.293c0.152-0.482,0.01-0.943-0.428-1.381c-0.242-0.24-0.506-0.374-0.791-0.4
		c-0.287-0.027-0.62,0.061-1,0.262c-0.379,0.201-0.821,0.519-1.324,0.952c-0.505,0.434-1.098,0.99-1.775,1.669
		c-0.723,0.725-1.283,1.334-1.682,1.83c-0.396,0.497-0.667,0.919-0.809,1.268c-0.144,0.349-0.18,0.644-0.107,0.885
		c0.07,0.241,0.21,0.465,0.415,0.669c0.17,0.171,0.357,0.3,0.562,0.39c0.206,0.089,0.45,0.1,0.731,0.033
		c0.281-0.068,0.612-0.229,0.99-0.484c0.38-0.255,0.83-0.641,1.348-1.159l1.931,1.929c-0.519,0.518-1.05,0.97-1.594,1.354
		c-0.545,0.384-1.102,0.642-1.668,0.771c-0.567,0.129-1.149,0.094-1.742-0.106c-0.595-0.201-1.21-0.618-1.844-1.252
		c-0.725-0.724-1.185-1.416-1.382-2.076c-0.197-0.661-0.191-1.324,0.02-1.99c0.209-0.666,0.584-1.336,1.124-2.012
		c0.54-0.674,1.176-1.378,1.909-2.111c0.724-0.725,1.424-1.359,2.104-1.904c0.678-0.545,1.35-0.924,2.016-1.133
		c0.664-0.211,1.335-0.225,2.01-0.042c0.674,0.183,1.374,0.636,2.098,1.359c0.688,0.687,1.12,1.342,1.295,1.962
		c0.174,0.621,0.188,1.202,0.041,1.743c-0.148,0.54-0.395,1.034-0.743,1.48c-0.349,0.447-0.696,0.845-1.045,1.193l-1.931-1.929
		C37.603,128.365,38.026,127.775,38.177,127.293z"/>
	<path fill="#398740" d="M41.721,134.272l0.031,0.022l5.979-2.351l2.391,1.741l-6.387,2.523l-1.244,8.66l-2.48-1.808l1.017-6.129
		l-1.716,0.649l-2.365,3.248l-2.207-1.607l7.967-10.938l2.207,1.606L41.721,134.272z"/>
	<path fill="#398740" d="M50.4,133.723l2.415,1.271l-5.267,9.993l4.274,2.253l-1.042,1.979l-6.689-3.525L50.4,133.723z"/>
	<path fill="#398740" d="M63.166,139.449L62.021,153.4l-2.679-0.949l0.366-2.907l-3.394-1.203l-1.546,2.489l-2.68-0.95l7.897-11.558
		L63.166,139.449z M60.009,147.278l0.801-6.171l-0.036-0.014l-3.265,5.298L60.009,147.278z"/>
	<path fill="#398740" d="M71.162,141.428c0.933,0.168,1.658,0.457,2.175,0.865s0.883,0.924,1.098,1.546
		c0.215,0.624,0.307,1.343,0.274,2.159s-0.137,1.715-0.314,2.697c-0.211,1.168-0.467,2.172-0.766,3.011
		c-0.299,0.838-0.674,1.505-1.122,2.002c-0.45,0.497-0.992,0.829-1.625,0.997c-0.635,0.168-1.398,0.17-2.294,0.009l-4.233-0.766
		l2.407-13.316L71.162,141.428z M68.591,152.673c0.473,0.085,0.866,0.073,1.183-0.036c0.314-0.111,0.59-0.337,0.825-0.68
		s0.437-0.813,0.602-1.412c0.167-0.6,0.331-1.354,0.495-2.261c0.138-0.759,0.232-1.428,0.287-2.009
		c0.053-0.581,0.036-1.075-0.051-1.482s-0.266-0.734-0.535-0.983c-0.27-0.247-0.66-0.418-1.168-0.509l-1.139-0.206l-1.692,9.362
		L68.591,152.673z"/>
	<path fill="#398740" d="M86.043,142.234l4.171,13.361l-2.84,0.125l-0.75-2.832l-3.598,0.157l-0.5,2.887l-2.84,0.125l2.986-13.677
		L86.043,142.234z M86.053,150.675l-1.572-6.021l-0.038,0.002l-1.04,6.135L86.053,150.675z"/>
	<path fill="#398740" d="M95.188,151.07l0.055-0.012l0.054-10.206l2.771-0.542l-0.456,13.877l-3.44,0.672l-5.646-12.685l2.864-0.56
		L95.188,151.07z"/>
	<path fill="#398740" d="M106.434,137.086c0.866-0.385,1.627-0.554,2.284-0.506c0.656,0.047,1.25,0.268,1.776,0.662
		c0.528,0.395,1.01,0.939,1.441,1.631c0.432,0.694,0.85,1.496,1.255,2.408c0.482,1.086,0.835,2.06,1.058,2.921
		c0.224,0.862,0.29,1.624,0.196,2.287c-0.092,0.663-0.354,1.243-0.784,1.737c-0.43,0.495-1.06,0.928-1.892,1.297l-3.932,1.746
		l-5.492-12.369L106.434,137.086z M110.625,147.833c0.438-0.194,0.758-0.426,0.956-0.694c0.199-0.268,0.3-0.609,0.302-1.025
		c0.002-0.415-0.097-0.918-0.296-1.507s-0.485-1.305-0.859-2.147c-0.313-0.705-0.611-1.312-0.893-1.824
		c-0.282-0.51-0.573-0.909-0.875-1.197c-0.301-0.287-0.631-0.458-0.994-0.513c-0.362-0.053-0.779,0.025-1.254,0.235l-1.058,0.47
		l3.861,8.695L110.625,147.833z"/>
	<path fill="#398740" d="M118.952,132.541l-4.072,2.604l1.715,2.683l3.832-2.449l1.204,1.884l-3.832,2.45l1.959,3.065l4.231-2.704
		l1.206,1.885l-6.532,4.174l-7.288-11.402l6.373-4.072L118.952,132.541z"/>
	<path fill="#398740" d="M124.408,124.995l1.457,1.696l-3.664,3.15l2.075,2.414l3.449-2.965l1.459,1.695l-3.45,2.965l3.831,4.456
		l-2.07,1.779l-8.821-10.262L124.408,124.995z"/>
	<path fill="#398740" d="M124.978,124.364l1.802-2.05l8.484,7.457l3.19-3.631l1.681,1.477l-4.992,5.681L124.978,124.364z"/>
	<path fill="#398740" d="M133.324,113.591l13.286,4.407l-1.556,2.38l-2.737-1.042l-1.971,3.014l2.053,2.09l-1.556,2.379
		l-9.366-10.403L133.324,113.591z M140.187,118.508l-5.808-2.234l-0.021,0.031l4.377,4.424L140.187,118.508z"/>
	<path fill="#398740" d="M136.985,106.626l9.544,1.97l0.016-0.035l-8.021-5.543l1.585-3.713l12.446,5.31l-0.981,2.301l-9.938-4.239
		l-0.014,0.035l8.992,6.453l-0.833,1.953l-10.882-2.025l-0.014,0.035l9.936,4.238l-0.981,2.302l-12.446-5.31L136.985,106.626z"/>
	<path fill="#398740" d="M143.935,99.46c-0.826-0.271-1.509-0.63-2.048-1.073s-0.915-0.998-1.129-1.664
		c-0.215-0.665-0.215-1.498-0.002-2.5c0.212-1.001,0.551-1.762,1.018-2.283c0.465-0.521,1.033-0.875,1.706-1.062
		s1.442-0.236,2.31-0.149c0.866,0.087,1.799,0.236,2.8,0.449c1.014,0.215,1.932,0.458,2.753,0.729
		c0.819,0.271,1.501,0.629,2.039,1.072s0.905,0.996,1.102,1.658c0.195,0.661,0.187,1.492-0.026,2.493
		c-0.213,1.002-0.542,1.765-0.989,2.29c-0.447,0.524-1.008,0.88-1.68,1.067c-0.673,0.187-1.439,0.237-2.299,0.151
		c-0.86-0.086-1.797-0.235-2.811-0.451C145.676,99.975,144.762,99.732,143.935,99.46z M149.529,97.936
		c0.633,0.089,1.158,0.109,1.574,0.062c0.417-0.048,0.741-0.172,0.972-0.375s0.387-0.502,0.472-0.898
		c0.084-0.395,0.061-0.732-0.066-1.012c-0.128-0.278-0.373-0.524-0.735-0.737c-0.362-0.212-0.851-0.405-1.465-0.582
		c-0.615-0.175-1.367-0.358-2.258-0.546c-0.89-0.189-1.647-0.328-2.275-0.415c-0.627-0.089-1.152-0.109-1.574-0.063
		c-0.424,0.046-0.751,0.17-0.981,0.373c-0.229,0.203-0.387,0.502-0.472,0.898c-0.083,0.396-0.062,0.732,0.067,1.012
		s0.375,0.525,0.743,0.738c0.368,0.214,0.857,0.408,1.466,0.583s1.357,0.355,2.248,0.544
		C148.134,97.707,148.896,97.846,149.529,97.936z"/>
</g>
<path fill="#FFFFFF" d="M118.565,60.724l-7.978-7.977c-0.557-0.557-1.459-0.557-2.016,0L68.969,92.352L53.231,76.615
	c-0.557-0.557-1.459-0.557-2.016,0l-8.098,8.097c-0.268,0.268-0.417,0.63-0.417,1.008s0.149,0.74,0.417,1.008l24.723,24.723
	c0.268,0.267,0.63,0.417,1.008,0.417s0.74-0.15,1.008-0.417l48.709-48.711c0.267-0.268,0.417-0.63,0.417-1.008
	S118.832,60.991,118.565,60.724z"/>
</svg>
