<?xml version="1.0" encoding="utf-8"?>
<!-- Generator: Adobe Illustrator 16.0.0, SVG Export Plug-In . SVG Version: 6.00 Build 0)  -->
<!DOCTYPE svg PUBLIC "-//W3C//DTD SVG 1.1//EN" "http://www.w3.org/Graphics/SVG/1.1/DTD/svg11.dtd">
<svg version="1.1" id="Layer_1" xmlns="http://www.w3.org/2000/svg" xmlns:xlink="http://www.w3.org/1999/xlink" x="0px" y="0px"
	 width="225px" height="224px" viewBox="0 0 225 224" enable-background="new 0 0 225 224" xml:space="preserve">
<g>
	<circle opacity="0.8" fill="#028B00" cx="111.326" cy="111.342" r="92"/>
	<circle fill="#FFFFFF" cx="111.326" cy="111.213" r="59.95"/>
	<circle opacity="0.8" fill="#028B00" cx="111.328" cy="111.342" r="32.354"/>
	<circle fill="none" cx="111.455" cy="111.343" r="68.184"/>
	
		<text transform="matrix(0.6709 -0.7416 0.7416 0.6709 54.8706 72.2383)" fill="#FFFFFF" font-family="'Helvetica-Bold'" font-size="22.8772">G</text>
	
		<text transform="matrix(0.8334 -0.5527 0.5527 0.8334 66.877 59.0908)" fill="#FFFFFF" font-family="'Helvetica-Bold'" font-size="22.8772">A</text>
	
		<text transform="matrix(0.941 -0.3384 0.3384 0.941 80.6621 49.9502)" fill="#FFFFFF" font-family="'Helvetica-Bold'" font-size="22.8772">R</text>
	
		<text transform="matrix(0.9947 -0.1026 0.1025 0.9947 96.2285 44.3506)" fill="#FFFFFF" font-family="'Helvetica-Bold'" font-size="22.8772">A</text>
	
		<text transform="matrix(0.9902 0.1395 -0.1395 0.9902 112.71 42.6611)" fill="#FFFFFF" font-family="'Helvetica-Bold'" font-size="22.8772">N</text>
	
		<text transform="matrix(0.9354 0.3537 -0.3537 0.9354 129.1191 45.1191)" fill="#FFFFFF" font-family="'Helvetica-Bold'" font-size="22.8772">T</text>
	
		<text transform="matrix(0.8376 0.5463 -0.5463 0.8376 142.3125 50.0449)" fill="#FFFFFF" font-family="'Helvetica-Bold'" font-size="22.8772">E</text>
	
		<text transform="matrix(0.6885 0.7253 -0.7253 0.6884 155.1807 58.3623)" fill="#FFFFFF" font-family="'Helvetica-Bold'" font-size="22.8772">R</text>
	
		<text transform="matrix(0.496 0.8683 -0.8683 0.496 166.5752 70.373)" fill="#FFFFFF" font-family="'Helvetica-Bold'" font-size="22.8772">A</text>
	
		<text transform="matrix(0.2912 0.9567 -0.9566 0.2912 174.6787 84.8613)" fill="#FFFFFF" font-family="'Helvetica-Bold'" font-size="22.8772">T</text>
	<path fill="none" d="M179.105,161.827c27.888-37.431,20.154-90.383-17.282-118.273C124.391,15.669,71.435,23.407,43.545,60.84
		c-27.883,37.434-20.144,90.385,17.286,118.272C98.265,207,151.217,199.26,179.105,161.827z"/>
	<text transform="matrix(-0.2106 0.9776 -0.9776 -0.2106 29.3633 90.3691)"><tspan x="0" y="0" fill="#FFFFFF" font-family="'Helvetica-Bold'" font-size="22.8774"> </tspan><tspan x="8.838" y="0.098" fill="#FFFFFF" font-family="'Helvetica-Bold'" font-size="22.8774" rotate="-8.568">F</tspan><tspan x="25.761" y="-2.662" fill="#FFFFFF" font-family="'Helvetica-Bold'" font-size="22.8774" rotate="-20.962">R</tspan><tspan x="44.162" y="-10.126" fill="#FFFFFF" font-family="'Helvetica-Bold'" font-size="22.8774" rotate="-34.338">A</tspan><tspan x="60.586" y="-21.696" fill="#FFFFFF" font-family="'Helvetica-Bold'" font-size="22.8774" rotate="-48.836">M</tspan><tspan x="74.801" y="-39.022" fill="#FFFFFF" font-family="'Helvetica-Bold'" font-size="22.8774" rotate="-62.318">T</tspan><tspan x="82.005" y="-53.732" fill="#FFFFFF" font-family="'Helvetica-Bold'" font-size="22.8774" rotate="-70.727">I</tspan><tspan x="85.174" y="-62.175" fill="#FFFFFF" font-family="'Helvetica-Bold'" font-size="22.8774" rotate="-80.279">D</tspan><tspan x="88.075" y="-81.764" fill="#FFFFFF" font-family="'Helvetica-Bold'" font-size="22.8774" rotate="-93.332">S</tspan><tspan x="86.656" y="-100.131" fill="#FFFFFF" font-family="'Helvetica-Bold'" font-size="22.8774" rotate="-105.773">S</tspan><tspan x="81.333" y="-117.884" fill="#FFFFFF" font-family="'Helvetica-Bold'" font-size="22.8774" rotate="-118.659">Ä</tspan><tspan x="71.465" y="-135.127" fill="#FFFFFF" font-family="'Helvetica-Bold'" font-size="22.8774" rotate="-132.106">K</tspan><tspan x="57.823" y="-149.622" fill="#FFFFFF" font-family="'Helvetica-Bold'" font-size="22.8774" rotate="-145.658">R</tspan><tspan x="41.21" y="-160.491" fill="#FFFFFF" font-family="'Helvetica-Bold'" font-size="22.8774" rotate="-158.962">A</tspan><tspan x="22.486" y="-167.272" fill="#FFFFFF" font-family="'Helvetica-Bold'" font-size="22.8774" rotate="-172.46">D</tspan><tspan x="3.453" y="-169.141" fill="#FFFFFF" font-family="'Helvetica-Bold'" font-size="22.8774" rotate="177.954"> </tspan><tspan x="-4.806" y="-168.751" fill="#FFFFFF" font-family="'Helvetica-Bold'" font-size="22.8774" rotate="172.342"> </tspan></text>
</g>
</svg>
