<?xml version="1.0" encoding="utf-8"?>
<!-- Generator: Adobe Illustrator 16.0.0, SVG Export Plug-In . SVG Version: 6.00 Build 0)  -->
<!DOCTYPE svg PUBLIC "-//W3C//DTD SVG 1.1//EN" "http://www.w3.org/Graphics/SVG/1.1/DTD/svg11.dtd">
<svg version="1.1" id="Layer_1" xmlns="http://www.w3.org/2000/svg" xmlns:xlink="http://www.w3.org/1999/xlink" x="0px" y="0px"
	 width="519.186px" height="44.632px" viewBox="0 0 519.186 44.632" enable-background="new 0 0 519.186 44.632"
	 xml:space="preserve">
<g>
	<path fill="#FFFFFF" d="M29.023,0l5.935,35.605h-7.779l-1.147-7.929H12.716l-4.488,7.929H0L20.995,0H29.023z M25.333,21.842
		L23.587,7.68h-0.1l-7.68,14.162H25.333z"/>
	<path fill="#FFFFFF" d="M45.878,9.824v3.291h0.1c0.864-1.396,1.961-2.41,3.291-3.042c1.33-0.631,2.792-0.947,4.389-0.947
		c2.027,0,3.772,0.382,5.236,1.146c1.462,0.766,2.676,1.779,3.641,3.042c0.964,1.264,1.678,2.735,2.144,4.413
		c0.465,1.68,0.698,3.434,0.698,5.262c0,1.729-0.233,3.391-0.698,4.986c-0.466,1.596-1.172,3.01-2.119,4.239
		c-0.948,1.229-2.128,2.211-3.541,2.941c-1.413,0.731-3.066,1.098-4.961,1.098c-1.596,0-3.067-0.324-4.414-0.973
		c-1.346-0.648-2.452-1.604-3.316-2.867h-0.1v12.218h-7.081V9.824H45.878z M55.079,30.27c0.781-0.465,1.413-1.072,1.895-1.82
		c0.481-0.748,0.823-1.62,1.022-2.618c0.199-0.997,0.299-2.011,0.299-3.042c0-1.029-0.108-2.044-0.324-3.042
		c-0.217-0.997-0.574-1.886-1.072-2.668c-0.499-0.78-1.139-1.412-1.92-1.895c-0.782-0.481-1.738-0.723-2.867-0.723
		c-1.165,0-2.137,0.241-2.917,0.723c-0.782,0.482-1.414,1.105-1.895,1.87c-0.482,0.765-0.823,1.646-1.022,2.643
		c-0.199,0.998-0.299,2.028-0.299,3.092c0,1.031,0.107,2.045,0.324,3.042c0.216,0.998,0.564,1.87,1.047,2.618
		c0.481,0.748,1.122,1.355,1.92,1.82c0.798,0.466,1.762,0.698,2.893,0.698C53.325,30.968,54.297,30.735,55.079,30.27z"/>
	<path fill="#FFFFFF" d="M78.143,43.285c-1.364,0.897-3.259,1.347-5.685,1.347c-0.732,0-1.455-0.025-2.169-0.075
		c-0.715-0.05-1.438-0.108-2.169-0.175v-5.834c0.665,0.066,1.346,0.132,2.044,0.199c0.698,0.066,1.396,0.083,2.094,0.05
		c0.931-0.1,1.621-0.466,2.07-1.097c0.449-0.632,0.673-1.33,0.673-2.095c0-0.564-0.1-1.097-0.299-1.596L65.675,9.824h7.53
		l5.834,17.652h0.1l5.635-17.652h7.331L81.334,38.797C80.569,40.892,79.505,42.388,78.143,43.285z"/>
	<path fill="#FFFFFF" d="M100.632,9.824v4.787h0.1c0.332-0.798,0.781-1.537,1.346-2.22c0.565-0.681,1.213-1.263,1.945-1.745
		c0.731-0.481,1.513-0.855,2.344-1.122c0.831-0.266,1.696-0.398,2.593-0.398c0.465,0,0.98,0.083,1.546,0.249v6.583
		c-0.333-0.066-0.731-0.125-1.197-0.175c-0.466-0.05-0.915-0.075-1.347-0.075c-1.296,0-2.394,0.217-3.291,0.648
		c-0.897,0.433-1.621,1.022-2.169,1.771c-0.548,0.748-0.939,1.62-1.172,2.618c-0.233,0.997-0.349,2.078-0.349,3.241v11.619H93.9
		V9.824H100.632z"/>
	<path fill="#FFFFFF" d="M130.204,35.605v-3.591h-0.149c-0.898,1.496-2.062,2.577-3.491,3.242c-1.43,0.664-2.893,0.997-4.389,0.997
		c-1.895,0-3.449-0.249-4.663-0.748c-1.214-0.499-2.169-1.205-2.867-2.119s-1.189-2.027-1.471-3.342
		c-0.283-1.312-0.424-2.768-0.424-4.363V9.824h7.081v14.561c0,2.128,0.332,3.716,0.998,4.763c0.665,1.047,1.845,1.571,3.541,1.571
		c1.928,0,3.324-0.574,4.189-1.721c0.864-1.147,1.296-3.033,1.296-5.66V9.824h7.082v25.781H130.204z"/>
	<path fill="#FFFFFF" d="M148.405,9.824v3.49h0.1c0.93-1.329,2.052-2.36,3.366-3.092c1.313-0.73,2.817-1.097,4.513-1.097
		c1.629,0,3.117,0.316,4.463,0.947c1.347,0.632,2.369,1.745,3.067,3.341c0.764-1.13,1.803-2.127,3.117-2.992
		c1.313-0.863,2.867-1.296,4.663-1.296c1.363,0,2.626,0.166,3.79,0.498c1.163,0.333,2.161,0.865,2.992,1.596
		c0.831,0.732,1.479,1.688,1.945,2.868c0.465,1.18,0.698,2.602,0.698,4.264v17.254h-7.082V20.994c0-0.864-0.033-1.679-0.1-2.443
		c-0.067-0.765-0.25-1.429-0.548-1.995c-0.299-0.564-0.74-1.014-1.322-1.346c-0.582-0.332-1.371-0.499-2.369-0.499
		s-1.804,0.191-2.418,0.573c-0.616,0.383-1.097,0.882-1.446,1.496c-0.349,0.615-0.582,1.313-0.698,2.095
		c-0.117,0.781-0.174,1.57-0.174,2.368v14.362h-7.082V21.144c0-0.764-0.017-1.521-0.05-2.269c-0.033-0.748-0.174-1.438-0.424-2.069
		s-0.666-1.139-1.247-1.521c-0.582-0.382-1.438-0.573-2.568-0.573c-0.333,0-0.773,0.075-1.321,0.225
		c-0.549,0.149-1.081,0.433-1.596,0.848c-0.516,0.416-0.956,1.015-1.322,1.795c-0.366,0.781-0.548,1.804-0.548,3.067v14.96h-7.082
		V9.824H148.405z"/>
</g>
<g>
	<path fill="#FFFFFF" d="M206.946,22.069v12.045h7.182v1.521h-8.987V22.069H206.946z"/>
	<path fill="#FFFFFF" d="M222.393,35.008c-0.735,0.558-1.66,0.836-2.774,0.836c-0.786,0-1.466-0.127-2.042-0.38
		c-0.577-0.254-1.061-0.607-1.454-1.064c-0.393-0.455-0.687-1-0.883-1.634c-0.197-0.634-0.307-1.323-0.333-2.071
		c0-0.746,0.114-1.431,0.342-2.052c0.228-0.62,0.548-1.159,0.959-1.614c0.412-0.457,0.899-0.811,1.463-1.064
		c0.563-0.254,1.181-0.38,1.852-0.38c0.874,0,1.599,0.181,2.176,0.542c0.576,0.36,1.039,0.819,1.387,1.377
		c0.349,0.557,0.589,1.166,0.722,1.824s0.187,1.285,0.162,1.881h-7.353c-0.013,0.431,0.038,0.839,0.152,1.225
		c0.114,0.387,0.297,0.729,0.551,1.027c0.253,0.297,0.576,0.535,0.969,0.712s0.855,0.267,1.387,0.267
		c0.684,0,1.244-0.159,1.681-0.476s0.725-0.798,0.865-1.444h1.596C223.602,33.62,223.127,34.45,222.393,35.008z M222.003,28.7
		c-0.146-0.342-0.342-0.637-0.589-0.884s-0.539-0.443-0.874-0.589s-0.706-0.219-1.111-0.219c-0.418,0-0.795,0.073-1.13,0.219
		c-0.336,0.146-0.624,0.346-0.865,0.598c-0.241,0.254-0.431,0.549-0.57,0.885c-0.14,0.335-0.222,0.693-0.247,1.072h5.643
		C222.234,29.403,222.148,29.042,222.003,28.7z"/>
	<path fill="#FFFFFF" d="M233.184,35.844c-0.418,0-0.75-0.117-0.997-0.352c-0.247-0.234-0.371-0.617-0.371-1.149
		c-0.444,0.532-0.959,0.915-1.549,1.149c-0.589,0.234-1.225,0.352-1.909,0.352c-0.444,0-0.862-0.048-1.254-0.143
		c-0.393-0.095-0.738-0.253-1.036-0.476c-0.298-0.221-0.532-0.506-0.703-0.854s-0.256-0.77-0.256-1.263
		c0-0.559,0.095-1.014,0.285-1.369c0.19-0.354,0.44-0.643,0.75-0.863c0.31-0.223,0.665-0.391,1.064-0.504
		c0.399-0.114,0.807-0.209,1.225-0.285c0.443-0.088,0.865-0.155,1.264-0.199c0.399-0.045,0.75-0.107,1.055-0.19
		c0.304-0.082,0.544-0.202,0.722-0.36s0.266-0.391,0.266-0.694c0-0.354-0.066-0.64-0.199-0.854
		c-0.133-0.215-0.304-0.381-0.513-0.494c-0.209-0.114-0.443-0.189-0.703-0.229c-0.26-0.037-0.516-0.057-0.77-0.057
		c-0.684,0-1.254,0.13-1.71,0.39s-0.703,0.751-0.741,1.472h-1.615c0.025-0.607,0.152-1.12,0.38-1.539
		c0.228-0.418,0.532-0.756,0.912-1.016s0.817-0.447,1.311-0.561c0.494-0.114,1.013-0.171,1.558-0.171
		c0.443,0,0.883,0.032,1.32,0.095c0.437,0.063,0.833,0.193,1.188,0.39s0.64,0.472,0.855,0.826s0.323,0.817,0.323,1.388v5.054
		c0,0.38,0.022,0.659,0.066,0.836s0.193,0.267,0.446,0.267c0.14,0,0.304-0.032,0.494-0.096v1.254
		C234.064,35.761,233.678,35.844,233.184,35.844z M230.923,30.894c-0.33,0.07-0.674,0.127-1.036,0.172
		c-0.361,0.045-0.725,0.095-1.092,0.152c-0.368,0.057-0.697,0.148-0.988,0.275s-0.529,0.307-0.712,0.541s-0.275,0.555-0.275,0.959
		c0,0.267,0.054,0.492,0.162,0.676c0.107,0.184,0.247,0.332,0.418,0.445c0.171,0.115,0.374,0.197,0.608,0.248
		s0.472,0.076,0.712,0.076c0.532,0,0.988-0.073,1.368-0.219c0.38-0.146,0.69-0.33,0.931-0.551c0.241-0.223,0.418-0.463,0.532-0.723
		s0.171-0.504,0.171-0.731v-1.653C231.519,30.714,231.252,30.825,230.923,30.894z"/>
	<path fill="#FFFFFF" d="M243.007,35.635v-1.33h-0.038c-0.266,0.545-0.684,0.938-1.254,1.179c-0.57,0.24-1.197,0.36-1.881,0.36
		c-0.76,0-1.422-0.14-1.985-0.418c-0.564-0.278-1.033-0.652-1.406-1.121c-0.374-0.468-0.655-1.013-0.845-1.634
		c-0.19-0.621-0.285-1.279-0.285-1.977c0-0.695,0.092-1.355,0.275-1.976s0.462-1.162,0.836-1.624
		c0.374-0.463,0.842-0.83,1.406-1.103c0.563-0.272,1.219-0.408,1.966-0.408c0.253,0,0.525,0.025,0.817,0.075
		c0.292,0.051,0.583,0.137,0.874,0.258c0.292,0.119,0.567,0.277,0.827,0.475c0.259,0.196,0.478,0.439,0.655,0.73h0.038v-5.053h1.615
		v13.566H243.007z M237.203,32.148c0.12,0.437,0.304,0.826,0.551,1.169c0.247,0.342,0.563,0.613,0.95,0.816
		c0.386,0.203,0.839,0.305,1.358,0.305c0.544,0,1.007-0.108,1.387-0.324c0.38-0.215,0.69-0.496,0.931-0.846
		c0.241-0.348,0.415-0.743,0.522-1.188c0.107-0.442,0.162-0.893,0.162-1.348c0-0.482-0.057-0.947-0.171-1.396
		c-0.114-0.45-0.294-0.846-0.542-1.188c-0.247-0.343-0.567-0.618-0.959-0.827c-0.393-0.209-0.868-0.313-1.425-0.313
		c-0.544,0-1.007,0.107-1.387,0.322c-0.38,0.217-0.684,0.502-0.912,0.855c-0.228,0.355-0.393,0.76-0.494,1.217
		c-0.102,0.455-0.152,0.924-0.152,1.405C237.022,31.265,237.083,31.712,237.203,32.148z"/>
	<path fill="#FFFFFF" d="M247.206,24.045v-1.976h1.615v1.976H247.206z M248.821,25.812v9.823h-1.615v-9.823H248.821z"/>
	<path fill="#FFFFFF" d="M252.849,25.812v1.559h0.038c0.671-1.191,1.735-1.786,3.192-1.786c0.646,0,1.185,0.089,1.615,0.266
		c0.43,0.178,0.779,0.425,1.045,0.741s0.453,0.693,0.561,1.131c0.107,0.437,0.162,0.921,0.162,1.453v6.46h-1.615v-6.649
		c0-0.608-0.177-1.09-0.532-1.445c-0.355-0.354-0.843-0.531-1.463-0.531c-0.494,0-0.921,0.076-1.282,0.229
		c-0.361,0.151-0.662,0.367-0.902,0.646c-0.241,0.278-0.421,0.604-0.542,0.979c-0.121,0.374-0.181,0.782-0.181,1.226v5.548h-1.615
		v-9.823H252.849z"/>
	<path fill="#FFFFFF" d="M269.265,38.409c-0.735,0.797-1.888,1.197-3.459,1.197c-0.455,0-0.921-0.051-1.396-0.152
		c-0.475-0.102-0.905-0.266-1.291-0.494c-0.387-0.229-0.707-0.525-0.96-0.893c-0.253-0.368-0.393-0.817-0.418-1.35h1.615
		c0.013,0.291,0.104,0.538,0.275,0.741c0.171,0.202,0.38,0.367,0.627,0.493c0.247,0.127,0.517,0.219,0.808,0.275
		c0.291,0.058,0.57,0.086,0.836,0.086c0.531,0,0.981-0.092,1.35-0.275c0.367-0.184,0.67-0.438,0.911-0.76
		c0.241-0.323,0.415-0.713,0.522-1.168c0.107-0.457,0.162-0.957,0.162-1.502v-0.646h-0.039c-0.278,0.608-0.699,1.054-1.263,1.339
		s-1.163,0.428-1.796,0.428c-0.734,0-1.375-0.133-1.919-0.398s-1.001-0.624-1.368-1.074c-0.367-0.449-0.643-0.975-0.826-1.576
		s-0.275-1.238-0.275-1.91c0-0.582,0.076-1.181,0.229-1.795c0.151-0.615,0.404-1.172,0.76-1.672c0.354-0.5,0.822-0.912,1.406-1.235
		c0.582-0.323,1.298-0.484,2.146-0.484c0.621,0,1.19,0.136,1.71,0.408c0.519,0.272,0.925,0.681,1.216,1.226h0.02v-1.406h1.52v8.987
		C270.367,36.407,270,37.61,269.265,38.409z M267.203,33.991c0.374-0.221,0.676-0.514,0.903-0.874s0.396-0.77,0.503-1.226
		s0.162-0.912,0.162-1.367c0-0.432-0.051-0.855-0.152-1.273s-0.263-0.795-0.484-1.131s-0.51-0.604-0.865-0.807
		c-0.354-0.203-0.785-0.305-1.291-0.305c-0.52,0-0.963,0.098-1.33,0.295c-0.367,0.196-0.668,0.459-0.902,0.788
		s-0.406,0.71-0.514,1.14c-0.107,0.432-0.161,0.881-0.161,1.35c0,0.443,0.044,0.887,0.133,1.33s0.241,0.846,0.456,1.206
		s0.5,0.653,0.855,0.874c0.354,0.222,0.798,0.332,1.33,0.332C266.376,34.323,266.83,34.213,267.203,33.991z"/>
	<path fill="#FFFFFF" d="M287.257,22.069v1.52h-7.105v4.312h6.231v1.521h-6.231v6.213h-1.806V22.069H287.257z"/>
	<path fill="#FFFFFF" d="M290.696,22.069v13.566h-1.614V22.069H290.696z"/>
	<path fill="#FFFFFF" d="M300.747,35.844c-0.418,0-0.75-0.117-0.997-0.352s-0.37-0.617-0.37-1.149
		c-0.444,0.532-0.96,0.915-1.549,1.149c-0.59,0.234-1.226,0.352-1.91,0.352c-0.443,0-0.861-0.048-1.254-0.143
		s-0.738-0.253-1.035-0.476c-0.298-0.221-0.532-0.506-0.703-0.854s-0.256-0.77-0.256-1.263c0-0.559,0.094-1.014,0.285-1.369
		c0.189-0.354,0.439-0.643,0.75-0.863c0.311-0.223,0.664-0.391,1.064-0.504c0.398-0.114,0.807-0.209,1.225-0.285
		c0.443-0.088,0.865-0.155,1.264-0.199c0.398-0.045,0.75-0.107,1.055-0.19c0.304-0.082,0.545-0.202,0.722-0.36
		s0.267-0.391,0.267-0.694c0-0.354-0.066-0.64-0.199-0.854c-0.134-0.215-0.305-0.381-0.514-0.494
		c-0.209-0.114-0.443-0.189-0.703-0.229c-0.26-0.037-0.516-0.057-0.77-0.057c-0.684,0-1.254,0.13-1.71,0.39
		s-0.703,0.751-0.741,1.472h-1.615c0.025-0.607,0.152-1.12,0.381-1.539c0.228-0.418,0.531-0.756,0.912-1.016
		c0.379-0.26,0.816-0.447,1.311-0.561c0.494-0.114,1.014-0.171,1.559-0.171c0.443,0,0.883,0.032,1.32,0.095
		c0.437,0.063,0.832,0.193,1.188,0.39c0.354,0.196,0.639,0.472,0.854,0.826s0.323,0.817,0.323,1.388v5.054
		c0,0.38,0.021,0.659,0.066,0.836s0.193,0.267,0.446,0.267c0.14,0,0.304-0.032,0.494-0.096v1.254
		C301.627,35.761,301.241,35.844,300.747,35.844z M298.486,30.894c-0.329,0.07-0.675,0.127-1.036,0.172
		c-0.36,0.045-0.725,0.095-1.092,0.152c-0.367,0.057-0.697,0.148-0.988,0.275s-0.529,0.307-0.713,0.541s-0.275,0.555-0.275,0.959
		c0,0.267,0.055,0.492,0.162,0.676s0.247,0.332,0.418,0.445c0.171,0.115,0.373,0.197,0.607,0.248s0.473,0.076,0.713,0.076
		c0.532,0,0.988-0.073,1.368-0.219c0.38-0.146,0.69-0.33,0.931-0.551c0.24-0.223,0.418-0.463,0.532-0.723s0.171-0.504,0.171-0.731
		v-1.653C299.081,30.714,298.815,30.825,298.486,30.894z"/>
	<path fill="#FFFFFF" d="M304.926,25.812v1.444h0.039c0.734-1.114,1.792-1.672,3.172-1.672c0.609,0,1.16,0.126,1.654,0.38
		s0.842,0.684,1.045,1.292c0.328-0.532,0.763-0.943,1.301-1.235c0.539-0.291,1.131-0.437,1.777-0.437
		c0.493,0,0.939,0.054,1.339,0.161s0.741,0.275,1.026,0.504c0.285,0.228,0.506,0.522,0.664,0.883
		c0.158,0.361,0.238,0.795,0.238,1.302v7.201h-1.615v-6.44c0-0.305-0.025-0.59-0.076-0.855s-0.146-0.497-0.285-0.693
		c-0.139-0.196-0.332-0.352-0.579-0.466s-0.567-0.171-0.96-0.171c-0.797,0-1.425,0.229-1.881,0.684
		c-0.455,0.457-0.684,1.064-0.684,1.824v6.118h-1.615v-6.44c0-0.316-0.028-0.608-0.086-0.875c-0.057-0.266-0.154-0.496-0.294-0.693
		c-0.14-0.195-0.326-0.348-0.561-0.455s-0.535-0.162-0.902-0.162c-0.469,0-0.871,0.096-1.206,0.285
		c-0.336,0.189-0.608,0.418-0.817,0.684s-0.361,0.541-0.456,0.826c-0.096,0.285-0.143,0.523-0.143,0.713v6.118h-1.615v-9.823
		H304.926z"/>
	<path fill="#FFFFFF" d="M326.567,35.008c-0.734,0.558-1.659,0.836-2.773,0.836c-0.785,0-1.467-0.127-2.043-0.38
		c-0.576-0.254-1.061-0.607-1.453-1.064c-0.393-0.455-0.688-1-0.883-1.634c-0.197-0.634-0.308-1.323-0.333-2.071
		c0-0.746,0.114-1.431,0.342-2.052c0.228-0.62,0.548-1.159,0.96-1.614c0.411-0.457,0.898-0.811,1.463-1.064
		c0.563-0.254,1.181-0.38,1.852-0.38c0.875,0,1.6,0.181,2.176,0.542c0.576,0.36,1.039,0.819,1.387,1.377
		c0.35,0.557,0.59,1.166,0.723,1.824s0.188,1.285,0.162,1.881h-7.354c-0.013,0.431,0.038,0.839,0.152,1.225
		c0.113,0.387,0.297,0.729,0.551,1.027c0.253,0.297,0.576,0.535,0.969,0.712s0.855,0.267,1.387,0.267
		c0.685,0,1.244-0.159,1.682-0.476s0.725-0.798,0.865-1.444h1.596C327.777,33.62,327.301,34.45,326.567,35.008z M326.178,28.7
		c-0.146-0.342-0.342-0.637-0.59-0.884c-0.246-0.247-0.538-0.443-0.873-0.589c-0.336-0.146-0.707-0.219-1.111-0.219
		c-0.418,0-0.795,0.073-1.131,0.219s-0.624,0.346-0.865,0.598c-0.24,0.254-0.43,0.549-0.569,0.885
		c-0.14,0.335-0.222,0.693-0.247,1.072h5.643C326.409,29.403,326.323,29.042,326.178,28.7z"/>
	<path fill="#FFFFFF" d="M341.749,22.069c1.292,0,2.302,0.317,3.03,0.95c0.728,0.634,1.093,1.501,1.093,2.604
		c0,0.823-0.188,1.545-0.561,2.166c-0.374,0.621-0.973,1.045-1.796,1.272v0.038c0.393,0.076,0.713,0.203,0.96,0.381
		c0.246,0.177,0.443,0.389,0.589,0.636s0.253,0.522,0.323,0.827c0.068,0.303,0.123,0.62,0.161,0.949
		c0.025,0.33,0.044,0.665,0.058,1.008c0.012,0.342,0.043,0.678,0.094,1.006c0.051,0.33,0.124,0.644,0.219,0.941
		c0.096,0.297,0.238,0.561,0.428,0.788h-2.014c-0.127-0.14-0.213-0.329-0.257-0.569c-0.044-0.241-0.073-0.51-0.085-0.809
		c-0.014-0.297-0.025-0.617-0.039-0.959c-0.012-0.342-0.051-0.678-0.113-1.008c-0.051-0.328-0.114-0.643-0.189-0.939
		c-0.076-0.298-0.197-0.558-0.361-0.779c-0.165-0.222-0.381-0.398-0.646-0.532c-0.266-0.133-0.621-0.199-1.064-0.199h-4.407v5.795
		h-1.806V22.069H341.749z M342.128,28.225c0.38-0.063,0.712-0.187,0.997-0.37s0.514-0.431,0.685-0.741
		c0.171-0.31,0.257-0.712,0.257-1.206c0-0.685-0.19-1.242-0.57-1.672c-0.381-0.432-0.994-0.646-1.844-0.646h-4.483v4.73h3.762
		C341.349,28.319,341.749,28.288,342.128,28.225z"/>
	<path fill="#FFFFFF" d="M355.067,35.008c-0.734,0.558-1.659,0.836-2.773,0.836c-0.785,0-1.467-0.127-2.043-0.38
		c-0.576-0.254-1.061-0.607-1.453-1.064c-0.393-0.455-0.688-1-0.883-1.634c-0.197-0.634-0.308-1.323-0.333-2.071
		c0-0.746,0.114-1.431,0.342-2.052c0.228-0.62,0.548-1.159,0.96-1.614c0.411-0.457,0.898-0.811,1.463-1.064
		c0.563-0.254,1.181-0.38,1.852-0.38c0.875,0,1.6,0.181,2.176,0.542c0.576,0.36,1.039,0.819,1.387,1.377
		c0.35,0.557,0.59,1.166,0.723,1.824s0.188,1.285,0.162,1.881h-7.354c-0.013,0.431,0.038,0.839,0.152,1.225
		c0.113,0.387,0.297,0.729,0.551,1.027c0.253,0.297,0.576,0.535,0.969,0.712s0.855,0.267,1.387,0.267
		c0.685,0,1.244-0.159,1.682-0.476s0.725-0.798,0.865-1.444h1.596C356.277,33.62,355.801,34.45,355.067,35.008z M354.678,28.7
		c-0.146-0.342-0.342-0.637-0.59-0.884c-0.246-0.247-0.538-0.443-0.873-0.589c-0.336-0.146-0.707-0.219-1.111-0.219
		c-0.418,0-0.795,0.073-1.131,0.219s-0.624,0.346-0.865,0.598c-0.24,0.254-0.43,0.549-0.569,0.885
		c-0.14,0.335-0.222,0.693-0.247,1.072h5.643C354.909,29.403,354.823,29.042,354.678,28.7z"/>
	<path fill="#FFFFFF" d="M362.515,25.812v1.426h-1.957v6.099c0,0.19,0.016,0.342,0.048,0.456c0.031,0.113,0.092,0.203,0.18,0.266
		c0.089,0.063,0.213,0.104,0.371,0.123c0.158,0.02,0.363,0.029,0.617,0.029h0.741v1.425h-1.235c-0.418,0-0.775-0.028-1.073-0.085
		c-0.298-0.058-0.538-0.162-0.722-0.314c-0.184-0.151-0.32-0.367-0.408-0.646c-0.09-0.278-0.134-0.646-0.134-1.103v-6.25h-1.672
		v-1.426h1.672v-2.945h1.615v2.945H362.515z"/>
	<path fill="#FFFFFF" d="M371.844,35.844c-0.418,0-0.751-0.117-0.998-0.352c-0.246-0.234-0.37-0.617-0.37-1.149
		c-0.444,0.532-0.96,0.915-1.549,1.149s-1.226,0.352-1.909,0.352c-0.443,0-0.861-0.048-1.254-0.143s-0.738-0.253-1.035-0.476
		c-0.299-0.221-0.533-0.506-0.703-0.854c-0.172-0.349-0.257-0.77-0.257-1.263c0-0.559,0.095-1.014,0.285-1.369
		c0.19-0.354,0.44-0.643,0.751-0.863c0.31-0.223,0.664-0.391,1.063-0.504c0.399-0.114,0.808-0.209,1.226-0.285
		c0.443-0.088,0.864-0.155,1.264-0.199c0.398-0.045,0.75-0.107,1.055-0.19c0.303-0.082,0.544-0.202,0.721-0.36
		c0.178-0.158,0.267-0.391,0.267-0.694c0-0.354-0.066-0.64-0.199-0.854c-0.134-0.215-0.304-0.381-0.513-0.494
		c-0.209-0.114-0.443-0.189-0.703-0.229c-0.26-0.037-0.517-0.057-0.77-0.057c-0.685,0-1.254,0.13-1.711,0.39
		c-0.455,0.26-0.703,0.751-0.74,1.472h-1.615c0.025-0.607,0.152-1.12,0.38-1.539c0.228-0.418,0.532-0.756,0.912-1.016
		s0.817-0.447,1.312-0.561c0.494-0.114,1.013-0.171,1.558-0.171c0.443,0,0.884,0.032,1.32,0.095c0.437,0.063,0.833,0.193,1.188,0.39
		s0.64,0.472,0.854,0.826c0.216,0.354,0.324,0.817,0.324,1.388v5.054c0,0.38,0.021,0.659,0.066,0.836
		c0.044,0.177,0.192,0.267,0.445,0.267c0.141,0,0.305-0.032,0.494-0.096v1.254C372.724,35.761,372.338,35.844,371.844,35.844z
		 M369.583,30.894c-0.329,0.07-0.674,0.127-1.035,0.172s-0.725,0.095-1.092,0.152c-0.368,0.057-0.697,0.148-0.988,0.275
		c-0.292,0.127-0.529,0.307-0.713,0.541s-0.275,0.555-0.275,0.959c0,0.267,0.054,0.492,0.162,0.676
		c0.107,0.184,0.246,0.332,0.418,0.445c0.17,0.115,0.373,0.197,0.607,0.248s0.472,0.076,0.713,0.076
		c0.531,0,0.988-0.073,1.367-0.219c0.381-0.146,0.69-0.33,0.932-0.551c0.24-0.223,0.418-0.463,0.531-0.723
		c0.114-0.26,0.172-0.504,0.172-0.731v-1.653C370.178,30.714,369.913,30.825,369.583,30.894z"/>
	<path fill="#FFFFFF" d="M375.967,25.812v2.071h0.037c0.393-0.798,0.874-1.388,1.444-1.767c0.569-0.381,1.292-0.558,2.166-0.532
		v1.71c-0.646,0-1.197,0.088-1.653,0.266s-0.823,0.438-1.102,0.779c-0.279,0.342-0.482,0.757-0.608,1.244
		c-0.126,0.488-0.19,1.049-0.19,1.682v4.37h-1.614v-9.823H375.967z"/>
	<path fill="#FFFFFF" d="M387.652,35.635v-1.33h-0.038c-0.266,0.545-0.684,0.938-1.254,1.179c-0.57,0.24-1.197,0.36-1.881,0.36
		c-0.76,0-1.422-0.14-1.985-0.418s-1.032-0.652-1.406-1.121c-0.374-0.468-0.655-1.013-0.845-1.634
		c-0.191-0.621-0.285-1.279-0.285-1.977c0-0.695,0.092-1.355,0.275-1.976s0.462-1.162,0.836-1.624
		c0.373-0.463,0.842-0.83,1.406-1.103c0.562-0.272,1.219-0.408,1.966-0.408c0.253,0,0.525,0.025,0.817,0.075
		c0.291,0.051,0.582,0.137,0.873,0.258c0.292,0.119,0.567,0.277,0.827,0.475c0.259,0.196,0.478,0.439,0.655,0.73h0.038v-5.053h1.615
		v13.566H387.652z M381.848,32.148c0.119,0.437,0.303,0.826,0.551,1.169c0.246,0.342,0.562,0.613,0.949,0.816
		s0.84,0.305,1.359,0.305c0.544,0,1.006-0.108,1.387-0.324c0.38-0.215,0.689-0.496,0.931-0.846c0.241-0.348,0.415-0.743,0.522-1.188
		c0.107-0.442,0.162-0.893,0.162-1.348c0-0.482-0.058-0.947-0.172-1.396c-0.113-0.45-0.294-0.846-0.541-1.188
		c-0.247-0.343-0.567-0.618-0.959-0.827c-0.394-0.209-0.869-0.313-1.426-0.313c-0.545,0-1.007,0.107-1.387,0.322
		c-0.381,0.217-0.684,0.502-0.912,0.855c-0.229,0.355-0.393,0.76-0.494,1.217c-0.102,0.455-0.152,0.924-0.152,1.405
		C381.667,31.265,381.727,31.712,381.848,32.148z"/>
	<path fill="#FFFFFF" d="M399.298,35.844c-0.418,0-0.751-0.117-0.997-0.352c-0.247-0.234-0.371-0.617-0.371-1.149
		c-0.443,0.532-0.959,0.915-1.549,1.149c-0.588,0.234-1.225,0.352-1.908,0.352c-0.444,0-0.862-0.048-1.254-0.143
		c-0.394-0.095-0.738-0.253-1.036-0.476c-0.298-0.221-0.532-0.506-0.703-0.854s-0.257-0.77-0.257-1.263
		c0-0.559,0.096-1.014,0.285-1.369c0.19-0.354,0.44-0.643,0.751-0.863c0.31-0.223,0.665-0.391,1.063-0.504
		c0.399-0.114,0.808-0.209,1.226-0.285c0.443-0.088,0.864-0.155,1.264-0.199c0.399-0.045,0.751-0.107,1.055-0.19
		c0.304-0.082,0.544-0.202,0.722-0.36s0.266-0.391,0.266-0.694c0-0.354-0.066-0.64-0.199-0.854s-0.304-0.381-0.513-0.494
		c-0.209-0.114-0.443-0.189-0.703-0.229c-0.26-0.037-0.517-0.057-0.77-0.057c-0.685,0-1.254,0.13-1.71,0.39s-0.703,0.751-0.74,1.472
		h-1.615c0.025-0.607,0.151-1.12,0.379-1.539c0.229-0.418,0.533-0.756,0.912-1.016c0.381-0.26,0.817-0.447,1.312-0.561
		c0.494-0.114,1.013-0.171,1.558-0.171c0.443,0,0.884,0.032,1.32,0.095c0.438,0.063,0.834,0.193,1.188,0.39
		c0.355,0.196,0.641,0.472,0.855,0.826s0.323,0.817,0.323,1.388v5.054c0,0.38,0.022,0.659,0.066,0.836s0.192,0.267,0.446,0.267
		c0.14,0,0.305-0.032,0.494-0.096v1.254C400.178,35.761,399.792,35.844,399.298,35.844z M397.038,30.894
		c-0.33,0.07-0.674,0.127-1.035,0.172s-0.726,0.095-1.093,0.152c-0.368,0.057-0.696,0.148-0.988,0.275s-0.528,0.307-0.712,0.541
		s-0.275,0.555-0.275,0.959c0,0.267,0.053,0.492,0.161,0.676c0.107,0.184,0.247,0.332,0.418,0.445
		c0.171,0.115,0.374,0.197,0.608,0.248s0.471,0.076,0.712,0.076c0.532,0,0.988-0.073,1.368-0.219c0.38-0.146,0.689-0.33,0.931-0.551
		c0.241-0.223,0.419-0.463,0.532-0.723s0.171-0.504,0.171-0.731v-1.653C397.633,30.714,397.367,30.825,397.038,30.894z"/>
	<path fill="#FFFFFF" d="M403.478,25.812v1.559h0.038c0.672-1.191,1.735-1.786,3.191-1.786c0.646,0,1.186,0.089,1.615,0.266
		c0.431,0.178,0.779,0.425,1.045,0.741c0.267,0.316,0.453,0.693,0.561,1.131c0.107,0.437,0.162,0.921,0.162,1.453v6.46h-1.615
		v-6.649c0-0.608-0.178-1.09-0.531-1.445c-0.355-0.354-0.844-0.531-1.464-0.531c-0.493,0-0.921,0.076-1.282,0.229
		c-0.361,0.151-0.662,0.367-0.902,0.646c-0.241,0.278-0.422,0.604-0.541,0.979c-0.121,0.374-0.182,0.782-0.182,1.226v5.548h-1.615
		v-9.823H403.478z"/>
	<path fill="#FFFFFF" d="M416.721,25.812v1.426h-1.957v6.099c0,0.19,0.016,0.342,0.047,0.456c0.032,0.113,0.092,0.203,0.182,0.266
		c0.088,0.063,0.211,0.104,0.37,0.123c0.158,0.02,0.364,0.029,0.617,0.029h0.741v1.425h-1.234c-0.418,0-0.777-0.028-1.074-0.085
		c-0.298-0.058-0.539-0.162-0.723-0.314c-0.184-0.151-0.319-0.367-0.408-0.646c-0.088-0.278-0.133-0.646-0.133-1.103v-6.25h-1.672
		v-1.426h1.672v-2.945h1.615v2.945H416.721z"/>
	<path fill="#FFFFFF" d="M422.611,23.589v-1.52h10.849v1.52h-4.521v12.046h-1.805V23.589H422.611z"/>
	<path fill="#FFFFFF" d="M439.54,35.008c-0.734,0.558-1.659,0.836-2.773,0.836c-0.785,0-1.467-0.127-2.043-0.38
		c-0.576-0.254-1.061-0.607-1.453-1.064c-0.393-0.455-0.688-1-0.883-1.634c-0.197-0.634-0.308-1.323-0.333-2.071
		c0-0.746,0.114-1.431,0.342-2.052c0.228-0.62,0.548-1.159,0.96-1.614c0.411-0.457,0.898-0.811,1.463-1.064
		c0.563-0.254,1.181-0.38,1.852-0.38c0.875,0,1.6,0.181,2.176,0.542c0.576,0.36,1.039,0.819,1.387,1.377
		c0.35,0.557,0.59,1.166,0.723,1.824s0.188,1.285,0.162,1.881h-7.354c-0.013,0.431,0.038,0.839,0.152,1.225
		c0.113,0.387,0.297,0.729,0.551,1.027c0.253,0.297,0.576,0.535,0.969,0.712s0.855,0.267,1.387,0.267
		c0.685,0,1.244-0.159,1.682-0.476s0.725-0.798,0.865-1.444h1.596C440.75,33.62,440.274,34.45,439.54,35.008z M439.151,28.7
		c-0.146-0.342-0.342-0.637-0.59-0.884c-0.246-0.247-0.538-0.443-0.873-0.589c-0.336-0.146-0.707-0.219-1.111-0.219
		c-0.418,0-0.795,0.073-1.131,0.219s-0.624,0.346-0.865,0.598c-0.24,0.254-0.43,0.549-0.569,0.885
		c-0.14,0.335-0.222,0.693-0.247,1.072h5.643C439.381,29.403,439.295,29.042,439.151,28.7z"/>
	<path fill="#FFFFFF" d="M448.66,27.522c-0.405-0.343-0.95-0.514-1.634-0.514c-0.583,0-1.07,0.107-1.463,0.322
		c-0.393,0.217-0.707,0.502-0.941,0.855c-0.234,0.355-0.401,0.764-0.503,1.226c-0.102,0.463-0.151,0.94-0.151,1.435
		c0,0.456,0.053,0.899,0.161,1.33c0.107,0.431,0.275,0.814,0.503,1.149c0.229,0.336,0.525,0.604,0.894,0.808
		c0.367,0.203,0.804,0.305,1.312,0.305c0.797,0,1.421-0.209,1.871-0.628c0.449-0.418,0.725-1.007,0.826-1.767h1.652
		c-0.177,1.216-0.629,2.153-1.357,2.812c-0.729,0.658-1.72,0.987-2.974,0.987c-0.747,0-1.409-0.12-1.985-0.36
		c-0.577-0.241-1.059-0.583-1.444-1.027c-0.387-0.442-0.678-0.971-0.874-1.586c-0.197-0.614-0.295-1.289-0.295-2.023
		s0.096-1.422,0.285-2.062c0.19-0.64,0.479-1.196,0.865-1.672c0.386-0.476,0.87-0.849,1.453-1.121
		c0.582-0.272,1.26-0.408,2.033-0.408c0.557,0,1.08,0.066,1.567,0.199c0.487,0.134,0.918,0.339,1.292,0.618
		c0.373,0.278,0.681,0.63,0.922,1.054c0.24,0.425,0.393,0.929,0.455,1.511h-1.672C449.331,28.345,449.065,27.864,448.66,27.522z"/>
	<path fill="#FFFFFF" d="M454.606,22.069v5.187h0.039c0.126-0.304,0.303-0.561,0.531-0.77s0.484-0.38,0.77-0.513
		s0.582-0.231,0.893-0.295c0.311-0.062,0.611-0.095,0.902-0.095c0.646,0,1.186,0.089,1.615,0.266
		c0.431,0.178,0.779,0.425,1.045,0.741c0.267,0.316,0.453,0.693,0.561,1.131c0.107,0.437,0.162,0.921,0.162,1.453v6.46h-1.615
		v-6.649c0-0.608-0.178-1.09-0.531-1.445c-0.355-0.354-0.844-0.531-1.464-0.531c-0.493,0-0.921,0.076-1.282,0.229
		c-0.361,0.151-0.662,0.367-0.902,0.646c-0.241,0.278-0.422,0.604-0.541,0.979c-0.121,0.374-0.182,0.782-0.182,1.226v5.548h-1.615
		V22.069H454.606z"/>
	<path fill="#FFFFFF" d="M465.075,25.812v1.559h0.039c0.671-1.191,1.734-1.786,3.191-1.786c0.646,0,1.185,0.089,1.615,0.266
		c0.43,0.178,0.779,0.425,1.045,0.741s0.453,0.693,0.561,1.131c0.107,0.437,0.162,0.921,0.162,1.453v6.46h-1.615v-6.649
		c0-0.608-0.178-1.09-0.532-1.445c-0.354-0.354-0.843-0.531-1.464-0.531c-0.493,0-0.921,0.076-1.281,0.229
		c-0.361,0.151-0.662,0.367-0.902,0.646c-0.242,0.278-0.422,0.604-0.542,0.979s-0.181,0.782-0.181,1.226v5.548h-1.615v-9.823
		H465.075z"/>
	<path fill="#FFFFFF" d="M473.891,28.71c0.203-0.628,0.507-1.172,0.912-1.635s0.906-0.826,1.501-1.092
		c0.595-0.267,1.279-0.399,2.052-0.399c0.785,0,1.473,0.133,2.062,0.399c0.588,0.266,1.086,0.629,1.49,1.092
		c0.406,0.463,0.71,1.007,0.912,1.635c0.203,0.627,0.305,1.301,0.305,2.023c0,0.721-0.102,1.393-0.305,2.014
		c-0.202,0.621-0.506,1.162-0.912,1.624c-0.404,0.463-0.902,0.823-1.49,1.083c-0.59,0.26-1.277,0.39-2.062,0.39
		c-0.772,0-1.457-0.13-2.052-0.39s-1.096-0.62-1.501-1.083c-0.405-0.462-0.709-1.003-0.912-1.624s-0.304-1.293-0.304-2.014
		C473.587,30.011,473.688,29.337,473.891,28.71z M475.535,32.319c0.158,0.463,0.377,0.849,0.655,1.158
		c0.279,0.311,0.605,0.549,0.979,0.713c0.374,0.165,0.77,0.248,1.188,0.248s0.814-0.083,1.188-0.248
		c0.374-0.164,0.7-0.402,0.979-0.713c0.279-0.31,0.498-0.695,0.656-1.158s0.237-0.991,0.237-1.586c0-0.596-0.079-1.125-0.237-1.587
		s-0.377-0.853-0.656-1.169c-0.278-0.316-0.604-0.557-0.979-0.722c-0.373-0.165-0.77-0.247-1.188-0.247s-0.813,0.082-1.188,0.247
		c-0.373,0.165-0.699,0.405-0.979,0.722c-0.278,0.316-0.497,0.707-0.655,1.169s-0.237,0.991-0.237,1.587
		C475.297,31.328,475.376,31.856,475.535,32.319z"/>
	<path fill="#FFFFFF" d="M486.735,22.069v13.566h-1.615V22.069H486.735z"/>
	<path fill="#FFFFFF" d="M489.014,28.71c0.203-0.628,0.508-1.172,0.912-1.635c0.406-0.463,0.906-0.826,1.502-1.092
		c0.595-0.267,1.279-0.399,2.052-0.399c0.785,0,1.472,0.133,2.062,0.399c0.589,0.266,1.086,0.629,1.491,1.092
		s0.71,1.007,0.912,1.635c0.202,0.627,0.304,1.301,0.304,2.023c0,0.721-0.102,1.393-0.304,2.014s-0.507,1.162-0.912,1.624
		c-0.405,0.463-0.902,0.823-1.491,1.083c-0.59,0.26-1.276,0.39-2.062,0.39c-0.772,0-1.457-0.13-2.052-0.39
		c-0.596-0.26-1.096-0.62-1.502-1.083c-0.404-0.462-0.709-1.003-0.912-1.624c-0.202-0.621-0.303-1.293-0.303-2.014
		C488.711,30.011,488.812,29.337,489.014,28.71z M490.659,32.319c0.158,0.463,0.377,0.849,0.655,1.158
		c0.278,0.311,0.604,0.549,0.979,0.713c0.374,0.165,0.77,0.248,1.188,0.248s0.813-0.083,1.188-0.248
		c0.374-0.164,0.7-0.402,0.979-0.713c0.278-0.31,0.497-0.695,0.655-1.158s0.238-0.991,0.238-1.586c0-0.596-0.08-1.125-0.238-1.587
		s-0.377-0.853-0.655-1.169s-0.604-0.557-0.979-0.722s-0.77-0.247-1.188-0.247s-0.813,0.082-1.188,0.247s-0.7,0.405-0.979,0.722
		s-0.497,0.707-0.655,1.169s-0.238,0.991-0.238,1.587C490.42,31.328,490.5,31.856,490.659,32.319z"/>
	<path fill="#FFFFFF" d="M507.52,38.409c-0.734,0.797-1.887,1.197-3.457,1.197c-0.457,0-0.922-0.051-1.396-0.152
		c-0.476-0.102-0.906-0.266-1.293-0.494c-0.386-0.229-0.705-0.525-0.959-0.893c-0.254-0.368-0.393-0.817-0.418-1.35h1.615
		c0.012,0.291,0.104,0.538,0.275,0.741c0.171,0.202,0.38,0.367,0.627,0.493c0.247,0.127,0.516,0.219,0.808,0.275
		c0.291,0.058,0.569,0.086,0.836,0.086c0.532,0,0.981-0.092,1.349-0.275s0.672-0.438,0.912-0.76c0.24-0.323,0.415-0.713,0.522-1.168
		c0.108-0.457,0.161-0.957,0.161-1.502v-0.646h-0.037c-0.279,0.608-0.7,1.054-1.264,1.339c-0.564,0.285-1.162,0.428-1.795,0.428
		c-0.735,0-1.375-0.133-1.92-0.398s-1-0.624-1.367-1.074c-0.368-0.449-0.644-0.975-0.827-1.576s-0.275-1.238-0.275-1.91
		c0-0.582,0.075-1.181,0.228-1.795c0.152-0.615,0.406-1.172,0.76-1.672c0.355-0.5,0.824-0.912,1.406-1.235
		c0.583-0.323,1.299-0.484,2.147-0.484c0.62,0,1.19,0.136,1.71,0.408s0.924,0.681,1.216,1.226h0.019v-1.406h1.521v8.987
		C508.623,36.407,508.254,37.61,507.52,38.409z M505.459,33.991c0.373-0.221,0.674-0.514,0.902-0.874s0.396-0.77,0.504-1.226
		c0.107-0.456,0.161-0.912,0.161-1.367c0-0.432-0.051-0.855-0.152-1.273s-0.263-0.795-0.484-1.131s-0.511-0.604-0.864-0.807
		c-0.355-0.203-0.785-0.305-1.293-0.305c-0.52,0-0.962,0.098-1.329,0.295c-0.368,0.196-0.669,0.459-0.903,0.788
		s-0.404,0.71-0.512,1.14c-0.108,0.432-0.162,0.881-0.162,1.35c0,0.443,0.045,0.887,0.133,1.33s0.24,0.846,0.456,1.206
		s0.501,0.653,0.854,0.874c0.355,0.222,0.799,0.332,1.33,0.332C504.633,34.323,505.085,34.213,505.459,33.991z"/>
	<path fill="#FFFFFF" d="M514.351,38.143c-0.185,0.329-0.387,0.599-0.608,0.808s-0.465,0.361-0.731,0.456
		c-0.266,0.095-0.583,0.143-0.95,0.143c-0.189,0-0.38-0.013-0.57-0.038c-0.189-0.025-0.373-0.07-0.551-0.133v-1.482
		c0.152,0.051,0.308,0.102,0.466,0.152s0.319,0.076,0.484,0.076c0.329,0,0.596-0.076,0.798-0.229
		c0.203-0.152,0.381-0.373,0.532-0.664l0.665-1.654l-3.895-9.766h1.824l2.869,8.037h0.037l2.756-8.037h1.709l-4.274,11.115
		C514.721,37.408,514.534,37.813,514.351,38.143z"/>
</g>
<rect x="192.402" y="1.365" fill="#FFFFFF" width="1.255" height="39.727"/>
</svg>
