<?xml version="1.0" encoding="utf-8"?>
<!-- Generator: Adobe Illustrator 16.0.0, SVG Export Plug-In . SVG Version: 6.00 Build 0)  -->
<!DOCTYPE svg PUBLIC "-//W3C//DTD SVG 1.1//EN" "http://www.w3.org/Graphics/SVG/1.1/DTD/svg11.dtd">
<svg version="1.1" id="Layer_1" xmlns="http://www.w3.org/2000/svg" xmlns:xlink="http://www.w3.org/1999/xlink" x="0px" y="0px"
	 width="619.582px" height="43.855px" viewBox="0 0 619.582 43.855" enable-background="new 0 0 619.582 43.855"
	 xml:space="preserve">
<g>
	<path fill="#FFFFFF" d="M28.518,0l5.831,34.986h-7.644l-1.127-7.791H12.495l-4.41,7.791H0L20.629,0H28.518z M24.892,21.462
		L23.177,7.546h-0.098l-7.546,13.916H24.892z"/>
	<path fill="#FFFFFF" d="M45.08,9.653v3.234h0.098c0.849-1.372,1.927-2.368,3.234-2.989c1.306-0.62,2.744-0.931,4.312-0.931
		c1.992,0,3.708,0.375,5.145,1.127c1.438,0.751,2.629,1.747,3.577,2.988c0.947,1.242,1.649,2.688,2.106,4.337
		s0.687,3.373,0.687,5.169c0,1.699-0.229,3.332-0.687,4.9s-1.15,2.957-2.082,4.165c-0.931,1.209-2.091,2.173-3.479,2.891
		c-1.389,0.719-3.013,1.078-4.875,1.078c-1.568,0-3.013-0.318-4.336-0.955c-1.323-0.637-2.409-1.576-3.258-2.817h-0.098v12.005
		h-6.958V9.653H45.08z M54.12,29.743c0.768-0.457,1.388-1.054,1.862-1.788c0.473-0.735,0.809-1.593,1.004-2.572
		c0.196-0.98,0.294-1.977,0.294-2.989s-0.106-2.009-0.318-2.989c-0.213-0.979-0.563-1.854-1.054-2.621
		c-0.49-0.768-1.119-1.389-1.886-1.862c-0.768-0.474-1.708-0.711-2.817-0.711c-1.144,0-2.1,0.237-2.867,0.711
		c-0.768,0.474-1.389,1.086-1.862,1.838c-0.474,0.751-0.809,1.616-1.005,2.597c-0.196,0.979-0.294,1.993-0.294,3.038
		c0,1.013,0.106,2.009,0.319,2.989c0.212,0.979,0.555,1.837,1.029,2.572c0.473,0.734,1.103,1.331,1.886,1.788
		c0.784,0.458,1.731,0.687,2.842,0.687C52.397,30.43,53.353,30.201,54.12,29.743z"/>
	<path fill="#FFFFFF" d="M76.783,42.532c-1.34,0.882-3.201,1.323-5.586,1.323c-0.719,0-1.43-0.024-2.131-0.073
		c-0.703-0.05-1.414-0.106-2.133-0.172v-5.733c0.654,0.065,1.324,0.131,2.01,0.196s1.372,0.081,2.059,0.049
		c0.914-0.098,1.592-0.458,2.033-1.078c0.44-0.62,0.661-1.307,0.661-2.058c0-0.555-0.099-1.078-0.294-1.568L64.533,9.653h7.398
		l5.734,17.346h0.098L83.3,9.653h7.203L79.919,38.122C79.167,40.181,78.123,41.65,76.783,42.532z"/>
	<path fill="#FFFFFF" d="M98.882,9.653v4.704h0.098c0.326-0.784,0.767-1.511,1.322-2.181c0.556-0.669,1.192-1.241,1.911-1.715
		c0.718-0.474,1.486-0.841,2.304-1.103c0.815-0.261,1.666-0.392,2.547-0.392c0.457,0,0.964,0.081,1.52,0.244v6.469
		c-0.326-0.065-0.719-0.123-1.176-0.172c-0.458-0.049-0.898-0.073-1.323-0.073c-1.274,0-2.353,0.213-3.233,0.637
		c-0.883,0.425-1.593,1.005-2.132,1.739c-0.539,0.735-0.923,1.593-1.151,2.573c-0.229,0.979-0.344,2.041-0.344,3.185v11.417h-6.957
		V9.653H98.882z"/>
	<path fill="#FFFFFF" d="M127.938,34.986v-3.528h-0.147c-0.881,1.471-2.025,2.532-3.43,3.186s-2.842,0.979-4.312,0.979
		c-1.862,0-3.39-0.245-4.581-0.734c-1.193-0.49-2.133-1.184-2.818-2.083c-0.686-0.897-1.168-1.992-1.445-3.283
		c-0.277-1.29-0.416-2.719-0.416-4.287V9.653h6.957v14.308c0,2.092,0.326,3.651,0.98,4.68c0.653,1.029,1.812,1.544,3.479,1.544
		c1.895,0,3.267-0.563,4.117-1.69c0.849-1.127,1.273-2.98,1.273-5.562V9.653h6.958v25.333H127.938z"/>
	<path fill="#FFFFFF" d="M145.823,9.653v3.43h0.098c0.914-1.306,2.017-2.318,3.308-3.038c1.29-0.718,2.769-1.077,4.435-1.077
		c1.601,0,3.062,0.311,4.386,0.931c1.322,0.621,2.327,1.715,3.014,3.283c0.75-1.11,1.771-2.091,3.062-2.94
		c1.289-0.849,2.816-1.273,4.581-1.273c1.339,0,2.58,0.163,3.724,0.489c1.144,0.327,2.123,0.851,2.94,1.568
		c0.815,0.719,1.453,1.658,1.911,2.817c0.457,1.16,0.686,2.557,0.686,4.189v16.954h-6.957V20.629c0-0.849-0.033-1.648-0.099-2.4
		c-0.065-0.751-0.245-1.404-0.539-1.96s-0.728-0.996-1.298-1.323c-0.572-0.326-1.348-0.49-2.328-0.49s-1.772,0.188-2.377,0.563
		c-0.604,0.376-1.078,0.866-1.42,1.471c-0.344,0.604-0.572,1.29-0.687,2.058c-0.115,0.768-0.172,1.543-0.172,2.327v14.112h-6.958
		v-14.21c0-0.751-0.017-1.494-0.049-2.229c-0.033-0.735-0.172-1.413-0.416-2.033c-0.246-0.62-0.654-1.119-1.226-1.495
		c-0.571-0.375-1.413-0.563-2.523-0.563c-0.327,0-0.759,0.074-1.298,0.221c-0.539,0.147-1.062,0.425-1.568,0.833
		c-0.507,0.409-0.939,0.997-1.299,1.764c-0.359,0.769-0.539,1.772-0.539,3.014v14.7h-6.958V9.653H145.823z"/>
</g>
<g>
	<path fill="#FFFFFF" d="M197.58,22.98v-1.52h10.849v1.52h-4.522v12.047h-1.805V22.98H197.58z"/>
	<path fill="#FFFFFF" d="M211.278,21.461v5.188h0.038c0.127-0.305,0.304-0.561,0.531-0.77c0.229-0.209,0.485-0.381,0.77-0.514
		c0.285-0.133,0.583-0.23,0.894-0.295c0.31-0.062,0.61-0.094,0.902-0.094c0.646,0,1.185,0.088,1.615,0.266s0.778,0.424,1.045,0.74
		c0.267,0.317,0.452,0.693,0.561,1.131c0.107,0.438,0.161,0.922,0.161,1.453v6.461h-1.615v-6.65c0-0.607-0.177-1.09-0.531-1.444
		c-0.355-0.354-0.843-0.532-1.463-0.532c-0.494,0-0.922,0.076-1.283,0.229c-0.36,0.152-0.662,0.367-0.902,0.646
		c-0.24,0.278-0.421,0.604-0.541,0.979c-0.121,0.373-0.181,0.781-0.181,1.225v5.549h-1.615V21.461H211.278z"/>
	<path fill="#FFFFFF" d="M227.181,34.4c-0.735,0.557-1.66,0.836-2.774,0.836c-0.786,0-1.466-0.127-2.042-0.381
		c-0.577-0.253-1.062-0.607-1.454-1.063s-0.687-1.001-0.884-1.634c-0.196-0.634-0.307-1.324-0.332-2.071
		c0-0.747,0.113-1.431,0.342-2.052s0.548-1.159,0.959-1.615c0.412-0.456,0.9-0.811,1.464-1.064c0.563-0.253,1.181-0.379,1.853-0.379
		c0.873,0,1.599,0.18,2.176,0.541c0.576,0.361,1.038,0.82,1.387,1.377c0.348,0.558,0.589,1.166,0.722,1.824s0.187,1.285,0.161,1.881
		h-7.353c-0.013,0.432,0.038,0.84,0.151,1.226c0.115,0.387,0.298,0.729,0.552,1.026c0.253,0.297,0.576,0.535,0.969,0.713
		c0.393,0.177,0.854,0.266,1.388,0.266c0.684,0,1.244-0.158,1.681-0.475s0.726-0.799,0.864-1.445h1.597
		C228.39,33.013,227.916,33.843,227.181,34.4z M226.791,28.092c-0.145-0.342-0.342-0.637-0.588-0.883
		c-0.248-0.248-0.539-0.443-0.875-0.59c-0.335-0.145-0.705-0.219-1.111-0.219c-0.418,0-0.795,0.074-1.13,0.219
		c-0.336,0.146-0.624,0.346-0.864,0.599c-0.241,0.253-0.432,0.548-0.57,0.884c-0.14,0.336-0.222,0.693-0.247,1.073h5.644
		C227.022,28.795,226.937,28.434,226.791,28.092z"/>
	<path fill="#FFFFFF" d="M237.231,25.203v1.559h0.038c0.672-1.19,1.735-1.785,3.191-1.785c0.646,0,1.186,0.088,1.615,0.266
		c0.431,0.178,0.779,0.424,1.045,0.74c0.267,0.317,0.453,0.693,0.561,1.131s0.162,0.922,0.162,1.453v6.461h-1.615v-6.65
		c0-0.607-0.178-1.09-0.531-1.444c-0.355-0.354-0.844-0.532-1.464-0.532c-0.493,0-0.921,0.076-1.282,0.229s-0.662,0.367-0.902,0.646
		c-0.241,0.278-0.422,0.604-0.541,0.979c-0.121,0.373-0.182,0.781-0.182,1.225v5.549h-1.615v-9.824H237.231z"/>
	<path fill="#FFFFFF" d="M253.818,35.236c-0.418,0-0.75-0.117-0.996-0.352c-0.248-0.234-0.371-0.617-0.371-1.15
		c-0.443,0.533-0.959,0.916-1.549,1.15c-0.589,0.234-1.225,0.352-1.909,0.352c-0.444,0-0.862-0.048-1.254-0.143
		c-0.394-0.096-0.738-0.254-1.036-0.476c-0.297-0.222-0.531-0.507-0.703-0.854c-0.17-0.349-0.256-0.77-0.256-1.264
		c0-0.558,0.095-1.014,0.285-1.368c0.189-0.354,0.439-0.643,0.75-0.864s0.665-0.39,1.064-0.504c0.398-0.113,0.807-0.209,1.225-0.285
		c0.443-0.088,0.865-0.154,1.264-0.199c0.399-0.044,0.751-0.107,1.055-0.189c0.305-0.082,0.545-0.203,0.723-0.361
		c0.177-0.158,0.266-0.39,0.266-0.693c0-0.355-0.066-0.64-0.199-0.855c-0.133-0.215-0.305-0.38-0.514-0.494
		c-0.209-0.113-0.443-0.189-0.703-0.228s-0.516-0.058-0.77-0.058c-0.684,0-1.254,0.131-1.709,0.391
		c-0.457,0.26-0.703,0.75-0.741,1.472h-1.615c0.025-0.608,0.151-1.12,0.38-1.539c0.229-0.418,0.532-0.757,0.912-1.017
		s0.816-0.446,1.311-0.561c0.494-0.113,1.014-0.17,1.559-0.17c0.443,0,0.883,0.031,1.32,0.094c0.438,0.064,0.833,0.193,1.188,0.391
		c0.354,0.195,0.64,0.472,0.855,0.826c0.215,0.354,0.322,0.816,0.322,1.387v5.055c0,0.379,0.022,0.658,0.066,0.836
		c0.045,0.177,0.193,0.266,0.447,0.266c0.139,0,0.304-0.031,0.494-0.096v1.254C254.699,35.153,254.312,35.236,253.818,35.236z
		 M251.558,30.286c-0.33,0.069-0.675,0.127-1.036,0.171c-0.36,0.045-0.726,0.096-1.093,0.152s-0.696,0.148-0.988,0.275
		c-0.291,0.127-0.528,0.307-0.712,0.541s-0.275,0.555-0.275,0.96c0,0.267,0.054,0.491,0.161,0.675s0.248,0.332,0.418,0.446
		c0.172,0.114,0.374,0.196,0.608,0.247s0.472,0.076,0.712,0.076c0.533,0,0.988-0.072,1.369-0.219
		c0.379-0.146,0.689-0.329,0.93-0.551c0.241-0.222,0.419-0.463,0.533-0.723c0.113-0.259,0.17-0.503,0.17-0.73v-1.654
		C252.153,30.105,251.886,30.217,251.558,30.286z"/>
	<path fill="#FFFFFF" d="M260.677,25.203v1.426h-1.957v6.1c0,0.189,0.016,0.342,0.047,0.455c0.032,0.114,0.092,0.203,0.182,0.266
		c0.088,0.064,0.211,0.105,0.37,0.124c0.158,0.019,0.364,0.028,0.617,0.028h0.741v1.426h-1.234c-0.418,0-0.777-0.029-1.074-0.086
		c-0.298-0.057-0.539-0.162-0.723-0.313s-0.319-0.367-0.408-0.646c-0.088-0.279-0.133-0.646-0.133-1.103v-6.251h-1.672v-1.426h1.672
		v-2.944h1.615v2.944H260.677z"/>
	<path fill="#FFFFFF" d="M269.076,35.027v-1.559h-0.039c-0.342,0.607-0.778,1.055-1.311,1.34s-1.159,0.428-1.881,0.428
		c-0.646,0-1.185-0.086-1.615-0.257s-0.779-0.415-1.045-0.731s-0.453-0.693-0.561-1.131s-0.162-0.922-0.162-1.453v-6.461h1.615v6.65
		c0,0.608,0.178,1.09,0.532,1.444s0.843,0.532,1.464,0.532c0.493,0,0.921-0.076,1.281-0.229c0.361-0.152,0.662-0.367,0.903-0.646
		c0.24-0.278,0.421-0.604,0.542-0.979c0.119-0.374,0.18-0.782,0.18-1.226v-5.549h1.615v9.824H269.076z"/>
	<path fill="#FFFFFF" d="M274.49,25.203v2.072h0.038c0.393-0.799,0.874-1.388,1.444-1.768s1.292-0.557,2.166-0.531v1.709
		c-0.646,0-1.197,0.089-1.653,0.266c-0.456,0.178-0.823,0.438-1.103,0.779c-0.277,0.342-0.48,0.758-0.607,1.245
		s-0.189,1.048-0.189,1.681v4.371h-1.615v-9.824H274.49z"/>
	<path fill="#FFFFFF" d="M286.896,35.236c-0.418,0-0.75-0.117-0.996-0.352c-0.248-0.234-0.371-0.617-0.371-1.15
		c-0.443,0.533-0.959,0.916-1.549,1.15c-0.589,0.234-1.225,0.352-1.909,0.352c-0.444,0-0.862-0.048-1.254-0.143
		c-0.394-0.096-0.738-0.254-1.036-0.476c-0.297-0.222-0.531-0.507-0.703-0.854c-0.17-0.349-0.256-0.77-0.256-1.264
		c0-0.558,0.095-1.014,0.285-1.368c0.189-0.354,0.439-0.643,0.75-0.864s0.665-0.39,1.064-0.504c0.398-0.113,0.807-0.209,1.225-0.285
		c0.443-0.088,0.865-0.154,1.264-0.199c0.399-0.044,0.751-0.107,1.055-0.189c0.305-0.082,0.545-0.203,0.723-0.361
		c0.177-0.158,0.266-0.39,0.266-0.693c0-0.355-0.066-0.64-0.199-0.855c-0.133-0.215-0.305-0.38-0.514-0.494
		c-0.209-0.113-0.443-0.189-0.703-0.228s-0.516-0.058-0.77-0.058c-0.684,0-1.254,0.131-1.709,0.391
		c-0.457,0.26-0.703,0.75-0.741,1.472h-1.615c0.025-0.608,0.151-1.12,0.38-1.539c0.229-0.418,0.532-0.757,0.912-1.017
		s0.816-0.446,1.311-0.561c0.494-0.113,1.014-0.17,1.559-0.17c0.443,0,0.883,0.031,1.32,0.094c0.438,0.064,0.833,0.193,1.188,0.391
		c0.354,0.195,0.64,0.472,0.855,0.826c0.215,0.354,0.322,0.816,0.322,1.387v5.055c0,0.379,0.022,0.658,0.066,0.836
		c0.045,0.177,0.193,0.266,0.447,0.266c0.139,0,0.304-0.031,0.494-0.096v1.254C287.777,35.153,287.39,35.236,286.896,35.236z
		 M284.636,30.286c-0.33,0.069-0.675,0.127-1.036,0.171c-0.36,0.045-0.726,0.096-1.093,0.152s-0.696,0.148-0.988,0.275
		c-0.291,0.127-0.528,0.307-0.712,0.541s-0.275,0.555-0.275,0.96c0,0.267,0.054,0.491,0.161,0.675s0.248,0.332,0.418,0.446
		c0.172,0.114,0.374,0.196,0.608,0.247s0.472,0.076,0.712,0.076c0.533,0,0.988-0.072,1.369-0.219
		c0.379-0.146,0.689-0.329,0.93-0.551c0.241-0.222,0.419-0.463,0.533-0.723c0.113-0.259,0.17-0.503,0.17-0.73v-1.654
		C285.231,30.105,284.964,30.217,284.636,30.286z"/>
	<path fill="#FFFFFF" d="M291.266,21.461v13.566h-1.614V21.461H291.266z"/>
	<path fill="#FFFFFF" d="M307.074,35.027l-1.994-7.81h-0.038l-1.976,7.81h-1.748l-3.154-9.824h1.785l2.224,8.037h0.038l1.977-8.037
		h1.766l2.053,8.037h0.038l2.204-8.037h1.672l-3.135,9.824H307.074z"/>
	<path fill="#FFFFFF" d="M321.001,35.236c-0.418,0-0.751-0.117-0.998-0.352c-0.246-0.234-0.37-0.617-0.37-1.15
		c-0.444,0.533-0.96,0.916-1.549,1.15s-1.226,0.352-1.909,0.352c-0.443,0-0.861-0.048-1.254-0.143
		c-0.393-0.096-0.738-0.254-1.035-0.476c-0.299-0.222-0.533-0.507-0.703-0.854c-0.172-0.349-0.257-0.77-0.257-1.264
		c0-0.558,0.095-1.014,0.285-1.368s0.44-0.643,0.751-0.864c0.31-0.222,0.664-0.39,1.063-0.504c0.399-0.113,0.808-0.209,1.226-0.285
		c0.443-0.088,0.864-0.154,1.264-0.199c0.398-0.044,0.75-0.107,1.055-0.189c0.303-0.082,0.544-0.203,0.721-0.361
		c0.178-0.158,0.267-0.39,0.267-0.693c0-0.355-0.066-0.64-0.199-0.855c-0.134-0.215-0.304-0.38-0.513-0.494
		c-0.209-0.113-0.443-0.189-0.703-0.228s-0.517-0.058-0.77-0.058c-0.685,0-1.254,0.131-1.711,0.391
		c-0.455,0.26-0.703,0.75-0.74,1.472h-1.615c0.025-0.608,0.152-1.12,0.38-1.539c0.228-0.418,0.532-0.757,0.912-1.017
		s0.817-0.446,1.312-0.561c0.494-0.113,1.013-0.17,1.558-0.17c0.443,0,0.884,0.031,1.32,0.094c0.437,0.064,0.833,0.193,1.188,0.391
		c0.354,0.195,0.64,0.472,0.854,0.826c0.216,0.354,0.324,0.816,0.324,1.387v5.055c0,0.379,0.021,0.658,0.066,0.836
		c0.044,0.177,0.192,0.266,0.445,0.266c0.141,0,0.305-0.031,0.494-0.096v1.254C321.881,35.153,321.496,35.236,321.001,35.236z
		 M318.74,30.286c-0.329,0.069-0.674,0.127-1.035,0.171c-0.361,0.045-0.725,0.096-1.092,0.152c-0.368,0.057-0.697,0.148-0.988,0.275
		c-0.292,0.127-0.529,0.307-0.713,0.541s-0.275,0.555-0.275,0.96c0,0.267,0.054,0.491,0.162,0.675
		c0.107,0.184,0.246,0.332,0.418,0.446c0.17,0.114,0.373,0.196,0.607,0.247s0.472,0.076,0.713,0.076
		c0.531,0,0.988-0.072,1.367-0.219c0.381-0.146,0.69-0.329,0.932-0.551c0.24-0.222,0.418-0.463,0.531-0.723
		c0.114-0.259,0.172-0.503,0.172-0.73v-1.654C319.335,30.105,319.07,30.217,318.74,30.286z"/>
	<path fill="#FFFFFF" d="M326.958,37.535c-0.185,0.329-0.387,0.598-0.608,0.807s-0.465,0.361-0.731,0.457
		c-0.266,0.095-0.583,0.143-0.95,0.143c-0.189,0-0.38-0.014-0.57-0.039c-0.189-0.025-0.373-0.069-0.551-0.133v-1.481
		c0.152,0.05,0.308,0.101,0.466,0.151s0.319,0.076,0.484,0.076c0.329,0,0.596-0.076,0.798-0.228
		c0.203-0.152,0.381-0.374,0.532-0.665l0.665-1.653l-3.895-9.767h1.824l2.869,8.037h0.037l2.756-8.037h1.709l-4.274,11.115
		C327.328,36.801,327.14,37.205,326.958,37.535z"/>
	<path fill="#FFFFFF" d="M338.214,28.102c0.203-0.627,0.508-1.172,0.912-1.635c0.406-0.462,0.906-0.826,1.502-1.092
		c0.595-0.266,1.279-0.398,2.052-0.398c0.785,0,1.472,0.133,2.062,0.398c0.589,0.266,1.086,0.63,1.491,1.092
		c0.405,0.463,0.71,1.008,0.912,1.635s0.304,1.301,0.304,2.023c0,0.722-0.102,1.394-0.304,2.014
		c-0.202,0.621-0.507,1.162-0.912,1.625s-0.902,0.823-1.491,1.082c-0.59,0.26-1.276,0.391-2.062,0.391
		c-0.772,0-1.457-0.131-2.052-0.391c-0.596-0.259-1.096-0.619-1.502-1.082c-0.404-0.463-0.709-1.004-0.912-1.625
		c-0.202-0.62-0.303-1.292-0.303-2.014C337.912,29.402,338.012,28.729,338.214,28.102z M339.859,31.711
		c0.158,0.463,0.377,0.85,0.655,1.159c0.278,0.311,0.604,0.548,0.979,0.713s0.77,0.247,1.188,0.247s0.813-0.082,1.188-0.247
		s0.7-0.402,0.979-0.713c0.278-0.31,0.497-0.696,0.655-1.159c0.158-0.462,0.238-0.99,0.238-1.586s-0.08-1.124-0.238-1.586
		c-0.158-0.463-0.377-0.853-0.655-1.17c-0.278-0.316-0.604-0.557-0.979-0.721c-0.374-0.165-0.77-0.248-1.188-0.248
		s-0.813,0.083-1.188,0.248c-0.374,0.164-0.7,0.404-0.979,0.721c-0.278,0.317-0.497,0.707-0.655,1.17
		c-0.158,0.462-0.238,0.99-0.238,1.586S339.701,31.249,339.859,31.711z"/>
	<path fill="#FFFFFF" d="M348.361,26.629v-1.426h1.652V23.74c0-0.797,0.231-1.402,0.694-1.814c0.462-0.411,1.137-0.617,2.023-0.617
		c0.151,0,0.325,0.014,0.522,0.038c0.196,0.026,0.371,0.063,0.522,0.114v1.406c-0.14-0.051-0.292-0.086-0.456-0.105
		c-0.164-0.019-0.316-0.027-0.456-0.027c-0.393,0-0.696,0.076-0.912,0.228s-0.323,0.443-0.323,0.874v1.367h1.9v1.426h-1.9v8.398
		h-1.615v-8.398H348.361z"/>
	<path fill="#FFFFFF" d="M361.927,25.203v1.33h0.037c0.266-0.544,0.684-0.939,1.254-1.188c0.57-0.246,1.197-0.369,1.881-0.369
		c0.76,0,1.422,0.139,1.986,0.418c0.562,0.278,1.031,0.654,1.406,1.13c0.373,0.476,0.654,1.022,0.845,1.644s0.285,1.279,0.285,1.977
		c0,0.696-0.092,1.355-0.275,1.975c-0.185,0.621-0.463,1.163-0.836,1.625c-0.374,0.463-0.843,0.826-1.406,1.093
		s-1.22,0.399-1.966,0.399c-0.241,0-0.511-0.025-0.809-0.076c-0.297-0.051-0.592-0.133-0.883-0.247s-0.567-0.269-0.826-0.466
		c-0.26-0.196-0.479-0.439-0.656-0.731h-0.037v5.054h-1.615V25.203H361.927z M367.731,28.69c-0.12-0.437-0.304-0.827-0.551-1.169
		s-0.563-0.613-0.95-0.816s-0.84-0.305-1.358-0.305c-0.545,0-1.007,0.108-1.388,0.323c-0.379,0.216-0.689,0.497-0.93,0.846
		c-0.241,0.349-0.416,0.744-0.523,1.188s-0.161,0.894-0.161,1.349c0,0.482,0.058,0.947,0.171,1.396
		c0.114,0.45,0.295,0.846,0.541,1.188c0.248,0.342,0.567,0.617,0.96,0.826c0.393,0.21,0.868,0.314,1.425,0.314
		c0.558,0,1.023-0.107,1.396-0.323s0.675-0.5,0.902-0.854c0.229-0.355,0.393-0.76,0.494-1.217c0.102-0.455,0.152-0.924,0.152-1.406
		C367.912,29.574,367.851,29.127,367.731,28.69z"/>
	<path fill="#FFFFFF" d="M372.984,25.203v2.072h0.038c0.393-0.799,0.874-1.388,1.444-1.768s1.292-0.557,2.166-0.531v1.709
		c-0.646,0-1.197,0.089-1.653,0.266c-0.456,0.178-0.823,0.438-1.103,0.779c-0.277,0.342-0.48,0.758-0.607,1.245
		s-0.189,1.048-0.189,1.681v4.371h-1.615v-9.824H372.984z"/>
	<path fill="#FFFFFF" d="M384.46,34.4c-0.735,0.557-1.66,0.836-2.774,0.836c-0.786,0-1.466-0.127-2.042-0.381
		c-0.577-0.253-1.062-0.607-1.454-1.063s-0.687-1.001-0.884-1.634c-0.196-0.634-0.307-1.324-0.332-2.071
		c0-0.747,0.113-1.431,0.342-2.052s0.548-1.159,0.959-1.615c0.412-0.456,0.9-0.811,1.464-1.064c0.563-0.253,1.181-0.379,1.853-0.379
		c0.873,0,1.599,0.18,2.176,0.541c0.576,0.361,1.038,0.82,1.387,1.377c0.348,0.558,0.589,1.166,0.722,1.824s0.187,1.285,0.161,1.881
		h-7.353c-0.013,0.432,0.038,0.84,0.151,1.226c0.115,0.387,0.298,0.729,0.552,1.026c0.253,0.297,0.576,0.535,0.969,0.713
		c0.393,0.177,0.854,0.266,1.388,0.266c0.684,0,1.244-0.158,1.681-0.475s0.726-0.799,0.864-1.445h1.597
		C385.669,33.013,385.195,33.843,384.46,34.4z M384.07,28.092c-0.145-0.342-0.342-0.637-0.588-0.883
		c-0.248-0.248-0.539-0.443-0.875-0.59c-0.335-0.145-0.705-0.219-1.111-0.219c-0.418,0-0.795,0.074-1.13,0.219
		c-0.336,0.146-0.624,0.346-0.864,0.599c-0.241,0.253-0.432,0.548-0.57,0.884c-0.14,0.336-0.222,0.693-0.247,1.073h5.644
		C384.301,28.795,384.216,28.434,384.07,28.092z"/>
	<path fill="#FFFFFF" d="M390.408,35.027l-3.648-9.824h1.805l2.756,8.189h0.037l2.68-8.189h1.69l-3.591,9.824H390.408z"/>
	<path fill="#FFFFFF" d="M404.164,34.4c-0.735,0.557-1.66,0.836-2.774,0.836c-0.786,0-1.466-0.127-2.042-0.381
		c-0.577-0.253-1.062-0.607-1.454-1.063s-0.687-1.001-0.884-1.634c-0.196-0.634-0.307-1.324-0.332-2.071
		c0-0.747,0.113-1.431,0.342-2.052s0.548-1.159,0.959-1.615c0.412-0.456,0.9-0.811,1.464-1.064c0.563-0.253,1.181-0.379,1.853-0.379
		c0.873,0,1.599,0.18,2.176,0.541c0.576,0.361,1.038,0.82,1.387,1.377c0.348,0.558,0.589,1.166,0.722,1.824s0.187,1.285,0.161,1.881
		h-7.353c-0.013,0.432,0.038,0.84,0.151,1.226c0.115,0.387,0.298,0.729,0.552,1.026c0.253,0.297,0.576,0.535,0.969,0.713
		c0.393,0.177,0.854,0.266,1.388,0.266c0.684,0,1.244-0.158,1.681-0.475s0.726-0.799,0.864-1.445h1.597
		C405.373,33.013,404.898,33.843,404.164,34.4z M403.773,28.092c-0.145-0.342-0.342-0.637-0.588-0.883
		c-0.248-0.248-0.539-0.443-0.875-0.59c-0.335-0.145-0.705-0.219-1.111-0.219c-0.418,0-0.795,0.074-1.13,0.219
		c-0.336,0.146-0.624,0.346-0.864,0.599c-0.241,0.253-0.432,0.548-0.57,0.884c-0.14,0.336-0.222,0.693-0.247,1.073h5.644
		C404.004,28.795,403.919,28.434,403.773,28.092z"/>
	<path fill="#FFFFFF" d="M408.931,25.203v1.559h0.039c0.671-1.19,1.734-1.785,3.191-1.785c0.646,0,1.185,0.088,1.615,0.266
		c0.43,0.178,0.779,0.424,1.045,0.74c0.266,0.317,0.453,0.693,0.561,1.131s0.162,0.922,0.162,1.453v6.461h-1.615v-6.65
		c0-0.607-0.178-1.09-0.532-1.444s-0.843-0.532-1.464-0.532c-0.493,0-0.921,0.076-1.281,0.229c-0.361,0.152-0.662,0.367-0.902,0.646
		c-0.242,0.278-0.422,0.604-0.542,0.979c-0.12,0.373-0.181,0.781-0.181,1.225v5.549h-1.615v-9.824H408.931z"/>
	<path fill="#FFFFFF" d="M422.175,25.203v1.426h-1.957v6.1c0,0.189,0.016,0.342,0.047,0.455c0.031,0.114,0.092,0.203,0.181,0.266
		c0.089,0.064,0.212,0.105,0.37,0.124s0.364,0.028,0.617,0.028h0.742v1.426h-1.235c-0.418,0-0.776-0.029-1.073-0.086
		c-0.299-0.057-0.539-0.162-0.723-0.313s-0.32-0.367-0.408-0.646c-0.089-0.279-0.133-0.646-0.133-1.103v-6.251h-1.672v-1.426h1.672
		v-2.944h1.615v2.944H422.175z"/>
	<path fill="#FFFFFF" d="M424.056,23.438v-1.977h1.614v1.977H424.056z M425.67,25.203v9.824h-1.614v-9.824H425.67z"/>
	<path fill="#FFFFFF" d="M429.699,25.203v1.559h0.037c0.672-1.19,1.736-1.785,3.192-1.785c0.646,0,1.185,0.088,1.615,0.266
		s0.778,0.424,1.045,0.74c0.267,0.317,0.452,0.693,0.561,1.131c0.107,0.438,0.161,0.922,0.161,1.453v6.461h-1.615v-6.65
		c0-0.607-0.177-1.09-0.531-1.444c-0.355-0.354-0.843-0.532-1.463-0.532c-0.494,0-0.922,0.076-1.283,0.229
		c-0.36,0.152-0.662,0.367-0.902,0.646c-0.24,0.278-0.421,0.604-0.541,0.979c-0.121,0.373-0.181,0.781-0.181,1.225v5.549h-1.615
		v-9.824H429.699z"/>
	<path fill="#FFFFFF" d="M446.115,37.801c-0.735,0.798-1.888,1.197-3.459,1.197c-0.455,0-0.921-0.051-1.396-0.152
		c-0.475-0.102-0.905-0.266-1.291-0.494c-0.387-0.228-0.707-0.525-0.96-0.893s-0.393-0.816-0.418-1.35h1.615
		c0.013,0.291,0.104,0.539,0.275,0.742c0.171,0.201,0.38,0.367,0.627,0.493s0.517,0.219,0.808,0.275
		c0.291,0.058,0.57,0.086,0.836,0.086c0.531,0,0.981-0.093,1.35-0.276c0.367-0.184,0.67-0.437,0.911-0.76
		c0.241-0.322,0.415-0.712,0.522-1.168s0.162-0.957,0.162-1.501v-0.646h-0.039c-0.278,0.607-0.699,1.054-1.263,1.339
		s-1.163,0.428-1.796,0.428c-0.734,0-1.375-0.134-1.919-0.399s-1.001-0.623-1.368-1.073s-0.643-0.976-0.826-1.577
		s-0.275-1.238-0.275-1.909c0-0.583,0.076-1.181,0.229-1.796c0.151-0.614,0.404-1.172,0.76-1.672c0.354-0.5,0.822-0.912,1.406-1.234
		c0.582-0.324,1.298-0.484,2.146-0.484c0.621,0,1.19,0.136,1.71,0.408c0.519,0.271,0.925,0.681,1.216,1.225h0.02v-1.406h1.52v8.988
		C447.216,35.799,446.849,37.003,446.115,37.801z M444.052,33.383c0.374-0.221,0.676-0.513,0.903-0.873
		c0.228-0.361,0.396-0.77,0.503-1.227c0.107-0.455,0.162-0.911,0.162-1.367c0-0.431-0.051-0.855-0.152-1.273
		s-0.263-0.795-0.484-1.131c-0.222-0.335-0.51-0.604-0.865-0.807c-0.354-0.203-0.785-0.305-1.291-0.305
		c-0.52,0-0.963,0.099-1.33,0.295c-0.367,0.197-0.668,0.459-0.902,0.789c-0.234,0.329-0.406,0.709-0.514,1.14
		s-0.161,0.88-0.161,1.349c0,0.443,0.044,0.887,0.133,1.33s0.241,0.846,0.456,1.207c0.215,0.36,0.5,0.652,0.855,0.873
		c0.354,0.223,0.798,0.333,1.33,0.333C443.226,33.716,443.679,33.605,444.052,33.383z"/>
	<path fill="#FFFFFF" d="M453.942,26.629v-1.426h1.653V23.74c0-0.797,0.23-1.402,0.693-1.814c0.462-0.411,1.137-0.617,2.023-0.617
		c0.152,0,0.326,0.014,0.522,0.038c0.196,0.026,0.37,0.063,0.522,0.114v1.406c-0.14-0.051-0.291-0.086-0.456-0.105
		c-0.165-0.019-0.317-0.027-0.456-0.027c-0.393,0-0.697,0.076-0.912,0.228s-0.322,0.443-0.322,0.874v1.367h1.899v1.426h-1.899v8.398
		h-1.615v-8.398H453.942z M460.649,21.461h1.614v1.977h-1.614V21.461z M460.649,25.203h1.614v9.824h-1.614V25.203z"/>
	<path fill="#FFFFFF" d="M466.235,25.203v2.072h0.038c0.393-0.799,0.873-1.388,1.443-1.768s1.293-0.557,2.166-0.531v1.709
		c-0.646,0-1.197,0.089-1.652,0.266c-0.457,0.178-0.824,0.438-1.103,0.779s-0.481,0.758-0.608,1.245
		c-0.126,0.487-0.189,1.048-0.189,1.681v4.371h-1.615v-9.824H466.235z"/>
	<path fill="#FFFFFF" d="M477.71,34.4c-0.734,0.557-1.659,0.836-2.773,0.836c-0.785,0-1.467-0.127-2.043-0.381
		c-0.576-0.253-1.061-0.607-1.453-1.063s-0.688-1.001-0.883-1.634c-0.197-0.634-0.308-1.324-0.333-2.071
		c0-0.747,0.114-1.431,0.342-2.052s0.548-1.159,0.96-1.615c0.411-0.456,0.898-0.811,1.463-1.064
		c0.563-0.253,1.181-0.379,1.852-0.379c0.875,0,1.6,0.18,2.176,0.541s1.039,0.82,1.387,1.377c0.35,0.558,0.59,1.166,0.723,1.824
		s0.188,1.285,0.162,1.881h-7.354c-0.013,0.432,0.038,0.84,0.152,1.226c0.113,0.387,0.297,0.729,0.551,1.026
		c0.253,0.297,0.576,0.535,0.969,0.713c0.393,0.177,0.855,0.266,1.387,0.266c0.685,0,1.244-0.158,1.682-0.475
		s0.725-0.799,0.865-1.445h1.596C478.92,33.013,478.445,33.843,477.71,34.4z M477.322,28.092c-0.146-0.342-0.342-0.637-0.59-0.883
		c-0.246-0.248-0.538-0.443-0.873-0.59c-0.336-0.145-0.707-0.219-1.111-0.219c-0.418,0-0.795,0.074-1.131,0.219
		c-0.336,0.146-0.624,0.346-0.865,0.599c-0.24,0.253-0.43,0.548-0.569,0.884s-0.222,0.693-0.247,1.073h5.643
		C477.552,28.795,477.466,28.434,477.322,28.092z"/>
	<path fill="#FFFFFF" d="M493.785,35.236c-0.418,0-0.751-0.117-0.998-0.352c-0.246-0.234-0.37-0.617-0.37-1.15
		c-0.444,0.533-0.96,0.916-1.549,1.15s-1.226,0.352-1.909,0.352c-0.443,0-0.861-0.048-1.254-0.143
		c-0.393-0.096-0.738-0.254-1.035-0.476c-0.299-0.222-0.533-0.507-0.703-0.854c-0.172-0.349-0.257-0.77-0.257-1.264
		c0-0.558,0.095-1.014,0.285-1.368s0.44-0.643,0.751-0.864c0.31-0.222,0.664-0.39,1.063-0.504c0.399-0.113,0.808-0.209,1.226-0.285
		c0.443-0.088,0.864-0.154,1.264-0.199c0.398-0.044,0.75-0.107,1.055-0.189c0.303-0.082,0.544-0.203,0.721-0.361
		c0.178-0.158,0.267-0.39,0.267-0.693c0-0.355-0.066-0.64-0.199-0.855c-0.134-0.215-0.304-0.38-0.513-0.494
		c-0.209-0.113-0.443-0.189-0.703-0.228s-0.517-0.058-0.77-0.058c-0.685,0-1.254,0.131-1.711,0.391
		c-0.455,0.26-0.703,0.75-0.74,1.472h-1.615c0.025-0.608,0.152-1.12,0.38-1.539c0.228-0.418,0.532-0.757,0.912-1.017
		s0.817-0.446,1.312-0.561c0.494-0.113,1.013-0.17,1.558-0.17c0.443,0,0.884,0.031,1.32,0.094c0.437,0.064,0.833,0.193,1.188,0.391
		c0.354,0.195,0.64,0.472,0.854,0.826c0.216,0.354,0.324,0.816,0.324,1.387v5.055c0,0.379,0.021,0.658,0.066,0.836
		c0.044,0.177,0.192,0.266,0.445,0.266c0.141,0,0.305-0.031,0.494-0.096v1.254C494.665,35.153,494.279,35.236,493.785,35.236z
		 M491.523,30.286c-0.329,0.069-0.674,0.127-1.035,0.171c-0.361,0.045-0.725,0.096-1.092,0.152
		c-0.368,0.057-0.697,0.148-0.988,0.275c-0.292,0.127-0.529,0.307-0.713,0.541s-0.275,0.555-0.275,0.96
		c0,0.267,0.054,0.491,0.162,0.675c0.107,0.184,0.246,0.332,0.418,0.446c0.17,0.114,0.373,0.196,0.607,0.247
		s0.472,0.076,0.713,0.076c0.531,0,0.988-0.072,1.367-0.219c0.381-0.146,0.69-0.329,0.932-0.551c0.24-0.222,0.418-0.463,0.531-0.723
		c0.114-0.259,0.172-0.503,0.172-0.73v-1.654C492.119,30.105,491.853,30.217,491.523,30.286z"/>
	<path fill="#FFFFFF" d="M497.964,25.203v1.559h0.038c0.671-1.19,1.735-1.785,3.192-1.785c0.646,0,1.184,0.088,1.615,0.266
		c0.43,0.178,0.778,0.424,1.045,0.74c0.266,0.317,0.452,0.693,0.561,1.131c0.107,0.438,0.161,0.922,0.161,1.453v6.461h-1.615v-6.65
		c0-0.607-0.177-1.09-0.532-1.444c-0.354-0.354-0.842-0.532-1.463-0.532c-0.494,0-0.922,0.076-1.282,0.229s-0.662,0.367-0.902,0.646
		c-0.241,0.278-0.421,0.604-0.542,0.979c-0.12,0.373-0.18,0.781-0.18,1.225v5.549h-1.615v-9.824H497.964z"/>
	<path fill="#FFFFFF" d="M514.171,35.027v-1.33h-0.038c-0.266,0.545-0.684,0.938-1.254,1.178c-0.569,0.24-1.196,0.361-1.881,0.361
		c-0.761,0-1.422-0.141-1.985-0.418c-0.564-0.279-1.033-0.652-1.406-1.121s-0.655-1.014-0.846-1.635
		c-0.189-0.62-0.285-1.279-0.285-1.976s0.092-1.355,0.275-1.976c0.184-0.621,0.463-1.162,0.836-1.625
		c0.374-0.463,0.843-0.83,1.406-1.102c0.564-0.272,1.219-0.408,1.967-0.408c0.254,0,0.525,0.025,0.816,0.075
		c0.292,0.051,0.583,0.136,0.875,0.257c0.291,0.12,0.566,0.278,0.826,0.475c0.26,0.197,0.479,0.44,0.655,0.731h0.038v-5.054h1.615
		v13.566H514.171z M508.367,31.541c0.121,0.437,0.305,0.826,0.551,1.168c0.248,0.342,0.564,0.614,0.951,0.816
		c0.386,0.203,0.838,0.305,1.357,0.305c0.545,0,1.008-0.107,1.387-0.323c0.381-0.216,0.691-0.497,0.932-0.846
		s0.414-0.743,0.522-1.188c0.107-0.442,0.161-0.893,0.161-1.349c0-0.481-0.057-0.947-0.17-1.396
		c-0.115-0.449-0.295-0.846-0.542-1.188s-0.567-0.617-0.96-0.826s-0.867-0.314-1.425-0.314c-0.544,0-1.007,0.108-1.387,0.323
		c-0.38,0.216-0.685,0.501-0.912,0.854c-0.228,0.355-0.393,0.761-0.494,1.217s-0.151,0.925-0.151,1.406
		C508.187,30.656,508.247,31.104,508.367,31.541z"/>
	<path fill="#FFFFFF" d="M524.792,32.832c0.152,0.248,0.352,0.443,0.598,0.59c0.248,0.145,0.526,0.25,0.837,0.312
		c0.31,0.064,0.63,0.096,0.96,0.096c0.252,0,0.519-0.02,0.797-0.057c0.279-0.039,0.535-0.107,0.77-0.209s0.428-0.25,0.58-0.447
		c0.152-0.196,0.229-0.446,0.229-0.75c0-0.418-0.159-0.734-0.476-0.95c-0.317-0.216-0.712-0.39-1.188-0.522
		s-0.991-0.254-1.549-0.361s-1.073-0.26-1.548-0.456c-0.476-0.196-0.871-0.472-1.188-0.826c-0.317-0.354-0.476-0.849-0.476-1.481
		c0-0.494,0.11-0.919,0.333-1.273c0.221-0.354,0.506-0.643,0.854-0.865c0.349-0.221,0.741-0.386,1.179-0.494
		c0.437-0.107,0.87-0.16,1.301-0.16c0.558,0,1.07,0.047,1.539,0.142s0.884,0.26,1.244,0.494c0.361,0.234,0.649,0.552,0.865,0.95
		c0.215,0.398,0.342,0.896,0.38,1.491h-1.615c-0.025-0.316-0.108-0.579-0.247-0.788s-0.316-0.377-0.531-0.504
		c-0.217-0.127-0.453-0.219-0.713-0.275s-0.523-0.086-0.789-0.086c-0.24,0-0.484,0.02-0.73,0.058
		c-0.248,0.038-0.473,0.104-0.676,0.199c-0.202,0.095-0.367,0.222-0.493,0.38c-0.127,0.158-0.19,0.365-0.19,0.617
		c0,0.279,0.098,0.511,0.295,0.693c0.195,0.185,0.446,0.336,0.75,0.457c0.305,0.12,0.646,0.221,1.026,0.304s0.76,0.168,1.14,0.257
		c0.405,0.088,0.801,0.196,1.188,0.322c0.387,0.127,0.729,0.295,1.026,0.504s0.538,0.473,0.722,0.789s0.275,0.709,0.275,1.178
		c0,0.596-0.123,1.09-0.37,1.481c-0.247,0.394-0.57,0.71-0.97,0.95c-0.398,0.24-0.848,0.408-1.348,0.504
		c-0.501,0.095-0.998,0.143-1.492,0.143c-0.545,0-1.064-0.058-1.559-0.172c-0.493-0.113-0.93-0.301-1.311-0.561
		c-0.38-0.259-0.684-0.602-0.912-1.025c-0.228-0.424-0.354-0.94-0.38-1.549h1.615C524.558,32.285,524.64,32.586,524.792,32.832z"/>
	<path fill="#FFFFFF" d="M540.599,35.236c-0.418,0-0.75-0.117-0.996-0.352c-0.248-0.234-0.371-0.617-0.371-1.15
		c-0.443,0.533-0.959,0.916-1.549,1.15c-0.588,0.234-1.225,0.352-1.908,0.352c-0.444,0-0.862-0.048-1.254-0.143
		c-0.394-0.096-0.738-0.254-1.036-0.476s-0.532-0.507-0.703-0.854c-0.171-0.349-0.257-0.77-0.257-1.264
		c0-0.558,0.096-1.014,0.285-1.368c0.19-0.354,0.44-0.643,0.751-0.864c0.31-0.222,0.665-0.39,1.063-0.504
		c0.399-0.113,0.808-0.209,1.226-0.285c0.443-0.088,0.864-0.154,1.264-0.199c0.399-0.044,0.751-0.107,1.055-0.189
		s0.544-0.203,0.722-0.361s0.266-0.39,0.266-0.693c0-0.355-0.066-0.64-0.199-0.855c-0.133-0.215-0.305-0.38-0.514-0.494
		c-0.208-0.113-0.442-0.189-0.702-0.228s-0.517-0.058-0.77-0.058c-0.685,0-1.254,0.131-1.71,0.391s-0.703,0.75-0.74,1.472h-1.615
		c0.025-0.608,0.151-1.12,0.379-1.539c0.229-0.418,0.533-0.757,0.912-1.017c0.381-0.26,0.817-0.446,1.312-0.561
		c0.494-0.113,1.013-0.17,1.558-0.17c0.443,0,0.884,0.031,1.32,0.094c0.438,0.064,0.832,0.193,1.188,0.391
		c0.355,0.195,0.639,0.472,0.855,0.826c0.215,0.354,0.322,0.816,0.322,1.387v5.055c0,0.379,0.021,0.658,0.066,0.836
		c0.045,0.177,0.193,0.266,0.447,0.266c0.139,0,0.303-0.031,0.494-0.096v1.254C541.48,35.153,541.093,35.236,540.599,35.236z
		 M538.339,30.286c-0.33,0.069-0.674,0.127-1.035,0.171c-0.361,0.045-0.726,0.096-1.093,0.152c-0.368,0.057-0.696,0.148-0.988,0.275
		s-0.528,0.307-0.712,0.541s-0.275,0.555-0.275,0.96c0,0.267,0.053,0.491,0.161,0.675c0.107,0.184,0.247,0.332,0.418,0.446
		s0.374,0.196,0.608,0.247s0.471,0.076,0.712,0.076c0.532,0,0.988-0.072,1.368-0.219c0.38-0.146,0.689-0.329,0.93-0.551
		c0.242-0.222,0.418-0.463,0.533-0.723c0.113-0.259,0.17-0.503,0.17-0.73v-1.654C538.933,30.105,538.667,30.217,538.339,30.286z"/>
	<path fill="#FFFFFF" d="M545.958,35.027l-3.648-9.824h1.805l2.756,8.189h0.037l2.68-8.189h1.691l-3.592,9.824H545.958z"/>
	<path fill="#FFFFFF" d="M552.855,23.438v-1.977h1.615v1.977H552.855z M554.47,25.203v9.824h-1.615v-9.824H554.47z"/>
	<path fill="#FFFFFF" d="M558.498,25.203v1.559h0.039c0.67-1.19,1.734-1.785,3.191-1.785c0.646,0,1.184,0.088,1.615,0.266
		c0.43,0.178,0.779,0.424,1.045,0.74c0.266,0.317,0.453,0.693,0.561,1.131s0.16,0.922,0.16,1.453v6.461h-1.613v-6.65
		c0-0.607-0.178-1.09-0.533-1.444c-0.354-0.354-0.842-0.532-1.463-0.532c-0.494,0-0.922,0.076-1.283,0.229
		c-0.359,0.152-0.66,0.367-0.902,0.646c-0.24,0.278-0.42,0.604-0.541,0.979c-0.121,0.373-0.18,0.781-0.18,1.225v5.549h-1.615v-9.824
		H558.498z"/>
	<path fill="#FFFFFF" d="M574.914,37.801c-0.734,0.798-1.889,1.197-3.459,1.197c-0.455,0-0.92-0.051-1.396-0.152
		c-0.475-0.102-0.904-0.266-1.291-0.494c-0.387-0.228-0.707-0.525-0.959-0.893c-0.254-0.367-0.395-0.816-0.418-1.35h1.613
		c0.014,0.291,0.105,0.539,0.275,0.742c0.172,0.201,0.381,0.367,0.627,0.493c0.248,0.126,0.518,0.219,0.809,0.275
		c0.291,0.058,0.57,0.086,0.836,0.086c0.531,0,0.98-0.093,1.35-0.276c0.367-0.184,0.67-0.437,0.912-0.76
		c0.24-0.322,0.414-0.712,0.521-1.168s0.162-0.957,0.162-1.501v-0.646h-0.039c-0.277,0.607-0.699,1.054-1.264,1.339
		c-0.562,0.285-1.162,0.428-1.795,0.428c-0.734,0-1.375-0.134-1.918-0.399c-0.545-0.266-1.002-0.623-1.369-1.073
		s-0.643-0.976-0.826-1.577s-0.275-1.238-0.275-1.909c0-0.583,0.076-1.181,0.229-1.796c0.152-0.614,0.404-1.172,0.76-1.672
		c0.354-0.5,0.822-0.912,1.406-1.234c0.582-0.324,1.297-0.484,2.146-0.484c0.621,0,1.189,0.136,1.709,0.408
		c0.52,0.271,0.926,0.681,1.217,1.225h0.02v-1.406h1.52v8.988C576.015,35.799,575.648,37.003,574.914,37.801z M572.851,33.383
		c0.375-0.221,0.676-0.513,0.902-0.873c0.229-0.361,0.396-0.77,0.504-1.227c0.107-0.455,0.162-0.911,0.162-1.367
		c0-0.431-0.051-0.855-0.152-1.273s-0.264-0.795-0.484-1.131c-0.223-0.335-0.51-0.604-0.865-0.807
		c-0.354-0.203-0.785-0.305-1.291-0.305c-0.52,0-0.963,0.099-1.33,0.295c-0.367,0.197-0.668,0.459-0.902,0.789
		c-0.234,0.329-0.406,0.709-0.514,1.14s-0.162,0.88-0.162,1.349c0,0.443,0.045,0.887,0.135,1.33c0.088,0.443,0.24,0.846,0.455,1.207
		c0.215,0.36,0.5,0.652,0.855,0.873c0.354,0.223,0.797,0.333,1.33,0.333C572.025,33.716,572.478,33.605,572.851,33.383z"/>
	<path fill="#FFFFFF" d="M585.439,21.461v13.566h-1.615V21.461H585.439z"/>
	<path fill="#FFFFFF" d="M588.042,23.438v-1.977h1.615v1.977H588.042z M589.658,25.203v9.824h-1.615v-9.824H589.658z"/>
	<path fill="#FFFFFF" d="M594.863,35.027l-3.648-9.824h1.807l2.754,8.189h0.039l2.678-8.189h1.691l-3.592,9.824H594.863z"/>
	<path fill="#FFFFFF" d="M608.619,34.4c-0.734,0.557-1.658,0.836-2.773,0.836c-0.785,0-1.467-0.127-2.043-0.381
		c-0.576-0.253-1.061-0.607-1.453-1.063s-0.688-1.001-0.883-1.634c-0.197-0.634-0.309-1.324-0.334-2.071
		c0-0.747,0.115-1.431,0.344-2.052c0.227-0.621,0.547-1.159,0.959-1.615c0.41-0.456,0.898-0.811,1.463-1.064
		c0.562-0.253,1.182-0.379,1.852-0.379c0.875,0,1.6,0.18,2.176,0.541s1.039,0.82,1.387,1.377c0.35,0.558,0.59,1.166,0.723,1.824
		s0.188,1.285,0.162,1.881h-7.354c-0.014,0.432,0.037,0.84,0.152,1.226c0.113,0.387,0.297,0.729,0.551,1.026
		c0.254,0.297,0.576,0.535,0.969,0.713c0.393,0.177,0.855,0.266,1.387,0.266c0.684,0,1.244-0.158,1.682-0.475
		s0.725-0.799,0.865-1.445h1.596C609.83,33.013,609.353,33.843,608.619,34.4z M608.23,28.092c-0.146-0.342-0.342-0.637-0.59-0.883
		c-0.246-0.248-0.537-0.443-0.873-0.59c-0.336-0.145-0.707-0.219-1.111-0.219c-0.418,0-0.795,0.074-1.131,0.219
		c-0.336,0.146-0.625,0.346-0.865,0.599s-0.43,0.548-0.57,0.884c-0.139,0.336-0.221,0.693-0.246,1.073h5.643
		C608.46,28.795,608.375,28.434,608.23,28.092z"/>
	<path fill="#FFFFFF" d="M613.103,32.832c0.15,0.248,0.352,0.443,0.598,0.59c0.248,0.145,0.525,0.25,0.836,0.312
		c0.311,0.064,0.631,0.096,0.959,0.096c0.254,0,0.52-0.02,0.799-0.057c0.279-0.039,0.535-0.107,0.77-0.209s0.428-0.25,0.58-0.447
		c0.15-0.196,0.227-0.446,0.227-0.75c0-0.418-0.158-0.734-0.475-0.95s-0.713-0.39-1.188-0.522s-0.99-0.254-1.549-0.361
		c-0.557-0.107-1.072-0.26-1.547-0.456c-0.477-0.196-0.871-0.472-1.188-0.826c-0.318-0.354-0.477-0.849-0.477-1.481
		c0-0.494,0.111-0.919,0.334-1.273c0.221-0.354,0.506-0.643,0.854-0.865c0.35-0.221,0.742-0.386,1.178-0.494
		c0.438-0.107,0.871-0.16,1.303-0.16c0.557,0,1.07,0.047,1.539,0.142s0.883,0.26,1.244,0.494s0.648,0.552,0.865,0.95
		c0.215,0.398,0.342,0.896,0.379,1.491h-1.615c-0.025-0.316-0.107-0.579-0.246-0.788c-0.141-0.209-0.316-0.377-0.533-0.504
		c-0.215-0.127-0.453-0.219-0.711-0.275c-0.26-0.057-0.523-0.086-0.789-0.086c-0.24,0-0.484,0.02-0.732,0.058
		c-0.246,0.038-0.471,0.104-0.674,0.199s-0.367,0.222-0.494,0.38s-0.189,0.365-0.189,0.617c0,0.279,0.098,0.511,0.295,0.693
		c0.195,0.185,0.445,0.336,0.75,0.457c0.305,0.12,0.646,0.221,1.025,0.304c0.381,0.083,0.76,0.168,1.141,0.257
		c0.404,0.088,0.801,0.196,1.188,0.322c0.387,0.127,0.729,0.295,1.025,0.504s0.539,0.473,0.723,0.789s0.275,0.709,0.275,1.178
		c0,0.596-0.123,1.09-0.371,1.481c-0.246,0.394-0.57,0.71-0.969,0.95s-0.848,0.408-1.35,0.504c-0.5,0.095-0.996,0.143-1.49,0.143
		c-0.545,0-1.064-0.058-1.559-0.172c-0.494-0.113-0.932-0.301-1.311-0.561c-0.381-0.259-0.684-0.602-0.912-1.025
		s-0.355-0.94-0.381-1.549h1.615C612.869,32.285,612.951,32.586,613.103,32.832z"/>
</g>
<rect x="189.002" y="0.758" fill="#FFFFFF" width="1.255" height="39.727"/>
</svg>
