<?xml version="1.0" encoding="utf-8"?>
<!-- Generator: Adobe Illustrator 16.0.0, SVG Export Plug-In . SVG Version: 6.00 Build 0)  -->
<!DOCTYPE svg PUBLIC "-//W3C//DTD SVG 1.1//EN" "http://www.w3.org/Graphics/SVG/1.1/DTD/svg11.dtd">
<svg version="1.1" id="Layer_1" xmlns="http://www.w3.org/2000/svg" xmlns:xlink="http://www.w3.org/1999/xlink" x="0px" y="0px"
	 width="503.16px" height="42.504px" viewBox="0 0 503.16 42.504" enable-background="new 0 0 503.16 42.504" xml:space="preserve">
<g>
	<g>
		<path fill="#FFFFFF" d="M26.478,1.786l5.414,32.483h-7.098l-1.046-7.233H11.601L7.506,34.27H0L19.153,1.786H26.478z
			 M23.111,21.713l-1.592-12.92h-0.091l-7.006,12.92H23.111z"/>
		<path fill="#FFFFFF" d="M41.855,10.749v3.003h0.091c0.789-1.274,1.79-2.199,3.003-2.775c1.212-0.576,2.547-0.864,4.003-0.864
			c1.85,0,3.442,0.349,4.777,1.046c1.334,0.698,2.441,1.623,3.321,2.775c0.879,1.153,1.531,2.495,1.956,4.026
			c0.424,1.532,0.637,3.132,0.637,4.799c0,1.578-0.213,3.094-0.637,4.55c-0.425,1.456-1.069,2.745-1.934,3.867
			c-0.864,1.122-1.941,2.018-3.23,2.685c-1.29,0.666-2.798,1-4.527,1c-1.456,0-2.798-0.295-4.026-0.887
			c-1.228-0.592-2.237-1.463-3.025-2.615h-0.091v11.146h-6.46V10.749H41.855z M50.249,29.401c0.712-0.424,1.289-0.979,1.729-1.66
			c0.439-0.683,0.75-1.479,0.933-2.389s0.273-1.835,0.273-2.775c0-0.939-0.099-1.865-0.296-2.775
			c-0.197-0.91-0.523-1.721-0.978-2.434c-0.455-0.712-1.039-1.289-1.751-1.729c-0.713-0.439-1.585-0.66-2.616-0.66
			c-1.062,0-1.949,0.221-2.662,0.66c-0.713,0.44-1.29,1.009-1.729,1.706c-0.44,0.698-0.75,1.501-0.933,2.412
			c-0.182,0.91-0.273,1.85-0.273,2.82c0,0.94,0.098,1.865,0.296,2.775c0.197,0.91,0.515,1.706,0.955,2.389
			c0.439,0.682,1.024,1.236,1.752,1.66c0.728,0.426,1.607,0.637,2.639,0.637C48.649,30.038,49.536,29.827,50.249,29.401z"/>
		<path fill="#FFFFFF" d="M71.291,41.276c-1.244,0.818-2.973,1.228-5.187,1.228c-0.667,0-1.327-0.022-1.979-0.067
			c-0.653-0.046-1.312-0.1-1.979-0.16v-5.322c0.606,0.061,1.228,0.121,1.865,0.182c0.637,0.061,1.274,0.075,1.911,0.045
			c0.849-0.09,1.479-0.424,1.888-1c0.409-0.576,0.614-1.214,0.614-1.911c0-0.515-0.091-1.001-0.273-1.456l-8.235-22.065h6.87
			l5.323,16.106H72.2l5.141-16.106h6.688l-9.827,26.432C73.504,39.092,72.534,40.457,71.291,41.276z"/>
		<path fill="#FFFFFF" d="M91.808,10.749v4.368h0.091c0.303-0.728,0.712-1.402,1.229-2.024c0.515-0.622,1.107-1.152,1.774-1.592
			c0.667-0.439,1.379-0.781,2.138-1.024c0.758-0.242,1.547-0.364,2.366-0.364c0.424,0,0.894,0.076,1.41,0.228v6.005
			c-0.303-0.061-0.667-0.114-1.092-0.16c-0.425-0.045-0.834-0.068-1.229-0.068c-1.183,0-2.184,0.197-3.002,0.591
			c-0.819,0.395-1.479,0.933-1.979,1.615c-0.5,0.682-0.857,1.479-1.069,2.388c-0.212,0.91-0.318,1.896-0.318,2.957V34.27h-6.46
			V10.749H91.808z"/>
		<path fill="#FFFFFF" d="M118.787,34.27v-3.276h-0.136c-0.819,1.365-1.881,2.352-3.185,2.958s-2.639,0.909-4.003,0.909
			c-1.729,0-3.147-0.227-4.254-0.682c-1.107-0.455-1.979-1.1-2.616-1.934s-1.085-1.85-1.342-3.049
			c-0.258-1.197-0.387-2.524-0.387-3.98V10.749h6.46v13.285c0,1.941,0.303,3.39,0.91,4.345c0.606,0.955,1.683,1.434,3.23,1.434
			c1.759,0,3.032-0.523,3.821-1.57c0.789-1.047,1.183-2.768,1.183-5.164V10.749h6.46V34.27H118.787z"/>
		<path fill="#FFFFFF" d="M135.392,10.749v3.185h0.091c0.849-1.212,1.872-2.153,3.071-2.82c1.198-0.667,2.57-1.001,4.117-1.001
			c1.486,0,2.843,0.289,4.072,0.864c1.229,0.577,2.161,1.592,2.798,3.048c0.698-1.031,1.645-1.941,2.844-2.73
			c1.198-0.788,2.616-1.183,4.253-1.183c1.244,0,2.396,0.152,3.458,0.455c1.061,0.303,1.971,0.789,2.729,1.456
			c0.758,0.667,1.349,1.54,1.774,2.616c0.424,1.077,0.637,2.374,0.637,3.89V34.27h-6.46v-13.33c0-0.788-0.031-1.531-0.091-2.229
			c-0.061-0.698-0.228-1.304-0.5-1.82c-0.273-0.516-0.675-0.925-1.206-1.229c-0.531-0.303-1.251-0.455-2.161-0.455
			c-0.91,0-1.646,0.175-2.207,0.523c-0.562,0.349-1.001,0.804-1.319,1.365c-0.319,0.562-0.531,1.198-0.637,1.911
			c-0.106,0.713-0.159,1.433-0.159,2.161V34.27h-6.46V21.076c0-0.698-0.016-1.388-0.045-2.07c-0.03-0.682-0.159-1.312-0.387-1.888
			s-0.607-1.039-1.137-1.388c-0.531-0.349-1.312-0.523-2.343-0.523c-0.303,0-0.705,0.068-1.206,0.205
			c-0.5,0.136-0.986,0.394-1.456,0.773c-0.471,0.38-0.873,0.926-1.206,1.638c-0.334,0.713-0.5,1.646-0.5,2.798V34.27h-6.46V10.749
			H135.392z"/>
	</g>
	<g>
		<g>
			<path fill="#FFFFFF" d="M190.919,20.703v12.046h7.182v1.52h-8.987V20.703H190.919z"/>
			<path fill="#FFFFFF" d="M206.366,33.642c-0.735,0.559-1.66,0.836-2.774,0.836c-0.786,0-1.466-0.127-2.042-0.379
				c-0.577-0.254-1.061-0.608-1.454-1.064s-0.687-1-0.883-1.635c-0.197-0.633-0.307-1.322-0.333-2.07
				c0-0.747,0.114-1.432,0.342-2.053c0.228-0.619,0.548-1.158,0.959-1.614s0.899-0.811,1.463-1.063
				c0.563-0.254,1.181-0.381,1.852-0.381c0.874,0,1.599,0.181,2.176,0.542c0.576,0.36,1.039,0.819,1.387,1.378
				c0.349,0.557,0.589,1.165,0.722,1.823c0.133,0.659,0.187,1.286,0.162,1.882h-7.353c-0.013,0.43,0.038,0.838,0.152,1.225
				c0.114,0.387,0.297,0.729,0.551,1.026c0.253,0.298,0.576,0.535,0.969,0.712c0.393,0.178,0.855,0.267,1.387,0.267
				c0.684,0,1.244-0.159,1.681-0.476s0.725-0.798,0.865-1.443h1.596C207.576,32.255,207.101,33.085,206.366,33.642z M205.977,27.334
				c-0.146-0.342-0.342-0.636-0.589-0.884c-0.247-0.246-0.539-0.443-0.874-0.589s-0.706-0.218-1.111-0.218
				c-0.418,0-0.795,0.072-1.13,0.218c-0.336,0.146-0.624,0.346-0.865,0.599c-0.241,0.254-0.431,0.549-0.57,0.884
				c-0.14,0.335-0.222,0.693-0.247,1.073h5.643C206.208,28.037,206.122,27.677,205.977,27.334z"/>
			<path fill="#FFFFFF" d="M217.158,34.478c-0.418,0-0.75-0.117-0.997-0.352c-0.247-0.234-0.371-0.617-0.371-1.148
				c-0.444,0.531-0.959,0.914-1.549,1.148c-0.589,0.234-1.225,0.352-1.909,0.352c-0.444,0-0.862-0.047-1.254-0.143
				c-0.393-0.094-0.738-0.252-1.036-0.475c-0.298-0.221-0.532-0.506-0.703-0.855c-0.171-0.348-0.256-0.77-0.256-1.263
				c0-0.558,0.095-1.013,0.285-1.368c0.19-0.354,0.44-0.643,0.75-0.864c0.31-0.222,0.665-0.39,1.064-0.504
				c0.399-0.114,0.807-0.209,1.225-0.284c0.443-0.089,0.865-0.156,1.264-0.2s0.75-0.107,1.055-0.19
				c0.304-0.082,0.544-0.202,0.722-0.36s0.266-0.39,0.266-0.694c0-0.354-0.066-0.639-0.199-0.854
				c-0.133-0.215-0.304-0.38-0.513-0.493c-0.209-0.115-0.443-0.19-0.703-0.229s-0.516-0.057-0.77-0.057
				c-0.684,0-1.254,0.129-1.71,0.389s-0.703,0.751-0.741,1.473h-1.615c0.025-0.607,0.152-1.121,0.38-1.539s0.532-0.756,0.912-1.016
				s0.817-0.447,1.311-0.561c0.494-0.115,1.013-0.172,1.558-0.172c0.443,0,0.883,0.032,1.32,0.096
				c0.437,0.062,0.833,0.193,1.188,0.389c0.354,0.197,0.64,0.473,0.855,0.826c0.215,0.355,0.323,0.818,0.323,1.388v5.054
				c0,0.381,0.022,0.659,0.066,0.836c0.044,0.178,0.193,0.267,0.446,0.267c0.14,0,0.304-0.032,0.494-0.095v1.254
				C218.038,34.396,217.652,34.478,217.158,34.478z M214.897,29.528c-0.33,0.07-0.674,0.127-1.036,0.172
				c-0.361,0.044-0.725,0.094-1.092,0.151c-0.368,0.058-0.697,0.149-0.988,0.275c-0.292,0.127-0.529,0.308-0.712,0.542
				s-0.275,0.554-0.275,0.959c0,0.266,0.054,0.491,0.162,0.675c0.107,0.184,0.247,0.333,0.418,0.446
				c0.171,0.114,0.374,0.197,0.608,0.247c0.234,0.051,0.472,0.076,0.712,0.076c0.532,0,0.988-0.073,1.368-0.219
				s0.69-0.329,0.931-0.551s0.418-0.462,0.532-0.722s0.171-0.504,0.171-0.732v-1.652C215.492,29.349,215.226,29.459,214.897,29.528z
				"/>
			<path fill="#FFFFFF" d="M226.98,34.269v-1.33h-0.038c-0.266,0.545-0.684,0.938-1.254,1.179c-0.57,0.24-1.197,0.36-1.881,0.36
				c-0.76,0-1.422-0.139-1.985-0.418c-0.564-0.277-1.033-0.652-1.406-1.121c-0.374-0.468-0.655-1.013-0.845-1.633
				c-0.19-0.621-0.285-1.279-0.285-1.977c0-0.696,0.092-1.355,0.275-1.977c0.184-0.62,0.462-1.162,0.836-1.624
				s0.842-0.829,1.406-1.103c0.563-0.271,1.219-0.408,1.966-0.408c0.253,0,0.525,0.025,0.817,0.076s0.583,0.137,0.874,0.257
				s0.567,0.278,0.827,0.475c0.259,0.196,0.478,0.44,0.655,0.731h0.038v-5.054h1.615v13.565H226.98z M221.176,30.782
				c0.12,0.438,0.304,0.826,0.551,1.169c0.247,0.342,0.563,0.614,0.95,0.817c0.386,0.202,0.839,0.304,1.358,0.304
				c0.544,0,1.007-0.108,1.387-0.323c0.38-0.215,0.69-0.497,0.931-0.846c0.241-0.348,0.415-0.744,0.522-1.188
				c0.107-0.443,0.162-0.893,0.162-1.349c0-0.481-0.057-0.946-0.171-1.396c-0.114-0.45-0.294-0.846-0.542-1.188
				c-0.247-0.343-0.567-0.618-0.959-0.827c-0.393-0.209-0.868-0.312-1.425-0.312c-0.544,0-1.007,0.107-1.387,0.322
				c-0.38,0.216-0.684,0.501-0.912,0.855s-0.393,0.76-0.494,1.216s-0.152,0.925-0.152,1.405
				C220.996,29.899,221.056,30.346,221.176,30.782z"/>
			<path fill="#FFFFFF" d="M231.179,22.679v-1.976h1.615v1.976H231.179z M232.794,24.446v9.822h-1.615v-9.822H232.794z"/>
			<path fill="#FFFFFF" d="M236.822,24.446v1.558h0.038c0.671-1.19,1.735-1.786,3.192-1.786c0.646,0,1.185,0.089,1.615,0.266
				c0.43,0.178,0.779,0.426,1.045,0.742s0.453,0.693,0.561,1.13c0.107,0.437,0.162,0.921,0.162,1.454v6.459h-1.615v-6.649
				c0-0.608-0.177-1.089-0.532-1.444c-0.355-0.354-0.843-0.531-1.463-0.531c-0.494,0-0.921,0.076-1.282,0.228
				s-0.662,0.368-0.902,0.646c-0.241,0.279-0.421,0.605-0.542,0.979c-0.121,0.374-0.181,0.783-0.181,1.227v5.547h-1.615v-9.822
				H236.822z"/>
			<path fill="#FFFFFF" d="M253.238,37.043c-0.734,0.798-1.887,1.197-3.458,1.197c-0.456,0-0.921-0.051-1.396-0.152
				s-0.906-0.266-1.292-0.493c-0.386-0.229-0.706-0.526-0.959-0.894c-0.253-0.368-0.393-0.817-0.418-1.349h1.615
				c0.012,0.291,0.104,0.537,0.275,0.74s0.38,0.367,0.627,0.494s0.516,0.219,0.808,0.275c0.291,0.057,0.57,0.086,0.836,0.086
				c0.532,0,0.981-0.092,1.349-0.275c0.367-0.184,0.671-0.438,0.912-0.76c0.24-0.324,0.414-0.713,0.521-1.169
				c0.108-0.456,0.162-0.956,0.162-1.501v-0.646h-0.038c-0.278,0.608-0.7,1.055-1.263,1.34c-0.564,0.285-1.163,0.428-1.796,0.428
				c-0.735,0-1.375-0.133-1.919-0.399c-0.544-0.266-1-0.624-1.368-1.073c-0.368-0.449-0.643-0.975-0.827-1.577
				c-0.184-0.602-0.275-1.237-0.275-1.909c0-0.582,0.076-1.182,0.228-1.796c0.152-0.614,0.405-1.171,0.76-1.672
				c0.354-0.5,0.823-0.912,1.406-1.235c0.583-0.322,1.298-0.484,2.147-0.484c0.621,0,1.19,0.137,1.71,0.408
				c0.519,0.273,0.924,0.682,1.215,1.227h0.02v-1.406h1.52v8.986C254.339,35.042,253.972,36.245,253.238,37.043z M251.176,32.626
				c0.374-0.222,0.675-0.514,0.903-0.875c0.228-0.36,0.395-0.77,0.503-1.225c0.107-0.457,0.161-0.912,0.161-1.368
				c0-0.431-0.051-0.854-0.152-1.272s-0.262-0.795-0.484-1.131c-0.221-0.336-0.51-0.605-0.864-0.808s-0.785-0.304-1.292-0.304
				c-0.52,0-0.962,0.098-1.33,0.294c-0.368,0.196-0.668,0.46-0.903,0.788c-0.234,0.33-0.405,0.71-0.513,1.141
				c-0.108,0.431-0.162,0.881-0.162,1.349c0,0.444,0.044,0.888,0.133,1.33c0.088,0.444,0.241,0.846,0.456,1.206
				c0.215,0.361,0.5,0.653,0.855,0.875c0.354,0.221,0.798,0.332,1.33,0.332C250.35,32.958,250.803,32.847,251.176,32.626z"/>
			<path fill="#FFFFFF" d="M271.231,20.703v1.521h-7.106v4.312h6.232v1.52h-6.232v6.213h-1.805V20.703H271.231z"/>
			<path fill="#FFFFFF" d="M274.669,20.703v13.565h-1.615V20.703H274.669z"/>
			<path fill="#FFFFFF" d="M284.72,34.478c-0.418,0-0.75-0.117-0.997-0.352s-0.37-0.617-0.37-1.148
				c-0.444,0.531-0.96,0.914-1.549,1.148c-0.59,0.234-1.226,0.352-1.91,0.352c-0.443,0-0.861-0.047-1.254-0.143
				c-0.393-0.094-0.738-0.252-1.035-0.475c-0.298-0.221-0.532-0.506-0.703-0.855c-0.171-0.348-0.256-0.77-0.256-1.263
				c0-0.558,0.094-1.013,0.285-1.368c0.189-0.354,0.439-0.643,0.75-0.864s0.664-0.39,1.064-0.504
				c0.398-0.114,0.807-0.209,1.225-0.284c0.443-0.089,0.865-0.156,1.264-0.2s0.75-0.107,1.055-0.19
				c0.304-0.082,0.545-0.202,0.722-0.36s0.267-0.39,0.267-0.694c0-0.354-0.066-0.639-0.199-0.854
				c-0.134-0.215-0.305-0.38-0.514-0.493c-0.209-0.115-0.443-0.19-0.703-0.229s-0.516-0.057-0.77-0.057
				c-0.684,0-1.254,0.129-1.71,0.389s-0.703,0.751-0.741,1.473h-1.615c0.025-0.607,0.152-1.121,0.381-1.539
				c0.228-0.418,0.531-0.756,0.912-1.016c0.379-0.26,0.816-0.447,1.311-0.561c0.494-0.115,1.014-0.172,1.559-0.172
				c0.443,0,0.883,0.032,1.32,0.096c0.437,0.062,0.832,0.193,1.188,0.389c0.354,0.197,0.639,0.473,0.854,0.826
				c0.216,0.355,0.323,0.818,0.323,1.388v5.054c0,0.381,0.021,0.659,0.066,0.836c0.045,0.178,0.193,0.267,0.446,0.267
				c0.14,0,0.304-0.032,0.494-0.095v1.254C285.601,34.396,285.214,34.478,284.72,34.478z M282.459,29.528
				c-0.329,0.07-0.675,0.127-1.036,0.172c-0.36,0.044-0.725,0.094-1.092,0.151s-0.697,0.149-0.988,0.275
				c-0.291,0.127-0.529,0.308-0.713,0.542s-0.275,0.554-0.275,0.959c0,0.266,0.055,0.491,0.162,0.675s0.247,0.333,0.418,0.446
				c0.171,0.114,0.373,0.197,0.607,0.247c0.234,0.051,0.473,0.076,0.713,0.076c0.532,0,0.988-0.073,1.368-0.219
				s0.69-0.329,0.931-0.551s0.418-0.462,0.532-0.722s0.171-0.504,0.171-0.732v-1.652C283.054,29.349,282.789,29.459,282.459,29.528z
				"/>
			<path fill="#FFFFFF" d="M288.9,24.446v1.443h0.038c0.734-1.114,1.792-1.672,3.173-1.672c0.608,0,1.159,0.127,1.653,0.381
				c0.494,0.253,0.843,0.684,1.045,1.291c0.329-0.531,0.763-0.943,1.302-1.234c0.538-0.291,1.131-0.438,1.776-0.438
				c0.493,0,0.94,0.055,1.339,0.162c0.399,0.107,0.742,0.275,1.026,0.503c0.285,0.228,0.507,0.522,0.665,0.884
				s0.238,0.795,0.238,1.301v7.201h-1.615v-6.44c0-0.304-0.025-0.589-0.076-0.854c-0.051-0.267-0.146-0.498-0.285-0.693
				c-0.14-0.197-0.332-0.352-0.58-0.467c-0.246-0.113-0.566-0.17-0.959-0.17c-0.798,0-1.426,0.228-1.881,0.684
				c-0.456,0.456-0.684,1.064-0.684,1.824v6.117h-1.615v-6.44c0-0.316-0.029-0.608-0.086-0.874s-0.155-0.497-0.295-0.693
				c-0.139-0.196-0.326-0.349-0.561-0.456s-0.535-0.161-0.902-0.161c-0.469,0-0.871,0.095-1.206,0.285
				c-0.336,0.189-0.608,0.418-0.817,0.684s-0.361,0.541-0.455,0.826c-0.096,0.285-0.143,0.522-0.143,0.713v6.117h-1.615v-9.822
				H288.9z"/>
			<path fill="#FFFFFF" d="M310.541,33.642c-0.734,0.559-1.659,0.836-2.773,0.836c-0.785,0-1.467-0.127-2.043-0.379
				c-0.576-0.254-1.061-0.608-1.453-1.064s-0.688-1-0.883-1.635c-0.197-0.633-0.308-1.322-0.333-2.07
				c0-0.747,0.114-1.432,0.342-2.053c0.228-0.619,0.548-1.158,0.96-1.614c0.411-0.456,0.898-0.811,1.463-1.063
				c0.563-0.254,1.181-0.381,1.852-0.381c0.875,0,1.6,0.181,2.176,0.542c0.576,0.36,1.039,0.819,1.387,1.378
				c0.35,0.557,0.59,1.165,0.723,1.823c0.133,0.659,0.188,1.286,0.162,1.882h-7.354c-0.013,0.43,0.038,0.838,0.152,1.225
				c0.113,0.387,0.297,0.729,0.551,1.026c0.253,0.298,0.576,0.535,0.969,0.712c0.393,0.178,0.855,0.267,1.387,0.267
				c0.685,0,1.244-0.159,1.682-0.476s0.725-0.798,0.865-1.443h1.596C311.75,32.255,311.275,33.085,310.541,33.642z M310.152,27.334
				c-0.146-0.342-0.342-0.636-0.59-0.884c-0.246-0.246-0.538-0.443-0.873-0.589c-0.336-0.146-0.707-0.218-1.111-0.218
				c-0.418,0-0.795,0.072-1.131,0.218s-0.624,0.346-0.865,0.599c-0.24,0.254-0.43,0.549-0.569,0.884s-0.222,0.693-0.247,1.073h5.643
				C310.382,28.037,310.296,27.677,310.152,27.334z"/>
			<path fill="#FFFFFF" d="M325.722,20.703c1.292,0,2.302,0.317,3.03,0.95c0.728,0.633,1.093,1.5,1.093,2.603
				c0,0.823-0.188,1.546-0.561,2.166c-0.374,0.621-0.973,1.046-1.796,1.272v0.039c0.393,0.076,0.713,0.203,0.96,0.38
				c0.246,0.177,0.443,0.39,0.589,0.636c0.146,0.248,0.253,0.523,0.323,0.827c0.068,0.304,0.123,0.62,0.161,0.95
				c0.025,0.329,0.044,0.664,0.058,1.007c0.012,0.342,0.043,0.678,0.094,1.007c0.051,0.33,0.124,0.643,0.219,0.94
				c0.096,0.298,0.238,0.561,0.428,0.788h-2.014c-0.127-0.139-0.213-0.328-0.257-0.569s-0.073-0.51-0.085-0.808
				c-0.014-0.297-0.025-0.617-0.039-0.959c-0.012-0.343-0.051-0.678-0.113-1.008c-0.051-0.329-0.114-0.643-0.189-0.94
				c-0.076-0.298-0.197-0.558-0.361-0.778c-0.165-0.223-0.381-0.399-0.646-0.533c-0.266-0.133-0.621-0.199-1.064-0.199h-4.407v5.795
				h-1.806V20.703H325.722z M326.102,26.858c0.38-0.062,0.712-0.186,0.997-0.369s0.514-0.432,0.685-0.742
				c0.171-0.31,0.257-0.712,0.257-1.206c0-0.685-0.19-1.241-0.57-1.672c-0.381-0.431-0.994-0.646-1.844-0.646h-4.483v4.73h3.762
				C325.323,26.954,325.722,26.923,326.102,26.858z"/>
			<path fill="#FFFFFF" d="M339.041,33.642c-0.734,0.559-1.659,0.836-2.773,0.836c-0.785,0-1.467-0.127-2.043-0.379
				c-0.576-0.254-1.061-0.608-1.453-1.064s-0.688-1-0.883-1.635c-0.197-0.633-0.308-1.322-0.333-2.07
				c0-0.747,0.114-1.432,0.342-2.053c0.228-0.619,0.548-1.158,0.96-1.614c0.411-0.456,0.898-0.811,1.463-1.063
				c0.563-0.254,1.181-0.381,1.852-0.381c0.875,0,1.6,0.181,2.176,0.542c0.576,0.36,1.039,0.819,1.387,1.378
				c0.35,0.557,0.59,1.165,0.723,1.823c0.133,0.659,0.188,1.286,0.162,1.882h-7.354c-0.013,0.43,0.038,0.838,0.152,1.225
				c0.113,0.387,0.297,0.729,0.551,1.026c0.253,0.298,0.576,0.535,0.969,0.712c0.393,0.178,0.855,0.267,1.387,0.267
				c0.685,0,1.244-0.159,1.682-0.476s0.725-0.798,0.865-1.443h1.596C340.25,32.255,339.775,33.085,339.041,33.642z M338.652,27.334
				c-0.146-0.342-0.342-0.636-0.59-0.884c-0.246-0.246-0.538-0.443-0.873-0.589c-0.336-0.146-0.707-0.218-1.111-0.218
				c-0.418,0-0.795,0.072-1.131,0.218s-0.624,0.346-0.865,0.599c-0.24,0.254-0.43,0.549-0.569,0.884s-0.222,0.693-0.247,1.073h5.643
				C338.882,28.037,338.796,27.677,338.652,27.334z"/>
			<path fill="#FFFFFF" d="M346.489,24.446v1.425h-1.957v6.099c0,0.19,0.016,0.342,0.048,0.457c0.031,0.113,0.092,0.202,0.18,0.266
				c0.089,0.062,0.213,0.104,0.371,0.123s0.363,0.029,0.617,0.029h0.741v1.424h-1.235c-0.418,0-0.775-0.027-1.073-0.085
				s-0.538-0.161-0.722-0.313s-0.32-0.367-0.408-0.646c-0.09-0.277-0.134-0.646-0.134-1.102v-6.251h-1.672v-1.425h1.672v-2.945
				h1.615v2.945H346.489z"/>
			<path fill="#FFFFFF" d="M355.818,34.478c-0.418,0-0.751-0.117-0.998-0.352c-0.246-0.234-0.37-0.617-0.37-1.148
				c-0.444,0.531-0.96,0.914-1.549,1.148s-1.226,0.352-1.909,0.352c-0.443,0-0.861-0.047-1.254-0.143
				c-0.393-0.094-0.738-0.252-1.035-0.475c-0.299-0.221-0.533-0.506-0.703-0.855c-0.172-0.348-0.257-0.77-0.257-1.263
				c0-0.558,0.095-1.013,0.285-1.368c0.19-0.354,0.44-0.643,0.751-0.864c0.31-0.222,0.664-0.39,1.063-0.504s0.808-0.209,1.226-0.284
				c0.443-0.089,0.864-0.156,1.264-0.2c0.398-0.044,0.75-0.107,1.055-0.19c0.303-0.082,0.544-0.202,0.721-0.36
				c0.178-0.158,0.267-0.39,0.267-0.694c0-0.354-0.066-0.639-0.199-0.854c-0.134-0.215-0.304-0.38-0.513-0.493
				c-0.209-0.115-0.443-0.19-0.703-0.229s-0.517-0.057-0.77-0.057c-0.685,0-1.254,0.129-1.711,0.389
				c-0.455,0.26-0.703,0.751-0.74,1.473h-1.615c0.025-0.607,0.152-1.121,0.38-1.539s0.532-0.756,0.912-1.016
				s0.817-0.447,1.312-0.561c0.494-0.115,1.013-0.172,1.558-0.172c0.443,0,0.884,0.032,1.32,0.096
				c0.437,0.062,0.833,0.193,1.188,0.389c0.354,0.197,0.64,0.473,0.854,0.826c0.216,0.355,0.324,0.818,0.324,1.388v5.054
				c0,0.381,0.021,0.659,0.066,0.836c0.044,0.178,0.192,0.267,0.445,0.267c0.141,0,0.305-0.032,0.494-0.095v1.254
				C356.698,34.396,356.312,34.478,355.818,34.478z M353.556,29.528c-0.329,0.07-0.674,0.127-1.035,0.172
				c-0.361,0.044-0.725,0.094-1.092,0.151c-0.368,0.058-0.697,0.149-0.988,0.275c-0.292,0.127-0.529,0.308-0.713,0.542
				s-0.275,0.554-0.275,0.959c0,0.266,0.054,0.491,0.162,0.675c0.107,0.184,0.246,0.333,0.418,0.446
				c0.17,0.114,0.373,0.197,0.607,0.247c0.234,0.051,0.472,0.076,0.713,0.076c0.531,0,0.988-0.073,1.367-0.219
				c0.381-0.146,0.69-0.329,0.932-0.551c0.24-0.222,0.418-0.462,0.531-0.722c0.114-0.26,0.172-0.504,0.172-0.732v-1.652
				C354.152,29.349,353.886,29.459,353.556,29.528z"/>
			<path fill="#FFFFFF" d="M359.941,24.446v2.07h0.037c0.393-0.797,0.874-1.387,1.444-1.767c0.569-0.38,1.292-0.558,2.166-0.532
				v1.711c-0.646,0-1.197,0.088-1.653,0.266s-0.823,0.437-1.102,0.779c-0.279,0.342-0.482,0.756-0.608,1.244
				c-0.126,0.487-0.19,1.048-0.19,1.682v4.369h-1.614v-9.822H359.941z"/>
			<path fill="#FFFFFF" d="M371.625,34.269v-1.33h-0.037c-0.266,0.545-0.684,0.938-1.254,1.179c-0.57,0.24-1.197,0.36-1.881,0.36
				c-0.761,0-1.422-0.139-1.986-0.418c-0.563-0.277-1.032-0.652-1.406-1.121c-0.373-0.468-0.654-1.013-0.845-1.633
				c-0.19-0.621-0.285-1.279-0.285-1.977c0-0.696,0.092-1.355,0.275-1.977c0.184-0.62,0.462-1.162,0.836-1.624
				s0.843-0.829,1.406-1.103c0.563-0.271,1.219-0.408,1.966-0.408c0.254,0,0.525,0.025,0.817,0.076s0.583,0.137,0.874,0.257
				s0.566,0.278,0.826,0.475s0.479,0.44,0.656,0.731h0.037v-5.054h1.615v13.565H371.625z M365.821,30.782
				c0.12,0.438,0.304,0.826,0.551,1.169c0.247,0.342,0.563,0.614,0.95,0.817c0.387,0.202,0.839,0.304,1.358,0.304
				c0.544,0,1.007-0.108,1.387-0.323s0.69-0.497,0.931-0.846c0.241-0.348,0.415-0.744,0.523-1.188
				c0.107-0.443,0.161-0.893,0.161-1.349c0-0.481-0.058-0.946-0.171-1.396c-0.114-0.45-0.295-0.846-0.541-1.188
				c-0.248-0.343-0.568-0.618-0.96-0.827c-0.394-0.209-0.868-0.312-1.425-0.312c-0.545,0-1.008,0.107-1.387,0.322
				c-0.381,0.216-0.685,0.501-0.912,0.855c-0.229,0.354-0.393,0.76-0.494,1.216s-0.152,0.925-0.152,1.405
				C365.64,29.899,365.701,30.346,365.821,30.782z"/>
			<path fill="#FFFFFF" d="M383.271,34.478c-0.418,0-0.75-0.117-0.996-0.352c-0.248-0.234-0.371-0.617-0.371-1.148
				c-0.443,0.531-0.959,0.914-1.549,1.148c-0.589,0.234-1.225,0.352-1.909,0.352c-0.444,0-0.862-0.047-1.254-0.143
				c-0.394-0.094-0.738-0.252-1.036-0.475c-0.297-0.221-0.531-0.506-0.703-0.855c-0.17-0.348-0.256-0.77-0.256-1.263
				c0-0.558,0.095-1.013,0.285-1.368c0.189-0.354,0.439-0.643,0.75-0.864s0.665-0.39,1.064-0.504
				c0.398-0.114,0.807-0.209,1.225-0.284c0.443-0.089,0.865-0.156,1.264-0.2c0.399-0.044,0.751-0.107,1.055-0.19
				c0.305-0.082,0.545-0.202,0.723-0.36c0.177-0.158,0.266-0.39,0.266-0.694c0-0.354-0.066-0.639-0.199-0.854
				c-0.133-0.215-0.305-0.38-0.514-0.493c-0.209-0.115-0.443-0.19-0.703-0.229s-0.516-0.057-0.77-0.057
				c-0.684,0-1.254,0.129-1.709,0.389c-0.457,0.26-0.703,0.751-0.741,1.473h-1.615c0.025-0.607,0.151-1.121,0.38-1.539
				s0.532-0.756,0.912-1.016s0.816-0.447,1.311-0.561c0.494-0.115,1.014-0.172,1.559-0.172c0.443,0,0.883,0.032,1.32,0.096
				c0.438,0.062,0.833,0.193,1.188,0.389c0.354,0.197,0.64,0.473,0.855,0.826c0.215,0.355,0.322,0.818,0.322,1.388v5.054
				c0,0.381,0.022,0.659,0.066,0.836c0.045,0.178,0.193,0.267,0.447,0.267c0.139,0,0.304-0.032,0.494-0.095v1.254
				C384.152,34.396,383.765,34.478,383.271,34.478z M381.011,29.528c-0.33,0.07-0.675,0.127-1.036,0.172
				c-0.36,0.044-0.726,0.094-1.093,0.151s-0.696,0.149-0.988,0.275c-0.291,0.127-0.528,0.308-0.712,0.542s-0.275,0.554-0.275,0.959
				c0,0.266,0.054,0.491,0.161,0.675s0.248,0.333,0.418,0.446c0.172,0.114,0.374,0.197,0.608,0.247
				c0.234,0.051,0.472,0.076,0.712,0.076c0.533,0,0.988-0.073,1.369-0.219c0.379-0.146,0.689-0.329,0.93-0.551
				c0.241-0.222,0.419-0.462,0.533-0.722c0.113-0.26,0.17-0.504,0.17-0.732v-1.652C381.606,29.349,381.339,29.459,381.011,29.528z"
				/>
			<path fill="#FFFFFF" d="M387.451,24.446v1.558h0.039c0.671-1.19,1.734-1.786,3.191-1.786c0.646,0,1.185,0.089,1.615,0.266
				c0.43,0.178,0.779,0.426,1.045,0.742s0.453,0.693,0.561,1.13s0.162,0.921,0.162,1.454v6.459h-1.615v-6.649
				c0-0.608-0.178-1.089-0.532-1.444c-0.354-0.354-0.843-0.531-1.464-0.531c-0.493,0-0.921,0.076-1.281,0.228
				c-0.361,0.151-0.662,0.368-0.902,0.646c-0.242,0.279-0.422,0.605-0.542,0.979c-0.12,0.374-0.181,0.783-0.181,1.227v5.547h-1.615
				v-9.822H387.451z"/>
			<path fill="#FFFFFF" d="M400.695,24.446v1.425h-1.957v6.099c0,0.19,0.016,0.342,0.047,0.457c0.031,0.113,0.092,0.202,0.181,0.266
				c0.089,0.062,0.212,0.104,0.37,0.123s0.364,0.029,0.617,0.029h0.742v1.424h-1.235c-0.418,0-0.776-0.027-1.073-0.085
				c-0.299-0.058-0.539-0.161-0.723-0.313s-0.32-0.367-0.408-0.646c-0.089-0.277-0.133-0.646-0.133-1.102v-6.251h-1.672v-1.425
				h1.672v-2.945h1.615v2.945H400.695z"/>
			<path fill="#FFFFFF" d="M406.584,22.224v-1.521h10.849v1.521h-4.521v12.045h-1.805V22.224H406.584z"/>
			<path fill="#FFFFFF" d="M423.513,33.642c-0.734,0.559-1.66,0.836-2.773,0.836c-0.786,0-1.467-0.127-2.043-0.379
				c-0.576-0.254-1.061-0.608-1.453-1.064s-0.688-1-0.884-1.635c-0.196-0.633-0.308-1.322-0.333-2.07
				c0-0.747,0.114-1.432,0.342-2.053c0.229-0.619,0.549-1.158,0.96-1.614s0.899-0.811,1.464-1.063
				c0.562-0.254,1.18-0.381,1.852-0.381c0.874,0,1.6,0.181,2.176,0.542c0.576,0.36,1.039,0.819,1.387,1.378
				c0.349,0.557,0.59,1.165,0.723,1.823c0.133,0.659,0.187,1.286,0.161,1.882h-7.353c-0.014,0.43,0.037,0.838,0.151,1.225
				s0.298,0.729,0.552,1.026c0.252,0.298,0.576,0.535,0.969,0.712c0.393,0.178,0.854,0.267,1.387,0.267
				c0.684,0,1.244-0.159,1.682-0.476c0.437-0.316,0.725-0.798,0.864-1.443h1.597C424.722,32.255,424.248,33.085,423.513,33.642z
				 M423.124,27.334c-0.146-0.342-0.342-0.636-0.589-0.884c-0.247-0.246-0.539-0.443-0.874-0.589s-0.706-0.218-1.111-0.218
				c-0.418,0-0.795,0.072-1.13,0.218c-0.336,0.146-0.625,0.346-0.865,0.599c-0.24,0.254-0.431,0.549-0.57,0.884
				c-0.139,0.335-0.221,0.693-0.246,1.073h5.643C423.355,28.037,423.269,27.677,423.124,27.334z"/>
			<path fill="#FFFFFF" d="M432.632,26.156c-0.404-0.343-0.949-0.513-1.633-0.513c-0.584,0-1.071,0.107-1.463,0.322
				c-0.394,0.216-0.707,0.501-0.941,0.855s-0.402,0.764-0.504,1.225c-0.102,0.463-0.151,0.941-0.151,1.436
				c0,0.455,0.054,0.898,0.161,1.33c0.107,0.43,0.275,0.813,0.504,1.148c0.229,0.336,0.525,0.605,0.893,0.809
				c0.367,0.202,0.805,0.304,1.312,0.304c0.798,0,1.421-0.209,1.871-0.628c0.45-0.418,0.726-1.006,0.827-1.766h1.652
				c-0.178,1.215-0.63,2.152-1.358,2.812s-1.72,0.987-2.974,0.987c-0.747,0-1.409-0.12-1.985-0.36
				c-0.577-0.241-1.058-0.583-1.444-1.026s-0.678-0.972-0.873-1.586c-0.197-0.615-0.295-1.289-0.295-2.023s0.095-1.422,0.285-2.062
				c0.189-0.639,0.478-1.196,0.864-1.672c0.386-0.475,0.87-0.848,1.454-1.121c0.582-0.271,1.26-0.408,2.032-0.408
				c0.558,0,1.08,0.066,1.567,0.199c0.488,0.134,0.918,0.34,1.293,0.618c0.373,0.278,0.68,0.63,0.921,1.054
				c0.24,0.426,0.393,0.929,0.456,1.512h-1.672C433.304,26.979,433.039,26.498,432.632,26.156z"/>
			<path fill="#FFFFFF" d="M438.58,20.703v5.187h0.038c0.126-0.304,0.304-0.561,0.532-0.77c0.228-0.209,0.484-0.379,0.77-0.513
				c0.285-0.133,0.582-0.231,0.893-0.294c0.311-0.063,0.611-0.096,0.902-0.096c0.646,0,1.185,0.089,1.615,0.266
				c0.43,0.178,0.779,0.426,1.045,0.742s0.453,0.693,0.561,1.13s0.162,0.921,0.162,1.454v6.459h-1.615v-6.649
				c0-0.608-0.178-1.089-0.532-1.444c-0.354-0.354-0.843-0.531-1.464-0.531c-0.493,0-0.921,0.076-1.281,0.228
				c-0.361,0.151-0.662,0.368-0.902,0.646c-0.242,0.279-0.422,0.605-0.542,0.979c-0.12,0.374-0.181,0.783-0.181,1.227v5.547h-1.615
				V20.703H438.58z"/>
			<path fill="#FFFFFF" d="M449.048,24.446v1.558h0.038c0.671-1.19,1.735-1.786,3.192-1.786c0.646,0,1.184,0.089,1.615,0.266
				c0.43,0.178,0.778,0.426,1.045,0.742c0.266,0.316,0.452,0.693,0.561,1.13c0.107,0.437,0.161,0.921,0.161,1.454v6.459h-1.615
				v-6.649c0-0.608-0.177-1.089-0.532-1.444c-0.354-0.354-0.842-0.531-1.463-0.531c-0.494,0-0.922,0.076-1.282,0.228
				s-0.662,0.368-0.902,0.646c-0.241,0.279-0.421,0.605-0.542,0.979c-0.12,0.374-0.18,0.783-0.18,1.227v5.547h-1.615v-9.822H449.048
				z"/>
			<path fill="#FFFFFF" d="M457.865,27.344c0.202-0.628,0.506-1.172,0.912-1.634c0.404-0.463,0.905-0.827,1.5-1.093
				c0.596-0.267,1.279-0.399,2.053-0.399c0.785,0,1.473,0.133,2.062,0.399c0.589,0.266,1.086,0.63,1.491,1.093
				c0.405,0.462,0.709,1.006,0.912,1.634c0.203,0.627,0.305,1.302,0.305,2.023s-0.102,1.394-0.305,2.014
				c-0.203,0.621-0.507,1.163-0.912,1.624c-0.405,0.463-0.902,0.824-1.491,1.084s-1.276,0.389-2.062,0.389
				c-0.773,0-1.457-0.129-2.053-0.389c-0.595-0.26-1.096-0.621-1.5-1.084c-0.406-0.461-0.71-1.003-0.912-1.624
				c-0.203-0.62-0.305-1.292-0.305-2.014S457.662,27.971,457.865,27.344z M459.507,30.954c0.158,0.462,0.377,0.848,0.656,1.158
				c0.278,0.311,0.604,0.549,0.979,0.713c0.373,0.164,0.77,0.247,1.188,0.247s0.813-0.083,1.188-0.247
				c0.373-0.164,0.699-0.402,0.979-0.713c0.278-0.311,0.497-0.696,0.655-1.158c0.158-0.463,0.237-0.992,0.237-1.587
				s-0.079-1.124-0.237-1.587c-0.158-0.462-0.377-0.852-0.655-1.168c-0.279-0.316-0.605-0.558-0.979-0.723
				c-0.374-0.164-0.77-0.246-1.188-0.246s-0.814,0.082-1.188,0.246c-0.374,0.165-0.7,0.406-0.979,0.723
				c-0.279,0.316-0.498,0.706-0.656,1.168c-0.158,0.463-0.236,0.992-0.236,1.587S459.349,30.491,459.507,30.954z"/>
			<path fill="#FFFFFF" d="M470.708,20.703v13.565h-1.615V20.703H470.708z"/>
			<path fill="#FFFFFF" d="M472.988,27.344c0.203-0.628,0.507-1.172,0.912-1.634c0.405-0.463,0.906-0.827,1.501-1.093
				c0.595-0.267,1.279-0.399,2.052-0.399c0.785,0,1.473,0.133,2.062,0.399c0.588,0.266,1.086,0.63,1.49,1.093
				c0.406,0.462,0.71,1.006,0.912,1.634c0.203,0.627,0.305,1.302,0.305,2.023s-0.102,1.394-0.305,2.014
				c-0.202,0.621-0.506,1.163-0.912,1.624c-0.404,0.463-0.902,0.824-1.49,1.084c-0.59,0.26-1.277,0.389-2.062,0.389
				c-0.772,0-1.457-0.129-2.052-0.389s-1.096-0.621-1.501-1.084c-0.405-0.461-0.709-1.003-0.912-1.624
				c-0.203-0.62-0.304-1.292-0.304-2.014S472.785,27.971,472.988,27.344z M474.631,30.954c0.158,0.462,0.377,0.848,0.655,1.158
				c0.279,0.311,0.605,0.549,0.979,0.713c0.374,0.164,0.77,0.247,1.188,0.247s0.814-0.083,1.188-0.247
				c0.374-0.164,0.7-0.402,0.979-0.713c0.279-0.311,0.498-0.696,0.656-1.158c0.158-0.463,0.237-0.992,0.237-1.587
				s-0.079-1.124-0.237-1.587c-0.158-0.462-0.377-0.852-0.656-1.168c-0.278-0.316-0.604-0.558-0.979-0.723
				c-0.373-0.164-0.77-0.246-1.188-0.246s-0.813,0.082-1.188,0.246c-0.373,0.165-0.699,0.406-0.979,0.723
				c-0.278,0.316-0.497,0.706-0.655,1.168c-0.158,0.463-0.237,0.992-0.237,1.587S474.473,30.491,474.631,30.954z"/>
			<path fill="#FFFFFF" d="M491.494,37.043c-0.734,0.798-1.887,1.197-3.458,1.197c-0.456,0-0.921-0.051-1.396-0.152
				s-0.905-0.266-1.292-0.493c-0.387-0.229-0.706-0.526-0.959-0.894c-0.254-0.368-0.393-0.817-0.418-1.349h1.615
				c0.012,0.291,0.104,0.537,0.275,0.74c0.17,0.203,0.379,0.367,0.627,0.494c0.246,0.127,0.516,0.219,0.807,0.275
				s0.57,0.086,0.836,0.086c0.532,0,0.982-0.092,1.35-0.275s0.671-0.438,0.912-0.76c0.24-0.324,0.414-0.713,0.521-1.169
				c0.108-0.456,0.162-0.956,0.162-1.501v-0.646h-0.038c-0.278,0.608-0.7,1.055-1.263,1.34c-0.564,0.285-1.163,0.428-1.796,0.428
				c-0.735,0-1.375-0.133-1.919-0.399c-0.545-0.266-1.001-0.624-1.368-1.073c-0.368-0.449-0.644-0.975-0.827-1.577
				c-0.184-0.602-0.275-1.237-0.275-1.909c0-0.582,0.076-1.182,0.229-1.796s0.405-1.171,0.76-1.672
				c0.354-0.5,0.823-0.912,1.406-1.235c0.582-0.322,1.299-0.484,2.146-0.484c0.621,0,1.191,0.137,1.711,0.408
				c0.519,0.273,0.924,0.682,1.215,1.227h0.02v-1.406h1.52v8.986C492.595,35.042,492.228,36.245,491.494,37.043z M489.432,32.626
				c0.374-0.222,0.675-0.514,0.903-0.875c0.228-0.36,0.395-0.77,0.503-1.225c0.107-0.457,0.161-0.912,0.161-1.368
				c0-0.431-0.051-0.854-0.152-1.272s-0.262-0.795-0.484-1.131c-0.221-0.336-0.51-0.605-0.864-0.808s-0.785-0.304-1.292-0.304
				c-0.52,0-0.963,0.098-1.33,0.294s-0.668,0.46-0.902,0.788c-0.234,0.33-0.405,0.71-0.513,1.141
				c-0.108,0.431-0.161,0.881-0.161,1.349c0,0.444,0.044,0.888,0.133,1.33c0.088,0.444,0.24,0.846,0.455,1.206
				c0.216,0.361,0.501,0.653,0.855,0.875c0.354,0.221,0.799,0.332,1.33,0.332C488.606,32.958,489.058,32.847,489.432,32.626z"/>
			<path fill="#FFFFFF" d="M498.324,36.776c-0.184,0.33-0.387,0.6-0.607,0.809c-0.223,0.209-0.466,0.36-0.732,0.455
				c-0.266,0.096-0.582,0.143-0.949,0.143c-0.189,0-0.381-0.012-0.57-0.037s-0.373-0.07-0.551-0.133V36.53
				c0.152,0.051,0.307,0.102,0.465,0.152c0.158,0.05,0.32,0.075,0.484,0.075c0.33,0,0.596-0.075,0.799-0.228
				c0.202-0.152,0.38-0.374,0.531-0.665l0.666-1.653l-3.896-9.766h1.824l2.869,8.037h0.038l2.755-8.037h1.71l-4.275,11.115
				C498.695,36.042,498.507,36.448,498.324,36.776z"/>
		</g>
	</g>
	<rect x="177.375" fill="#FFFFFF" width="1" height="39.727"/>
</g>
</svg>
