<?xml version="1.0" encoding="utf-8"?>
<!-- Generator: Adobe Illustrator 16.0.0, SVG Export Plug-In . SVG Version: 6.00 Build 0)  -->
<!DOCTYPE svg PUBLIC "-//W3C//DTD SVG 1.1//EN" "http://www.w3.org/Graphics/SVG/1.1/DTD/svg11.dtd">
<svg version="1.1" id="Layer_1" xmlns="http://www.w3.org/2000/svg" xmlns:xlink="http://www.w3.org/1999/xlink" x="0px" y="0px"
	 width="503.159px" height="42.504px" viewBox="0 0 503.159 42.504" enable-background="new 0 0 503.159 42.504"
	 xml:space="preserve">
<g>
	<g>
		<path fill="#398740" d="M26.478,1.787l5.414,32.482h-7.098l-1.046-7.233H11.601L7.506,34.27H0L19.153,1.787H26.478z
			 M23.111,21.713l-1.592-12.92h-0.091l-7.006,12.92H23.111z"/>
		<path fill="#398740" d="M41.855,10.749v3.003h0.091c0.789-1.273,1.79-2.199,3.003-2.775c1.212-0.576,2.547-0.864,4.003-0.864
			c1.85,0,3.442,0.349,4.777,1.046c1.334,0.698,2.441,1.623,3.321,2.775c0.879,1.153,1.531,2.495,1.956,4.026
			c0.424,1.532,0.637,3.132,0.637,4.8c0,1.578-0.213,3.094-0.637,4.549c-0.425,1.457-1.069,2.746-1.934,3.867
			c-0.864,1.123-1.941,2.018-3.23,2.685c-1.29,0.667-2.798,1.001-4.527,1.001c-1.456,0-2.798-0.295-4.026-0.887
			c-1.228-0.592-2.237-1.463-3.025-2.616h-0.091v11.146h-6.46V10.749H41.855z M50.249,29.402c0.712-0.425,1.289-0.979,1.729-1.66
			c0.439-0.684,0.75-1.479,0.933-2.389c0.182-0.91,0.273-1.836,0.273-2.775s-0.099-1.865-0.296-2.775s-0.523-1.721-0.978-2.434
			s-1.039-1.289-1.751-1.729c-0.713-0.438-1.585-0.659-2.616-0.659c-1.062,0-1.949,0.221-2.662,0.659
			c-0.713,0.44-1.29,1.009-1.729,1.706c-0.44,0.698-0.75,1.502-0.933,2.412c-0.182,0.909-0.273,1.85-0.273,2.82
			c0,0.939,0.098,1.865,0.296,2.775c0.197,0.909,0.515,1.705,0.955,2.389c0.439,0.682,1.024,1.235,1.752,1.66
			c0.728,0.425,1.607,0.637,2.639,0.637C48.649,30.039,49.536,29.827,50.249,29.402z"/>
		<path fill="#398740" d="M71.291,41.276c-1.244,0.819-2.973,1.228-5.187,1.228c-0.667,0-1.327-0.021-1.979-0.067
			c-0.653-0.046-1.312-0.099-1.979-0.159v-5.323c0.606,0.061,1.228,0.121,1.865,0.183c0.637,0.061,1.274,0.074,1.911,0.045
			c0.849-0.091,1.479-0.425,1.888-1.001c0.409-0.576,0.614-1.214,0.614-1.911c0-0.515-0.091-1-0.273-1.455l-8.235-22.065h6.87
			l5.323,16.105H72.2l5.141-16.105h6.688l-9.827,26.433C73.504,39.092,72.534,40.457,71.291,41.276z"/>
		<path fill="#398740" d="M91.808,10.749v4.368h0.091c0.303-0.729,0.712-1.402,1.229-2.025c0.515-0.621,1.107-1.152,1.774-1.592
			c0.667-0.439,1.379-0.781,2.138-1.023c0.758-0.242,1.547-0.364,2.366-0.364c0.424,0,0.894,0.076,1.41,0.228v6.006
			c-0.303-0.061-0.667-0.114-1.092-0.16c-0.425-0.045-0.834-0.068-1.229-0.068c-1.183,0-2.184,0.197-3.002,0.592
			s-1.479,0.933-1.979,1.615c-0.5,0.682-0.857,1.479-1.069,2.389c-0.212,0.91-0.318,1.896-0.318,2.957v10.6h-6.46V10.749H91.808z"/>
		<path fill="#398740" d="M118.787,34.27v-3.275h-0.136c-0.819,1.365-1.881,2.352-3.185,2.957c-1.304,0.607-2.639,0.91-4.003,0.91
			c-1.729,0-3.147-0.228-4.254-0.682c-1.107-0.455-1.979-1.1-2.616-1.934s-1.085-1.85-1.342-3.049
			c-0.258-1.197-0.387-2.525-0.387-3.98V10.749h6.46v13.284c0,1.941,0.303,3.39,0.91,4.346c0.606,0.955,1.683,1.433,3.23,1.433
			c1.759,0,3.032-0.523,3.821-1.569c0.789-1.047,1.183-2.768,1.183-5.164V10.749h6.46V34.27H118.787z"/>
		<path fill="#398740" d="M135.392,10.749v3.185h0.091c0.849-1.213,1.872-2.152,3.071-2.82c1.198-0.667,2.57-1.001,4.117-1.001
			c1.486,0,2.843,0.288,4.072,0.864s2.161,1.592,2.798,3.049c0.698-1.031,1.645-1.941,2.844-2.73
			c1.198-0.788,2.616-1.183,4.253-1.183c1.244,0,2.396,0.151,3.458,0.455c1.061,0.304,1.971,0.788,2.729,1.456
			c0.758,0.667,1.349,1.539,1.774,2.615c0.424,1.077,0.637,2.374,0.637,3.891v15.74h-6.46v-13.33c0-0.787-0.031-1.531-0.091-2.229
			c-0.061-0.697-0.228-1.304-0.5-1.82c-0.273-0.516-0.675-0.924-1.206-1.229c-0.531-0.303-1.251-0.455-2.161-0.455
			c-0.91,0-1.646,0.176-2.207,0.523c-0.562,0.35-1.001,0.805-1.319,1.365c-0.319,0.562-0.531,1.198-0.637,1.91
			c-0.106,0.713-0.159,1.434-0.159,2.162V34.27h-6.46V21.076c0-0.697-0.016-1.387-0.045-2.07c-0.03-0.682-0.159-1.311-0.387-1.887
			s-0.607-1.039-1.137-1.389c-0.531-0.348-1.312-0.523-2.343-0.523c-0.303,0-0.705,0.068-1.206,0.205s-0.986,0.395-1.456,0.773
			c-0.471,0.38-0.873,0.926-1.206,1.639c-0.334,0.713-0.5,1.645-0.5,2.797V34.27h-6.46V10.749H135.392z"/>
	</g>
	<g>
		<path fill="#398740" d="M190.919,20.703V32.75h7.182v1.52h-8.987V20.703H190.919z"/>
		<path fill="#398740" d="M206.366,33.643c-0.735,0.558-1.66,0.836-2.774,0.836c-0.786,0-1.466-0.127-2.042-0.38
			c-0.577-0.253-1.061-0.608-1.454-1.063c-0.393-0.457-0.687-1.001-0.883-1.635c-0.197-0.633-0.307-1.323-0.333-2.07
			c0-0.748,0.114-1.432,0.342-2.053c0.228-0.62,0.548-1.158,0.959-1.615c0.412-0.455,0.899-0.811,1.463-1.063
			c0.563-0.253,1.181-0.38,1.852-0.38c0.874,0,1.599,0.18,2.176,0.541c0.576,0.361,1.039,0.82,1.387,1.378
			c0.349,0.558,0.589,1.165,0.722,1.823c0.133,0.659,0.187,1.286,0.162,1.882h-7.353c-0.013,0.431,0.038,0.839,0.152,1.226
			c0.114,0.387,0.297,0.729,0.551,1.025c0.253,0.298,0.576,0.535,0.969,0.713s0.855,0.266,1.387,0.266
			c0.684,0,1.244-0.158,1.681-0.475s0.725-0.799,0.865-1.444h1.596C207.576,32.256,207.101,33.086,206.366,33.643z M205.977,27.334
			c-0.146-0.342-0.342-0.636-0.589-0.883s-0.539-0.443-0.874-0.59c-0.335-0.145-0.706-0.218-1.111-0.218
			c-0.418,0-0.795,0.073-1.13,0.218c-0.336,0.146-0.624,0.346-0.865,0.6c-0.241,0.253-0.431,0.548-0.57,0.883
			c-0.14,0.336-0.222,0.693-0.247,1.074h5.643C206.208,28.037,206.122,27.677,205.977,27.334z"/>
		<path fill="#398740" d="M217.158,34.479c-0.418,0-0.75-0.117-0.997-0.352c-0.247-0.234-0.371-0.617-0.371-1.149
			c-0.444,0.532-0.959,0.915-1.549,1.149c-0.589,0.234-1.225,0.352-1.909,0.352c-0.444,0-0.862-0.047-1.254-0.143
			c-0.393-0.095-0.738-0.253-1.036-0.475c-0.298-0.222-0.532-0.507-0.703-0.855c-0.171-0.348-0.256-0.77-0.256-1.264
			c0-0.557,0.095-1.013,0.285-1.367c0.19-0.355,0.44-0.643,0.75-0.865c0.31-0.221,0.665-0.389,1.064-0.504
			c0.399-0.113,0.807-0.209,1.225-0.284c0.443-0.089,0.865-0.155,1.264-0.2c0.399-0.043,0.75-0.107,1.055-0.189
			c0.304-0.082,0.544-0.203,0.722-0.361s0.266-0.389,0.266-0.693c0-0.354-0.066-0.639-0.199-0.855
			c-0.133-0.215-0.304-0.379-0.513-0.493s-0.443-0.19-0.703-0.228c-0.26-0.039-0.516-0.058-0.77-0.058
			c-0.684,0-1.254,0.13-1.71,0.39s-0.703,0.75-0.741,1.473h-1.615c0.025-0.608,0.152-1.121,0.38-1.539s0.532-0.757,0.912-1.017
			s0.817-0.446,1.311-0.561s1.013-0.171,1.558-0.171c0.443,0,0.883,0.031,1.32,0.095s0.833,0.193,1.188,0.39s0.64,0.473,0.855,0.826
			c0.215,0.355,0.323,0.817,0.323,1.387v5.055c0,0.38,0.022,0.658,0.066,0.836s0.193,0.266,0.446,0.266
			c0.14,0,0.304-0.031,0.494-0.095v1.254C218.038,34.396,217.652,34.479,217.158,34.479z M214.897,29.529
			c-0.33,0.069-0.674,0.127-1.036,0.171c-0.361,0.044-0.725,0.095-1.092,0.151c-0.368,0.058-0.697,0.149-0.988,0.275
			c-0.292,0.127-0.529,0.308-0.712,0.542s-0.275,0.554-0.275,0.96c0,0.266,0.054,0.49,0.162,0.674
			c0.107,0.184,0.247,0.333,0.418,0.447c0.171,0.113,0.374,0.196,0.608,0.246c0.234,0.051,0.472,0.076,0.712,0.076
			c0.532,0,0.988-0.072,1.368-0.219c0.38-0.145,0.69-0.328,0.931-0.551c0.241-0.221,0.418-0.462,0.532-0.722
			c0.114-0.259,0.171-0.503,0.171-0.731v-1.653C215.492,29.349,215.226,29.459,214.897,29.529z"/>
		<path fill="#398740" d="M226.98,34.27v-1.33h-0.038c-0.266,0.545-0.684,0.938-1.254,1.178c-0.57,0.24-1.197,0.361-1.881,0.361
			c-0.76,0-1.422-0.14-1.985-0.418c-0.564-0.278-1.033-0.652-1.406-1.121s-0.655-1.014-0.845-1.634
			c-0.19-0.62-0.285-1.279-0.285-1.976c0-0.697,0.092-1.355,0.275-1.977s0.462-1.162,0.836-1.625
			c0.374-0.462,0.842-0.829,1.406-1.102c0.563-0.271,1.219-0.408,1.966-0.408c0.253,0,0.525,0.025,0.817,0.076
			s0.583,0.136,0.874,0.256c0.292,0.121,0.567,0.279,0.827,0.475c0.259,0.197,0.478,0.441,0.655,0.732h0.038v-5.055h1.615V34.27
			H226.98z M221.176,30.783c0.12,0.438,0.304,0.826,0.551,1.168s0.563,0.615,0.95,0.817c0.386,0.202,0.839,0.304,1.358,0.304
			c0.544,0,1.007-0.107,1.387-0.322c0.38-0.216,0.69-0.498,0.931-0.846c0.241-0.349,0.415-0.744,0.522-1.188
			c0.107-0.443,0.162-0.893,0.162-1.35c0-0.48-0.057-0.946-0.171-1.396c-0.114-0.449-0.294-0.846-0.542-1.188
			s-0.567-0.617-0.959-0.826c-0.393-0.209-0.868-0.313-1.425-0.313c-0.544,0-1.007,0.108-1.387,0.323
			c-0.38,0.215-0.684,0.5-0.912,0.854s-0.393,0.761-0.494,1.216c-0.102,0.457-0.152,0.926-0.152,1.406
			C220.996,29.899,221.056,30.346,221.176,30.783z"/>
		<path fill="#398740" d="M231.179,22.68v-1.977h1.615v1.977H231.179z M232.794,24.446v9.823h-1.615v-9.823H232.794z"/>
		<path fill="#398740" d="M236.822,24.446v1.558h0.038c0.671-1.189,1.735-1.785,3.192-1.785c0.646,0,1.185,0.088,1.615,0.266
			c0.43,0.178,0.779,0.425,1.045,0.741c0.266,0.317,0.453,0.693,0.561,1.13c0.107,0.438,0.162,0.922,0.162,1.454v6.46h-1.615v-6.65
			c0-0.607-0.177-1.089-0.532-1.443c-0.355-0.354-0.843-0.532-1.463-0.532c-0.494,0-0.921,0.076-1.282,0.228
			c-0.361,0.152-0.662,0.368-0.902,0.646c-0.241,0.279-0.421,0.605-0.542,0.979c-0.121,0.373-0.181,0.782-0.181,1.226v5.548h-1.615
			v-9.823H236.822z"/>
		<path fill="#398740" d="M253.237,37.043c-0.734,0.799-1.887,1.197-3.458,1.197c-0.456,0-0.921-0.051-1.396-0.152
			s-0.906-0.266-1.292-0.493s-0.706-0.526-0.959-0.894s-0.393-0.816-0.418-1.349h1.615c0.012,0.291,0.104,0.538,0.275,0.741
			c0.171,0.202,0.38,0.367,0.627,0.494c0.247,0.126,0.516,0.219,0.808,0.275c0.291,0.057,0.57,0.086,0.836,0.086
			c0.532,0,0.981-0.093,1.349-0.276c0.367-0.184,0.671-0.437,0.912-0.76c0.24-0.323,0.415-0.712,0.522-1.169
			c0.108-0.455,0.161-0.956,0.161-1.5v-0.646h-0.037c-0.279,0.607-0.7,1.055-1.264,1.34c-0.564,0.285-1.163,0.428-1.795,0.428
			c-0.735,0-1.375-0.134-1.919-0.4c-0.544-0.266-1-0.623-1.368-1.072c-0.368-0.45-0.643-0.976-0.827-1.578
			c-0.184-0.602-0.275-1.237-0.275-1.908c0-0.583,0.076-1.182,0.228-1.797c0.152-0.613,0.405-1.171,0.76-1.672
			c0.354-0.5,0.823-0.912,1.406-1.234c0.583-0.323,1.298-0.484,2.147-0.484c0.621,0,1.19,0.137,1.71,0.408
			c0.52,0.272,0.924,0.682,1.216,1.226h0.019v-1.406h1.521v8.987C254.34,35.042,253.972,36.246,253.237,37.043z M251.176,32.626
			c0.374-0.222,0.675-0.513,0.903-0.874c0.229-0.361,0.396-0.77,0.504-1.226c0.107-0.456,0.161-0.911,0.161-1.368
			c0-0.43-0.051-0.854-0.152-1.272s-0.263-0.795-0.484-1.131c-0.222-0.335-0.51-0.604-0.865-0.808
			c-0.354-0.202-0.785-0.304-1.292-0.304c-0.52,0-0.962,0.099-1.33,0.294c-0.368,0.197-0.668,0.46-0.903,0.789
			c-0.234,0.33-0.405,0.709-0.513,1.141c-0.108,0.43-0.162,0.88-0.162,1.348c0,0.444,0.044,0.888,0.133,1.33
			c0.088,0.444,0.241,0.846,0.456,1.207s0.5,0.652,0.855,0.874s0.798,0.333,1.33,0.333C250.35,32.959,250.803,32.848,251.176,32.626
			z"/>
		<path fill="#398740" d="M271.231,20.703v1.521h-7.106v4.313h6.231v1.52h-6.231v6.213h-1.806V20.703H271.231z"/>
		<path fill="#398740" d="M274.669,20.703V34.27h-1.615V20.703H274.669z"/>
		<path fill="#398740" d="M284.72,34.479c-0.418,0-0.75-0.117-0.996-0.352c-0.248-0.234-0.371-0.617-0.371-1.149
			c-0.443,0.532-0.959,0.915-1.549,1.149s-1.225,0.352-1.91,0.352c-0.443,0-0.861-0.047-1.254-0.143
			c-0.393-0.095-0.738-0.253-1.035-0.475s-0.531-0.507-0.703-0.855c-0.17-0.348-0.256-0.77-0.256-1.264
			c0-0.557,0.094-1.013,0.285-1.367c0.189-0.355,0.439-0.643,0.75-0.865c0.311-0.221,0.664-0.389,1.064-0.504
			c0.398-0.113,0.807-0.209,1.225-0.284c0.443-0.089,0.865-0.155,1.264-0.2c0.398-0.043,0.75-0.107,1.055-0.189
			s0.545-0.203,0.723-0.361c0.176-0.158,0.266-0.389,0.266-0.693c0-0.354-0.066-0.639-0.199-0.855
			c-0.133-0.215-0.305-0.379-0.514-0.493s-0.443-0.19-0.703-0.228c-0.26-0.039-0.516-0.058-0.77-0.058
			c-0.684,0-1.254,0.13-1.709,0.39c-0.457,0.26-0.703,0.75-0.742,1.473h-1.615c0.025-0.608,0.152-1.121,0.381-1.539
			s0.531-0.757,0.912-1.017c0.379-0.26,0.816-0.446,1.311-0.561s1.014-0.171,1.559-0.171c0.443,0,0.883,0.031,1.32,0.095
			s0.832,0.193,1.188,0.39c0.354,0.196,0.639,0.473,0.855,0.826c0.215,0.355,0.322,0.817,0.322,1.387v5.055
			c0,0.38,0.021,0.658,0.066,0.836s0.193,0.266,0.447,0.266c0.139,0,0.303-0.031,0.494-0.095v1.254
			C285.601,34.396,285.214,34.479,284.72,34.479z M282.46,29.529c-0.33,0.069-0.676,0.127-1.037,0.171
			c-0.359,0.044-0.725,0.095-1.092,0.151c-0.367,0.058-0.697,0.149-0.988,0.275c-0.291,0.127-0.529,0.308-0.713,0.542
			s-0.275,0.554-0.275,0.96c0,0.266,0.055,0.49,0.162,0.674s0.248,0.333,0.418,0.447c0.172,0.113,0.373,0.196,0.607,0.246
			c0.234,0.051,0.473,0.076,0.713,0.076c0.533,0,0.988-0.072,1.369-0.219c0.379-0.145,0.689-0.328,0.93-0.551
			c0.24-0.221,0.418-0.462,0.533-0.722c0.113-0.259,0.17-0.503,0.17-0.731v-1.653C283.054,29.349,282.788,29.459,282.46,29.529z"/>
		<path fill="#398740" d="M288.899,24.446v1.444h0.039c0.734-1.115,1.791-1.672,3.172-1.672c0.609,0,1.16,0.127,1.654,0.38
			s0.842,0.685,1.045,1.292c0.328-0.532,0.762-0.943,1.301-1.234c0.539-0.292,1.131-0.438,1.777-0.438
			c0.492,0,0.939,0.054,1.338,0.161c0.4,0.108,0.742,0.276,1.027,0.503c0.285,0.229,0.506,0.523,0.664,0.885
			c0.158,0.36,0.238,0.795,0.238,1.301v7.201h-1.615v-6.441c0-0.304-0.025-0.588-0.076-0.854s-0.146-0.497-0.285-0.693
			s-0.332-0.352-0.58-0.466c-0.246-0.113-0.566-0.171-0.959-0.171c-0.797,0-1.426,0.228-1.881,0.685
			c-0.455,0.455-0.684,1.063-0.684,1.823v6.118h-1.615v-6.441c0-0.316-0.029-0.607-0.086-0.873
			c-0.057-0.267-0.154-0.498-0.295-0.693c-0.139-0.197-0.326-0.35-0.561-0.457s-0.535-0.161-0.902-0.161
			c-0.469,0-0.871,0.095-1.205,0.285c-0.336,0.19-0.609,0.418-0.818,0.684c-0.209,0.267-0.361,0.542-0.455,0.827
			c-0.096,0.285-0.143,0.521-0.143,0.712v6.118h-1.615v-9.823H288.899z"/>
		<path fill="#398740" d="M310.54,33.643c-0.734,0.558-1.658,0.836-2.773,0.836c-0.785,0-1.467-0.127-2.043-0.38
			s-1.061-0.608-1.453-1.063c-0.393-0.457-0.688-1.001-0.883-1.635c-0.197-0.633-0.307-1.323-0.332-2.07
			c0-0.748,0.113-1.432,0.342-2.053c0.227-0.62,0.547-1.158,0.959-1.615c0.412-0.455,0.898-0.811,1.463-1.063s1.182-0.38,1.852-0.38
			c0.875,0,1.6,0.18,2.176,0.541s1.039,0.82,1.387,1.378c0.35,0.558,0.59,1.165,0.723,1.823c0.133,0.659,0.188,1.286,0.162,1.882
			h-7.354c-0.012,0.431,0.039,0.839,0.152,1.226s0.297,0.729,0.551,1.025c0.254,0.298,0.576,0.535,0.969,0.713
			s0.855,0.266,1.387,0.266c0.686,0,1.244-0.158,1.682-0.475s0.725-0.799,0.865-1.444h1.596
			C311.751,32.256,311.274,33.086,310.54,33.643z M310.151,27.334c-0.146-0.342-0.342-0.636-0.59-0.883
			c-0.246-0.247-0.537-0.443-0.873-0.59c-0.336-0.145-0.707-0.218-1.111-0.218c-0.418,0-0.795,0.073-1.131,0.218
			c-0.336,0.146-0.623,0.346-0.865,0.6c-0.24,0.253-0.43,0.548-0.568,0.883c-0.141,0.336-0.223,0.693-0.248,1.074h5.643
			C310.382,28.037,310.296,27.677,310.151,27.334z"/>
		<path fill="#398740" d="M325.722,20.703c1.293,0,2.303,0.317,3.031,0.95c0.727,0.634,1.092,1.501,1.092,2.603
			c0,0.824-0.188,1.547-0.561,2.166c-0.373,0.621-0.973,1.046-1.795,1.273v0.038c0.393,0.076,0.713,0.203,0.959,0.38
			c0.246,0.178,0.443,0.39,0.59,0.637c0.145,0.247,0.252,0.522,0.322,0.826c0.068,0.305,0.123,0.621,0.162,0.95
			c0.025,0.329,0.043,0.665,0.057,1.007c0.012,0.342,0.043,0.678,0.094,1.008c0.051,0.329,0.125,0.643,0.219,0.939
			c0.096,0.299,0.238,0.561,0.428,0.789h-2.014c-0.127-0.139-0.213-0.329-0.256-0.57c-0.045-0.24-0.074-0.51-0.086-0.807
			c-0.014-0.298-0.025-0.618-0.039-0.96c-0.012-0.343-0.051-0.678-0.113-1.007c-0.051-0.33-0.113-0.643-0.189-0.941
			c-0.076-0.297-0.197-0.557-0.361-0.778s-0.381-0.399-0.646-0.532s-0.621-0.199-1.064-0.199h-4.406v5.795h-1.807V20.703H325.722z
			 M326.103,26.859c0.379-0.062,0.711-0.187,0.996-0.37s0.514-0.431,0.686-0.741c0.17-0.311,0.256-0.713,0.256-1.207
			c0-0.684-0.189-1.24-0.57-1.672c-0.381-0.43-0.994-0.646-1.844-0.646h-4.482v4.731h3.762
			C325.323,26.955,325.722,26.923,326.103,26.859z"/>
		<path fill="#398740" d="M339.04,33.643c-0.734,0.558-1.658,0.836-2.773,0.836c-0.785,0-1.467-0.127-2.043-0.38
			s-1.061-0.608-1.453-1.063c-0.393-0.457-0.688-1.001-0.883-1.635c-0.197-0.633-0.307-1.323-0.332-2.07
			c0-0.748,0.113-1.432,0.342-2.053c0.227-0.62,0.547-1.158,0.959-1.615c0.412-0.455,0.898-0.811,1.463-1.063s1.182-0.38,1.852-0.38
			c0.875,0,1.6,0.18,2.176,0.541s1.039,0.82,1.387,1.378c0.35,0.558,0.59,1.165,0.723,1.823c0.133,0.659,0.188,1.286,0.162,1.882
			h-7.354c-0.012,0.431,0.039,0.839,0.152,1.226s0.297,0.729,0.551,1.025c0.254,0.298,0.576,0.535,0.969,0.713
			s0.855,0.266,1.387,0.266c0.686,0,1.244-0.158,1.682-0.475s0.725-0.799,0.865-1.444h1.596
			C340.251,32.256,339.774,33.086,339.04,33.643z M338.651,27.334c-0.146-0.342-0.342-0.636-0.59-0.883
			c-0.246-0.247-0.537-0.443-0.873-0.59c-0.336-0.145-0.707-0.218-1.111-0.218c-0.418,0-0.795,0.073-1.131,0.218
			c-0.336,0.146-0.623,0.346-0.865,0.6c-0.24,0.253-0.43,0.548-0.568,0.883c-0.141,0.336-0.223,0.693-0.248,1.074h5.643
			C338.882,28.037,338.796,27.677,338.651,27.334z"/>
		<path fill="#398740" d="M346.489,24.446v1.425h-1.957v6.1c0,0.189,0.016,0.342,0.047,0.456s0.092,0.202,0.18,0.266
			c0.09,0.063,0.213,0.104,0.371,0.124c0.158,0.019,0.363,0.028,0.617,0.028h0.742v1.425h-1.236c-0.418,0-0.775-0.028-1.072-0.086
			c-0.299-0.057-0.539-0.161-0.723-0.312c-0.184-0.152-0.32-0.367-0.408-0.646c-0.09-0.278-0.133-0.646-0.133-1.102v-6.252h-1.672
			v-1.425h1.672v-2.944h1.615v2.944H346.489z"/>
		<path fill="#398740" d="M355.817,34.479c-0.418,0-0.75-0.117-0.998-0.352c-0.246-0.234-0.369-0.617-0.369-1.149
			c-0.445,0.532-0.961,0.915-1.549,1.149c-0.59,0.234-1.227,0.352-1.91,0.352c-0.443,0-0.861-0.047-1.254-0.143
			c-0.393-0.095-0.738-0.253-1.035-0.475c-0.299-0.222-0.533-0.507-0.703-0.855c-0.172-0.348-0.256-0.77-0.256-1.264
			c0-0.557,0.094-1.013,0.285-1.367c0.189-0.355,0.439-0.643,0.75-0.865c0.311-0.221,0.664-0.389,1.064-0.504
			c0.398-0.113,0.807-0.209,1.225-0.284c0.443-0.089,0.865-0.155,1.264-0.2c0.398-0.043,0.75-0.107,1.055-0.189
			c0.303-0.082,0.545-0.203,0.721-0.361c0.178-0.158,0.268-0.389,0.268-0.693c0-0.354-0.066-0.639-0.199-0.855
			c-0.135-0.215-0.305-0.379-0.514-0.493s-0.443-0.19-0.703-0.228c-0.26-0.039-0.516-0.058-0.77-0.058
			c-0.684,0-1.254,0.13-1.711,0.39c-0.455,0.26-0.703,0.75-0.74,1.473h-1.615c0.025-0.608,0.152-1.121,0.381-1.539
			c0.227-0.418,0.531-0.757,0.912-1.017c0.379-0.26,0.816-0.446,1.311-0.561s1.014-0.171,1.559-0.171
			c0.443,0,0.883,0.031,1.32,0.095c0.436,0.063,0.832,0.193,1.188,0.39c0.354,0.196,0.639,0.473,0.854,0.826
			c0.217,0.355,0.324,0.817,0.324,1.387v5.055c0,0.38,0.021,0.658,0.066,0.836s0.193,0.266,0.445,0.266
			c0.141,0,0.305-0.031,0.494-0.095v1.254C356.698,34.396,356.312,34.479,355.817,34.479z M353.556,29.529
			c-0.328,0.069-0.674,0.127-1.035,0.171s-0.725,0.095-1.092,0.151c-0.367,0.058-0.697,0.149-0.988,0.275
			c-0.291,0.127-0.529,0.308-0.713,0.542s-0.275,0.554-0.275,0.96c0,0.266,0.055,0.49,0.162,0.674s0.246,0.333,0.418,0.447
			c0.17,0.113,0.373,0.196,0.607,0.246c0.234,0.051,0.473,0.076,0.713,0.076c0.531,0,0.988-0.072,1.367-0.219
			c0.381-0.145,0.691-0.328,0.932-0.551c0.24-0.221,0.418-0.462,0.531-0.722c0.115-0.259,0.172-0.503,0.172-0.731v-1.653
			C354.151,29.349,353.886,29.459,353.556,29.529z"/>
		<path fill="#398740" d="M359.94,24.446v2.071h0.037c0.393-0.798,0.875-1.387,1.445-1.768c0.568-0.379,1.291-0.557,2.166-0.531
			v1.71c-0.646,0-1.197,0.089-1.654,0.266c-0.455,0.178-0.822,0.437-1.102,0.779c-0.279,0.342-0.482,0.757-0.607,1.245
			c-0.127,0.486-0.191,1.047-0.191,1.681v4.37h-1.613v-9.823H359.94z"/>
		<path fill="#398740" d="M371.624,34.27v-1.33h-0.037c-0.266,0.545-0.684,0.938-1.254,1.178s-1.197,0.361-1.881,0.361
			c-0.76,0-1.422-0.14-1.986-0.418c-0.562-0.278-1.031-0.652-1.406-1.121c-0.373-0.469-0.654-1.014-0.844-1.634
			c-0.191-0.62-0.285-1.279-0.285-1.976c0-0.697,0.092-1.355,0.275-1.977s0.461-1.162,0.836-1.625
			c0.373-0.462,0.842-0.829,1.406-1.102c0.562-0.271,1.219-0.408,1.965-0.408c0.254,0,0.525,0.025,0.818,0.076
			c0.291,0.051,0.582,0.136,0.873,0.256c0.291,0.121,0.566,0.279,0.826,0.475c0.26,0.197,0.479,0.441,0.656,0.732h0.037v-5.055
			h1.615V34.27H371.624z M365.821,30.783c0.119,0.438,0.303,0.826,0.551,1.168c0.246,0.342,0.562,0.615,0.949,0.817
			s0.84,0.304,1.359,0.304c0.543,0,1.006-0.107,1.387-0.322c0.379-0.216,0.689-0.498,0.93-0.846
			c0.242-0.349,0.416-0.744,0.523-1.188s0.162-0.893,0.162-1.35c0-0.48-0.059-0.946-0.172-1.396
			c-0.113-0.449-0.295-0.846-0.541-1.188c-0.248-0.342-0.568-0.617-0.959-0.826c-0.395-0.209-0.869-0.313-1.426-0.313
			c-0.545,0-1.008,0.108-1.387,0.323c-0.381,0.215-0.684,0.5-0.912,0.854s-0.393,0.761-0.494,1.216
			c-0.102,0.457-0.152,0.926-0.152,1.406C365.64,29.899,365.7,30.346,365.821,30.783z"/>
		<path fill="#398740" d="M383.271,34.479c-0.418,0-0.75-0.117-0.996-0.352c-0.248-0.234-0.371-0.617-0.371-1.149
			c-0.443,0.532-0.959,0.915-1.549,1.149c-0.588,0.234-1.225,0.352-1.908,0.352c-0.445,0-0.863-0.047-1.254-0.143
			c-0.395-0.095-0.738-0.253-1.037-0.475c-0.297-0.222-0.531-0.507-0.703-0.855c-0.17-0.348-0.256-0.77-0.256-1.264
			c0-0.557,0.096-1.013,0.285-1.367c0.189-0.355,0.439-0.643,0.75-0.865c0.311-0.221,0.666-0.389,1.064-0.504
			c0.398-0.113,0.807-0.209,1.225-0.284c0.443-0.089,0.865-0.155,1.264-0.2c0.4-0.043,0.752-0.107,1.055-0.189
			c0.305-0.082,0.545-0.203,0.723-0.361s0.266-0.389,0.266-0.693c0-0.354-0.066-0.639-0.199-0.855
			c-0.133-0.215-0.305-0.379-0.514-0.493s-0.443-0.19-0.703-0.228c-0.26-0.039-0.516-0.058-0.77-0.058
			c-0.684,0-1.254,0.13-1.709,0.39c-0.457,0.26-0.703,0.75-0.74,1.473h-1.615c0.025-0.608,0.15-1.121,0.379-1.539
			s0.533-0.757,0.912-1.017c0.381-0.26,0.816-0.446,1.311-0.561s1.014-0.171,1.559-0.171c0.443,0,0.883,0.031,1.32,0.095
			s0.834,0.193,1.188,0.39c0.355,0.196,0.641,0.473,0.855,0.826c0.215,0.355,0.322,0.817,0.322,1.387v5.055
			c0,0.38,0.023,0.658,0.066,0.836c0.045,0.178,0.193,0.266,0.447,0.266c0.139,0,0.305-0.031,0.494-0.095v1.254
			C384.151,34.396,383.765,34.479,383.271,34.479z M381.011,29.529c-0.33,0.069-0.674,0.127-1.035,0.171s-0.727,0.095-1.094,0.151
			c-0.367,0.058-0.695,0.149-0.988,0.275c-0.291,0.127-0.527,0.308-0.711,0.542s-0.275,0.554-0.275,0.96
			c0,0.266,0.053,0.49,0.16,0.674s0.248,0.333,0.418,0.447c0.172,0.113,0.375,0.196,0.609,0.246
			c0.234,0.051,0.471,0.076,0.711,0.076c0.533,0,0.988-0.072,1.369-0.219c0.379-0.145,0.689-0.328,0.93-0.551
			c0.242-0.221,0.42-0.462,0.533-0.722c0.113-0.259,0.17-0.503,0.17-0.731v-1.653C381.606,29.349,381.339,29.459,381.011,29.529z"/>
		<path fill="#398740" d="M387.45,24.446v1.558h0.039c0.672-1.189,1.734-1.785,3.191-1.785c0.646,0,1.186,0.088,1.615,0.266
			s0.779,0.425,1.045,0.741c0.266,0.317,0.453,0.693,0.561,1.13c0.107,0.438,0.162,0.922,0.162,1.454v6.46h-1.615v-6.65
			c0-0.607-0.178-1.089-0.531-1.443c-0.355-0.354-0.844-0.532-1.465-0.532c-0.492,0-0.92,0.076-1.281,0.228
			c-0.361,0.152-0.662,0.368-0.902,0.646c-0.242,0.279-0.422,0.605-0.541,0.979c-0.121,0.373-0.182,0.782-0.182,1.226v5.548h-1.615
			v-9.823H387.45z"/>
		<path fill="#398740" d="M400.694,24.446v1.425h-1.957v6.1c0,0.189,0.016,0.342,0.047,0.456s0.092,0.202,0.182,0.266
			c0.088,0.063,0.211,0.104,0.369,0.124c0.158,0.019,0.365,0.028,0.617,0.028h0.742v1.425h-1.234c-0.418,0-0.777-0.028-1.074-0.086
			c-0.299-0.057-0.539-0.161-0.723-0.312c-0.184-0.152-0.32-0.367-0.408-0.646c-0.088-0.278-0.133-0.646-0.133-1.102v-6.252h-1.672
			v-1.425h1.672v-2.944h1.615v2.944H400.694z"/>
		<path fill="#398740" d="M406.585,22.224v-1.521h10.848v1.521h-4.521V34.27h-1.805V22.224H406.585z"/>
		<path fill="#398740" d="M423.513,33.643c-0.734,0.558-1.66,0.836-2.773,0.836c-0.785,0-1.467-0.127-2.043-0.38
			s-1.061-0.608-1.453-1.063c-0.393-0.457-0.688-1.001-0.883-1.635c-0.197-0.633-0.309-1.323-0.334-2.07
			c0-0.748,0.115-1.432,0.342-2.053c0.229-0.62,0.549-1.158,0.961-1.615c0.41-0.455,0.898-0.811,1.463-1.063
			c0.562-0.253,1.18-0.38,1.852-0.38c0.875,0,1.6,0.18,2.176,0.541s1.039,0.82,1.387,1.378c0.35,0.558,0.59,1.165,0.723,1.823
			c0.133,0.659,0.188,1.286,0.162,1.882h-7.354c-0.014,0.431,0.037,0.839,0.152,1.226c0.113,0.387,0.297,0.729,0.551,1.025
			c0.252,0.298,0.576,0.535,0.969,0.713s0.855,0.266,1.387,0.266c0.684,0,1.244-0.158,1.682-0.475s0.725-0.799,0.865-1.444h1.596
			C424.722,32.256,424.247,33.086,423.513,33.643z M423.124,27.334c-0.146-0.342-0.342-0.636-0.59-0.883
			c-0.246-0.247-0.539-0.443-0.873-0.59c-0.336-0.145-0.707-0.218-1.111-0.218c-0.418,0-0.795,0.073-1.131,0.218
			c-0.336,0.146-0.625,0.346-0.865,0.6c-0.24,0.253-0.43,0.548-0.57,0.883c-0.139,0.336-0.221,0.693-0.246,1.074h5.643
			C423.354,28.037,423.269,27.677,423.124,27.334z"/>
		<path fill="#398740" d="M432.632,26.156c-0.404-0.342-0.949-0.513-1.633-0.513c-0.584,0-1.07,0.108-1.463,0.323
			s-0.707,0.5-0.941,0.854s-0.402,0.764-0.504,1.226c-0.102,0.463-0.15,0.94-0.15,1.435c0,0.456,0.053,0.899,0.16,1.33
			s0.275,0.813,0.504,1.149s0.525,0.605,0.893,0.808s0.805,0.304,1.312,0.304c0.797,0,1.42-0.209,1.871-0.627
			c0.449-0.418,0.725-1.007,0.826-1.767h1.652c-0.178,1.216-0.629,2.153-1.357,2.812c-0.729,0.659-1.721,0.988-2.975,0.988
			c-0.746,0-1.408-0.121-1.984-0.361c-0.578-0.24-1.059-0.582-1.445-1.025s-0.678-0.973-0.873-1.587
			c-0.197-0.614-0.295-1.288-0.295-2.023c0-0.734,0.096-1.422,0.285-2.062c0.189-0.639,0.479-1.197,0.865-1.672
			c0.385-0.475,0.869-0.849,1.453-1.121c0.582-0.271,1.26-0.408,2.033-0.408c0.557,0,1.08,0.066,1.566,0.199
			c0.488,0.133,0.918,0.339,1.293,0.617c0.373,0.279,0.68,0.631,0.922,1.055c0.24,0.425,0.393,0.928,0.455,1.511h-1.672
			C433.304,26.98,433.038,26.498,432.632,26.156z"/>
		<path fill="#398740" d="M438.579,20.703v5.188h0.039c0.125-0.305,0.303-0.561,0.531-0.77s0.484-0.38,0.77-0.514
			c0.285-0.133,0.582-0.23,0.893-0.294s0.611-0.095,0.902-0.095c0.646,0,1.186,0.088,1.615,0.266s0.779,0.425,1.045,0.741
			c0.266,0.317,0.453,0.693,0.561,1.13c0.107,0.438,0.162,0.922,0.162,1.454v6.46h-1.615v-6.65c0-0.607-0.178-1.089-0.531-1.443
			c-0.355-0.354-0.844-0.532-1.465-0.532c-0.492,0-0.92,0.076-1.281,0.228c-0.361,0.152-0.662,0.368-0.902,0.646
			c-0.242,0.279-0.422,0.605-0.541,0.979c-0.121,0.373-0.182,0.782-0.182,1.226v5.548h-1.615V20.703H438.579z"/>
		<path fill="#398740" d="M449.048,24.446v1.558h0.039c0.67-1.189,1.734-1.785,3.191-1.785c0.646,0,1.184,0.088,1.615,0.266
			c0.43,0.178,0.779,0.425,1.045,0.741c0.266,0.317,0.453,0.693,0.561,1.13c0.107,0.438,0.162,0.922,0.162,1.454v6.46h-1.615v-6.65
			c0-0.607-0.178-1.089-0.533-1.443c-0.354-0.354-0.842-0.532-1.463-0.532c-0.494,0-0.922,0.076-1.281,0.228
			c-0.361,0.152-0.662,0.368-0.902,0.646c-0.242,0.279-0.422,0.605-0.543,0.979c-0.119,0.373-0.18,0.782-0.18,1.226v5.548h-1.615
			v-9.823H449.048z"/>
		<path fill="#398740" d="M457.864,27.344c0.203-0.627,0.506-1.172,0.912-1.634c0.404-0.462,0.906-0.827,1.5-1.093
			c0.596-0.266,1.279-0.398,2.053-0.398c0.785,0,1.473,0.133,2.062,0.398c0.588,0.266,1.086,0.631,1.49,1.093
			c0.406,0.462,0.709,1.007,0.912,1.634s0.305,1.302,0.305,2.023c0,0.723-0.102,1.395-0.305,2.014
			c-0.203,0.621-0.506,1.163-0.912,1.625c-0.404,0.463-0.902,0.824-1.49,1.083c-0.59,0.26-1.277,0.39-2.062,0.39
			c-0.773,0-1.457-0.13-2.053-0.39c-0.594-0.259-1.096-0.62-1.5-1.083c-0.406-0.462-0.709-1.004-0.912-1.625
			c-0.203-0.619-0.305-1.291-0.305-2.014C457.56,28.646,457.661,27.971,457.864,27.344z M459.507,30.954
			c0.158,0.462,0.377,0.849,0.656,1.159s0.605,0.548,0.979,0.713c0.373,0.164,0.77,0.246,1.188,0.246s0.814-0.082,1.188-0.246
			c0.373-0.165,0.699-0.402,0.979-0.713s0.498-0.697,0.656-1.159s0.236-0.991,0.236-1.587c0-0.595-0.078-1.123-0.236-1.586
			s-0.377-0.852-0.656-1.169c-0.279-0.316-0.605-0.558-0.979-0.722s-0.77-0.247-1.188-0.247s-0.814,0.083-1.188,0.247
			s-0.699,0.405-0.979,0.722c-0.279,0.317-0.498,0.706-0.656,1.169s-0.236,0.991-0.236,1.586
			C459.271,29.963,459.349,30.492,459.507,30.954z"/>
		<path fill="#398740" d="M470.708,20.703V34.27h-1.615V20.703H470.708z"/>
		<path fill="#398740" d="M472.987,27.344c0.203-0.627,0.508-1.172,0.912-1.634c0.406-0.462,0.906-0.827,1.502-1.093
			c0.594-0.266,1.279-0.398,2.051-0.398c0.785,0,1.473,0.133,2.062,0.398c0.588,0.266,1.086,0.631,1.49,1.093
			c0.406,0.462,0.711,1.007,0.912,1.634c0.203,0.627,0.305,1.302,0.305,2.023c0,0.723-0.102,1.395-0.305,2.014
			c-0.201,0.621-0.506,1.163-0.912,1.625c-0.404,0.463-0.902,0.824-1.49,1.083c-0.59,0.26-1.277,0.39-2.062,0.39
			c-0.771,0-1.457-0.13-2.051-0.39c-0.596-0.259-1.096-0.62-1.502-1.083c-0.404-0.462-0.709-1.004-0.912-1.625
			c-0.203-0.619-0.303-1.291-0.303-2.014C472.685,28.646,472.784,27.971,472.987,27.344z M474.632,30.954
			c0.158,0.462,0.377,0.849,0.654,1.159c0.279,0.311,0.605,0.548,0.979,0.713c0.375,0.164,0.77,0.246,1.188,0.246
			s0.814-0.082,1.188-0.246c0.375-0.165,0.701-0.402,0.979-0.713c0.279-0.311,0.498-0.697,0.656-1.159s0.238-0.991,0.238-1.587
			c0-0.595-0.08-1.123-0.238-1.586s-0.377-0.852-0.656-1.169c-0.277-0.316-0.604-0.558-0.979-0.722
			c-0.373-0.164-0.77-0.247-1.188-0.247s-0.812,0.083-1.188,0.247c-0.373,0.164-0.699,0.405-0.979,0.722
			c-0.277,0.317-0.496,0.706-0.654,1.169s-0.238,0.991-0.238,1.586C474.394,29.963,474.474,30.492,474.632,30.954z"/>
		<path fill="#398740" d="M491.493,37.043c-0.734,0.799-1.887,1.197-3.457,1.197c-0.457,0-0.922-0.051-1.396-0.152
			c-0.477-0.102-0.906-0.266-1.293-0.493s-0.705-0.526-0.959-0.894s-0.393-0.816-0.418-1.349h1.615
			c0.012,0.291,0.104,0.538,0.275,0.741c0.17,0.202,0.379,0.367,0.627,0.494c0.246,0.126,0.516,0.219,0.807,0.275
			s0.57,0.086,0.836,0.086c0.533,0,0.982-0.093,1.35-0.276s0.672-0.437,0.912-0.76s0.414-0.712,0.521-1.169
			c0.109-0.455,0.162-0.956,0.162-1.5v-0.646h-0.037c-0.279,0.607-0.701,1.055-1.264,1.34c-0.564,0.285-1.162,0.428-1.795,0.428
			c-0.736,0-1.375-0.134-1.92-0.4c-0.545-0.266-1-0.623-1.367-1.072c-0.369-0.45-0.645-0.976-0.828-1.578
			c-0.184-0.602-0.275-1.237-0.275-1.908c0-0.583,0.076-1.182,0.229-1.797c0.152-0.613,0.406-1.171,0.76-1.672
			c0.355-0.5,0.824-0.912,1.406-1.234c0.582-0.323,1.299-0.484,2.146-0.484c0.621,0,1.191,0.137,1.711,0.408
			c0.52,0.272,0.924,0.682,1.215,1.226h0.02v-1.406h1.52v8.987C492.595,35.042,492.228,36.246,491.493,37.043z M489.433,32.626
			c0.373-0.222,0.674-0.513,0.902-0.874s0.395-0.77,0.504-1.226c0.107-0.456,0.16-0.911,0.16-1.368c0-0.43-0.051-0.854-0.152-1.272
			s-0.262-0.795-0.484-1.131c-0.221-0.335-0.51-0.604-0.863-0.808c-0.355-0.202-0.785-0.304-1.293-0.304
			c-0.52,0-0.963,0.099-1.33,0.294c-0.367,0.197-0.668,0.46-0.902,0.789c-0.234,0.33-0.404,0.709-0.512,1.141
			c-0.109,0.43-0.162,0.88-0.162,1.348c0,0.444,0.045,0.888,0.133,1.33c0.088,0.444,0.24,0.846,0.455,1.207
			c0.217,0.361,0.502,0.652,0.855,0.874c0.355,0.222,0.799,0.333,1.33,0.333C488.606,32.959,489.058,32.848,489.433,32.626z"/>
		<path fill="#398740" d="M498.323,36.777c-0.184,0.33-0.387,0.599-0.607,0.808c-0.223,0.209-0.465,0.36-0.732,0.456
			c-0.266,0.096-0.582,0.143-0.949,0.143c-0.189,0-0.381-0.013-0.57-0.038s-0.373-0.069-0.551-0.133v-1.481
			c0.152,0.05,0.307,0.101,0.465,0.151c0.158,0.05,0.32,0.075,0.484,0.075c0.33,0,0.596-0.075,0.799-0.227
			c0.203-0.152,0.381-0.375,0.531-0.666l0.666-1.652l-3.895-9.767h1.824l2.869,8.037h0.037l2.756-8.037h1.709l-4.275,11.115
			C498.694,36.043,498.507,36.448,498.323,36.777z"/>
	</g>
	<rect x="177.375" fill="#398740" width="1" height="39.727"/>
</g>
</svg>
