<?xml version="1.0" encoding="utf-8"?>
<!-- Generator: Adobe Illustrator 16.0.0, SVG Export Plug-In . SVG Version: 6.00 Build 0)  -->
<!DOCTYPE svg PUBLIC "-//W3C//DTD SVG 1.1//EN" "http://www.w3.org/Graphics/SVG/1.1/DTD/svg11.dtd">
<svg version="1.1" id="Layer_1" xmlns="http://www.w3.org/2000/svg" xmlns:xlink="http://www.w3.org/1999/xlink" x="0px" y="0px"
	 width="636.997px" height="39.727px" viewBox="0 0 636.997 39.727" enable-background="new 0 0 636.997 39.727"
	 xml:space="preserve">
<g>
	<path fill="#FFFFFF" d="M13.244,3.596c1.978,0,3.82,0.316,5.525,0.946c1.706,0.631,3.182,1.577,4.429,2.838
		c1.247,1.262,2.221,2.838,2.924,4.73c0.702,1.892,1.054,4.114,1.054,6.665c0,2.235-0.287,4.3-0.86,6.192
		c-0.574,1.892-1.441,3.525-2.602,4.901c-1.161,1.376-2.609,2.458-4.343,3.247c-1.735,0.789-3.777,1.182-6.127,1.182H0V3.596H13.244
		z M12.771,28.622c0.975,0,1.92-0.156,2.838-0.473c0.917-0.314,1.734-0.838,2.451-1.569c0.716-0.731,1.29-1.685,1.72-2.86
		c0.43-1.174,0.645-2.607,0.645-4.299c0-1.548-0.15-2.946-0.452-4.192c-0.301-1.247-0.795-2.315-1.483-3.204
		c-0.688-0.888-1.599-1.569-2.73-2.042c-1.133-0.473-2.53-0.709-4.192-0.709H6.751v19.35H12.771z"/>
	<path fill="#FFFFFF" d="M53.965,3.596v5.676H37.754v6.579h14.878v5.245H37.754v7.525h16.555v5.676H31.003V3.596H53.965z"/>
	<path fill="#FFFFFF" d="M79.593,3.596v5.676H64.758v7.095h12.857v5.246H64.758v12.685h-6.751V3.596H79.593z"/>
	<path fill="#FFFFFF" d="M89.396,3.596v25.026h14.964v5.676H82.645V3.596H89.396z"/>
	<path fill="#FFFFFF" d="M117.432,3.596l11.481,30.702h-7.009l-2.322-6.836h-11.481l-2.408,6.836h-6.794l11.61-30.702H117.432z
		 M117.819,22.431l-3.87-11.266h-0.086l-3.999,11.266H117.819z"/>
	<path fill="#FFFFFF" d="M140.222,3.596l7.181,21.114h0.086l6.794-21.114h9.503v30.702h-6.321V12.541h-0.086l-7.525,21.757h-5.203
		l-7.525-21.542h-0.086v21.542h-6.321V3.596H140.222z"/>
	<path fill="#FFFFFF" d="M168.559,12.691c0.688-1.963,1.677-3.677,2.967-5.139s2.874-2.608,4.751-3.44
		c1.877-0.831,3.992-1.247,6.343-1.247c2.379,0,4.5,0.416,6.364,1.247c1.863,0.832,3.44,1.978,4.73,3.44s2.279,3.175,2.967,5.139
		c0.688,1.964,1.032,4.092,1.032,6.385c0,2.236-0.344,4.321-1.032,6.257s-1.677,3.619-2.967,5.053s-2.867,2.559-4.73,3.375
		c-1.864,0.816-3.985,1.226-6.364,1.226c-2.351,0-4.465-0.409-6.343-1.226s-3.461-1.941-4.751-3.375s-2.279-3.117-2.967-5.053
		s-1.032-4.021-1.032-6.257C167.526,16.783,167.871,14.655,168.559,12.691z M174.729,22.839c0.301,1.219,0.781,2.315,1.44,3.289
		c0.659,0.975,1.519,1.757,2.58,2.344c1.06,0.588,2.35,0.882,3.87,0.882c1.519,0,2.809-0.294,3.87-0.882
		c1.06-0.587,1.92-1.369,2.58-2.344c0.659-0.974,1.14-2.07,1.441-3.289c0.301-1.219,0.451-2.473,0.451-3.763
		c0-1.347-0.15-2.651-0.451-3.913c-0.301-1.261-0.782-2.387-1.441-3.376c-0.66-0.989-1.52-1.777-2.58-2.365
		c-1.061-0.587-2.351-0.881-3.87-0.881c-1.52,0-2.81,0.294-3.87,0.881c-1.061,0.588-1.921,1.376-2.58,2.365
		c-0.66,0.989-1.139,2.115-1.44,3.376c-0.301,1.262-0.452,2.565-0.452,3.913C174.277,20.366,174.428,21.62,174.729,22.839z"/>
</g>
<g>
	<path fill="#FFFFFF" d="M214.995,22.245v-1.521h10.849v1.521h-4.522V34.29h-1.805V22.245H214.995z"/>
	<path fill="#FFFFFF" d="M228.693,20.725v5.187h0.038c0.126-0.304,0.304-0.561,0.532-0.77s0.485-0.379,0.77-0.513
		c0.285-0.133,0.583-0.231,0.893-0.294c0.31-0.063,0.611-0.096,0.902-0.096c0.646,0,1.185,0.089,1.615,0.266
		c0.43,0.178,0.779,0.426,1.045,0.742s0.453,0.693,0.561,1.13c0.107,0.437,0.162,0.921,0.162,1.454v6.459h-1.615v-6.649
		c0-0.608-0.177-1.089-0.532-1.444c-0.355-0.354-0.843-0.531-1.463-0.531c-0.494,0-0.921,0.076-1.282,0.228
		s-0.662,0.368-0.902,0.646c-0.241,0.279-0.421,0.605-0.542,0.979c-0.121,0.374-0.181,0.783-0.181,1.227v5.547h-1.615V20.725
		H228.693z"/>
	<path fill="#FFFFFF" d="M244.596,33.663c-0.735,0.559-1.66,0.836-2.774,0.836c-0.786,0-1.466-0.127-2.042-0.379
		c-0.577-0.254-1.061-0.608-1.454-1.064s-0.687-1-0.883-1.635c-0.197-0.633-0.307-1.322-0.333-2.07c0-0.747,0.114-1.432,0.342-2.053
		c0.228-0.619,0.548-1.158,0.959-1.614s0.899-0.811,1.463-1.063c0.563-0.254,1.181-0.381,1.852-0.381
		c0.874,0,1.599,0.181,2.176,0.542c0.576,0.36,1.039,0.819,1.387,1.378c0.349,0.557,0.589,1.165,0.722,1.823
		c0.133,0.659,0.187,1.286,0.162,1.882h-7.353c-0.013,0.43,0.038,0.838,0.152,1.225c0.114,0.387,0.297,0.729,0.551,1.026
		c0.253,0.298,0.576,0.535,0.969,0.712c0.393,0.178,0.855,0.267,1.387,0.267c0.684,0,1.244-0.159,1.681-0.476
		s0.725-0.798,0.865-1.443h1.596C245.806,32.276,245.331,33.106,244.596,33.663z M244.207,27.355
		c-0.146-0.342-0.342-0.636-0.589-0.884c-0.247-0.246-0.539-0.443-0.874-0.589s-0.706-0.218-1.111-0.218
		c-0.418,0-0.795,0.072-1.13,0.218c-0.336,0.146-0.624,0.346-0.865,0.599c-0.241,0.254-0.431,0.549-0.57,0.884
		c-0.14,0.335-0.222,0.693-0.247,1.073h5.643C244.438,28.059,244.352,27.698,244.207,27.355z"/>
	<path fill="#FFFFFF" d="M254.646,24.468v1.558h0.038c0.671-1.19,1.735-1.786,3.192-1.786c0.646,0,1.185,0.089,1.615,0.266
		c0.43,0.178,0.779,0.426,1.045,0.742s0.453,0.693,0.561,1.13c0.107,0.437,0.162,0.921,0.162,1.454v6.459h-1.615v-6.649
		c0-0.608-0.177-1.089-0.532-1.444c-0.355-0.354-0.843-0.531-1.463-0.531c-0.494,0-0.921,0.076-1.282,0.228
		s-0.662,0.368-0.902,0.646c-0.241,0.279-0.421,0.605-0.542,0.979c-0.121,0.374-0.181,0.783-0.181,1.227v5.547h-1.615v-9.822
		H254.646z"/>
	<path fill="#FFFFFF" d="M271.234,34.499c-0.418,0-0.75-0.117-0.997-0.352c-0.247-0.234-0.371-0.617-0.371-1.148
		c-0.444,0.531-0.959,0.914-1.549,1.148c-0.589,0.234-1.225,0.352-1.909,0.352c-0.444,0-0.862-0.047-1.254-0.143
		c-0.393-0.094-0.738-0.252-1.036-0.475c-0.298-0.221-0.532-0.506-0.703-0.855c-0.171-0.348-0.256-0.77-0.256-1.263
		c0-0.558,0.095-1.013,0.285-1.368c0.19-0.354,0.44-0.643,0.75-0.864c0.31-0.222,0.665-0.39,1.064-0.504
		c0.399-0.114,0.807-0.209,1.225-0.284c0.443-0.089,0.865-0.156,1.264-0.2s0.75-0.107,1.055-0.19
		c0.304-0.082,0.544-0.202,0.722-0.36s0.266-0.39,0.266-0.694c0-0.354-0.066-0.639-0.199-0.854c-0.133-0.215-0.304-0.38-0.513-0.493
		c-0.209-0.115-0.443-0.19-0.703-0.229s-0.516-0.057-0.77-0.057c-0.684,0-1.254,0.129-1.71,0.389s-0.703,0.751-0.741,1.473h-1.615
		c0.025-0.607,0.152-1.121,0.38-1.539s0.532-0.756,0.912-1.016s0.817-0.447,1.311-0.561c0.494-0.115,1.013-0.172,1.558-0.172
		c0.443,0,0.883,0.032,1.32,0.096c0.437,0.062,0.833,0.193,1.188,0.389c0.354,0.197,0.64,0.473,0.855,0.826
		c0.215,0.355,0.323,0.818,0.323,1.388v5.054c0,0.381,0.022,0.659,0.066,0.836c0.044,0.178,0.193,0.267,0.446,0.267
		c0.14,0,0.304-0.032,0.494-0.095v1.254C272.114,34.417,271.728,34.499,271.234,34.499z M268.973,29.55
		c-0.33,0.07-0.674,0.127-1.036,0.172c-0.361,0.044-0.725,0.094-1.092,0.151c-0.368,0.058-0.697,0.149-0.988,0.275
		c-0.292,0.127-0.529,0.308-0.712,0.542s-0.275,0.554-0.275,0.959c0,0.266,0.054,0.491,0.162,0.675
		c0.107,0.184,0.247,0.333,0.418,0.446c0.171,0.114,0.374,0.197,0.608,0.247c0.234,0.051,0.472,0.076,0.712,0.076
		c0.532,0,0.988-0.073,1.368-0.219s0.69-0.329,0.931-0.551s0.418-0.462,0.532-0.722s0.171-0.504,0.171-0.732v-1.652
		C269.568,29.37,269.302,29.48,268.973,29.55z"/>
	<path fill="#FFFFFF" d="M278.093,24.468v1.425h-1.957v6.099c0,0.19,0.016,0.342,0.047,0.457c0.032,0.113,0.092,0.202,0.181,0.266
		c0.088,0.062,0.212,0.104,0.371,0.123c0.158,0.02,0.364,0.029,0.617,0.029h0.741v1.424h-1.235c-0.418,0-0.776-0.027-1.074-0.085
		c-0.298-0.058-0.539-0.161-0.722-0.313s-0.32-0.367-0.408-0.646c-0.089-0.277-0.133-0.646-0.133-1.102v-6.251h-1.672v-1.425h1.672
		v-2.945h1.615v2.945H278.093z"/>
	<path fill="#FFFFFF" d="M286.491,34.29v-1.558h-0.038c-0.342,0.608-0.779,1.055-1.311,1.34c-0.532,0.284-1.159,0.427-1.881,0.427
		c-0.646,0-1.185-0.085-1.615-0.256s-0.779-0.415-1.045-0.731c-0.266-0.317-0.453-0.694-0.561-1.131
		c-0.108-0.437-0.162-0.921-0.162-1.453v-6.46h1.615v6.65c0,0.607,0.177,1.089,0.532,1.443c0.354,0.355,0.842,0.532,1.463,0.532
		c0.494,0,0.921-0.076,1.282-0.228c0.361-0.152,0.662-0.367,0.903-0.646c0.24-0.279,0.421-0.605,0.542-0.979
		c0.12-0.373,0.18-0.782,0.18-1.226v-5.548h1.615v9.822H286.491z"/>
	<path fill="#FFFFFF" d="M291.906,24.468v2.07h0.038c0.393-0.797,0.874-1.387,1.444-1.767c0.57-0.38,1.292-0.558,2.166-0.532v1.711
		c-0.646,0-1.197,0.088-1.653,0.266s-0.823,0.437-1.102,0.779c-0.278,0.342-0.481,0.756-0.608,1.244
		c-0.126,0.487-0.19,1.048-0.19,1.682v4.369h-1.615v-9.822H291.906z"/>
	<path fill="#FFFFFF" d="M304.312,34.499c-0.418,0-0.75-0.117-0.996-0.352c-0.248-0.234-0.371-0.617-0.371-1.148
		c-0.443,0.531-0.959,0.914-1.549,1.148c-0.589,0.234-1.225,0.352-1.909,0.352c-0.444,0-0.862-0.047-1.254-0.143
		c-0.394-0.094-0.738-0.252-1.036-0.475c-0.297-0.221-0.531-0.506-0.703-0.855c-0.17-0.348-0.256-0.77-0.256-1.263
		c0-0.558,0.095-1.013,0.285-1.368c0.189-0.354,0.439-0.643,0.75-0.864s0.665-0.39,1.064-0.504c0.398-0.114,0.807-0.209,1.225-0.284
		c0.443-0.089,0.865-0.156,1.264-0.2c0.399-0.044,0.751-0.107,1.055-0.19c0.305-0.082,0.545-0.202,0.723-0.36
		c0.177-0.158,0.266-0.39,0.266-0.694c0-0.354-0.066-0.639-0.199-0.854c-0.133-0.215-0.305-0.38-0.514-0.493
		c-0.209-0.115-0.443-0.19-0.703-0.229s-0.516-0.057-0.77-0.057c-0.684,0-1.254,0.129-1.709,0.389
		c-0.457,0.26-0.703,0.751-0.741,1.473h-1.615c0.025-0.607,0.151-1.121,0.38-1.539s0.532-0.756,0.912-1.016s0.816-0.447,1.311-0.561
		c0.494-0.115,1.014-0.172,1.559-0.172c0.443,0,0.883,0.032,1.32,0.096c0.438,0.062,0.833,0.193,1.188,0.389
		c0.354,0.197,0.64,0.473,0.855,0.826c0.215,0.355,0.322,0.818,0.322,1.388v5.054c0,0.381,0.022,0.659,0.066,0.836
		c0.045,0.178,0.193,0.267,0.447,0.267c0.139,0,0.304-0.032,0.494-0.095v1.254C305.192,34.417,304.806,34.499,304.312,34.499z
		 M302.052,29.55c-0.33,0.07-0.675,0.127-1.036,0.172c-0.36,0.044-0.726,0.094-1.093,0.151s-0.696,0.149-0.988,0.275
		c-0.291,0.127-0.528,0.308-0.712,0.542s-0.275,0.554-0.275,0.959c0,0.266,0.054,0.491,0.161,0.675s0.248,0.333,0.418,0.446
		c0.172,0.114,0.374,0.197,0.608,0.247c0.234,0.051,0.472,0.076,0.712,0.076c0.533,0,0.988-0.073,1.369-0.219
		c0.379-0.146,0.689-0.329,0.93-0.551c0.241-0.222,0.419-0.462,0.533-0.722c0.113-0.26,0.17-0.504,0.17-0.732v-1.652
		C302.646,29.37,302.38,29.48,302.052,29.55z"/>
	<path fill="#FFFFFF" d="M308.682,20.725V34.29h-1.614V20.725H308.682z"/>
	<path fill="#FFFFFF" d="M324.489,34.29l-1.994-7.809h-0.038l-1.976,7.809h-1.748l-3.154-9.822h1.785l2.224,8.037h0.038l1.977-8.037
		h1.766l2.053,8.037h0.038l2.204-8.037h1.672L326.2,34.29H324.489z"/>
	<path fill="#FFFFFF" d="M338.417,34.499c-0.418,0-0.751-0.117-0.998-0.352c-0.246-0.234-0.37-0.617-0.37-1.148
		c-0.444,0.531-0.96,0.914-1.549,1.148s-1.226,0.352-1.909,0.352c-0.443,0-0.861-0.047-1.254-0.143
		c-0.393-0.094-0.738-0.252-1.035-0.475c-0.299-0.221-0.533-0.506-0.703-0.855c-0.172-0.348-0.257-0.77-0.257-1.263
		c0-0.558,0.095-1.013,0.285-1.368c0.19-0.354,0.44-0.643,0.751-0.864c0.31-0.222,0.664-0.39,1.063-0.504s0.808-0.209,1.226-0.284
		c0.443-0.089,0.864-0.156,1.264-0.2c0.398-0.044,0.75-0.107,1.055-0.19c0.303-0.082,0.544-0.202,0.721-0.36
		c0.178-0.158,0.267-0.39,0.267-0.694c0-0.354-0.066-0.639-0.199-0.854c-0.134-0.215-0.304-0.38-0.513-0.493
		c-0.209-0.115-0.443-0.19-0.703-0.229s-0.517-0.057-0.77-0.057c-0.685,0-1.254,0.129-1.711,0.389
		c-0.455,0.26-0.703,0.751-0.74,1.473h-1.615c0.025-0.607,0.152-1.121,0.38-1.539s0.532-0.756,0.912-1.016s0.817-0.447,1.312-0.561
		c0.494-0.115,1.013-0.172,1.558-0.172c0.443,0,0.884,0.032,1.32,0.096c0.437,0.062,0.833,0.193,1.188,0.389
		c0.354,0.197,0.64,0.473,0.854,0.826c0.216,0.355,0.324,0.818,0.324,1.388v5.054c0,0.381,0.021,0.659,0.066,0.836
		c0.044,0.178,0.192,0.267,0.445,0.267c0.141,0,0.305-0.032,0.494-0.095v1.254C339.297,34.417,338.911,34.499,338.417,34.499z
		 M336.155,29.55c-0.329,0.07-0.674,0.127-1.035,0.172c-0.361,0.044-0.725,0.094-1.092,0.151c-0.368,0.058-0.697,0.149-0.988,0.275
		c-0.292,0.127-0.529,0.308-0.713,0.542s-0.275,0.554-0.275,0.959c0,0.266,0.054,0.491,0.162,0.675
		c0.107,0.184,0.246,0.333,0.418,0.446c0.17,0.114,0.373,0.197,0.607,0.247c0.234,0.051,0.472,0.076,0.713,0.076
		c0.531,0,0.988-0.073,1.367-0.219c0.381-0.146,0.69-0.329,0.932-0.551c0.24-0.222,0.418-0.462,0.531-0.722
		c0.114-0.26,0.172-0.504,0.172-0.732v-1.652C336.751,29.37,336.485,29.48,336.155,29.55z"/>
	<path fill="#FFFFFF" d="M344.373,36.798c-0.185,0.33-0.387,0.6-0.608,0.809s-0.465,0.36-0.731,0.455
		c-0.266,0.096-0.583,0.143-0.95,0.143c-0.189,0-0.38-0.012-0.57-0.037c-0.189-0.025-0.373-0.07-0.551-0.133v-1.482
		c0.152,0.051,0.308,0.102,0.466,0.152c0.158,0.05,0.319,0.075,0.484,0.075c0.329,0,0.596-0.075,0.798-0.228
		c0.203-0.152,0.381-0.374,0.532-0.665l0.665-1.653l-3.895-9.766h1.824l2.869,8.037h0.037l2.756-8.037h1.709l-4.274,11.115
		C344.743,36.063,344.556,36.47,344.373,36.798z"/>
	<path fill="#FFFFFF" d="M355.63,27.365c0.203-0.628,0.508-1.172,0.912-1.634c0.406-0.463,0.906-0.827,1.502-1.093
		c0.595-0.267,1.279-0.399,2.052-0.399c0.785,0,1.472,0.133,2.062,0.399c0.589,0.266,1.086,0.63,1.491,1.093
		c0.405,0.462,0.71,1.006,0.912,1.634c0.202,0.627,0.304,1.302,0.304,2.023s-0.102,1.394-0.304,2.014
		c-0.202,0.621-0.507,1.163-0.912,1.624c-0.405,0.463-0.902,0.824-1.491,1.084c-0.59,0.26-1.276,0.389-2.062,0.389
		c-0.772,0-1.457-0.129-2.052-0.389c-0.596-0.26-1.096-0.621-1.502-1.084c-0.404-0.461-0.709-1.003-0.912-1.624
		c-0.202-0.62-0.303-1.292-0.303-2.014S355.428,27.992,355.63,27.365z M357.274,30.976c0.158,0.462,0.377,0.848,0.655,1.158
		s0.604,0.549,0.979,0.713s0.77,0.247,1.188,0.247s0.813-0.083,1.188-0.247s0.7-0.402,0.979-0.713s0.497-0.696,0.655-1.158
		c0.158-0.463,0.238-0.992,0.238-1.587s-0.08-1.124-0.238-1.587c-0.158-0.462-0.377-0.852-0.655-1.168s-0.604-0.558-0.979-0.723
		c-0.374-0.164-0.77-0.246-1.188-0.246s-0.813,0.082-1.188,0.246c-0.374,0.165-0.7,0.406-0.979,0.723s-0.497,0.706-0.655,1.168
		c-0.158,0.463-0.238,0.992-0.238,1.587S357.116,30.513,357.274,30.976z"/>
	<path fill="#FFFFFF" d="M365.776,25.893v-1.425h1.652v-1.463c0-0.799,0.231-1.403,0.694-1.814c0.462-0.412,1.137-0.617,2.023-0.617
		c0.151,0,0.325,0.012,0.522,0.037c0.196,0.025,0.371,0.063,0.522,0.114v1.405c-0.14-0.05-0.292-0.085-0.456-0.104
		c-0.164-0.02-0.316-0.029-0.456-0.029c-0.393,0-0.696,0.076-0.912,0.229s-0.323,0.443-0.323,0.874v1.368h1.9v1.425h-1.9v8.397
		h-1.615v-8.397H365.776z"/>
	<path fill="#FFFFFF" d="M379.343,24.468v1.33h0.037c0.266-0.545,0.684-0.941,1.254-1.188c0.57-0.248,1.197-0.371,1.881-0.371
		c0.76,0,1.422,0.14,1.986,0.418c0.562,0.279,1.031,0.656,1.406,1.131c0.373,0.475,0.654,1.023,0.845,1.644s0.285,1.279,0.285,1.976
		c0,0.697-0.092,1.355-0.275,1.977c-0.185,0.621-0.463,1.162-0.836,1.624c-0.374,0.463-0.843,0.827-1.406,1.093
		s-1.22,0.398-1.966,0.398c-0.241,0-0.511-0.025-0.809-0.076c-0.297-0.051-0.592-0.133-0.883-0.246
		c-0.291-0.114-0.567-0.27-0.826-0.466c-0.26-0.196-0.479-0.44-0.656-0.731h-0.037v5.055h-1.615V24.468H379.343z M385.146,27.954
		c-0.12-0.438-0.304-0.826-0.551-1.168c-0.247-0.343-0.563-0.615-0.95-0.817s-0.84-0.304-1.358-0.304
		c-0.545,0-1.007,0.107-1.388,0.322c-0.379,0.216-0.689,0.498-0.93,0.846c-0.241,0.349-0.416,0.744-0.523,1.188
		s-0.161,0.893-0.161,1.35c0,0.48,0.058,0.946,0.171,1.396c0.114,0.449,0.295,0.845,0.541,1.188c0.248,0.342,0.567,0.617,0.96,0.826
		s0.868,0.313,1.425,0.313c0.558,0,1.023-0.108,1.396-0.323s0.675-0.5,0.902-0.855c0.229-0.354,0.393-0.76,0.494-1.215
		c0.102-0.457,0.152-0.926,0.152-1.406C385.327,28.837,385.267,28.392,385.146,27.954z"/>
	<path fill="#FFFFFF" d="M390.399,24.468v2.07h0.038c0.393-0.797,0.874-1.387,1.444-1.767s1.292-0.558,2.166-0.532v1.711
		c-0.646,0-1.197,0.088-1.653,0.266s-0.823,0.437-1.103,0.779c-0.277,0.342-0.48,0.756-0.607,1.244
		c-0.127,0.487-0.189,1.048-0.189,1.682v4.369h-1.615v-9.822H390.399z"/>
	<path fill="#FFFFFF" d="M401.876,33.663c-0.735,0.559-1.66,0.836-2.774,0.836c-0.786,0-1.466-0.127-2.042-0.379
		c-0.577-0.254-1.062-0.608-1.454-1.064s-0.687-1-0.884-1.635c-0.196-0.633-0.307-1.322-0.332-2.07c0-0.747,0.113-1.432,0.342-2.053
		c0.229-0.619,0.548-1.158,0.959-1.614c0.412-0.456,0.9-0.811,1.464-1.063c0.563-0.254,1.181-0.381,1.853-0.381
		c0.873,0,1.599,0.181,2.176,0.542c0.576,0.36,1.038,0.819,1.387,1.378c0.348,0.557,0.589,1.165,0.722,1.823
		c0.133,0.659,0.187,1.286,0.161,1.882H396.1c-0.013,0.43,0.038,0.838,0.151,1.225c0.115,0.387,0.298,0.729,0.552,1.026
		c0.253,0.298,0.576,0.535,0.969,0.712c0.393,0.178,0.854,0.267,1.388,0.267c0.684,0,1.244-0.159,1.681-0.476
		s0.726-0.798,0.864-1.443h1.597C403.085,32.276,402.61,33.106,401.876,33.663z M401.485,27.355
		c-0.145-0.342-0.342-0.636-0.588-0.884c-0.248-0.246-0.539-0.443-0.875-0.589c-0.335-0.146-0.705-0.218-1.111-0.218
		c-0.418,0-0.795,0.072-1.13,0.218c-0.336,0.146-0.624,0.346-0.864,0.599c-0.241,0.254-0.432,0.549-0.57,0.884
		c-0.14,0.335-0.222,0.693-0.247,1.073h5.644C401.717,28.059,401.632,27.698,401.485,27.355z"/>
	<path fill="#FFFFFF" d="M407.823,34.29l-3.648-9.822h1.805l2.756,8.189h0.037l2.68-8.189h1.69l-3.591,9.822H407.823z"/>
	<path fill="#FFFFFF" d="M421.579,33.663c-0.735,0.559-1.66,0.836-2.774,0.836c-0.786,0-1.466-0.127-2.042-0.379
		c-0.577-0.254-1.062-0.608-1.454-1.064s-0.687-1-0.884-1.635c-0.196-0.633-0.307-1.322-0.332-2.07c0-0.747,0.113-1.432,0.342-2.053
		c0.229-0.619,0.548-1.158,0.959-1.614c0.412-0.456,0.9-0.811,1.464-1.063c0.563-0.254,1.181-0.381,1.853-0.381
		c0.873,0,1.599,0.181,2.176,0.542c0.576,0.36,1.038,0.819,1.387,1.378c0.348,0.557,0.589,1.165,0.722,1.823
		c0.133,0.659,0.187,1.286,0.161,1.882h-7.353c-0.013,0.43,0.038,0.838,0.151,1.225c0.115,0.387,0.298,0.729,0.552,1.026
		c0.253,0.298,0.576,0.535,0.969,0.712c0.393,0.178,0.854,0.267,1.388,0.267c0.684,0,1.244-0.159,1.681-0.476
		s0.726-0.798,0.864-1.443h1.597C422.788,32.276,422.313,33.106,421.579,33.663z M421.188,27.355
		c-0.145-0.342-0.342-0.636-0.588-0.884c-0.248-0.246-0.539-0.443-0.875-0.589c-0.335-0.146-0.705-0.218-1.111-0.218
		c-0.418,0-0.795,0.072-1.13,0.218c-0.336,0.146-0.624,0.346-0.864,0.599c-0.241,0.254-0.432,0.549-0.57,0.884
		c-0.14,0.335-0.222,0.693-0.247,1.073h5.644C421.42,28.059,421.335,27.698,421.188,27.355z"/>
	<path fill="#FFFFFF" d="M426.347,24.468v1.558h0.039c0.671-1.19,1.734-1.786,3.191-1.786c0.646,0,1.185,0.089,1.615,0.266
		c0.43,0.178,0.779,0.426,1.045,0.742s0.453,0.693,0.561,1.13s0.162,0.921,0.162,1.454v6.459h-1.615v-6.649
		c0-0.608-0.178-1.089-0.532-1.444c-0.354-0.354-0.843-0.531-1.464-0.531c-0.493,0-0.921,0.076-1.281,0.228
		c-0.361,0.151-0.662,0.368-0.902,0.646c-0.242,0.279-0.422,0.605-0.542,0.979c-0.12,0.374-0.181,0.783-0.181,1.227v5.547h-1.615
		v-9.822H426.347z"/>
	<path fill="#FFFFFF" d="M439.591,24.468v1.425h-1.957v6.099c0,0.19,0.016,0.342,0.047,0.457c0.031,0.113,0.092,0.202,0.181,0.266
		c0.089,0.062,0.212,0.104,0.37,0.123s0.364,0.029,0.617,0.029h0.742v1.424h-1.235c-0.418,0-0.776-0.027-1.073-0.085
		c-0.299-0.058-0.539-0.161-0.723-0.313s-0.32-0.367-0.408-0.646c-0.089-0.277-0.133-0.646-0.133-1.102v-6.251h-1.672v-1.425h1.672
		v-2.945h1.615v2.945H439.591z"/>
	<path fill="#FFFFFF" d="M441.472,22.7v-1.976h1.614V22.7H441.472z M443.086,24.468v9.822h-1.614v-9.822H443.086z"/>
	<path fill="#FFFFFF" d="M447.114,24.468v1.558h0.037c0.672-1.19,1.736-1.786,3.192-1.786c0.646,0,1.185,0.089,1.615,0.266
		c0.431,0.178,0.778,0.426,1.045,0.742s0.452,0.693,0.561,1.13c0.107,0.437,0.161,0.921,0.161,1.454v6.459h-1.615v-6.649
		c0-0.608-0.177-1.089-0.531-1.444c-0.355-0.354-0.843-0.531-1.463-0.531c-0.494,0-0.922,0.076-1.283,0.228
		c-0.36,0.151-0.662,0.368-0.902,0.646c-0.24,0.279-0.421,0.605-0.541,0.979c-0.121,0.374-0.181,0.783-0.181,1.227v5.547h-1.615
		v-9.822H447.114z"/>
	<path fill="#FFFFFF" d="M463.53,37.064c-0.735,0.798-1.888,1.197-3.459,1.197c-0.455,0-0.921-0.051-1.396-0.152
		c-0.475-0.102-0.905-0.266-1.291-0.493c-0.387-0.229-0.707-0.526-0.96-0.894c-0.253-0.368-0.393-0.817-0.418-1.349h1.615
		c0.013,0.291,0.104,0.537,0.275,0.74s0.38,0.367,0.627,0.494s0.517,0.219,0.808,0.275s0.57,0.086,0.836,0.086
		c0.531,0,0.981-0.092,1.35-0.275c0.367-0.184,0.67-0.438,0.911-0.76c0.241-0.324,0.415-0.713,0.522-1.169s0.162-0.956,0.162-1.501
		v-0.646h-0.039c-0.278,0.608-0.699,1.055-1.263,1.34s-1.163,0.428-1.796,0.428c-0.734,0-1.375-0.133-1.919-0.399
		c-0.544-0.266-1.001-0.624-1.368-1.073s-0.643-0.975-0.826-1.577c-0.184-0.602-0.275-1.237-0.275-1.909
		c0-0.582,0.076-1.182,0.229-1.796c0.151-0.614,0.404-1.171,0.76-1.672c0.354-0.5,0.822-0.912,1.406-1.235
		c0.582-0.322,1.298-0.484,2.146-0.484c0.621,0,1.19,0.137,1.71,0.408c0.519,0.273,0.925,0.682,1.216,1.227h0.02v-1.406h1.52v8.986
		C464.632,35.063,464.265,36.267,463.53,37.064z M461.468,32.647c0.374-0.222,0.676-0.514,0.903-0.875
		c0.228-0.36,0.396-0.77,0.503-1.225c0.107-0.457,0.162-0.912,0.162-1.368c0-0.431-0.051-0.854-0.152-1.272
		s-0.263-0.795-0.484-1.131s-0.51-0.605-0.865-0.808c-0.354-0.202-0.785-0.304-1.291-0.304c-0.52,0-0.963,0.098-1.33,0.294
		s-0.668,0.46-0.902,0.788c-0.234,0.33-0.406,0.71-0.514,1.141s-0.161,0.881-0.161,1.349c0,0.444,0.044,0.888,0.133,1.33
		c0.089,0.444,0.241,0.846,0.456,1.206c0.215,0.361,0.5,0.653,0.855,0.875c0.354,0.221,0.798,0.332,1.33,0.332
		C460.642,32.979,461.095,32.868,461.468,32.647z"/>
	<path fill="#FFFFFF" d="M471.357,25.893v-1.425h1.653v-1.463c0-0.799,0.23-1.403,0.693-1.814c0.462-0.412,1.137-0.617,2.023-0.617
		c0.152,0,0.326,0.012,0.522,0.037s0.37,0.063,0.522,0.114v1.405c-0.14-0.05-0.291-0.085-0.456-0.104
		c-0.165-0.02-0.317-0.029-0.456-0.029c-0.393,0-0.697,0.076-0.912,0.229s-0.322,0.443-0.322,0.874v1.368h1.899v1.425h-1.899v8.397
		h-1.615v-8.397H471.357z M478.064,20.725h1.614V22.7h-1.614V20.725z M478.064,24.468h1.614v9.822h-1.614V24.468z"/>
	<path fill="#FFFFFF" d="M483.65,24.468v2.07h0.038c0.393-0.797,0.873-1.387,1.443-1.767s1.293-0.558,2.166-0.532v1.711
		c-0.646,0-1.197,0.088-1.652,0.266c-0.457,0.178-0.824,0.437-1.103,0.779c-0.278,0.342-0.481,0.756-0.608,1.244
		c-0.126,0.487-0.189,1.048-0.189,1.682v4.369h-1.615v-9.822H483.65z"/>
	<path fill="#FFFFFF" d="M495.126,33.663c-0.734,0.559-1.659,0.836-2.773,0.836c-0.785,0-1.467-0.127-2.043-0.379
		c-0.576-0.254-1.061-0.608-1.453-1.064s-0.688-1-0.883-1.635c-0.197-0.633-0.308-1.322-0.333-2.07c0-0.747,0.114-1.432,0.342-2.053
		c0.228-0.619,0.548-1.158,0.96-1.614c0.411-0.456,0.898-0.811,1.463-1.063c0.563-0.254,1.181-0.381,1.852-0.381
		c0.875,0,1.6,0.181,2.176,0.542c0.576,0.36,1.039,0.819,1.387,1.378c0.35,0.557,0.59,1.165,0.723,1.823
		c0.133,0.659,0.188,1.286,0.162,1.882h-7.354c-0.013,0.43,0.038,0.838,0.152,1.225c0.113,0.387,0.297,0.729,0.551,1.026
		c0.253,0.298,0.576,0.535,0.969,0.712c0.393,0.178,0.855,0.267,1.387,0.267c0.685,0,1.244-0.159,1.682-0.476
		s0.725-0.798,0.865-1.443h1.596C496.336,32.276,495.86,33.106,495.126,33.663z M494.737,27.355
		c-0.146-0.342-0.342-0.636-0.59-0.884c-0.246-0.246-0.538-0.443-0.873-0.589c-0.336-0.146-0.707-0.218-1.111-0.218
		c-0.418,0-0.795,0.072-1.131,0.218s-0.624,0.346-0.865,0.599c-0.24,0.254-0.43,0.549-0.569,0.884s-0.222,0.693-0.247,1.073h5.643
		C494.968,28.059,494.882,27.698,494.737,27.355z"/>
	<path fill="#FFFFFF" d="M511.2,34.499c-0.418,0-0.751-0.117-0.998-0.352c-0.246-0.234-0.37-0.617-0.37-1.148
		c-0.444,0.531-0.96,0.914-1.549,1.148s-1.226,0.352-1.909,0.352c-0.443,0-0.861-0.047-1.254-0.143
		c-0.393-0.094-0.738-0.252-1.035-0.475c-0.299-0.221-0.533-0.506-0.703-0.855c-0.172-0.348-0.257-0.77-0.257-1.263
		c0-0.558,0.095-1.013,0.285-1.368c0.19-0.354,0.44-0.643,0.751-0.864c0.31-0.222,0.664-0.39,1.063-0.504s0.808-0.209,1.226-0.284
		c0.443-0.089,0.864-0.156,1.264-0.2c0.398-0.044,0.75-0.107,1.055-0.19c0.303-0.082,0.544-0.202,0.721-0.36
		c0.178-0.158,0.267-0.39,0.267-0.694c0-0.354-0.066-0.639-0.199-0.854c-0.134-0.215-0.304-0.38-0.513-0.493
		c-0.209-0.115-0.443-0.19-0.703-0.229s-0.517-0.057-0.77-0.057c-0.685,0-1.254,0.129-1.711,0.389
		c-0.455,0.26-0.703,0.751-0.74,1.473h-1.615c0.025-0.607,0.152-1.121,0.38-1.539s0.532-0.756,0.912-1.016s0.817-0.447,1.312-0.561
		c0.494-0.115,1.013-0.172,1.558-0.172c0.443,0,0.884,0.032,1.32,0.096c0.437,0.062,0.833,0.193,1.188,0.389
		c0.354,0.197,0.64,0.473,0.854,0.826c0.216,0.355,0.324,0.818,0.324,1.388v5.054c0,0.381,0.021,0.659,0.066,0.836
		c0.044,0.178,0.192,0.267,0.445,0.267c0.141,0,0.305-0.032,0.494-0.095v1.254C512.08,34.417,511.694,34.499,511.2,34.499z
		 M508.938,29.55c-0.329,0.07-0.674,0.127-1.035,0.172c-0.361,0.044-0.725,0.094-1.092,0.151c-0.368,0.058-0.697,0.149-0.988,0.275
		c-0.292,0.127-0.529,0.308-0.713,0.542s-0.275,0.554-0.275,0.959c0,0.266,0.054,0.491,0.162,0.675
		c0.107,0.184,0.246,0.333,0.418,0.446c0.17,0.114,0.373,0.197,0.607,0.247c0.234,0.051,0.472,0.076,0.713,0.076
		c0.531,0,0.988-0.073,1.367-0.219c0.381-0.146,0.69-0.329,0.932-0.551c0.24-0.222,0.418-0.462,0.531-0.722
		c0.114-0.26,0.172-0.504,0.172-0.732v-1.652C509.534,29.37,509.269,29.48,508.938,29.55z"/>
	<path fill="#FFFFFF" d="M515.38,24.468v1.558h0.038c0.671-1.19,1.735-1.786,3.192-1.786c0.646,0,1.184,0.089,1.615,0.266
		c0.43,0.178,0.778,0.426,1.045,0.742c0.266,0.316,0.452,0.693,0.561,1.13c0.107,0.437,0.161,0.921,0.161,1.454v6.459h-1.615v-6.649
		c0-0.608-0.177-1.089-0.532-1.444c-0.354-0.354-0.842-0.531-1.463-0.531c-0.494,0-0.922,0.076-1.282,0.228
		s-0.662,0.368-0.902,0.646c-0.241,0.279-0.421,0.605-0.542,0.979c-0.12,0.374-0.18,0.783-0.18,1.227v5.547h-1.615v-9.822H515.38z"
		/>
	<path fill="#FFFFFF" d="M531.587,34.29v-1.33h-0.038c-0.266,0.545-0.684,0.938-1.254,1.179c-0.569,0.24-1.196,0.36-1.881,0.36
		c-0.761,0-1.422-0.139-1.985-0.418c-0.564-0.277-1.033-0.652-1.406-1.121c-0.373-0.468-0.655-1.013-0.846-1.633
		c-0.189-0.621-0.285-1.279-0.285-1.977c0-0.696,0.092-1.355,0.275-1.977c0.184-0.62,0.463-1.162,0.836-1.624
		c0.374-0.462,0.843-0.829,1.406-1.103c0.564-0.271,1.219-0.408,1.967-0.408c0.254,0,0.525,0.025,0.816,0.076
		c0.292,0.051,0.583,0.137,0.875,0.257c0.291,0.12,0.566,0.278,0.826,0.475s0.479,0.44,0.655,0.731h0.038v-5.054h1.615V34.29
		H531.587z M525.782,30.804c0.121,0.438,0.305,0.826,0.551,1.169c0.248,0.342,0.564,0.614,0.951,0.817
		c0.386,0.202,0.838,0.304,1.357,0.304c0.545,0,1.008-0.108,1.387-0.323c0.381-0.215,0.691-0.497,0.932-0.846
		c0.24-0.348,0.414-0.744,0.522-1.188c0.107-0.443,0.161-0.893,0.161-1.349c0-0.481-0.057-0.946-0.17-1.396
		c-0.115-0.45-0.295-0.846-0.542-1.188c-0.247-0.343-0.567-0.618-0.96-0.827s-0.867-0.312-1.425-0.312
		c-0.544,0-1.007,0.107-1.387,0.322c-0.38,0.216-0.685,0.501-0.912,0.855s-0.393,0.76-0.494,1.216s-0.151,0.925-0.151,1.405
		C525.603,29.921,525.662,30.367,525.782,30.804z"/>
	<path fill="#FFFFFF" d="M542.208,32.097c0.152,0.246,0.352,0.443,0.598,0.588c0.248,0.146,0.526,0.25,0.837,0.314
		c0.31,0.062,0.63,0.095,0.96,0.095c0.252,0,0.519-0.019,0.797-0.058c0.279-0.037,0.535-0.107,0.77-0.209s0.428-0.25,0.58-0.446
		s0.229-0.446,0.229-0.751c0-0.418-0.159-0.734-0.476-0.949c-0.317-0.215-0.712-0.39-1.188-0.522
		c-0.476-0.134-0.991-0.253-1.549-0.361c-0.558-0.107-1.073-0.259-1.548-0.456c-0.476-0.195-0.871-0.472-1.188-0.826
		c-0.317-0.354-0.476-0.849-0.476-1.482c0-0.494,0.11-0.918,0.333-1.272c0.221-0.354,0.506-0.644,0.854-0.864
		c0.349-0.223,0.741-0.387,1.179-0.494c0.437-0.107,0.87-0.162,1.301-0.162c0.558,0,1.07,0.048,1.539,0.143
		c0.469,0.096,0.884,0.26,1.244,0.494c0.361,0.234,0.649,0.551,0.865,0.95c0.215,0.399,0.342,0.896,0.38,1.491h-1.615
		c-0.025-0.316-0.108-0.58-0.247-0.789s-0.316-0.376-0.531-0.503c-0.217-0.126-0.453-0.218-0.713-0.275s-0.523-0.085-0.789-0.085
		c-0.24,0-0.484,0.019-0.73,0.057c-0.248,0.038-0.473,0.104-0.676,0.199c-0.202,0.096-0.367,0.222-0.493,0.381
		c-0.127,0.158-0.19,0.363-0.19,0.617c0,0.278,0.098,0.51,0.295,0.693c0.195,0.184,0.446,0.336,0.75,0.455
		c0.305,0.121,0.646,0.223,1.026,0.305s0.76,0.168,1.14,0.256c0.405,0.09,0.801,0.197,1.188,0.324
		c0.387,0.126,0.729,0.294,1.026,0.503s0.538,0.472,0.722,0.788s0.275,0.71,0.275,1.178c0,0.596-0.123,1.09-0.37,1.482
		s-0.57,0.71-0.97,0.95c-0.398,0.241-0.848,0.409-1.348,0.503c-0.501,0.096-0.998,0.143-1.492,0.143
		c-0.545,0-1.064-0.057-1.559-0.17c-0.493-0.115-0.93-0.301-1.311-0.561c-0.38-0.26-0.684-0.602-0.912-1.026
		c-0.228-0.425-0.354-0.94-0.38-1.549h1.615C541.974,31.548,542.056,31.849,542.208,32.097z"/>
	<path fill="#FFFFFF" d="M558.015,34.499c-0.418,0-0.75-0.117-0.996-0.352c-0.248-0.234-0.371-0.617-0.371-1.148
		c-0.443,0.531-0.959,0.914-1.549,1.148c-0.588,0.234-1.225,0.352-1.908,0.352c-0.444,0-0.862-0.047-1.254-0.143
		c-0.394-0.094-0.738-0.252-1.036-0.475c-0.298-0.221-0.532-0.506-0.703-0.855c-0.171-0.348-0.257-0.77-0.257-1.263
		c0-0.558,0.096-1.013,0.285-1.368c0.19-0.354,0.44-0.643,0.751-0.864c0.31-0.222,0.665-0.39,1.063-0.504
		c0.399-0.114,0.808-0.209,1.226-0.284c0.443-0.089,0.864-0.156,1.264-0.2s0.751-0.107,1.055-0.19
		c0.304-0.082,0.544-0.202,0.722-0.36s0.266-0.39,0.266-0.694c0-0.354-0.066-0.639-0.199-0.854c-0.133-0.215-0.305-0.38-0.514-0.493
		c-0.208-0.115-0.442-0.19-0.702-0.229s-0.517-0.057-0.77-0.057c-0.685,0-1.254,0.129-1.71,0.389s-0.703,0.751-0.74,1.473h-1.615
		c0.025-0.607,0.151-1.121,0.379-1.539c0.229-0.418,0.533-0.756,0.912-1.016c0.381-0.26,0.817-0.447,1.312-0.561
		c0.494-0.115,1.013-0.172,1.558-0.172c0.443,0,0.884,0.032,1.32,0.096c0.438,0.062,0.832,0.193,1.188,0.389
		c0.355,0.197,0.639,0.473,0.855,0.826c0.215,0.355,0.322,0.818,0.322,1.388v5.054c0,0.381,0.021,0.659,0.066,0.836
		c0.045,0.178,0.193,0.267,0.447,0.267c0.139,0,0.303-0.032,0.494-0.095v1.254C558.896,34.417,558.509,34.499,558.015,34.499z
		 M555.755,29.55c-0.33,0.07-0.674,0.127-1.035,0.172c-0.361,0.044-0.726,0.094-1.093,0.151c-0.368,0.058-0.696,0.149-0.988,0.275
		c-0.292,0.127-0.528,0.308-0.712,0.542s-0.275,0.554-0.275,0.959c0,0.266,0.053,0.491,0.161,0.675
		c0.107,0.184,0.247,0.333,0.418,0.446c0.171,0.114,0.374,0.197,0.608,0.247c0.234,0.051,0.471,0.076,0.712,0.076
		c0.532,0,0.988-0.073,1.368-0.219s0.689-0.329,0.93-0.551c0.242-0.222,0.418-0.462,0.533-0.722c0.113-0.26,0.17-0.504,0.17-0.732
		v-1.652C556.349,29.37,556.083,29.48,555.755,29.55z"/>
	<path fill="#FFFFFF" d="M563.374,34.29l-3.648-9.822h1.805l2.756,8.189h0.037l2.68-8.189h1.691l-3.592,9.822H563.374z"/>
	<path fill="#FFFFFF" d="M570.271,22.7v-1.976h1.615V22.7H570.271z M571.886,24.468v9.822h-1.615v-9.822H571.886z"/>
	<path fill="#FFFFFF" d="M575.913,24.468v1.558h0.039c0.67-1.19,1.734-1.786,3.191-1.786c0.646,0,1.184,0.089,1.615,0.266
		c0.43,0.178,0.779,0.426,1.045,0.742s0.453,0.693,0.561,1.13s0.16,0.921,0.16,1.454v6.459h-1.613v-6.649
		c0-0.608-0.178-1.089-0.533-1.444c-0.354-0.354-0.842-0.531-1.463-0.531c-0.494,0-0.922,0.076-1.283,0.228
		c-0.359,0.151-0.66,0.368-0.902,0.646c-0.24,0.279-0.42,0.605-0.541,0.979c-0.121,0.374-0.18,0.783-0.18,1.227v5.547h-1.615v-9.822
		H575.913z"/>
	<path fill="#FFFFFF" d="M592.329,37.064c-0.734,0.798-1.889,1.197-3.459,1.197c-0.455,0-0.92-0.051-1.396-0.152
		c-0.475-0.102-0.904-0.266-1.291-0.493c-0.387-0.229-0.707-0.526-0.959-0.894c-0.254-0.368-0.395-0.817-0.418-1.349h1.613
		c0.014,0.291,0.105,0.537,0.275,0.74c0.172,0.203,0.381,0.367,0.627,0.494c0.248,0.127,0.518,0.219,0.809,0.275
		s0.57,0.086,0.836,0.086c0.531,0,0.98-0.092,1.35-0.275c0.367-0.184,0.67-0.438,0.912-0.76c0.24-0.324,0.414-0.713,0.521-1.169
		s0.162-0.956,0.162-1.501v-0.646h-0.039c-0.277,0.608-0.699,1.055-1.264,1.34c-0.562,0.285-1.162,0.428-1.795,0.428
		c-0.734,0-1.375-0.133-1.918-0.399c-0.545-0.266-1.002-0.624-1.369-1.073s-0.643-0.975-0.826-1.577
		c-0.184-0.602-0.275-1.237-0.275-1.909c0-0.582,0.076-1.182,0.229-1.796s0.404-1.171,0.76-1.672c0.354-0.5,0.822-0.912,1.406-1.235
		c0.582-0.322,1.297-0.484,2.146-0.484c0.621,0,1.189,0.137,1.709,0.408c0.52,0.273,0.926,0.682,1.217,1.227h0.02v-1.406h1.52v8.986
		C593.431,35.063,593.063,36.267,592.329,37.064z M590.267,32.647c0.375-0.222,0.676-0.514,0.902-0.875
		c0.229-0.36,0.396-0.77,0.504-1.225c0.107-0.457,0.162-0.912,0.162-1.368c0-0.431-0.051-0.854-0.152-1.272
		s-0.264-0.795-0.484-1.131c-0.223-0.336-0.51-0.605-0.865-0.808c-0.354-0.202-0.785-0.304-1.291-0.304
		c-0.52,0-0.963,0.098-1.33,0.294s-0.668,0.46-0.902,0.788c-0.234,0.33-0.406,0.71-0.514,1.141s-0.162,0.881-0.162,1.349
		c0,0.444,0.045,0.888,0.135,1.33c0.088,0.444,0.24,0.846,0.455,1.206c0.215,0.361,0.5,0.653,0.855,0.875
		c0.354,0.221,0.797,0.332,1.33,0.332C589.44,32.979,589.894,32.868,590.267,32.647z"/>
	<path fill="#FFFFFF" d="M602.854,20.725V34.29h-1.615V20.725H602.854z"/>
	<path fill="#FFFFFF" d="M605.458,22.7v-1.976h1.615V22.7H605.458z M607.073,24.468v9.822h-1.615v-9.822H607.073z"/>
	<path fill="#FFFFFF" d="M612.278,34.29l-3.648-9.822h1.807l2.754,8.189h0.039l2.678-8.189h1.691l-3.592,9.822H612.278z"/>
	<path fill="#FFFFFF" d="M626.034,33.663c-0.734,0.559-1.658,0.836-2.773,0.836c-0.785,0-1.467-0.127-2.043-0.379
		c-0.576-0.254-1.061-0.608-1.453-1.064s-0.688-1-0.883-1.635c-0.197-0.633-0.309-1.322-0.334-2.07c0-0.747,0.115-1.432,0.344-2.053
		c0.227-0.619,0.547-1.158,0.959-1.614c0.41-0.456,0.898-0.811,1.463-1.063c0.562-0.254,1.182-0.381,1.852-0.381
		c0.875,0,1.6,0.181,2.176,0.542c0.576,0.36,1.039,0.819,1.387,1.378c0.35,0.557,0.59,1.165,0.723,1.823
		c0.133,0.659,0.188,1.286,0.162,1.882h-7.354c-0.014,0.43,0.037,0.838,0.152,1.225c0.113,0.387,0.297,0.729,0.551,1.026
		s0.576,0.535,0.969,0.712c0.393,0.178,0.855,0.267,1.387,0.267c0.684,0,1.244-0.159,1.682-0.476s0.725-0.798,0.865-1.443h1.596
		C627.245,32.276,626.769,33.106,626.034,33.663z M625.646,27.355c-0.146-0.342-0.342-0.636-0.59-0.884
		c-0.246-0.246-0.537-0.443-0.873-0.589s-0.707-0.218-1.111-0.218c-0.418,0-0.795,0.072-1.131,0.218s-0.625,0.346-0.865,0.599
		c-0.24,0.254-0.43,0.549-0.57,0.884c-0.139,0.335-0.221,0.693-0.246,1.073h5.643C625.876,28.059,625.79,27.698,625.646,27.355z"/>
	<path fill="#FFFFFF" d="M630.519,32.097c0.15,0.246,0.352,0.443,0.598,0.588c0.248,0.146,0.525,0.25,0.836,0.314
		c0.311,0.062,0.631,0.095,0.959,0.095c0.254,0,0.52-0.019,0.799-0.058c0.279-0.037,0.535-0.107,0.77-0.209s0.428-0.25,0.58-0.446
		c0.15-0.196,0.227-0.446,0.227-0.751c0-0.418-0.158-0.734-0.475-0.949s-0.713-0.39-1.188-0.522
		c-0.475-0.134-0.99-0.253-1.549-0.361c-0.557-0.107-1.072-0.259-1.547-0.456c-0.477-0.195-0.871-0.472-1.188-0.826
		c-0.318-0.354-0.477-0.849-0.477-1.482c0-0.494,0.111-0.918,0.334-1.272c0.221-0.354,0.506-0.644,0.854-0.864
		c0.35-0.223,0.742-0.387,1.178-0.494c0.438-0.107,0.871-0.162,1.303-0.162c0.557,0,1.07,0.048,1.539,0.143
		c0.469,0.096,0.883,0.26,1.244,0.494s0.648,0.551,0.865,0.95c0.215,0.399,0.342,0.896,0.379,1.491h-1.615
		c-0.025-0.316-0.107-0.58-0.246-0.789c-0.141-0.209-0.316-0.376-0.533-0.503c-0.215-0.126-0.453-0.218-0.711-0.275
		c-0.26-0.058-0.523-0.085-0.789-0.085c-0.24,0-0.484,0.019-0.732,0.057c-0.246,0.038-0.471,0.104-0.674,0.199
		c-0.203,0.096-0.367,0.222-0.494,0.381c-0.127,0.158-0.189,0.363-0.189,0.617c0,0.278,0.098,0.51,0.295,0.693
		c0.195,0.184,0.445,0.336,0.75,0.455c0.305,0.121,0.646,0.223,1.025,0.305c0.381,0.082,0.76,0.168,1.141,0.256
		c0.404,0.09,0.801,0.197,1.188,0.324c0.387,0.126,0.729,0.294,1.025,0.503s0.539,0.472,0.723,0.788s0.275,0.71,0.275,1.178
		c0,0.596-0.123,1.09-0.371,1.482c-0.246,0.393-0.57,0.71-0.969,0.95c-0.398,0.241-0.848,0.409-1.35,0.503
		c-0.5,0.096-0.996,0.143-1.49,0.143c-0.545,0-1.064-0.057-1.559-0.17c-0.494-0.115-0.932-0.301-1.311-0.561
		c-0.381-0.26-0.684-0.602-0.912-1.026s-0.355-0.94-0.381-1.549h1.615C630.284,31.548,630.366,31.849,630.519,32.097z"/>
</g>
<rect x="206.418" fill="#FFFFFF" width="1.255" height="39.727"/>
</svg>
