<?xml version="1.0" encoding="utf-8"?>
<!-- Generator: Adobe Illustrator 16.0.0, SVG Export Plug-In . SVG Version: 6.00 Build 0)  -->
<!DOCTYPE svg PUBLIC "-//W3C//DTD SVG 1.1//EN" "http://www.w3.org/Graphics/SVG/1.1/DTD/svg11.dtd">
<svg version="1.1" id="Layer_1" xmlns="http://www.w3.org/2000/svg" xmlns:xlink="http://www.w3.org/1999/xlink" x="0px" y="0px"
	 width="546px" height="40px" viewBox="0.349 -51.307 546 40" enable-background="new 0.349 -51.307 546 40" xml:space="preserve">
<g>
	<path fill="#398740" d="M14.512-48.54c2.093,0,4.041,0.334,5.846,1.001s3.367,1.668,4.687,3.002
		c1.319,1.335,2.35,3.003,3.094,5.005c0.742,2.002,1.114,4.352,1.114,7.051c0,2.366-0.304,4.552-0.91,6.552
		c-0.606,2.002-1.523,3.732-2.752,5.188s-2.761,2.602-4.595,3.436c-1.836,0.834-3.997,1.25-6.483,1.25H0.499V-48.54H14.512z
		 M14.012-22.062c1.03,0,2.031-0.166,3.002-0.5s1.835-0.887,2.594-1.66c0.758-0.773,1.364-1.781,1.819-3.025s0.683-2.76,0.683-4.55
		c0-1.639-0.159-3.117-0.478-4.437s-0.842-2.448-1.569-3.39c-0.729-0.939-1.691-1.66-2.89-2.16
		c-1.198-0.501-2.677-0.751-4.436-0.751H7.642v20.473H14.012z"/>
	<path fill="#398740" d="M57.596-48.54v6.005H40.443v6.96h15.741v5.552H40.443v7.961h17.516v6.006H33.301V-48.54H57.596z"/>
	<path fill="#398740" d="M84.71-48.54v6.005H69.015v7.507h13.603v5.552H69.015v13.42h-7.143V-48.54H84.71z"/>
	<path fill="#398740" d="M95.082-48.54v26.478h15.833v6.006H87.939V-48.54H95.082z"/>
	<path fill="#398740" d="M124.744-48.54l12.147,32.483h-7.416l-2.456-7.234h-12.147l-2.548,7.234h-7.188L117.42-48.54H124.744z
		 M125.153-28.613l-4.094-11.92h-0.092l-4.23,11.92H125.153z"/>
	<path fill="#398740" d="M148.856-48.54l7.598,22.339h0.092l7.188-22.339h10.055v32.483h-6.688v-23.021h-0.091l-7.962,23.021h-5.505
		l-7.962-22.794h-0.091v22.794h-6.688V-48.54H148.856z"/>
	<path fill="#398740" d="M178.838-38.918c0.728-2.076,1.774-3.889,3.139-5.436c1.365-1.547,3.04-2.76,5.027-3.64
		c1.986-0.88,4.224-1.319,6.711-1.319c2.517,0,4.761,0.439,6.732,1.319s3.64,2.093,5.005,3.64s2.411,3.359,3.139,5.436
		c0.729,2.078,1.093,4.33,1.093,6.757c0,2.367-0.364,4.572-1.093,6.619c-0.728,2.049-1.773,3.83-3.139,5.346
		c-1.365,1.518-3.033,2.707-5.005,3.572s-4.216,1.297-6.732,1.297c-2.487,0-4.725-0.432-6.711-1.297
		c-1.987-0.865-3.662-2.055-5.027-3.572c-1.364-1.516-2.411-3.297-3.139-5.346c-0.729-2.047-1.092-4.252-1.092-6.619
		C177.746-34.588,178.109-36.84,178.838-38.918z M185.366-28.181c0.318,1.291,0.826,2.451,1.524,3.48
		c0.697,1.031,1.606,1.859,2.729,2.48c1.121,0.621,2.486,0.932,4.095,0.932c1.606,0,2.972-0.311,4.094-0.932s2.032-1.449,2.73-2.48
		c0.697-1.029,1.205-2.189,1.523-3.48c0.318-1.287,0.478-2.616,0.478-3.98c0-1.425-0.159-2.806-0.478-4.14
		c-0.318-1.335-0.826-2.525-1.523-3.572c-0.698-1.046-1.608-1.88-2.73-2.502c-1.122-0.621-2.487-0.933-4.094-0.933
		c-1.608,0-2.974,0.312-4.095,0.933c-1.123,0.622-2.032,1.456-2.729,2.502c-0.698,1.047-1.206,2.237-1.524,3.572
		c-0.318,1.334-0.478,2.715-0.478,4.14C184.889-30.797,185.048-29.468,185.366-28.181z"/>
</g>
<g>
	<path fill="#398740" d="M233.956-30.464v12.047h7.183v1.52h-8.987v-13.566H233.956z"/>
	<path fill="#398740" d="M249.403-17.525c-0.735,0.559-1.66,0.836-2.774,0.836c-0.785,0-1.466-0.127-2.042-0.379
		c-0.577-0.254-1.062-0.609-1.454-1.064c-0.393-0.457-0.687-1-0.883-1.635c-0.197-0.633-0.308-1.322-0.333-2.07
		c0-0.748,0.114-1.432,0.342-2.053c0.229-0.619,0.548-1.158,0.96-1.615c0.411-0.455,0.899-0.811,1.463-1.062
		c0.563-0.254,1.181-0.381,1.853-0.381c0.874,0,1.599,0.18,2.176,0.541c0.576,0.361,1.038,0.82,1.387,1.379
		c0.349,0.557,0.589,1.164,0.722,1.822c0.133,0.66,0.188,1.287,0.162,1.883h-7.354c-0.013,0.43,0.038,0.838,0.152,1.225
		s0.297,0.729,0.551,1.025c0.253,0.299,0.576,0.535,0.969,0.713s0.855,0.266,1.388,0.266c0.684,0,1.244-0.158,1.681-0.475
		c0.438-0.316,0.726-0.799,0.865-1.443h1.596C250.612-18.912,250.138-18.082,249.403-17.525z M249.014-23.833
		c-0.146-0.342-0.342-0.635-0.589-0.883c-0.247-0.246-0.539-0.443-0.874-0.59c-0.336-0.145-0.706-0.217-1.111-0.217
		c-0.418,0-0.795,0.072-1.131,0.217c-0.336,0.146-0.624,0.346-0.864,0.6c-0.241,0.254-0.431,0.549-0.57,0.883
		c-0.14,0.336-0.222,0.693-0.247,1.074h5.644C249.244-23.13,249.159-23.49,249.014-23.833z"/>
	<path fill="#398740" d="M260.194-16.689c-0.418,0-0.75-0.117-0.997-0.352s-0.37-0.617-0.37-1.148
		c-0.444,0.531-0.96,0.914-1.549,1.148s-1.226,0.352-1.909,0.352c-0.444,0-0.862-0.047-1.254-0.143
		c-0.394-0.094-0.738-0.252-1.036-0.475c-0.298-0.221-0.532-0.506-0.703-0.855c-0.171-0.348-0.256-0.77-0.256-1.264
		c0-0.557,0.095-1.012,0.285-1.367c0.189-0.355,0.439-0.643,0.75-0.865c0.311-0.221,0.665-0.389,1.064-0.504
		c0.398-0.113,0.807-0.209,1.225-0.283c0.443-0.09,0.865-0.156,1.264-0.201c0.399-0.043,0.751-0.107,1.055-0.189
		s0.545-0.203,0.722-0.361c0.178-0.158,0.267-0.389,0.267-0.693c0-0.354-0.066-0.639-0.199-0.855
		c-0.134-0.215-0.305-0.379-0.514-0.492c-0.209-0.115-0.443-0.191-0.703-0.229c-0.26-0.039-0.516-0.057-0.77-0.057
		c-0.684,0-1.254,0.129-1.71,0.389s-0.703,0.75-0.74,1.473H252.5c0.025-0.607,0.151-1.121,0.38-1.539
		c0.228-0.418,0.532-0.756,0.912-1.016s0.816-0.447,1.311-0.561c0.494-0.115,1.014-0.172,1.559-0.172
		c0.443,0,0.883,0.031,1.32,0.096c0.437,0.062,0.833,0.193,1.188,0.389c0.354,0.197,0.64,0.473,0.854,0.826
		c0.216,0.355,0.323,0.818,0.323,1.387v5.055c0,0.381,0.022,0.658,0.066,0.836c0.045,0.178,0.193,0.266,0.446,0.266
		c0.14,0,0.305-0.031,0.494-0.094v1.254C261.075-16.771,260.688-16.689,260.194-16.689z M257.934-21.638
		c-0.329,0.07-0.674,0.127-1.035,0.172c-0.361,0.043-0.726,0.094-1.093,0.15c-0.367,0.059-0.696,0.15-0.988,0.275
		c-0.291,0.127-0.528,0.309-0.712,0.543s-0.275,0.553-0.275,0.959c0,0.266,0.054,0.49,0.161,0.674s0.247,0.334,0.418,0.447
		s0.374,0.197,0.608,0.246c0.234,0.051,0.472,0.076,0.712,0.076c0.532,0,0.988-0.072,1.368-0.219c0.38-0.145,0.69-0.328,0.931-0.551
		c0.241-0.221,0.419-0.461,0.532-0.721c0.114-0.26,0.171-0.504,0.171-0.732v-1.652C258.529-21.818,258.263-21.708,257.934-21.638z"
		/>
	<path fill="#398740" d="M270.018-16.898v-1.33h-0.038c-0.266,0.545-0.684,0.938-1.254,1.178c-0.569,0.24-1.196,0.361-1.881,0.361
		c-0.76,0-1.422-0.139-1.985-0.418c-0.563-0.277-1.032-0.652-1.406-1.121c-0.373-0.469-0.655-1.014-0.845-1.633
		c-0.19-0.621-0.285-1.279-0.285-1.977s0.092-1.355,0.275-1.977s0.462-1.162,0.836-1.625c0.373-0.461,0.842-0.828,1.406-1.102
		c0.563-0.271,1.219-0.408,1.966-0.408c0.254,0,0.525,0.025,0.817,0.076c0.291,0.051,0.582,0.137,0.874,0.256
		c0.291,0.121,0.566,0.279,0.826,0.475c0.26,0.197,0.479,0.441,0.655,0.732h0.038v-5.055h1.615v13.566H270.018z M264.214-20.384
		c0.12,0.438,0.304,0.826,0.551,1.168s0.563,0.615,0.95,0.818c0.386,0.201,0.839,0.303,1.358,0.303c0.544,0,1.007-0.107,1.387-0.322
		s0.69-0.498,0.931-0.846c0.241-0.348,0.415-0.744,0.522-1.188s0.162-0.893,0.162-1.35c0-0.48-0.058-0.945-0.171-1.396
		c-0.114-0.449-0.295-0.846-0.542-1.188s-0.567-0.617-0.959-0.826c-0.394-0.209-0.868-0.312-1.426-0.312
		c-0.544,0-1.007,0.107-1.387,0.322s-0.684,0.5-0.912,0.855c-0.228,0.354-0.393,0.76-0.494,1.215
		c-0.102,0.457-0.151,0.926-0.151,1.406C264.033-21.267,264.093-20.822,264.214-20.384z"/>
	<path fill="#398740" d="M274.217-28.488v-1.977h1.615v1.977H274.217z M275.832-26.72v9.822h-1.615v-9.822H275.832z"/>
	<path fill="#398740" d="M279.859-26.72v1.557h0.038c0.671-1.189,1.735-1.785,3.192-1.785c0.646,0,1.184,0.088,1.615,0.266
		c0.43,0.178,0.778,0.426,1.045,0.742c0.266,0.316,0.452,0.693,0.561,1.129c0.107,0.438,0.161,0.922,0.161,1.455v6.459h-1.615v-6.65
		c0-0.607-0.177-1.088-0.532-1.443c-0.354-0.354-0.842-0.531-1.463-0.531c-0.494,0-0.922,0.076-1.282,0.227
		c-0.36,0.152-0.662,0.369-0.902,0.646c-0.241,0.279-0.421,0.605-0.542,0.979c-0.12,0.373-0.18,0.783-0.18,1.227v5.547h-1.615
		v-9.822H279.859z"/>
	<path fill="#398740" d="M296.275-14.125c-0.734,0.799-1.887,1.197-3.458,1.197c-0.456,0-0.921-0.051-1.396-0.152
		s-0.905-0.266-1.292-0.492c-0.387-0.229-0.706-0.527-0.959-0.895c-0.254-0.367-0.393-0.816-0.418-1.348h1.615
		c0.012,0.291,0.104,0.537,0.275,0.74c0.17,0.203,0.379,0.367,0.627,0.494c0.246,0.127,0.516,0.219,0.807,0.275
		s0.57,0.086,0.836,0.086c0.532,0,0.982-0.092,1.35-0.275s0.671-0.438,0.912-0.76c0.24-0.324,0.414-0.713,0.521-1.17
		c0.108-0.455,0.162-0.955,0.162-1.5v-0.646h-0.038c-0.278,0.607-0.7,1.055-1.263,1.34c-0.564,0.285-1.163,0.428-1.796,0.428
		c-0.735,0-1.375-0.133-1.919-0.4c-0.545-0.266-1.001-0.623-1.368-1.072c-0.368-0.449-0.644-0.975-0.827-1.578
		c-0.184-0.602-0.275-1.236-0.275-1.908c0-0.582,0.076-1.182,0.229-1.797c0.152-0.613,0.405-1.17,0.76-1.672
		c0.354-0.5,0.823-0.912,1.406-1.234c0.582-0.322,1.299-0.484,2.146-0.484c0.621,0,1.191,0.137,1.711,0.408
		c0.519,0.273,0.924,0.682,1.215,1.227h0.02v-1.406h1.52v8.986C297.377-16.125,297.01-14.921,296.275-14.125z M294.214-18.541
		c0.374-0.223,0.675-0.514,0.903-0.875c0.228-0.361,0.395-0.77,0.503-1.225c0.107-0.457,0.161-0.912,0.161-1.369
		c0-0.43-0.051-0.854-0.152-1.271s-0.262-0.795-0.484-1.131c-0.221-0.336-0.51-0.605-0.864-0.809
		c-0.354-0.201-0.785-0.303-1.292-0.303c-0.52,0-0.963,0.098-1.33,0.293c-0.367,0.197-0.668,0.461-0.902,0.789
		c-0.234,0.33-0.405,0.709-0.513,1.141c-0.108,0.43-0.161,0.881-0.161,1.348c0,0.445,0.044,0.889,0.133,1.33
		c0.088,0.445,0.24,0.846,0.455,1.207c0.216,0.361,0.501,0.652,0.855,0.875c0.354,0.221,0.799,0.332,1.33,0.332
		C293.388-18.208,293.84-18.32,294.214-18.541z"/>
	<path fill="#398740" d="M314.268-30.464v1.521h-7.105v4.312h6.232v1.52h-6.232v6.213h-1.805v-13.566H314.268z"/>
	<path fill="#398740" d="M317.707-30.464v13.566h-1.615v-13.566H317.707z"/>
	<path fill="#398740" d="M327.758-16.689c-0.418,0-0.751-0.117-0.998-0.352c-0.246-0.234-0.37-0.617-0.37-1.148
		c-0.444,0.531-0.96,0.914-1.549,1.148s-1.226,0.352-1.909,0.352c-0.443,0-0.861-0.047-1.254-0.143
		c-0.393-0.094-0.738-0.252-1.035-0.475c-0.299-0.221-0.533-0.506-0.703-0.855c-0.172-0.348-0.257-0.77-0.257-1.264
		c0-0.557,0.095-1.012,0.285-1.367s0.44-0.643,0.751-0.865c0.31-0.221,0.664-0.389,1.063-0.504c0.399-0.113,0.808-0.209,1.226-0.283
		c0.443-0.09,0.864-0.156,1.264-0.201c0.398-0.043,0.75-0.107,1.055-0.189c0.303-0.082,0.544-0.203,0.721-0.361
		c0.178-0.158,0.267-0.389,0.267-0.693c0-0.354-0.066-0.639-0.199-0.855c-0.134-0.215-0.304-0.379-0.513-0.492
		c-0.209-0.115-0.443-0.191-0.703-0.229c-0.26-0.039-0.517-0.057-0.77-0.057c-0.685,0-1.254,0.129-1.711,0.389
		c-0.455,0.26-0.703,0.75-0.74,1.473h-1.615c0.025-0.607,0.152-1.121,0.38-1.539s0.532-0.756,0.912-1.016s0.817-0.447,1.312-0.561
		c0.494-0.115,1.013-0.172,1.558-0.172c0.443,0,0.884,0.031,1.32,0.096c0.437,0.062,0.833,0.193,1.188,0.389
		c0.354,0.197,0.64,0.473,0.854,0.826c0.216,0.355,0.324,0.818,0.324,1.387v5.055c0,0.381,0.021,0.658,0.066,0.836
		c0.044,0.178,0.192,0.266,0.445,0.266c0.141,0,0.305-0.031,0.494-0.094v1.254C328.638-16.771,328.252-16.689,327.758-16.689z
		 M325.496-21.638c-0.329,0.07-0.674,0.127-1.035,0.172c-0.361,0.043-0.725,0.094-1.092,0.15c-0.368,0.059-0.697,0.15-0.988,0.275
		c-0.292,0.127-0.529,0.309-0.713,0.543s-0.275,0.553-0.275,0.959c0,0.266,0.054,0.49,0.162,0.674
		c0.107,0.184,0.246,0.334,0.418,0.447c0.17,0.113,0.373,0.197,0.607,0.246c0.234,0.051,0.472,0.076,0.713,0.076
		c0.531,0,0.988-0.072,1.367-0.219c0.381-0.145,0.69-0.328,0.932-0.551c0.24-0.221,0.418-0.461,0.531-0.721
		c0.114-0.26,0.172-0.504,0.172-0.732v-1.652C326.092-21.818,325.826-21.708,325.496-21.638z"/>
	<path fill="#398740" d="M331.938-26.72v1.443h0.038c0.734-1.115,1.792-1.672,3.173-1.672c0.608,0,1.159,0.127,1.653,0.381
		c0.494,0.252,0.843,0.684,1.045,1.291c0.329-0.531,0.763-0.943,1.302-1.234c0.538-0.291,1.131-0.438,1.776-0.438
		c0.493,0,0.94,0.055,1.339,0.162c0.399,0.107,0.742,0.275,1.026,0.502c0.285,0.229,0.507,0.523,0.665,0.885
		s0.238,0.795,0.238,1.301v7.201h-1.615v-6.441c0-0.303-0.025-0.588-0.076-0.854c-0.051-0.268-0.146-0.498-0.285-0.693
		c-0.14-0.197-0.332-0.352-0.58-0.467c-0.246-0.113-0.566-0.17-0.959-0.17c-0.798,0-1.426,0.227-1.881,0.684
		c-0.456,0.455-0.684,1.064-0.684,1.824v6.117h-1.615v-6.441c0-0.316-0.029-0.607-0.086-0.873s-0.155-0.498-0.295-0.693
		c-0.139-0.197-0.326-0.35-0.561-0.457s-0.535-0.16-0.902-0.16c-0.469,0-0.871,0.094-1.206,0.285
		c-0.336,0.189-0.608,0.418-0.817,0.684s-0.361,0.541-0.455,0.826c-0.096,0.285-0.143,0.521-0.143,0.713v6.117h-1.615v-9.822
		H331.938z"/>
	<path fill="#398740" d="M353.578-17.525c-0.734,0.559-1.66,0.836-2.773,0.836c-0.786,0-1.467-0.127-2.043-0.379
		c-0.576-0.254-1.061-0.609-1.453-1.064c-0.393-0.457-0.688-1-0.884-1.635c-0.196-0.633-0.308-1.322-0.333-2.07
		c0-0.748,0.114-1.432,0.342-2.053c0.229-0.619,0.549-1.158,0.96-1.615c0.411-0.455,0.899-0.811,1.464-1.062
		c0.562-0.254,1.18-0.381,1.852-0.381c0.874,0,1.6,0.18,2.176,0.541s1.039,0.82,1.387,1.379c0.349,0.557,0.59,1.164,0.723,1.822
		c0.133,0.66,0.187,1.287,0.161,1.883h-7.353c-0.014,0.43,0.037,0.838,0.151,1.225s0.298,0.729,0.552,1.025
		c0.252,0.299,0.576,0.535,0.969,0.713s0.854,0.266,1.387,0.266c0.684,0,1.244-0.158,1.682-0.475
		c0.437-0.316,0.725-0.799,0.864-1.443h1.597C354.787-18.912,354.312-18.082,353.578-17.525z M353.188-23.833
		c-0.146-0.342-0.342-0.635-0.589-0.883c-0.247-0.246-0.539-0.443-0.874-0.59c-0.335-0.145-0.706-0.217-1.111-0.217
		c-0.418,0-0.795,0.072-1.13,0.217c-0.336,0.146-0.625,0.346-0.865,0.6s-0.431,0.549-0.57,0.883
		c-0.139,0.336-0.221,0.693-0.246,1.074h5.643C353.42-23.13,353.334-23.49,353.188-23.833z"/>
	<path fill="#398740" d="M368.76-30.464c1.291,0,2.301,0.318,3.029,0.951s1.093,1.5,1.093,2.602c0,0.824-0.187,1.547-0.56,2.166
		c-0.375,0.621-0.973,1.047-1.797,1.273v0.039c0.393,0.076,0.713,0.203,0.96,0.379c0.247,0.178,0.443,0.391,0.589,0.637
		c0.146,0.248,0.254,0.523,0.323,0.826c0.069,0.305,0.124,0.621,0.161,0.951c0.025,0.328,0.045,0.664,0.058,1.006
		s0.044,0.678,0.095,1.008s0.123,0.643,0.219,0.939c0.095,0.299,0.237,0.561,0.428,0.789h-2.014
		c-0.127-0.139-0.213-0.328-0.258-0.57c-0.044-0.24-0.072-0.51-0.085-0.807s-0.025-0.617-0.038-0.959
		c-0.013-0.344-0.051-0.678-0.113-1.008c-0.051-0.33-0.115-0.643-0.19-0.941c-0.076-0.297-0.196-0.557-0.361-0.777
		c-0.165-0.223-0.38-0.4-0.646-0.533s-0.621-0.199-1.064-0.199h-4.408v5.795h-1.805v-13.566H368.76z M369.139-24.308
		c0.381-0.062,0.713-0.186,0.998-0.369s0.513-0.432,0.684-0.742c0.172-0.311,0.257-0.713,0.257-1.207c0-0.684-0.19-1.24-0.57-1.672
		c-0.38-0.43-0.994-0.645-1.843-0.645h-4.484v4.73h3.762C368.359-24.212,368.76-24.244,369.139-24.308z"/>
	<path fill="#398740" d="M382.078-17.525c-0.734,0.559-1.66,0.836-2.773,0.836c-0.786,0-1.467-0.127-2.043-0.379
		c-0.576-0.254-1.061-0.609-1.453-1.064c-0.393-0.457-0.688-1-0.884-1.635c-0.196-0.633-0.308-1.322-0.333-2.07
		c0-0.748,0.114-1.432,0.342-2.053c0.229-0.619,0.549-1.158,0.96-1.615c0.411-0.455,0.899-0.811,1.464-1.062
		c0.562-0.254,1.18-0.381,1.852-0.381c0.874,0,1.6,0.18,2.176,0.541s1.039,0.82,1.387,1.379c0.349,0.557,0.59,1.164,0.723,1.822
		c0.133,0.66,0.187,1.287,0.161,1.883h-7.353c-0.014,0.43,0.037,0.838,0.151,1.225s0.298,0.729,0.552,1.025
		c0.252,0.299,0.576,0.535,0.969,0.713s0.854,0.266,1.387,0.266c0.684,0,1.244-0.158,1.682-0.475
		c0.437-0.316,0.725-0.799,0.864-1.443h1.597C383.287-18.912,382.812-18.082,382.078-17.525z M381.688-23.833
		c-0.146-0.342-0.342-0.635-0.589-0.883c-0.247-0.246-0.539-0.443-0.874-0.59c-0.335-0.145-0.706-0.217-1.111-0.217
		c-0.418,0-0.795,0.072-1.13,0.217c-0.336,0.146-0.625,0.346-0.865,0.6s-0.431,0.549-0.57,0.883
		c-0.139,0.336-0.221,0.693-0.246,1.074h5.643C381.92-23.13,381.834-23.49,381.688-23.833z"/>
	<path fill="#398740" d="M389.525-26.72v1.424h-1.957v6.1c0,0.189,0.016,0.342,0.048,0.457c0.032,0.113,0.092,0.201,0.181,0.266
		c0.088,0.062,0.212,0.104,0.371,0.123c0.158,0.02,0.363,0.029,0.617,0.029h0.74v1.424h-1.234c-0.418,0-0.776-0.027-1.074-0.086
		c-0.297-0.057-0.538-0.16-0.722-0.312s-0.319-0.367-0.408-0.646c-0.089-0.277-0.134-0.646-0.134-1.102v-6.252h-1.672v-1.424h1.672
		v-2.945h1.615v2.945H389.525z"/>
	<path fill="#398740" d="M398.854-16.689c-0.418,0-0.751-0.117-0.997-0.352c-0.247-0.234-0.371-0.617-0.371-1.148
		c-0.443,0.531-0.959,0.914-1.549,1.148c-0.588,0.234-1.225,0.352-1.908,0.352c-0.444,0-0.862-0.047-1.254-0.143
		c-0.394-0.094-0.738-0.252-1.036-0.475c-0.298-0.221-0.532-0.506-0.703-0.855c-0.171-0.348-0.257-0.77-0.257-1.264
		c0-0.557,0.096-1.012,0.285-1.367c0.19-0.355,0.44-0.643,0.751-0.865c0.31-0.221,0.665-0.389,1.063-0.504
		c0.399-0.113,0.808-0.209,1.226-0.283c0.443-0.09,0.864-0.156,1.264-0.201c0.399-0.043,0.751-0.107,1.055-0.189
		s0.544-0.203,0.722-0.361s0.266-0.389,0.266-0.693c0-0.354-0.066-0.639-0.199-0.855c-0.133-0.215-0.304-0.379-0.513-0.492
		c-0.209-0.115-0.443-0.191-0.703-0.229c-0.26-0.039-0.517-0.057-0.77-0.057c-0.685,0-1.254,0.129-1.71,0.389
		s-0.703,0.75-0.74,1.473h-1.615c0.025-0.607,0.151-1.121,0.379-1.539c0.229-0.418,0.533-0.756,0.912-1.016
		c0.381-0.26,0.817-0.447,1.312-0.561c0.494-0.115,1.013-0.172,1.558-0.172c0.443,0,0.884,0.031,1.32,0.096
		c0.438,0.062,0.834,0.193,1.188,0.389c0.355,0.197,0.641,0.473,0.855,0.826c0.215,0.355,0.323,0.818,0.323,1.387v5.055
		c0,0.381,0.022,0.658,0.066,0.836s0.192,0.266,0.446,0.266c0.14,0,0.305-0.031,0.494-0.094v1.254
		C399.734-16.771,399.349-16.689,398.854-16.689z M396.594-21.638c-0.33,0.07-0.674,0.127-1.035,0.172
		c-0.361,0.043-0.726,0.094-1.093,0.15c-0.368,0.059-0.696,0.15-0.988,0.275c-0.292,0.127-0.528,0.309-0.712,0.543
		s-0.275,0.553-0.275,0.959c0,0.266,0.053,0.49,0.161,0.674c0.107,0.184,0.247,0.334,0.418,0.447s0.374,0.197,0.608,0.246
		c0.234,0.051,0.471,0.076,0.712,0.076c0.532,0,0.988-0.072,1.368-0.219c0.38-0.145,0.689-0.328,0.931-0.551
		c0.241-0.221,0.419-0.461,0.532-0.721s0.171-0.504,0.171-0.732v-1.652C397.189-21.818,396.923-21.708,396.594-21.638z"/>
	<path fill="#398740" d="M402.978-26.72v2.07h0.038c0.393-0.797,0.873-1.387,1.443-1.768c0.57-0.379,1.293-0.557,2.166-0.531v1.711
		c-0.646,0-1.197,0.088-1.652,0.266c-0.457,0.178-0.824,0.436-1.103,0.779c-0.278,0.342-0.481,0.756-0.608,1.244
		c-0.126,0.486-0.189,1.047-0.189,1.682v4.369h-1.615v-9.822H402.978z"/>
	<path fill="#398740" d="M414.662-16.898v-1.33h-0.037c-0.266,0.545-0.684,0.938-1.254,1.178s-1.197,0.361-1.881,0.361
		c-0.761,0-1.422-0.139-1.986-0.418c-0.563-0.277-1.032-0.652-1.406-1.121c-0.373-0.469-0.654-1.014-0.845-1.633
		c-0.19-0.621-0.285-1.279-0.285-1.977s0.092-1.355,0.275-1.977s0.462-1.162,0.836-1.625c0.374-0.461,0.843-0.828,1.406-1.102
		c0.563-0.271,1.219-0.408,1.966-0.408c0.254,0,0.525,0.025,0.817,0.076s0.583,0.137,0.874,0.256
		c0.291,0.121,0.566,0.279,0.826,0.475c0.26,0.197,0.479,0.441,0.656,0.732h0.037v-5.055h1.615v13.566H414.662z M408.858-20.384
		c0.12,0.438,0.304,0.826,0.551,1.168s0.563,0.615,0.95,0.818c0.387,0.201,0.839,0.303,1.358,0.303c0.544,0,1.007-0.107,1.387-0.322
		s0.69-0.498,0.931-0.846c0.241-0.348,0.415-0.744,0.523-1.188c0.107-0.443,0.161-0.893,0.161-1.35c0-0.48-0.058-0.945-0.171-1.396
		c-0.114-0.449-0.295-0.846-0.541-1.188c-0.248-0.342-0.568-0.617-0.96-0.826c-0.394-0.209-0.868-0.312-1.425-0.312
		c-0.545,0-1.008,0.107-1.387,0.322c-0.381,0.215-0.685,0.5-0.912,0.855c-0.229,0.354-0.393,0.76-0.494,1.215
		c-0.102,0.457-0.152,0.926-0.152,1.406C408.678-21.267,408.738-20.822,408.858-20.384z"/>
	<path fill="#398740" d="M426.309-16.689c-0.418,0-0.75-0.117-0.996-0.352c-0.248-0.234-0.371-0.617-0.371-1.148
		c-0.443,0.531-0.959,0.914-1.549,1.148c-0.589,0.234-1.225,0.352-1.909,0.352c-0.444,0-0.862-0.047-1.254-0.143
		c-0.394-0.094-0.738-0.252-1.036-0.475c-0.297-0.221-0.531-0.506-0.703-0.855c-0.17-0.348-0.256-0.77-0.256-1.264
		c0-0.557,0.095-1.012,0.285-1.367c0.189-0.355,0.439-0.643,0.75-0.865c0.311-0.221,0.665-0.389,1.064-0.504
		c0.398-0.113,0.807-0.209,1.225-0.283c0.443-0.09,0.865-0.156,1.264-0.201c0.399-0.043,0.751-0.107,1.055-0.189
		c0.305-0.082,0.545-0.203,0.723-0.361c0.177-0.158,0.266-0.389,0.266-0.693c0-0.354-0.066-0.639-0.199-0.855
		c-0.133-0.215-0.305-0.379-0.514-0.492c-0.209-0.115-0.443-0.191-0.703-0.229c-0.26-0.039-0.516-0.057-0.77-0.057
		c-0.684,0-1.254,0.129-1.709,0.389c-0.457,0.26-0.703,0.75-0.741,1.473h-1.615c0.025-0.607,0.151-1.121,0.38-1.539
		s0.532-0.756,0.912-1.016s0.816-0.447,1.311-0.561c0.494-0.115,1.014-0.172,1.559-0.172c0.443,0,0.883,0.031,1.32,0.096
		c0.438,0.062,0.833,0.193,1.188,0.389c0.354,0.197,0.64,0.473,0.855,0.826c0.215,0.355,0.322,0.818,0.322,1.387v5.055
		c0,0.381,0.022,0.658,0.066,0.836c0.045,0.178,0.193,0.266,0.447,0.266c0.139,0,0.304-0.031,0.494-0.094v1.254
		C427.189-16.771,426.803-16.689,426.309-16.689z M424.049-21.638c-0.33,0.07-0.675,0.127-1.036,0.172
		c-0.36,0.043-0.726,0.094-1.093,0.15c-0.367,0.059-0.696,0.15-0.988,0.275c-0.291,0.127-0.528,0.309-0.712,0.543
		s-0.275,0.553-0.275,0.959c0,0.266,0.054,0.49,0.161,0.674s0.248,0.334,0.418,0.447c0.172,0.113,0.374,0.197,0.608,0.246
		c0.234,0.051,0.472,0.076,0.712,0.076c0.533,0,0.988-0.072,1.369-0.219c0.379-0.145,0.689-0.328,0.93-0.551
		c0.241-0.221,0.419-0.461,0.533-0.721c0.113-0.26,0.17-0.504,0.17-0.732v-1.652C424.644-21.818,424.377-21.708,424.049-21.638z"/>
	<path fill="#398740" d="M430.488-26.72v1.557h0.039c0.671-1.189,1.734-1.785,3.191-1.785c0.646,0,1.185,0.088,1.615,0.266
		c0.43,0.178,0.779,0.426,1.045,0.742s0.453,0.693,0.561,1.129c0.107,0.438,0.162,0.922,0.162,1.455v6.459h-1.615v-6.65
		c0-0.607-0.178-1.088-0.532-1.443c-0.354-0.354-0.843-0.531-1.464-0.531c-0.493,0-0.921,0.076-1.281,0.227
		c-0.361,0.152-0.662,0.369-0.902,0.646c-0.242,0.279-0.422,0.605-0.542,0.979s-0.181,0.783-0.181,1.227v5.547h-1.615v-9.822
		H430.488z"/>
	<path fill="#398740" d="M443.732-26.72v1.424h-1.957v6.1c0,0.189,0.016,0.342,0.047,0.457c0.031,0.113,0.092,0.201,0.181,0.266
		c0.089,0.062,0.212,0.104,0.37,0.123s0.364,0.029,0.617,0.029h0.742v1.424h-1.235c-0.418,0-0.776-0.027-1.073-0.086
		c-0.299-0.057-0.539-0.16-0.723-0.312s-0.32-0.367-0.408-0.646c-0.089-0.277-0.133-0.646-0.133-1.102v-6.252h-1.672v-1.424h1.672
		v-2.945h1.615v2.945H443.732z"/>
	<path fill="#398740" d="M449.621-28.943v-1.521h10.85v1.521h-4.521v12.045h-1.806v-12.045H449.621z"/>
	<path fill="#398740" d="M466.551-17.525c-0.734,0.559-1.66,0.836-2.773,0.836c-0.786,0-1.467-0.127-2.043-0.379
		c-0.576-0.254-1.061-0.609-1.453-1.064c-0.393-0.457-0.688-1-0.884-1.635c-0.196-0.633-0.308-1.322-0.333-2.07
		c0-0.748,0.114-1.432,0.342-2.053c0.229-0.619,0.549-1.158,0.96-1.615c0.411-0.455,0.899-0.811,1.464-1.062
		c0.562-0.254,1.18-0.381,1.852-0.381c0.874,0,1.6,0.18,2.176,0.541s1.039,0.82,1.387,1.379c0.349,0.557,0.59,1.164,0.723,1.822
		c0.133,0.66,0.187,1.287,0.161,1.883h-7.353c-0.014,0.43,0.037,0.838,0.151,1.225s0.298,0.729,0.552,1.025
		c0.252,0.299,0.576,0.535,0.969,0.713s0.854,0.266,1.387,0.266c0.684,0,1.244-0.158,1.682-0.475
		c0.437-0.316,0.725-0.799,0.864-1.443h1.597C467.76-18.912,467.285-18.082,466.551-17.525z M466.161-23.833
		c-0.146-0.342-0.342-0.635-0.589-0.883c-0.247-0.246-0.539-0.443-0.874-0.59c-0.335-0.145-0.706-0.217-1.111-0.217
		c-0.418,0-0.795,0.072-1.13,0.217c-0.336,0.146-0.625,0.346-0.865,0.6s-0.431,0.549-0.57,0.883
		c-0.139,0.336-0.221,0.693-0.246,1.074h5.643C466.393-23.13,466.307-23.49,466.161-23.833z"/>
	<path fill="#398740" d="M475.671-25.011c-0.406-0.342-0.949-0.512-1.635-0.512c-0.582,0-1.071,0.107-1.462,0.322
		c-0.394,0.215-0.707,0.5-0.941,0.855c-0.234,0.354-0.402,0.764-0.504,1.225c-0.102,0.463-0.151,0.941-0.151,1.436
		c0,0.455,0.054,0.898,0.161,1.33c0.107,0.43,0.275,0.812,0.504,1.148s0.525,0.605,0.893,0.809c0.367,0.201,0.805,0.303,1.312,0.303
		c0.799,0,1.422-0.209,1.871-0.627s0.725-1.006,0.826-1.766h1.654c-0.178,1.215-0.631,2.152-1.359,2.811
		c-0.729,0.66-1.719,0.988-2.973,0.988c-0.749,0-1.41-0.121-1.986-0.361c-0.577-0.24-1.058-0.582-1.444-1.025
		s-0.678-0.973-0.873-1.586c-0.197-0.615-0.295-1.289-0.295-2.023s0.095-1.422,0.285-2.062c0.189-0.639,0.478-1.197,0.864-1.672
		c0.386-0.475,0.87-0.848,1.454-1.121c0.582-0.271,1.26-0.408,2.032-0.408c0.559,0,1.08,0.066,1.568,0.199
		c0.486,0.133,0.918,0.34,1.291,0.617c0.373,0.279,0.682,0.631,0.922,1.055c0.24,0.426,0.393,0.928,0.457,1.512h-1.674
		C476.343-24.187,476.075-24.669,475.671-25.011z"/>
	<path fill="#398740" d="M481.618-30.464v5.188h0.037c0.127-0.305,0.305-0.561,0.531-0.77c0.229-0.209,0.486-0.379,0.77-0.514
		c0.285-0.133,0.584-0.23,0.895-0.293c0.309-0.064,0.609-0.096,0.902-0.096c0.645,0,1.184,0.088,1.615,0.266
		c0.43,0.178,0.777,0.426,1.045,0.742c0.266,0.316,0.451,0.693,0.561,1.129c0.107,0.438,0.16,0.922,0.16,1.455v6.459h-1.615v-6.65
		c0-0.607-0.176-1.088-0.531-1.443c-0.355-0.354-0.842-0.531-1.463-0.531c-0.494,0-0.922,0.076-1.283,0.227
		c-0.359,0.152-0.662,0.369-0.902,0.646c-0.24,0.279-0.42,0.605-0.541,0.979s-0.18,0.783-0.18,1.227v5.547h-1.615v-13.566H481.618z"
		/>
	<path fill="#398740" d="M492.087-26.72v1.557h0.037c0.672-1.189,1.736-1.785,3.191-1.785c0.646,0,1.186,0.088,1.615,0.266
		c0.432,0.178,0.779,0.426,1.045,0.742c0.268,0.316,0.453,0.693,0.561,1.129c0.107,0.438,0.162,0.922,0.162,1.455v6.459h-1.615
		v-6.65c0-0.607-0.178-1.088-0.531-1.443c-0.355-0.354-0.844-0.531-1.463-0.531c-0.494,0-0.922,0.076-1.283,0.227
		c-0.361,0.152-0.662,0.369-0.902,0.646c-0.24,0.279-0.422,0.605-0.541,0.979c-0.121,0.373-0.182,0.783-0.182,1.227v5.547h-1.615
		v-9.822H492.087z"/>
	<path fill="#398740" d="M500.901-23.824c0.203-0.627,0.508-1.172,0.912-1.633c0.406-0.463,0.906-0.828,1.502-1.094
		s1.279-0.398,2.053-0.398c0.785,0,1.471,0.133,2.061,0.398s1.086,0.631,1.492,1.094c0.404,0.461,0.709,1.006,0.912,1.633
		c0.201,0.627,0.303,1.303,0.303,2.023c0,0.723-0.102,1.395-0.303,2.014c-0.203,0.621-0.508,1.164-0.912,1.625
		c-0.406,0.463-0.902,0.824-1.492,1.084s-1.275,0.389-2.061,0.389c-0.773,0-1.457-0.129-2.053-0.389s-1.096-0.621-1.502-1.084
		c-0.404-0.461-0.709-1.004-0.912-1.625c-0.201-0.619-0.303-1.291-0.303-2.014C500.599-22.521,500.7-23.197,500.901-23.824z
		 M502.546-20.212c0.158,0.461,0.377,0.848,0.656,1.158c0.277,0.311,0.604,0.549,0.979,0.713c0.373,0.164,0.77,0.246,1.188,0.246
		s0.812-0.082,1.188-0.246c0.373-0.164,0.699-0.402,0.979-0.713c0.277-0.311,0.496-0.697,0.654-1.158
		c0.158-0.463,0.238-0.992,0.238-1.588c0-0.594-0.08-1.123-0.238-1.586s-0.377-0.852-0.654-1.168
		c-0.279-0.316-0.605-0.559-0.979-0.723c-0.375-0.164-0.77-0.246-1.188-0.246s-0.814,0.082-1.188,0.246
		c-0.375,0.164-0.701,0.406-0.979,0.723c-0.279,0.316-0.498,0.705-0.656,1.168s-0.238,0.992-0.238,1.586
		C502.308-21.205,502.388-20.675,502.546-20.212z"/>
	<path fill="#398740" d="M513.745-30.464v13.566h-1.613v-13.566H513.745z"/>
	<path fill="#398740" d="M516.026-23.824c0.201-0.627,0.506-1.172,0.912-1.633c0.404-0.463,0.904-0.828,1.5-1.094
		s1.279-0.398,2.053-0.398c0.785,0,1.473,0.133,2.061,0.398c0.59,0.266,1.086,0.631,1.492,1.094
		c0.404,0.461,0.709,1.006,0.912,1.633s0.305,1.303,0.305,2.023c0,0.723-0.102,1.395-0.305,2.014
		c-0.203,0.621-0.508,1.164-0.912,1.625c-0.406,0.463-0.902,0.824-1.492,1.084c-0.588,0.26-1.275,0.389-2.061,0.389
		c-0.773,0-1.457-0.129-2.053-0.389s-1.096-0.621-1.5-1.084c-0.406-0.461-0.711-1.004-0.912-1.625
		c-0.203-0.619-0.305-1.291-0.305-2.014C515.722-22.521,515.823-23.197,516.026-23.824z M517.669-20.212
		c0.158,0.461,0.377,0.848,0.656,1.158c0.277,0.311,0.604,0.549,0.979,0.713c0.373,0.164,0.77,0.246,1.188,0.246
		s0.812-0.082,1.188-0.246c0.373-0.164,0.699-0.402,0.979-0.713c0.277-0.311,0.496-0.697,0.654-1.158
		c0.158-0.463,0.238-0.992,0.238-1.588c0-0.594-0.08-1.123-0.238-1.586s-0.377-0.852-0.654-1.168
		c-0.279-0.316-0.605-0.559-0.979-0.723c-0.375-0.164-0.77-0.246-1.188-0.246s-0.814,0.082-1.188,0.246
		c-0.375,0.164-0.701,0.406-0.979,0.723c-0.279,0.316-0.498,0.705-0.656,1.168s-0.236,0.992-0.236,1.586
		C517.433-21.205,517.511-20.675,517.669-20.212z"/>
	<path fill="#398740" d="M534.532-14.125c-0.736,0.799-1.889,1.197-3.459,1.197c-0.455,0-0.922-0.051-1.396-0.152
		s-0.906-0.266-1.291-0.492c-0.387-0.229-0.707-0.527-0.961-0.895c-0.252-0.367-0.393-0.816-0.418-1.348h1.615
		c0.014,0.291,0.105,0.537,0.275,0.74c0.172,0.203,0.381,0.367,0.627,0.494c0.248,0.127,0.518,0.219,0.809,0.275
		s0.57,0.086,0.836,0.086c0.531,0,0.98-0.092,1.35-0.275c0.367-0.184,0.67-0.438,0.91-0.76c0.242-0.324,0.416-0.713,0.523-1.17
		c0.107-0.455,0.162-0.955,0.162-1.5v-0.646h-0.039c-0.279,0.607-0.699,1.055-1.264,1.34c-0.562,0.285-1.162,0.428-1.795,0.428
		c-0.734,0-1.375-0.133-1.92-0.4c-0.543-0.266-1-0.623-1.367-1.072s-0.643-0.975-0.826-1.578c-0.184-0.602-0.275-1.236-0.275-1.908
		c0-0.582,0.076-1.182,0.229-1.797c0.15-0.613,0.404-1.17,0.76-1.672c0.354-0.5,0.822-0.912,1.406-1.234
		c0.582-0.322,1.297-0.484,2.146-0.484c0.621,0,1.189,0.137,1.709,0.408c0.52,0.273,0.926,0.682,1.217,1.227h0.02v-1.406h1.52v8.986
		C535.634-16.125,535.267-14.921,534.532-14.125z M532.47-18.541c0.373-0.223,0.676-0.514,0.902-0.875
		c0.229-0.361,0.396-0.77,0.504-1.225c0.107-0.457,0.162-0.912,0.162-1.369c0-0.43-0.051-0.854-0.152-1.271
		s-0.264-0.795-0.484-1.131c-0.223-0.336-0.51-0.605-0.865-0.809c-0.354-0.201-0.785-0.303-1.291-0.303
		c-0.52,0-0.963,0.098-1.33,0.293c-0.367,0.197-0.668,0.461-0.902,0.789c-0.234,0.33-0.406,0.709-0.514,1.141
		c-0.107,0.43-0.162,0.881-0.162,1.348c0,0.445,0.045,0.889,0.133,1.33c0.09,0.445,0.242,0.846,0.457,1.207s0.5,0.652,0.855,0.875
		c0.354,0.221,0.797,0.332,1.33,0.332C531.644-18.208,532.097-18.32,532.47-18.541z"/>
	<path fill="#398740" d="M541.362-14.39c-0.184,0.33-0.387,0.6-0.609,0.809c-0.221,0.209-0.465,0.359-0.73,0.455
		s-0.582,0.143-0.949,0.143c-0.191,0-0.381-0.012-0.57-0.037c-0.191-0.025-0.375-0.07-0.551-0.133v-1.482
		c0.15,0.051,0.307,0.102,0.465,0.152c0.158,0.049,0.32,0.074,0.484,0.074c0.33,0,0.596-0.074,0.799-0.227
		c0.201-0.152,0.379-0.375,0.531-0.666l0.664-1.652l-3.895-9.766h1.824l2.869,8.037h0.037l2.756-8.037h1.711l-4.275,11.115
		C541.731-15.125,541.546-14.718,541.362-14.39z"/>
</g>
<rect x="220.412" y="-51.167" fill="#398740" width="1" height="39.727"/>
</svg>
