<?xml version="1.0" encoding="utf-8"?>
<!-- Generator: Adobe Illustrator 16.0.0, SVG Export Plug-In . SVG Version: 6.00 Build 0)  -->
<!DOCTYPE svg PUBLIC "-//W3C//DTD SVG 1.1//EN" "http://www.w3.org/Graphics/SVG/1.1/DTD/svg11.dtd">
<svg version="1.1" id="Layer_1" xmlns="http://www.w3.org/2000/svg" xmlns:xlink="http://www.w3.org/1999/xlink" x="0px" y="0px"
	 width="533.202px" height="39.727px" viewBox="0 0 533.202 39.727" enable-background="new 0 0 533.202 39.727"
	 xml:space="preserve">
<g>
	<path fill="#BEBEBE" d="M13.729,4.058c1.978,0,3.82,0.315,5.525,0.946s3.182,1.576,4.429,2.838s2.221,2.838,2.924,4.73
		c0.702,1.892,1.054,4.113,1.054,6.664c0,2.236-0.287,4.301-0.86,6.192c-0.574,1.892-1.441,3.526-2.602,4.901
		c-1.161,1.377-2.609,2.459-4.343,3.247c-1.735,0.789-3.777,1.183-6.127,1.183H0.485V4.058H13.729z M13.256,29.084
		c0.975,0,1.92-0.157,2.838-0.473c0.917-0.315,1.734-0.839,2.451-1.57c0.716-0.73,1.29-1.684,1.72-2.859
		c0.43-1.175,0.645-2.607,0.645-4.3c0-1.548-0.15-2.946-0.452-4.192c-0.301-1.247-0.795-2.314-1.483-3.203s-1.599-1.57-2.73-2.043
		c-1.133-0.473-2.53-0.709-4.192-0.709H7.236v19.35H13.256z"/>
	<path fill="#BEBEBE" d="M54.451,4.058v5.677H38.239v6.578h14.878v5.246H38.239v7.525h16.555v5.676H31.488V4.058H54.451z"/>
	<path fill="#BEBEBE" d="M80.079,4.058v5.677H65.243v7.094h12.857v5.246H65.243V34.76h-6.751V4.058H80.079z"/>
	<path fill="#BEBEBE" d="M89.881,4.058v25.026h14.964v5.676H83.13V4.058H89.881z"/>
	<path fill="#BEBEBE" d="M117.917,4.058l11.481,30.702h-7.009l-2.322-6.837h-11.481l-2.408,6.837h-6.794l11.61-30.702H117.917z
		 M118.304,22.892l-3.87-11.266h-0.086l-3.999,11.266H118.304z"/>
	<path fill="#BEBEBE" d="M140.707,4.058l7.181,21.113h0.086l6.794-21.113h9.503V34.76h-6.321V13.002h-0.086l-7.525,21.758h-5.203
		l-7.525-21.543h-0.086V34.76h-6.321V4.058H140.707z"/>
	<path fill="#BEBEBE" d="M169.044,13.152c0.688-1.963,1.677-3.677,2.967-5.139s2.874-2.607,4.751-3.439s3.992-1.248,6.343-1.248
		c2.379,0,4.5,0.416,6.364,1.248c1.863,0.832,3.44,1.978,4.73,3.439s2.279,3.176,2.967,5.139c0.688,1.964,1.032,4.092,1.032,6.385
		c0,2.236-0.344,4.322-1.032,6.258c-0.688,1.935-1.677,3.619-2.967,5.052c-1.29,1.435-2.867,2.559-4.73,3.376
		c-1.864,0.816-3.985,1.225-6.364,1.225c-2.351,0-4.465-0.408-6.343-1.225c-1.877-0.817-3.461-1.941-4.751-3.376
		c-1.29-1.433-2.279-3.117-2.967-5.052c-0.688-1.936-1.032-4.021-1.032-6.258C168.012,17.244,168.356,15.116,169.044,13.152z
		 M175.214,23.301c0.301,1.219,0.781,2.314,1.44,3.289c0.659,0.975,1.519,1.756,2.58,2.344c1.06,0.588,2.35,0.881,3.87,0.881
		c1.519,0,2.809-0.293,3.87-0.881c1.06-0.588,1.92-1.369,2.58-2.344c0.659-0.975,1.14-2.07,1.441-3.289
		c0.301-1.219,0.451-2.473,0.451-3.764c0-1.347-0.15-2.65-0.451-3.912c-0.301-1.262-0.782-2.387-1.441-3.376
		c-0.66-0.989-1.52-1.776-2.58-2.364c-1.061-0.588-2.351-0.882-3.87-0.882c-1.52,0-2.81,0.294-3.87,0.882
		c-1.061,0.588-1.921,1.375-2.58,2.364c-0.66,0.989-1.139,2.114-1.44,3.376c-0.301,1.262-0.452,2.565-0.452,3.912
		C174.763,20.828,174.914,22.082,175.214,23.301z"/>
</g>
<g>
	<path fill="#BEBEBE" d="M221.447,21.186v12.047h7.182v1.52h-8.987V21.186H221.447z"/>
	<path fill="#BEBEBE" d="M236.894,34.125c-0.735,0.558-1.66,0.836-2.774,0.836c-0.786,0-1.466-0.127-2.042-0.38
		c-0.577-0.253-1.061-0.608-1.454-1.063c-0.393-0.457-0.687-1.001-0.883-1.635c-0.197-0.633-0.307-1.323-0.333-2.07
		c0-0.748,0.114-1.432,0.342-2.053c0.228-0.62,0.548-1.158,0.959-1.615c0.412-0.455,0.899-0.811,1.463-1.063
		c0.563-0.253,1.181-0.38,1.852-0.38c0.874,0,1.599,0.18,2.176,0.541c0.576,0.361,1.039,0.82,1.387,1.378
		c0.349,0.558,0.589,1.165,0.722,1.823c0.133,0.659,0.187,1.286,0.162,1.882h-7.353c-0.013,0.431,0.038,0.839,0.152,1.226
		c0.114,0.387,0.297,0.729,0.551,1.025c0.253,0.298,0.576,0.535,0.969,0.713s0.855,0.266,1.387,0.266
		c0.684,0,1.244-0.158,1.681-0.475s0.725-0.799,0.865-1.444h1.596C238.104,32.738,237.628,33.568,236.894,34.125z M236.504,27.816
		c-0.146-0.342-0.342-0.636-0.589-0.883s-0.539-0.443-0.874-0.59c-0.335-0.145-0.706-0.218-1.111-0.218
		c-0.418,0-0.795,0.073-1.13,0.218c-0.336,0.146-0.624,0.346-0.865,0.6c-0.241,0.253-0.431,0.548-0.57,0.883
		c-0.14,0.336-0.222,0.693-0.247,1.074h5.643C236.735,28.52,236.65,28.159,236.504,27.816z"/>
	<path fill="#BEBEBE" d="M247.686,34.961c-0.418,0-0.75-0.117-0.997-0.352c-0.247-0.234-0.371-0.617-0.371-1.149
		c-0.444,0.532-0.959,0.915-1.549,1.149c-0.589,0.234-1.225,0.352-1.909,0.352c-0.444,0-0.862-0.047-1.254-0.143
		c-0.393-0.095-0.738-0.253-1.036-0.475c-0.298-0.222-0.532-0.507-0.703-0.855c-0.171-0.348-0.256-0.77-0.256-1.264
		c0-0.557,0.095-1.013,0.285-1.367c0.19-0.355,0.44-0.643,0.75-0.865c0.31-0.221,0.665-0.389,1.064-0.504
		c0.399-0.113,0.807-0.209,1.225-0.284c0.443-0.089,0.865-0.155,1.264-0.2c0.399-0.043,0.75-0.107,1.055-0.189
		c0.304-0.082,0.544-0.203,0.722-0.361s0.266-0.389,0.266-0.693c0-0.354-0.066-0.639-0.199-0.855
		c-0.133-0.215-0.304-0.379-0.513-0.493s-0.443-0.19-0.703-0.228c-0.26-0.039-0.516-0.058-0.77-0.058c-0.684,0-1.254,0.13-1.71,0.39
		s-0.703,0.75-0.741,1.473h-1.615c0.025-0.608,0.152-1.121,0.38-1.539s0.532-0.757,0.912-1.017s0.817-0.446,1.311-0.561
		s1.013-0.171,1.558-0.171c0.443,0,0.883,0.031,1.32,0.095s0.833,0.193,1.188,0.39s0.64,0.473,0.855,0.826
		c0.215,0.355,0.323,0.817,0.323,1.387v5.055c0,0.38,0.022,0.658,0.066,0.836s0.193,0.266,0.446,0.266
		c0.14,0,0.304-0.031,0.494-0.095v1.254C248.566,34.879,248.18,34.961,247.686,34.961z M245.425,30.012
		c-0.33,0.069-0.674,0.127-1.036,0.171c-0.361,0.044-0.725,0.095-1.092,0.151c-0.368,0.058-0.697,0.149-0.988,0.275
		c-0.292,0.127-0.529,0.308-0.712,0.542s-0.275,0.554-0.275,0.96c0,0.266,0.054,0.49,0.162,0.674
		c0.107,0.184,0.247,0.333,0.418,0.447c0.171,0.113,0.374,0.196,0.608,0.246c0.234,0.051,0.472,0.076,0.712,0.076
		c0.532,0,0.988-0.072,1.368-0.219c0.38-0.145,0.69-0.328,0.931-0.551c0.241-0.221,0.418-0.462,0.532-0.722
		c0.114-0.259,0.171-0.503,0.171-0.731v-1.653C246.02,29.831,245.754,29.941,245.425,30.012z"/>
	<path fill="#BEBEBE" d="M257.509,34.752v-1.33h-0.038c-0.266,0.545-0.684,0.938-1.254,1.178c-0.57,0.24-1.197,0.361-1.881,0.361
		c-0.76,0-1.422-0.14-1.985-0.418c-0.564-0.278-1.033-0.652-1.406-1.121s-0.655-1.014-0.845-1.634
		c-0.19-0.62-0.285-1.279-0.285-1.976c0-0.697,0.092-1.355,0.275-1.977s0.462-1.162,0.836-1.625
		c0.374-0.462,0.842-0.829,1.406-1.102c0.563-0.271,1.219-0.408,1.966-0.408c0.253,0,0.525,0.025,0.817,0.076
		s0.583,0.136,0.874,0.256c0.292,0.121,0.567,0.279,0.827,0.475c0.259,0.197,0.478,0.441,0.655,0.732h0.038v-5.055h1.615v13.566
		H257.509z M251.705,31.266c0.12,0.438,0.304,0.826,0.551,1.168s0.563,0.615,0.95,0.817c0.386,0.202,0.839,0.304,1.358,0.304
		c0.544,0,1.007-0.107,1.387-0.322c0.38-0.216,0.69-0.498,0.931-0.846c0.241-0.349,0.415-0.744,0.522-1.188
		c0.107-0.443,0.162-0.893,0.162-1.35c0-0.48-0.057-0.946-0.171-1.396c-0.114-0.449-0.294-0.846-0.542-1.188
		s-0.567-0.617-0.959-0.826c-0.393-0.209-0.868-0.313-1.425-0.313c-0.544,0-1.007,0.108-1.387,0.323
		c-0.38,0.215-0.684,0.5-0.912,0.854s-0.393,0.761-0.494,1.216c-0.102,0.457-0.152,0.926-0.152,1.406
		C251.524,30.382,251.584,30.828,251.705,31.266z"/>
	<path fill="#BEBEBE" d="M261.708,23.162v-1.977h1.615v1.977H261.708z M263.322,24.929v9.823h-1.615v-9.823H263.322z"/>
	<path fill="#BEBEBE" d="M267.35,24.929v1.558h0.038c0.671-1.189,1.736-1.785,3.192-1.785c0.646,0,1.185,0.088,1.615,0.266
		s0.778,0.425,1.045,0.741c0.267,0.317,0.452,0.693,0.561,1.13c0.107,0.438,0.161,0.922,0.161,1.454v6.46h-1.615v-6.65
		c0-0.607-0.177-1.089-0.531-1.443c-0.355-0.354-0.843-0.532-1.463-0.532c-0.494,0-0.922,0.076-1.283,0.228
		c-0.36,0.152-0.662,0.368-0.902,0.646c-0.24,0.279-0.421,0.605-0.541,0.979c-0.121,0.373-0.181,0.782-0.181,1.226v5.548h-1.615
		v-9.823H267.35z"/>
	<path fill="#BEBEBE" d="M283.767,37.525c-0.735,0.799-1.888,1.197-3.459,1.197c-0.455,0-0.921-0.051-1.396-0.152
		c-0.475-0.102-0.905-0.266-1.291-0.493c-0.387-0.228-0.707-0.526-0.96-0.894s-0.393-0.816-0.418-1.349h1.615
		c0.013,0.291,0.104,0.538,0.275,0.741c0.171,0.202,0.38,0.367,0.627,0.494c0.247,0.126,0.517,0.219,0.808,0.275
		s0.57,0.086,0.836,0.086c0.531,0,0.981-0.093,1.35-0.276c0.367-0.184,0.67-0.437,0.911-0.76s0.415-0.712,0.522-1.169
		c0.107-0.455,0.162-0.956,0.162-1.5V33.08h-0.039c-0.278,0.607-0.699,1.055-1.263,1.34s-1.163,0.428-1.796,0.428
		c-0.734,0-1.375-0.134-1.919-0.4c-0.544-0.266-1.001-0.623-1.368-1.072c-0.367-0.45-0.643-0.976-0.826-1.578
		c-0.184-0.602-0.275-1.237-0.275-1.908c0-0.583,0.076-1.182,0.229-1.797c0.151-0.613,0.404-1.171,0.76-1.672
		c0.354-0.5,0.822-0.912,1.406-1.234c0.582-0.323,1.298-0.484,2.146-0.484c0.621,0,1.19,0.137,1.71,0.408
		c0.519,0.272,0.925,0.682,1.216,1.226h0.02v-1.406h1.52v8.987C284.868,35.524,284.501,36.729,283.767,37.525z M281.704,33.108
		c0.374-0.222,0.676-0.513,0.903-0.874s0.396-0.77,0.503-1.226s0.162-0.911,0.162-1.368c0-0.43-0.051-0.854-0.152-1.272
		s-0.263-0.795-0.484-1.131c-0.222-0.335-0.51-0.604-0.865-0.808c-0.354-0.202-0.785-0.304-1.291-0.304
		c-0.52,0-0.963,0.099-1.33,0.294c-0.367,0.197-0.668,0.46-0.902,0.789c-0.234,0.33-0.406,0.709-0.514,1.141
		c-0.107,0.43-0.161,0.88-0.161,1.348c0,0.444,0.044,0.888,0.133,1.33c0.089,0.444,0.241,0.846,0.456,1.207s0.5,0.652,0.855,0.874
		c0.354,0.222,0.798,0.333,1.33,0.333C280.878,33.441,281.331,33.33,281.704,33.108z"/>
	<path fill="#BEBEBE" d="M301.759,21.186v1.521h-7.105v4.313h6.231v1.52h-6.231v6.213h-1.806V21.186H301.759z"/>
	<path fill="#BEBEBE" d="M305.197,21.186v13.566h-1.614V21.186H305.197z"/>
	<path fill="#BEBEBE" d="M315.248,34.961c-0.418,0-0.75-0.117-0.997-0.352s-0.37-0.617-0.37-1.149
		c-0.444,0.532-0.96,0.915-1.549,1.149c-0.59,0.234-1.226,0.352-1.91,0.352c-0.443,0-0.861-0.047-1.254-0.143
		c-0.393-0.095-0.738-0.253-1.035-0.475c-0.298-0.222-0.532-0.507-0.703-0.855c-0.171-0.348-0.256-0.77-0.256-1.264
		c0-0.557,0.094-1.013,0.285-1.367c0.189-0.355,0.439-0.643,0.75-0.865c0.311-0.221,0.664-0.389,1.064-0.504
		c0.398-0.113,0.807-0.209,1.225-0.284c0.443-0.089,0.865-0.155,1.264-0.2c0.398-0.043,0.75-0.107,1.055-0.189
		c0.304-0.082,0.545-0.203,0.722-0.361s0.267-0.389,0.267-0.693c0-0.354-0.066-0.639-0.199-0.855
		c-0.134-0.215-0.305-0.379-0.514-0.493s-0.443-0.19-0.703-0.228c-0.26-0.039-0.516-0.058-0.77-0.058c-0.684,0-1.254,0.13-1.71,0.39
		s-0.703,0.75-0.741,1.473h-1.615c0.025-0.608,0.152-1.121,0.381-1.539c0.228-0.418,0.531-0.757,0.912-1.017
		c0.379-0.26,0.816-0.446,1.311-0.561s1.014-0.171,1.559-0.171c0.443,0,0.883,0.031,1.32,0.095c0.437,0.063,0.832,0.193,1.188,0.39
		c0.354,0.196,0.639,0.473,0.854,0.826c0.216,0.355,0.323,0.817,0.323,1.387v5.055c0,0.38,0.021,0.658,0.066,0.836
		s0.193,0.266,0.446,0.266c0.14,0,0.304-0.031,0.494-0.095v1.254C316.129,34.879,315.742,34.961,315.248,34.961z M312.987,30.012
		c-0.329,0.069-0.675,0.127-1.036,0.171c-0.36,0.044-0.725,0.095-1.092,0.151c-0.367,0.058-0.697,0.149-0.988,0.275
		c-0.291,0.127-0.529,0.308-0.713,0.542s-0.275,0.554-0.275,0.96c0,0.266,0.055,0.49,0.162,0.674s0.247,0.333,0.418,0.447
		c0.171,0.113,0.373,0.196,0.607,0.246c0.234,0.051,0.473,0.076,0.713,0.076c0.532,0,0.988-0.072,1.368-0.219
		c0.38-0.145,0.69-0.328,0.931-0.551c0.24-0.221,0.418-0.462,0.532-0.722c0.114-0.259,0.171-0.503,0.171-0.731v-1.653
		C313.582,29.831,313.316,29.941,312.987,30.012z"/>
	<path fill="#BEBEBE" d="M319.428,24.929v1.444h0.039c0.734-1.115,1.792-1.672,3.172-1.672c0.609,0,1.16,0.127,1.654,0.38
		s0.842,0.685,1.045,1.292c0.328-0.532,0.763-0.943,1.301-1.234c0.539-0.292,1.131-0.438,1.777-0.438
		c0.493,0,0.939,0.054,1.339,0.161c0.399,0.108,0.741,0.276,1.026,0.503c0.285,0.229,0.506,0.523,0.664,0.885
		c0.158,0.36,0.238,0.795,0.238,1.301v7.201h-1.615v-6.441c0-0.304-0.025-0.588-0.076-0.854s-0.146-0.497-0.285-0.693
		c-0.139-0.196-0.332-0.352-0.579-0.466c-0.247-0.113-0.567-0.171-0.96-0.171c-0.797,0-1.425,0.228-1.881,0.685
		c-0.455,0.455-0.684,1.063-0.684,1.823v6.118h-1.615v-6.441c0-0.316-0.028-0.607-0.086-0.873c-0.057-0.267-0.154-0.498-0.294-0.693
		c-0.14-0.197-0.326-0.35-0.561-0.457s-0.535-0.161-0.902-0.161c-0.469,0-0.871,0.095-1.206,0.285
		c-0.336,0.19-0.608,0.418-0.817,0.684c-0.209,0.267-0.361,0.542-0.456,0.827c-0.096,0.285-0.143,0.521-0.143,0.712v6.118h-1.615
		v-9.823H319.428z"/>
	<path fill="#BEBEBE" d="M341.068,34.125c-0.734,0.558-1.659,0.836-2.773,0.836c-0.785,0-1.467-0.127-2.043-0.38
		s-1.061-0.608-1.453-1.063c-0.393-0.457-0.688-1.001-0.883-1.635c-0.197-0.633-0.308-1.323-0.333-2.07
		c0-0.748,0.114-1.432,0.342-2.053c0.228-0.62,0.548-1.158,0.96-1.615c0.411-0.455,0.898-0.811,1.463-1.063
		c0.563-0.253,1.181-0.38,1.852-0.38c0.875,0,1.6,0.18,2.176,0.541s1.039,0.82,1.387,1.378c0.35,0.558,0.59,1.165,0.723,1.823
		c0.133,0.659,0.188,1.286,0.162,1.882h-7.354c-0.013,0.431,0.038,0.839,0.152,1.226c0.113,0.387,0.297,0.729,0.551,1.025
		c0.253,0.298,0.576,0.535,0.969,0.713s0.855,0.266,1.387,0.266c0.685,0,1.244-0.158,1.682-0.475s0.725-0.799,0.865-1.444h1.596
		C342.278,32.738,341.803,33.568,341.068,34.125z M340.68,27.816c-0.146-0.342-0.342-0.636-0.59-0.883
		c-0.246-0.247-0.538-0.443-0.873-0.59c-0.336-0.145-0.707-0.218-1.111-0.218c-0.418,0-0.795,0.073-1.131,0.218
		c-0.336,0.146-0.624,0.346-0.865,0.6c-0.24,0.253-0.43,0.548-0.569,0.883c-0.14,0.336-0.222,0.693-0.247,1.074h5.643
		C340.91,28.52,340.824,28.159,340.68,27.816z"/>
	<path fill="#BEBEBE" d="M356.25,21.186c1.292,0,2.302,0.317,3.03,0.95c0.728,0.634,1.093,1.501,1.093,2.603
		c0,0.824-0.188,1.547-0.561,2.166c-0.374,0.621-0.973,1.046-1.796,1.273v0.038c0.393,0.076,0.713,0.203,0.96,0.38
		c0.246,0.178,0.443,0.39,0.589,0.637s0.253,0.522,0.323,0.826c0.068,0.305,0.123,0.621,0.161,0.95
		c0.025,0.329,0.044,0.665,0.058,1.007c0.012,0.342,0.043,0.678,0.094,1.008c0.051,0.329,0.124,0.643,0.219,0.939
		c0.096,0.299,0.238,0.561,0.428,0.789h-2.014c-0.127-0.139-0.213-0.329-0.257-0.57c-0.044-0.24-0.073-0.51-0.085-0.807
		c-0.014-0.298-0.025-0.618-0.039-0.96c-0.012-0.343-0.051-0.678-0.113-1.007c-0.051-0.33-0.114-0.643-0.189-0.941
		c-0.076-0.297-0.197-0.557-0.361-0.778c-0.165-0.222-0.381-0.399-0.646-0.532s-0.621-0.199-1.064-0.199h-4.407v5.795h-1.806V21.186
		H356.25z M356.63,27.342c0.38-0.062,0.712-0.187,0.997-0.37s0.514-0.431,0.685-0.741s0.257-0.713,0.257-1.207
		c0-0.684-0.19-1.24-0.57-1.672c-0.381-0.43-0.994-0.646-1.844-0.646h-4.483v4.731h3.762
		C355.851,27.438,356.25,27.405,356.63,27.342z"/>
	<path fill="#BEBEBE" d="M369.568,34.125c-0.734,0.558-1.659,0.836-2.773,0.836c-0.785,0-1.467-0.127-2.043-0.38
		s-1.061-0.608-1.453-1.063c-0.393-0.457-0.688-1.001-0.883-1.635c-0.197-0.633-0.308-1.323-0.333-2.07
		c0-0.748,0.114-1.432,0.342-2.053c0.228-0.62,0.548-1.158,0.96-1.615c0.411-0.455,0.898-0.811,1.463-1.063
		c0.563-0.253,1.181-0.38,1.852-0.38c0.875,0,1.6,0.18,2.176,0.541s1.039,0.82,1.387,1.378c0.35,0.558,0.59,1.165,0.723,1.823
		c0.133,0.659,0.188,1.286,0.162,1.882h-7.354c-0.013,0.431,0.038,0.839,0.152,1.226c0.113,0.387,0.297,0.729,0.551,1.025
		c0.253,0.298,0.576,0.535,0.969,0.713s0.855,0.266,1.387,0.266c0.685,0,1.244-0.158,1.682-0.475s0.725-0.799,0.865-1.444h1.596
		C370.778,32.738,370.303,33.568,369.568,34.125z M369.18,27.816c-0.146-0.342-0.342-0.636-0.59-0.883
		c-0.246-0.247-0.538-0.443-0.873-0.59c-0.336-0.145-0.707-0.218-1.111-0.218c-0.418,0-0.795,0.073-1.131,0.218
		c-0.336,0.146-0.624,0.346-0.865,0.6c-0.24,0.253-0.43,0.548-0.569,0.883c-0.14,0.336-0.222,0.693-0.247,1.074h5.643
		C369.41,28.52,369.324,28.159,369.18,27.816z"/>
	<path fill="#BEBEBE" d="M377.017,24.929v1.425h-1.957v6.1c0,0.189,0.016,0.342,0.048,0.456c0.031,0.114,0.092,0.202,0.18,0.266
		c0.089,0.063,0.213,0.104,0.371,0.124c0.158,0.019,0.363,0.028,0.617,0.028h0.741v1.425h-1.235c-0.418,0-0.775-0.028-1.073-0.086
		c-0.298-0.057-0.538-0.161-0.722-0.312c-0.184-0.152-0.32-0.367-0.408-0.646c-0.09-0.278-0.134-0.646-0.134-1.102v-6.252h-1.672
		v-1.425h1.672v-2.944h1.615v2.944H377.017z"/>
	<path fill="#BEBEBE" d="M386.346,34.961c-0.418,0-0.751-0.117-0.998-0.352c-0.246-0.234-0.37-0.617-0.37-1.149
		c-0.444,0.532-0.96,0.915-1.549,1.149s-1.226,0.352-1.909,0.352c-0.443,0-0.861-0.047-1.254-0.143
		c-0.393-0.095-0.738-0.253-1.035-0.475c-0.299-0.222-0.533-0.507-0.703-0.855c-0.172-0.348-0.257-0.77-0.257-1.264
		c0-0.557,0.095-1.013,0.285-1.367c0.19-0.355,0.44-0.643,0.751-0.865c0.31-0.221,0.664-0.389,1.063-0.504
		c0.399-0.113,0.808-0.209,1.226-0.284c0.443-0.089,0.864-0.155,1.264-0.2c0.398-0.043,0.75-0.107,1.055-0.189
		c0.303-0.082,0.544-0.203,0.721-0.361c0.178-0.158,0.267-0.389,0.267-0.693c0-0.354-0.066-0.639-0.199-0.855
		c-0.134-0.215-0.304-0.379-0.513-0.493s-0.443-0.19-0.703-0.228c-0.26-0.039-0.517-0.058-0.77-0.058
		c-0.685,0-1.254,0.13-1.711,0.39c-0.455,0.26-0.703,0.75-0.74,1.473h-1.615c0.025-0.608,0.152-1.121,0.38-1.539
		s0.532-0.757,0.912-1.017s0.817-0.446,1.312-0.561s1.013-0.171,1.558-0.171c0.443,0,0.884,0.031,1.32,0.095s0.833,0.193,1.188,0.39
		s0.64,0.473,0.854,0.826c0.216,0.355,0.324,0.817,0.324,1.387v5.055c0,0.38,0.021,0.658,0.066,0.836
		c0.044,0.178,0.192,0.266,0.445,0.266c0.141,0,0.305-0.031,0.494-0.095v1.254C387.226,34.879,386.84,34.961,386.346,34.961z
		 M384.084,30.012c-0.329,0.069-0.674,0.127-1.035,0.171s-0.725,0.095-1.092,0.151c-0.368,0.058-0.697,0.149-0.988,0.275
		c-0.292,0.127-0.529,0.308-0.713,0.542s-0.275,0.554-0.275,0.96c0,0.266,0.054,0.49,0.162,0.674
		c0.107,0.184,0.246,0.333,0.418,0.447c0.17,0.113,0.373,0.196,0.607,0.246c0.234,0.051,0.472,0.076,0.713,0.076
		c0.531,0,0.988-0.072,1.367-0.219c0.381-0.145,0.69-0.328,0.932-0.551c0.24-0.221,0.418-0.462,0.531-0.722
		c0.114-0.259,0.172-0.503,0.172-0.731v-1.653C384.68,29.831,384.414,29.941,384.084,30.012z"/>
	<path fill="#BEBEBE" d="M390.469,24.929V27h0.037c0.393-0.798,0.874-1.387,1.444-1.768c0.569-0.379,1.292-0.557,2.166-0.531v1.71
		c-0.646,0-1.197,0.089-1.653,0.266c-0.456,0.178-0.823,0.437-1.102,0.779c-0.279,0.342-0.482,0.757-0.608,1.245
		c-0.126,0.486-0.19,1.047-0.19,1.681v4.37h-1.614v-9.823H390.469z"/>
	<path fill="#BEBEBE" d="M402.153,34.752v-1.33h-0.038c-0.266,0.545-0.684,0.938-1.254,1.178s-1.197,0.361-1.881,0.361
		c-0.76,0-1.422-0.14-1.985-0.418s-1.032-0.652-1.406-1.121s-0.655-1.014-0.845-1.634c-0.191-0.62-0.285-1.279-0.285-1.976
		c0-0.697,0.092-1.355,0.275-1.977s0.462-1.162,0.836-1.625c0.373-0.462,0.842-0.829,1.406-1.102
		c0.562-0.271,1.219-0.408,1.966-0.408c0.253,0,0.525,0.025,0.817,0.076c0.291,0.051,0.582,0.136,0.873,0.256
		c0.292,0.121,0.567,0.279,0.827,0.475c0.259,0.197,0.478,0.441,0.655,0.732h0.038v-5.055h1.615v13.566H402.153z M396.35,31.266
		c0.119,0.438,0.303,0.826,0.551,1.168c0.246,0.342,0.562,0.615,0.949,0.817s0.84,0.304,1.359,0.304
		c0.544,0,1.006-0.107,1.387-0.322c0.38-0.216,0.689-0.498,0.931-0.846c0.241-0.349,0.415-0.744,0.522-1.188s0.162-0.893,0.162-1.35
		c0-0.48-0.058-0.946-0.172-1.396c-0.113-0.449-0.294-0.846-0.541-1.188s-0.567-0.617-0.959-0.826
		c-0.394-0.209-0.869-0.313-1.426-0.313c-0.545,0-1.007,0.108-1.387,0.323c-0.381,0.215-0.684,0.5-0.912,0.854
		s-0.393,0.761-0.494,1.216c-0.102,0.457-0.152,0.926-0.152,1.406C396.168,30.382,396.229,30.828,396.35,31.266z"/>
	<path fill="#BEBEBE" d="M413.8,34.961c-0.418,0-0.751-0.117-0.997-0.352c-0.247-0.234-0.371-0.617-0.371-1.149
		c-0.443,0.532-0.959,0.915-1.549,1.149c-0.588,0.234-1.225,0.352-1.908,0.352c-0.444,0-0.862-0.047-1.254-0.143
		c-0.394-0.095-0.738-0.253-1.036-0.475s-0.532-0.507-0.703-0.855c-0.171-0.348-0.257-0.77-0.257-1.264
		c0-0.557,0.096-1.013,0.285-1.367c0.19-0.355,0.44-0.643,0.751-0.865c0.31-0.221,0.665-0.389,1.063-0.504
		c0.399-0.113,0.808-0.209,1.226-0.284c0.443-0.089,0.864-0.155,1.264-0.2c0.399-0.043,0.751-0.107,1.055-0.189
		s0.544-0.203,0.722-0.361s0.266-0.389,0.266-0.693c0-0.354-0.066-0.639-0.199-0.855c-0.133-0.215-0.304-0.379-0.513-0.493
		s-0.443-0.19-0.703-0.228c-0.26-0.039-0.517-0.058-0.77-0.058c-0.685,0-1.254,0.13-1.71,0.39s-0.703,0.75-0.74,1.473h-1.615
		c0.025-0.608,0.151-1.121,0.379-1.539c0.229-0.418,0.533-0.757,0.912-1.017c0.381-0.26,0.817-0.446,1.312-0.561
		s1.013-0.171,1.558-0.171c0.443,0,0.884,0.031,1.32,0.095c0.438,0.063,0.834,0.193,1.188,0.39c0.355,0.196,0.641,0.473,0.855,0.826
		c0.215,0.355,0.323,0.817,0.323,1.387v5.055c0,0.38,0.022,0.658,0.066,0.836s0.192,0.266,0.446,0.266
		c0.14,0,0.305-0.031,0.494-0.095v1.254C414.68,34.879,414.294,34.961,413.8,34.961z M411.539,30.012
		c-0.33,0.069-0.674,0.127-1.035,0.171s-0.726,0.095-1.093,0.151c-0.368,0.058-0.696,0.149-0.988,0.275
		c-0.292,0.127-0.528,0.308-0.712,0.542s-0.275,0.554-0.275,0.96c0,0.266,0.053,0.49,0.161,0.674
		c0.107,0.184,0.247,0.333,0.418,0.447c0.171,0.113,0.374,0.196,0.608,0.246c0.234,0.051,0.471,0.076,0.712,0.076
		c0.532,0,0.988-0.072,1.368-0.219c0.38-0.145,0.689-0.328,0.931-0.551c0.241-0.221,0.419-0.462,0.532-0.722
		c0.113-0.259,0.171-0.503,0.171-0.731v-1.653C412.135,29.831,411.868,29.941,411.539,30.012z"/>
	<path fill="#BEBEBE" d="M417.979,24.929v1.558h0.038c0.672-1.189,1.735-1.785,3.191-1.785c0.646,0,1.186,0.088,1.615,0.266
		c0.431,0.178,0.779,0.425,1.045,0.741c0.267,0.317,0.453,0.693,0.561,1.13c0.107,0.438,0.162,0.922,0.162,1.454v6.46h-1.615v-6.65
		c0-0.607-0.178-1.089-0.531-1.443c-0.355-0.354-0.844-0.532-1.464-0.532c-0.493,0-0.921,0.076-1.282,0.228
		c-0.361,0.152-0.662,0.368-0.902,0.646c-0.241,0.279-0.422,0.605-0.541,0.979c-0.121,0.373-0.182,0.782-0.182,1.226v5.548h-1.615
		v-9.823H417.979z"/>
	<path fill="#BEBEBE" d="M431.223,24.929v1.425h-1.957v6.1c0,0.189,0.016,0.342,0.047,0.456c0.032,0.114,0.092,0.202,0.182,0.266
		c0.088,0.063,0.211,0.104,0.37,0.124c0.158,0.019,0.364,0.028,0.617,0.028h0.741v1.425h-1.234c-0.418,0-0.777-0.028-1.074-0.086
		c-0.298-0.057-0.539-0.161-0.723-0.312c-0.184-0.152-0.319-0.367-0.408-0.646c-0.088-0.278-0.133-0.646-0.133-1.102v-6.252h-1.672
		v-1.425h1.672v-2.944h1.615v2.944H431.223z"/>
	<path fill="#BEBEBE" d="M437.112,22.706v-1.521h10.849v1.521h-4.521v12.046h-1.805V22.706H437.112z"/>
	<path fill="#BEBEBE" d="M454.041,34.125c-0.734,0.558-1.659,0.836-2.773,0.836c-0.785,0-1.467-0.127-2.043-0.38
		s-1.061-0.608-1.453-1.063c-0.393-0.457-0.688-1.001-0.883-1.635c-0.197-0.633-0.308-1.323-0.333-2.07
		c0-0.748,0.114-1.432,0.342-2.053c0.228-0.62,0.548-1.158,0.96-1.615c0.411-0.455,0.898-0.811,1.463-1.063
		c0.563-0.253,1.181-0.38,1.852-0.38c0.875,0,1.6,0.18,2.176,0.541s1.039,0.82,1.387,1.378c0.35,0.558,0.59,1.165,0.723,1.823
		c0.133,0.659,0.188,1.286,0.162,1.882h-7.354c-0.013,0.431,0.038,0.839,0.152,1.226c0.113,0.387,0.297,0.729,0.551,1.025
		c0.253,0.298,0.576,0.535,0.969,0.713s0.855,0.266,1.387,0.266c0.685,0,1.244-0.158,1.682-0.475s0.725-0.799,0.865-1.444h1.596
		C455.251,32.738,454.775,33.568,454.041,34.125z M453.652,27.816c-0.146-0.342-0.342-0.636-0.59-0.883
		c-0.246-0.247-0.538-0.443-0.873-0.59c-0.336-0.145-0.707-0.218-1.111-0.218c-0.418,0-0.795,0.073-1.131,0.218
		c-0.336,0.146-0.624,0.346-0.865,0.6c-0.24,0.253-0.43,0.548-0.569,0.883c-0.14,0.336-0.222,0.693-0.247,1.074h5.643
		C453.883,28.52,453.797,28.159,453.652,27.816z"/>
	<path fill="#BEBEBE" d="M463.161,26.639c-0.405-0.342-0.95-0.513-1.634-0.513c-0.583,0-1.07,0.108-1.463,0.323
		s-0.707,0.5-0.941,0.854s-0.401,0.764-0.503,1.226c-0.102,0.463-0.151,0.94-0.151,1.435c0,0.456,0.053,0.899,0.161,1.33
		c0.107,0.431,0.275,0.813,0.503,1.149c0.229,0.336,0.525,0.605,0.894,0.808c0.367,0.202,0.804,0.304,1.312,0.304
		c0.797,0,1.421-0.209,1.871-0.627c0.449-0.418,0.725-1.007,0.826-1.767h1.652c-0.177,1.216-0.629,2.153-1.357,2.812
		c-0.729,0.659-1.72,0.988-2.974,0.988c-0.747,0-1.409-0.121-1.985-0.361c-0.577-0.24-1.059-0.582-1.444-1.025
		c-0.387-0.443-0.678-0.973-0.874-1.587c-0.197-0.614-0.295-1.288-0.295-2.023c0-0.734,0.096-1.422,0.285-2.062
		c0.19-0.639,0.479-1.197,0.865-1.672c0.386-0.475,0.87-0.849,1.453-1.121c0.582-0.271,1.26-0.408,2.033-0.408
		c0.557,0,1.08,0.066,1.567,0.199s0.918,0.339,1.292,0.617c0.373,0.279,0.681,0.631,0.922,1.055c0.24,0.425,0.393,0.928,0.455,1.511
		h-1.672C463.832,27.463,463.566,26.98,463.161,26.639z"/>
	<path fill="#BEBEBE" d="M469.107,21.186v5.188h0.039c0.126-0.305,0.303-0.561,0.531-0.77s0.484-0.38,0.77-0.514
		c0.285-0.133,0.582-0.23,0.893-0.294s0.611-0.095,0.902-0.095c0.646,0,1.186,0.088,1.615,0.266
		c0.431,0.178,0.779,0.425,1.045,0.741c0.267,0.317,0.453,0.693,0.561,1.13c0.107,0.438,0.162,0.922,0.162,1.454v6.46h-1.615v-6.65
		c0-0.607-0.178-1.089-0.531-1.443c-0.355-0.354-0.844-0.532-1.464-0.532c-0.493,0-0.921,0.076-1.282,0.228
		c-0.361,0.152-0.662,0.368-0.902,0.646c-0.241,0.279-0.422,0.605-0.541,0.979c-0.121,0.373-0.182,0.782-0.182,1.226v5.548h-1.615
		V21.186H469.107z"/>
	<path fill="#BEBEBE" d="M479.576,24.929v1.558h0.039c0.671-1.189,1.734-1.785,3.191-1.785c0.646,0,1.185,0.088,1.615,0.266
		c0.43,0.178,0.779,0.425,1.045,0.741c0.266,0.317,0.453,0.693,0.561,1.13c0.107,0.438,0.162,0.922,0.162,1.454v6.46h-1.615v-6.65
		c0-0.607-0.178-1.089-0.532-1.443s-0.843-0.532-1.464-0.532c-0.493,0-0.921,0.076-1.281,0.228
		c-0.361,0.152-0.662,0.368-0.902,0.646c-0.242,0.279-0.422,0.605-0.542,0.979s-0.181,0.782-0.181,1.226v5.548h-1.615v-9.823
		H479.576z"/>
	<path fill="#BEBEBE" d="M488.393,27.826c0.203-0.627,0.507-1.172,0.912-1.634s0.906-0.827,1.501-1.093s1.279-0.398,2.052-0.398
		c0.785,0,1.473,0.133,2.062,0.398c0.588,0.266,1.086,0.631,1.49,1.093c0.406,0.462,0.71,1.007,0.912,1.634
		c0.203,0.627,0.305,1.302,0.305,2.023c0,0.723-0.102,1.395-0.305,2.014c-0.202,0.621-0.506,1.163-0.912,1.625
		c-0.404,0.463-0.902,0.824-1.49,1.083c-0.59,0.26-1.277,0.39-2.062,0.39c-0.772,0-1.457-0.13-2.052-0.39
		c-0.595-0.259-1.096-0.62-1.501-1.083c-0.405-0.462-0.709-1.004-0.912-1.625c-0.203-0.619-0.304-1.291-0.304-2.014
		C488.089,29.128,488.189,28.453,488.393,27.826z M490.036,31.437c0.158,0.462,0.377,0.849,0.655,1.159
		c0.279,0.311,0.605,0.548,0.979,0.713c0.374,0.164,0.77,0.246,1.188,0.246s0.814-0.082,1.188-0.246
		c0.374-0.165,0.7-0.402,0.979-0.713c0.279-0.311,0.498-0.697,0.656-1.159s0.237-0.991,0.237-1.587c0-0.595-0.079-1.123-0.237-1.586
		s-0.377-0.852-0.656-1.169c-0.278-0.316-0.604-0.558-0.979-0.722c-0.373-0.164-0.77-0.247-1.188-0.247s-0.813,0.083-1.188,0.247
		c-0.373,0.164-0.699,0.405-0.979,0.722c-0.278,0.317-0.497,0.706-0.655,1.169s-0.237,0.991-0.237,1.586
		C489.799,30.445,489.878,30.975,490.036,31.437z"/>
	<path fill="#BEBEBE" d="M501.236,21.186v13.566h-1.615V21.186H501.236z"/>
	<path fill="#BEBEBE" d="M503.516,27.826c0.203-0.627,0.508-1.172,0.912-1.634c0.406-0.462,0.906-0.827,1.502-1.093
		c0.595-0.266,1.279-0.398,2.052-0.398c0.785,0,1.472,0.133,2.062,0.398c0.589,0.266,1.086,0.631,1.491,1.093
		s0.71,1.007,0.912,1.634s0.304,1.302,0.304,2.023c0,0.723-0.102,1.395-0.304,2.014c-0.202,0.621-0.507,1.163-0.912,1.625
		c-0.405,0.463-0.902,0.824-1.491,1.083c-0.59,0.26-1.276,0.39-2.062,0.39c-0.772,0-1.457-0.13-2.052-0.39
		c-0.596-0.259-1.096-0.62-1.502-1.083c-0.404-0.462-0.709-1.004-0.912-1.625c-0.202-0.619-0.303-1.291-0.303-2.014
		C503.213,29.128,503.313,28.453,503.516,27.826z M505.16,31.437c0.158,0.462,0.377,0.849,0.655,1.159s0.604,0.548,0.979,0.713
		c0.374,0.164,0.77,0.246,1.188,0.246s0.813-0.082,1.188-0.246c0.374-0.165,0.7-0.402,0.979-0.713s0.497-0.697,0.655-1.159
		s0.238-0.991,0.238-1.587c0-0.595-0.08-1.123-0.238-1.586s-0.377-0.852-0.655-1.169c-0.278-0.316-0.604-0.558-0.979-0.722
		s-0.77-0.247-1.188-0.247s-0.813,0.083-1.188,0.247s-0.7,0.405-0.979,0.722c-0.278,0.317-0.497,0.706-0.655,1.169
		s-0.238,0.991-0.238,1.586C504.922,30.445,505.002,30.975,505.16,31.437z"/>
	<path fill="#BEBEBE" d="M522.021,37.525c-0.734,0.799-1.887,1.197-3.457,1.197c-0.457,0-0.922-0.051-1.396-0.152
		c-0.476-0.102-0.906-0.266-1.293-0.493c-0.386-0.228-0.705-0.526-0.959-0.894s-0.393-0.816-0.418-1.349h1.615
		c0.012,0.291,0.104,0.538,0.275,0.741c0.171,0.202,0.38,0.367,0.627,0.494c0.247,0.126,0.516,0.219,0.808,0.275
		c0.291,0.057,0.569,0.086,0.836,0.086c0.532,0,0.981-0.093,1.349-0.276s0.672-0.437,0.912-0.76s0.415-0.712,0.522-1.169
		c0.108-0.455,0.161-0.956,0.161-1.5V33.08h-0.037c-0.279,0.607-0.7,1.055-1.264,1.34c-0.564,0.285-1.162,0.428-1.795,0.428
		c-0.735,0-1.375-0.134-1.92-0.4c-0.545-0.266-1-0.623-1.367-1.072c-0.368-0.45-0.644-0.976-0.827-1.578
		c-0.184-0.602-0.275-1.237-0.275-1.908c0-0.583,0.075-1.182,0.228-1.797c0.152-0.613,0.406-1.171,0.76-1.672
		c0.355-0.5,0.824-0.912,1.406-1.234c0.583-0.323,1.299-0.484,2.147-0.484c0.62,0,1.19,0.137,1.71,0.408
		c0.52,0.272,0.924,0.682,1.216,1.226h0.019v-1.406h1.521v8.987C523.124,35.524,522.756,36.729,522.021,37.525z M519.961,33.108
		c0.373-0.222,0.674-0.513,0.902-0.874s0.396-0.77,0.504-1.226c0.107-0.456,0.161-0.911,0.161-1.368c0-0.43-0.051-0.854-0.152-1.272
		s-0.263-0.795-0.484-1.131c-0.222-0.335-0.511-0.604-0.864-0.808c-0.355-0.202-0.785-0.304-1.293-0.304
		c-0.52,0-0.962,0.099-1.329,0.294c-0.368,0.197-0.669,0.46-0.903,0.789c-0.234,0.33-0.404,0.709-0.512,1.141
		c-0.108,0.43-0.162,0.88-0.162,1.348c0,0.444,0.045,0.888,0.133,1.33c0.088,0.444,0.24,0.846,0.456,1.207s0.501,0.652,0.854,0.874
		c0.355,0.222,0.799,0.333,1.33,0.333C519.135,33.441,519.587,33.33,519.961,33.108z"/>
	<path fill="#BEBEBE" d="M528.853,37.26c-0.185,0.33-0.387,0.599-0.608,0.808s-0.465,0.36-0.731,0.456
		c-0.266,0.096-0.583,0.143-0.95,0.143c-0.189,0-0.38-0.013-0.57-0.038c-0.189-0.025-0.373-0.069-0.551-0.133v-1.481
		c0.152,0.05,0.308,0.101,0.466,0.151c0.158,0.05,0.319,0.075,0.484,0.075c0.329,0,0.596-0.075,0.798-0.227
		c0.203-0.152,0.381-0.375,0.532-0.666l0.665-1.652l-3.895-9.767h1.824l2.869,8.037h0.037l2.756-8.037h1.709l-4.274,11.115
		C529.223,36.525,529.035,36.931,528.853,37.26z"/>
</g>
<rect x="206.903" y="0.462" fill="#BEBEBE" width="1.255" height="39.727"/>
</svg>
