<?xml version="1.0" encoding="utf-8"?>
<!-- Generator: Adobe Illustrator 16.0.0, SVG Export Plug-In . SVG Version: 6.00 Build 0)  -->
<!DOCTYPE svg PUBLIC "-//W3C//DTD SVG 1.1//EN" "http://www.w3.org/Graphics/SVG/1.1/DTD/svg11.dtd">
<svg version="1.1" id="Layer_1" xmlns="http://www.w3.org/2000/svg" xmlns:xlink="http://www.w3.org/1999/xlink" x="0px" y="0px"
	 width="214.909px" height="45.901px" viewBox="0 0 214.909 45.901" enable-background="new 0 0 214.909 45.901"
	 xml:space="preserve">
<g>
	<g>
		<path fill="#FFFFFF" d="M17.152,6.505c2.092,0,4.041,0.334,5.846,1.001c1.805,0.667,3.367,1.668,4.686,3.002
			c1.32,1.335,2.351,3.003,3.094,5.004c0.743,2.002,1.115,4.353,1.115,7.052c0,2.366-0.304,4.55-0.91,6.551
			c-0.607,2.002-1.523,3.731-2.752,5.187c-1.229,1.456-2.761,2.601-4.596,3.435c-1.835,0.834-3.996,1.251-6.482,1.251H3.14V6.505
			H17.152z M16.652,32.983c1.03,0,2.031-0.167,3.002-0.5c0.971-0.333,1.835-0.887,2.594-1.661c0.758-0.773,1.364-1.781,1.819-3.025
			c0.455-1.243,0.683-2.759,0.683-4.549c0-1.638-0.16-3.116-0.479-4.436c-0.318-1.319-0.842-2.449-1.568-3.389
			c-0.729-0.94-1.691-1.661-2.89-2.161s-2.677-0.75-4.436-0.75h-5.096v20.473H16.652z"/>
		<path fill="#FFFFFF" d="M60.236,6.505v6.005H43.084v6.96h15.741v5.551H43.084v7.961H60.6v6.005H35.941V6.505H60.236z"/>
		<path fill="#FFFFFF" d="M87.351,6.505v6.005H71.654v7.507h13.604v5.55H71.654v13.421h-7.143V6.505H87.351z"/>
		<path fill="#FFFFFF" d="M97.723,6.505v26.478h15.832v6.005H90.58V6.505H97.723z"/>
		<path fill="#FFFFFF" d="M127.385,6.505l12.146,32.483h-7.415l-2.456-7.234h-12.148l-2.547,7.234h-7.188l12.284-32.483H127.385z
			 M127.794,26.432l-4.095-11.919h-0.091l-4.231,11.919H127.794z"/>
		<path fill="#FFFFFF" d="M151.497,6.505l7.598,22.338h0.091l7.188-22.338h10.055v32.483h-6.688V15.968h-0.09l-7.963,23.021h-5.504
			l-7.962-22.793h-0.091v22.793h-6.688V6.505H151.497z"/>
		<path fill="#FFFFFF" d="M181.479,16.127c0.728-2.077,1.773-3.89,3.139-5.437s3.04-2.76,5.027-3.64
			c1.986-0.879,4.223-1.319,6.711-1.319c2.517,0,4.761,0.44,6.732,1.319c1.971,0.88,3.64,2.093,5.004,3.64
			c1.365,1.547,2.412,3.359,3.14,5.437c0.728,2.078,1.093,4.33,1.093,6.756c0,2.366-0.365,4.572-1.093,6.619s-1.774,3.83-3.14,5.346
			c-1.364,1.517-3.033,2.707-5.004,3.571c-1.972,0.865-4.216,1.297-6.732,1.297c-2.488,0-4.725-0.432-6.711-1.297
			c-1.987-0.864-3.662-2.054-5.027-3.571c-1.365-1.516-2.411-3.298-3.139-5.346c-0.729-2.047-1.092-4.253-1.092-6.619
			C180.387,20.458,180.75,18.206,181.479,16.127z M188.006,26.864c0.318,1.29,0.826,2.45,1.525,3.48
			c0.697,1.031,1.606,1.858,2.729,2.479c1.122,0.622,2.486,0.933,4.096,0.933c1.606,0,2.971-0.311,4.094-0.933
			c1.122-0.621,2.031-1.448,2.73-2.479c0.697-1.031,1.205-2.191,1.523-3.48c0.318-1.289,0.478-2.616,0.478-3.98
			c0-1.425-0.159-2.805-0.478-4.14c-0.318-1.334-0.826-2.525-1.523-3.571c-0.699-1.046-1.608-1.88-2.73-2.502
			c-1.123-0.621-2.487-0.933-4.094-0.933c-1.609,0-2.974,0.312-4.096,0.933c-1.122,0.622-2.031,1.456-2.729,2.502
			c-0.699,1.046-1.207,2.237-1.525,3.571c-0.318,1.335-0.477,2.715-0.477,4.14C187.529,24.249,187.688,25.576,188.006,26.864z"/>
	</g>
</g>
</svg>
