<?xml version="1.0" encoding="utf-8"?>
<!-- Generator: Adobe Illustrator 16.0.0, SVG Export Plug-In . SVG Version: 6.00 Build 0)  -->
<!DOCTYPE svg PUBLIC "-//W3C//DTD SVG 1.1//EN" "http://www.w3.org/Graphics/SVG/1.1/DTD/svg11.dtd">
<svg version="1.1" id="Layer_1" xmlns="http://www.w3.org/2000/svg" xmlns:xlink="http://www.w3.org/1999/xlink" x="0px" y="0px"
	 width="636.997px" height="39.727px" viewBox="0 0 636.997 39.727" enable-background="new 0 0 636.997 39.727"
	 xml:space="preserve">
<g>
	<path fill="#BEBEBE" d="M13.244,3.596c1.978,0,3.82,0.315,5.525,0.946s3.182,1.576,4.429,2.838s2.221,2.838,2.924,4.73
		c0.702,1.892,1.054,4.113,1.054,6.664c0,2.236-0.287,4.301-0.86,6.192c-0.574,1.892-1.441,3.526-2.602,4.901
		c-1.161,1.377-2.609,2.459-4.343,3.247c-1.735,0.789-3.777,1.183-6.127,1.183H0V3.596H13.244z M12.771,28.622
		c0.975,0,1.92-0.157,2.838-0.473c0.917-0.315,1.734-0.839,2.451-1.57c0.716-0.73,1.29-1.684,1.72-2.859
		c0.43-1.175,0.645-2.607,0.645-4.3c0-1.548-0.15-2.946-0.452-4.192c-0.301-1.247-0.795-2.314-1.483-3.203s-1.599-1.57-2.73-2.043
		c-1.133-0.473-2.53-0.709-4.192-0.709H6.751v19.35H12.771z"/>
	<path fill="#BEBEBE" d="M53.965,3.596v5.677H37.754v6.578h14.878v5.246H37.754v7.525h16.555v5.676H31.003V3.596H53.965z"/>
	<path fill="#BEBEBE" d="M79.593,3.596v5.677H64.758v7.094h12.857v5.246H64.758v12.686h-6.751V3.596H79.593z"/>
	<path fill="#BEBEBE" d="M89.396,3.596v25.026h14.964v5.676H82.645V3.596H89.396z"/>
	<path fill="#BEBEBE" d="M117.432,3.596l11.481,30.702h-7.009l-2.322-6.837h-11.481l-2.408,6.837h-6.794l11.61-30.702H117.432z
		 M117.819,22.43l-3.87-11.266h-0.086l-3.999,11.266H117.819z"/>
	<path fill="#BEBEBE" d="M140.222,3.596l7.181,21.113h0.086l6.794-21.113h9.503v30.702h-6.321V12.54h-0.086l-7.525,21.758h-5.203
		l-7.525-21.543h-0.086v21.543h-6.321V3.596H140.222z"/>
	<path fill="#BEBEBE" d="M168.559,12.69c0.688-1.963,1.677-3.677,2.967-5.139s2.874-2.607,4.751-3.439s3.992-1.248,6.343-1.248
		c2.379,0,4.5,0.416,6.364,1.248c1.863,0.832,3.44,1.978,4.73,3.439s2.279,3.176,2.967,5.139c0.688,1.964,1.032,4.092,1.032,6.385
		c0,2.236-0.344,4.322-1.032,6.258c-0.688,1.935-1.677,3.619-2.967,5.052c-1.29,1.435-2.867,2.559-4.73,3.376
		c-1.864,0.816-3.985,1.225-6.364,1.225c-2.351,0-4.465-0.408-6.343-1.225c-1.877-0.817-3.461-1.941-4.751-3.376
		c-1.29-1.433-2.279-3.117-2.967-5.052c-0.688-1.936-1.032-4.021-1.032-6.258C167.526,16.782,167.871,14.654,168.559,12.69z
		 M174.729,22.839c0.301,1.219,0.781,2.314,1.44,3.289c0.659,0.975,1.519,1.756,2.58,2.344c1.06,0.588,2.35,0.881,3.87,0.881
		c1.519,0,2.809-0.293,3.87-0.881c1.06-0.588,1.92-1.369,2.58-2.344c0.659-0.975,1.14-2.07,1.441-3.289
		c0.301-1.219,0.451-2.473,0.451-3.764c0-1.347-0.15-2.65-0.451-3.912c-0.301-1.262-0.782-2.387-1.441-3.376
		c-0.66-0.989-1.52-1.776-2.58-2.364c-1.061-0.588-2.351-0.882-3.87-0.882c-1.52,0-2.81,0.294-3.87,0.882
		c-1.061,0.588-1.921,1.375-2.58,2.364c-0.66,0.989-1.139,2.114-1.44,3.376c-0.301,1.262-0.452,2.565-0.452,3.912
		C174.277,20.366,174.428,21.62,174.729,22.839z"/>
</g>
<g>
	<path fill="#BEBEBE" d="M214.995,22.244v-1.521h10.849v1.521h-4.522V34.29h-1.805V22.244H214.995z"/>
	<path fill="#BEBEBE" d="M228.693,20.724v5.188h0.038c0.126-0.305,0.304-0.561,0.532-0.77s0.485-0.38,0.77-0.514
		c0.285-0.133,0.583-0.23,0.893-0.294c0.31-0.063,0.611-0.095,0.902-0.095c0.646,0,1.185,0.088,1.615,0.266
		c0.43,0.178,0.779,0.425,1.045,0.741c0.266,0.317,0.453,0.693,0.561,1.13c0.107,0.438,0.162,0.922,0.162,1.454v6.46h-1.615v-6.65
		c0-0.607-0.177-1.089-0.532-1.443c-0.355-0.354-0.843-0.532-1.463-0.532c-0.494,0-0.921,0.076-1.282,0.228
		c-0.361,0.152-0.662,0.368-0.902,0.646c-0.241,0.279-0.421,0.605-0.542,0.979c-0.121,0.373-0.181,0.782-0.181,1.226v5.548h-1.615
		V20.724H228.693z"/>
	<path fill="#BEBEBE" d="M244.596,33.663c-0.735,0.558-1.66,0.836-2.774,0.836c-0.786,0-1.466-0.127-2.042-0.38
		c-0.577-0.253-1.061-0.608-1.454-1.063c-0.393-0.457-0.687-1.001-0.883-1.635c-0.197-0.633-0.307-1.323-0.333-2.07
		c0-0.748,0.114-1.432,0.342-2.053c0.228-0.62,0.548-1.158,0.959-1.615c0.412-0.455,0.899-0.811,1.463-1.063
		c0.563-0.253,1.181-0.38,1.852-0.38c0.874,0,1.599,0.18,2.176,0.541c0.576,0.361,1.039,0.82,1.387,1.378
		c0.349,0.558,0.589,1.165,0.722,1.823c0.133,0.659,0.187,1.286,0.162,1.882h-7.353c-0.013,0.431,0.038,0.839,0.152,1.226
		c0.114,0.387,0.297,0.729,0.551,1.025c0.253,0.298,0.576,0.535,0.969,0.713s0.855,0.266,1.387,0.266
		c0.684,0,1.244-0.158,1.681-0.475s0.725-0.799,0.865-1.444h1.596C245.806,32.276,245.331,33.106,244.596,33.663z M244.207,27.354
		c-0.146-0.342-0.342-0.636-0.589-0.883s-0.539-0.443-0.874-0.59c-0.335-0.145-0.706-0.218-1.111-0.218
		c-0.418,0-0.795,0.073-1.13,0.218c-0.336,0.146-0.624,0.346-0.865,0.6c-0.241,0.253-0.431,0.548-0.57,0.883
		c-0.14,0.336-0.222,0.693-0.247,1.074h5.643C244.438,28.058,244.352,27.697,244.207,27.354z"/>
	<path fill="#BEBEBE" d="M254.646,24.467v1.558h0.038c0.671-1.189,1.735-1.785,3.192-1.785c0.646,0,1.185,0.088,1.615,0.266
		c0.43,0.178,0.779,0.425,1.045,0.741c0.266,0.317,0.453,0.693,0.561,1.13c0.107,0.438,0.162,0.922,0.162,1.454v6.46h-1.615v-6.65
		c0-0.607-0.177-1.089-0.532-1.443c-0.355-0.354-0.843-0.532-1.463-0.532c-0.494,0-0.921,0.076-1.282,0.228
		c-0.361,0.152-0.662,0.368-0.902,0.646c-0.241,0.279-0.421,0.605-0.542,0.979c-0.121,0.373-0.181,0.782-0.181,1.226v5.548h-1.615
		v-9.823H254.646z"/>
	<path fill="#BEBEBE" d="M271.234,34.499c-0.418,0-0.75-0.117-0.997-0.352c-0.247-0.234-0.371-0.617-0.371-1.149
		c-0.444,0.532-0.959,0.915-1.549,1.149c-0.589,0.234-1.225,0.352-1.909,0.352c-0.444,0-0.862-0.047-1.254-0.143
		c-0.393-0.095-0.738-0.253-1.036-0.475c-0.298-0.222-0.532-0.507-0.703-0.855c-0.171-0.348-0.256-0.77-0.256-1.264
		c0-0.557,0.095-1.013,0.285-1.367c0.19-0.355,0.44-0.643,0.75-0.865c0.31-0.221,0.665-0.389,1.064-0.504
		c0.399-0.113,0.807-0.209,1.225-0.284c0.443-0.089,0.865-0.155,1.264-0.2c0.399-0.043,0.75-0.107,1.055-0.189
		c0.304-0.082,0.544-0.203,0.722-0.361s0.266-0.389,0.266-0.693c0-0.354-0.066-0.639-0.199-0.855
		c-0.133-0.215-0.304-0.379-0.513-0.493s-0.443-0.19-0.703-0.228c-0.26-0.039-0.516-0.058-0.77-0.058c-0.684,0-1.254,0.13-1.71,0.39
		s-0.703,0.75-0.741,1.473h-1.615c0.025-0.608,0.152-1.121,0.38-1.539s0.532-0.757,0.912-1.017s0.817-0.446,1.311-0.561
		s1.013-0.171,1.558-0.171c0.443,0,0.883,0.031,1.32,0.095s0.833,0.193,1.188,0.39s0.64,0.473,0.855,0.826
		c0.215,0.355,0.323,0.817,0.323,1.387v5.055c0,0.38,0.022,0.658,0.066,0.836s0.193,0.266,0.446,0.266
		c0.14,0,0.304-0.031,0.494-0.095v1.254C272.114,34.417,271.728,34.499,271.234,34.499z M268.973,29.55
		c-0.33,0.069-0.674,0.127-1.036,0.171c-0.361,0.044-0.725,0.095-1.092,0.151c-0.368,0.058-0.697,0.149-0.988,0.275
		c-0.292,0.127-0.529,0.308-0.712,0.542s-0.275,0.554-0.275,0.96c0,0.266,0.054,0.49,0.162,0.674
		c0.107,0.184,0.247,0.333,0.418,0.447c0.171,0.113,0.374,0.196,0.608,0.246c0.234,0.051,0.472,0.076,0.712,0.076
		c0.532,0,0.988-0.072,1.368-0.219c0.38-0.145,0.69-0.328,0.931-0.551c0.241-0.221,0.418-0.462,0.532-0.722
		c0.114-0.259,0.171-0.503,0.171-0.731v-1.653C269.568,29.369,269.302,29.479,268.973,29.55z"/>
	<path fill="#BEBEBE" d="M278.093,24.467v1.425h-1.957v6.1c0,0.189,0.016,0.342,0.047,0.456s0.092,0.202,0.181,0.266
		c0.088,0.063,0.212,0.104,0.371,0.124c0.158,0.019,0.364,0.028,0.617,0.028h0.741v1.425h-1.235c-0.418,0-0.776-0.028-1.074-0.086
		c-0.298-0.057-0.539-0.161-0.722-0.312c-0.184-0.152-0.32-0.367-0.408-0.646c-0.089-0.278-0.133-0.646-0.133-1.102v-6.252h-1.672
		v-1.425h1.672v-2.944h1.615v2.944H278.093z"/>
	<path fill="#BEBEBE" d="M286.491,34.29v-1.559h-0.038c-0.342,0.608-0.779,1.055-1.311,1.34s-1.159,0.428-1.881,0.428
		c-0.646,0-1.185-0.086-1.615-0.256c-0.431-0.172-0.779-0.416-1.045-0.732s-0.453-0.693-0.561-1.131
		c-0.108-0.437-0.162-0.921-0.162-1.453v-6.46h1.615v6.65c0,0.608,0.177,1.089,0.532,1.444c0.354,0.354,0.842,0.531,1.463,0.531
		c0.494,0,0.921-0.076,1.282-0.228c0.361-0.152,0.662-0.367,0.903-0.646c0.24-0.279,0.421-0.605,0.542-0.979
		c0.12-0.374,0.18-0.783,0.18-1.227v-5.548h1.615v9.823H286.491z"/>
	<path fill="#BEBEBE" d="M291.906,24.467v2.071h0.038c0.393-0.798,0.874-1.387,1.444-1.768c0.57-0.379,1.292-0.557,2.166-0.531v1.71
		c-0.646,0-1.197,0.089-1.653,0.266c-0.456,0.178-0.823,0.437-1.102,0.779c-0.278,0.342-0.481,0.757-0.608,1.245
		c-0.126,0.486-0.19,1.047-0.19,1.681v4.37h-1.615v-9.823H291.906z"/>
	<path fill="#BEBEBE" d="M304.312,34.499c-0.418,0-0.75-0.117-0.996-0.352c-0.248-0.234-0.371-0.617-0.371-1.149
		c-0.443,0.532-0.959,0.915-1.549,1.149c-0.589,0.234-1.225,0.352-1.909,0.352c-0.444,0-0.862-0.047-1.254-0.143
		c-0.394-0.095-0.738-0.253-1.036-0.475c-0.297-0.222-0.531-0.507-0.703-0.855c-0.17-0.348-0.256-0.77-0.256-1.264
		c0-0.557,0.095-1.013,0.285-1.367c0.189-0.355,0.439-0.643,0.75-0.865c0.311-0.221,0.665-0.389,1.064-0.504
		c0.398-0.113,0.807-0.209,1.225-0.284c0.443-0.089,0.865-0.155,1.264-0.2c0.399-0.043,0.751-0.107,1.055-0.189
		c0.305-0.082,0.545-0.203,0.723-0.361c0.177-0.158,0.266-0.389,0.266-0.693c0-0.354-0.066-0.639-0.199-0.855
		c-0.133-0.215-0.305-0.379-0.514-0.493s-0.443-0.19-0.703-0.228c-0.26-0.039-0.516-0.058-0.77-0.058
		c-0.684,0-1.254,0.13-1.709,0.39c-0.457,0.26-0.703,0.75-0.741,1.473h-1.615c0.025-0.608,0.151-1.121,0.38-1.539
		s0.532-0.757,0.912-1.017s0.816-0.446,1.311-0.561s1.014-0.171,1.559-0.171c0.443,0,0.883,0.031,1.32,0.095s0.833,0.193,1.188,0.39
		s0.64,0.473,0.855,0.826c0.215,0.355,0.322,0.817,0.322,1.387v5.055c0,0.38,0.022,0.658,0.066,0.836
		c0.045,0.178,0.193,0.266,0.447,0.266c0.139,0,0.304-0.031,0.494-0.095v1.254C305.192,34.417,304.806,34.499,304.312,34.499z
		 M302.052,29.55c-0.33,0.069-0.675,0.127-1.036,0.171c-0.36,0.044-0.726,0.095-1.093,0.151c-0.367,0.058-0.696,0.149-0.988,0.275
		c-0.291,0.127-0.528,0.308-0.712,0.542s-0.275,0.554-0.275,0.96c0,0.266,0.054,0.49,0.161,0.674s0.248,0.333,0.418,0.447
		c0.172,0.113,0.374,0.196,0.608,0.246c0.234,0.051,0.472,0.076,0.712,0.076c0.533,0,0.988-0.072,1.369-0.219
		c0.379-0.145,0.689-0.328,0.93-0.551c0.241-0.221,0.419-0.462,0.533-0.722c0.113-0.259,0.17-0.503,0.17-0.731v-1.653
		C302.646,29.369,302.38,29.479,302.052,29.55z"/>
	<path fill="#BEBEBE" d="M308.682,20.724V34.29h-1.614V20.724H308.682z"/>
	<path fill="#BEBEBE" d="M324.489,34.29l-1.994-7.809h-0.038l-1.976,7.809h-1.748l-3.154-9.823h1.785l2.224,8.037h0.038l1.977-8.037
		h1.766l2.053,8.037h0.038l2.204-8.037h1.672L326.2,34.29H324.489z"/>
	<path fill="#BEBEBE" d="M338.417,34.499c-0.418,0-0.751-0.117-0.998-0.352c-0.246-0.234-0.37-0.617-0.37-1.149
		c-0.444,0.532-0.96,0.915-1.549,1.149s-1.226,0.352-1.909,0.352c-0.443,0-0.861-0.047-1.254-0.143
		c-0.393-0.095-0.738-0.253-1.035-0.475c-0.299-0.222-0.533-0.507-0.703-0.855c-0.172-0.348-0.257-0.77-0.257-1.264
		c0-0.557,0.095-1.013,0.285-1.367c0.19-0.355,0.44-0.643,0.751-0.865c0.31-0.221,0.664-0.389,1.063-0.504
		c0.399-0.113,0.808-0.209,1.226-0.284c0.443-0.089,0.864-0.155,1.264-0.2c0.398-0.043,0.75-0.107,1.055-0.189
		c0.303-0.082,0.544-0.203,0.721-0.361c0.178-0.158,0.267-0.389,0.267-0.693c0-0.354-0.066-0.639-0.199-0.855
		c-0.134-0.215-0.304-0.379-0.513-0.493s-0.443-0.19-0.703-0.228c-0.26-0.039-0.517-0.058-0.77-0.058
		c-0.685,0-1.254,0.13-1.711,0.39c-0.455,0.26-0.703,0.75-0.74,1.473h-1.615c0.025-0.608,0.152-1.121,0.38-1.539
		s0.532-0.757,0.912-1.017s0.817-0.446,1.312-0.561s1.013-0.171,1.558-0.171c0.443,0,0.884,0.031,1.32,0.095s0.833,0.193,1.188,0.39
		s0.64,0.473,0.854,0.826c0.216,0.355,0.324,0.817,0.324,1.387v5.055c0,0.38,0.021,0.658,0.066,0.836
		c0.044,0.178,0.192,0.266,0.445,0.266c0.141,0,0.305-0.031,0.494-0.095v1.254C339.297,34.417,338.911,34.499,338.417,34.499z
		 M336.155,29.55c-0.329,0.069-0.674,0.127-1.035,0.171s-0.725,0.095-1.092,0.151c-0.368,0.058-0.697,0.149-0.988,0.275
		c-0.292,0.127-0.529,0.308-0.713,0.542s-0.275,0.554-0.275,0.96c0,0.266,0.054,0.49,0.162,0.674
		c0.107,0.184,0.246,0.333,0.418,0.447c0.17,0.113,0.373,0.196,0.607,0.246c0.234,0.051,0.472,0.076,0.713,0.076
		c0.531,0,0.988-0.072,1.367-0.219c0.381-0.145,0.69-0.328,0.932-0.551c0.24-0.221,0.418-0.462,0.531-0.722
		c0.114-0.259,0.172-0.503,0.172-0.731v-1.653C336.751,29.369,336.485,29.479,336.155,29.55z"/>
	<path fill="#BEBEBE" d="M344.373,36.798c-0.185,0.33-0.387,0.599-0.608,0.808s-0.465,0.36-0.731,0.456
		c-0.266,0.096-0.583,0.143-0.95,0.143c-0.189,0-0.38-0.013-0.57-0.038c-0.189-0.025-0.373-0.069-0.551-0.133v-1.481
		c0.152,0.05,0.308,0.101,0.466,0.151c0.158,0.05,0.319,0.075,0.484,0.075c0.329,0,0.596-0.075,0.798-0.227
		c0.203-0.152,0.381-0.375,0.532-0.666l0.665-1.652l-3.895-9.767h1.824l2.869,8.037h0.037l2.756-8.037h1.709l-4.274,11.115
		C344.743,36.063,344.556,36.469,344.373,36.798z"/>
	<path fill="#BEBEBE" d="M355.63,27.364c0.203-0.627,0.508-1.172,0.912-1.634c0.406-0.462,0.906-0.827,1.502-1.093
		c0.595-0.266,1.279-0.398,2.052-0.398c0.785,0,1.472,0.133,2.062,0.398c0.589,0.266,1.086,0.631,1.491,1.093
		s0.71,1.007,0.912,1.634s0.304,1.302,0.304,2.023c0,0.723-0.102,1.395-0.304,2.014c-0.202,0.621-0.507,1.163-0.912,1.625
		c-0.405,0.463-0.902,0.824-1.491,1.083c-0.59,0.26-1.276,0.39-2.062,0.39c-0.772,0-1.457-0.13-2.052-0.39
		c-0.596-0.259-1.096-0.62-1.502-1.083c-0.404-0.462-0.709-1.004-0.912-1.625c-0.202-0.619-0.303-1.291-0.303-2.014
		C355.327,28.666,355.428,27.991,355.63,27.364z M357.274,30.975c0.158,0.462,0.377,0.849,0.655,1.159s0.604,0.548,0.979,0.713
		c0.374,0.164,0.77,0.246,1.188,0.246s0.813-0.082,1.188-0.246c0.374-0.165,0.7-0.402,0.979-0.713s0.497-0.697,0.655-1.159
		s0.238-0.991,0.238-1.587c0-0.595-0.08-1.123-0.238-1.586s-0.377-0.852-0.655-1.169c-0.278-0.316-0.604-0.558-0.979-0.722
		s-0.77-0.247-1.188-0.247s-0.813,0.083-1.188,0.247s-0.7,0.405-0.979,0.722c-0.278,0.317-0.497,0.706-0.655,1.169
		s-0.238,0.991-0.238,1.586C357.036,29.983,357.116,30.513,357.274,30.975z"/>
	<path fill="#BEBEBE" d="M365.776,25.892v-1.425h1.652v-1.463c0-0.798,0.231-1.403,0.694-1.814c0.462-0.411,1.137-0.617,2.023-0.617
		c0.151,0,0.325,0.013,0.522,0.038c0.196,0.025,0.371,0.062,0.522,0.113v1.406c-0.14-0.051-0.292-0.086-0.456-0.104
		s-0.316-0.028-0.456-0.028c-0.393,0-0.696,0.076-0.912,0.229c-0.216,0.151-0.323,0.443-0.323,0.873v1.368h1.9v1.425h-1.9v8.398
		h-1.615v-8.398H365.776z"/>
	<path fill="#BEBEBE" d="M379.343,24.467v1.33h0.037c0.266-0.544,0.684-0.94,1.254-1.188s1.197-0.37,1.881-0.37
		c0.76,0,1.422,0.139,1.986,0.418c0.562,0.279,1.031,0.655,1.406,1.131c0.373,0.475,0.654,1.022,0.845,1.643
		c0.19,0.621,0.285,1.279,0.285,1.977s-0.092,1.355-0.275,1.976c-0.185,0.621-0.463,1.163-0.836,1.624
		c-0.374,0.463-0.843,0.827-1.406,1.094c-0.563,0.266-1.22,0.398-1.966,0.398c-0.241,0-0.511-0.025-0.809-0.076
		c-0.297-0.051-0.592-0.133-0.883-0.246c-0.291-0.115-0.567-0.27-0.826-0.467c-0.26-0.195-0.479-0.439-0.656-0.73h-0.037v5.054
		h-1.615V24.467H379.343z M385.146,27.954c-0.12-0.438-0.304-0.827-0.551-1.169c-0.247-0.343-0.563-0.614-0.95-0.817
		c-0.387-0.202-0.84-0.304-1.358-0.304c-0.545,0-1.007,0.108-1.388,0.323c-0.379,0.215-0.689,0.497-0.93,0.846
		c-0.241,0.348-0.416,0.744-0.523,1.188s-0.161,0.893-0.161,1.349c0,0.481,0.058,0.946,0.171,1.396
		c0.114,0.45,0.295,0.845,0.541,1.188c0.248,0.342,0.567,0.617,0.96,0.826c0.393,0.21,0.868,0.313,1.425,0.313
		c0.558,0,1.023-0.107,1.396-0.322c0.373-0.216,0.675-0.5,0.902-0.855c0.229-0.354,0.393-0.76,0.494-1.216s0.152-0.925,0.152-1.406
		C385.327,28.837,385.267,28.391,385.146,27.954z"/>
	<path fill="#BEBEBE" d="M390.399,24.467v2.071h0.038c0.393-0.798,0.874-1.387,1.444-1.768c0.57-0.379,1.292-0.557,2.166-0.531v1.71
		c-0.646,0-1.197,0.089-1.653,0.266c-0.456,0.178-0.823,0.437-1.103,0.779c-0.277,0.342-0.48,0.757-0.607,1.245
		c-0.127,0.486-0.189,1.047-0.189,1.681v4.37h-1.615v-9.823H390.399z"/>
	<path fill="#BEBEBE" d="M401.876,33.663c-0.735,0.558-1.66,0.836-2.774,0.836c-0.786,0-1.466-0.127-2.042-0.38
		c-0.577-0.253-1.062-0.608-1.454-1.063c-0.393-0.457-0.687-1.001-0.884-1.635c-0.196-0.633-0.307-1.323-0.332-2.07
		c0-0.748,0.113-1.432,0.342-2.053c0.229-0.62,0.548-1.158,0.959-1.615c0.412-0.455,0.9-0.811,1.464-1.063s1.181-0.38,1.853-0.38
		c0.873,0,1.599,0.18,2.176,0.541c0.576,0.361,1.038,0.82,1.387,1.378c0.348,0.558,0.589,1.165,0.722,1.823
		c0.133,0.659,0.187,1.286,0.161,1.882H396.1c-0.013,0.431,0.038,0.839,0.151,1.226c0.115,0.387,0.298,0.729,0.552,1.025
		c0.253,0.298,0.576,0.535,0.969,0.713s0.854,0.266,1.388,0.266c0.684,0,1.244-0.158,1.681-0.475s0.726-0.799,0.864-1.444h1.597
		C403.085,32.276,402.61,33.106,401.876,33.663z M401.485,27.354c-0.145-0.342-0.342-0.636-0.588-0.883
		c-0.248-0.247-0.539-0.443-0.875-0.59c-0.335-0.145-0.705-0.218-1.111-0.218c-0.418,0-0.795,0.073-1.13,0.218
		c-0.336,0.146-0.624,0.346-0.864,0.6c-0.241,0.253-0.432,0.548-0.57,0.883c-0.14,0.336-0.222,0.693-0.247,1.074h5.644
		C401.717,28.058,401.632,27.697,401.485,27.354z"/>
	<path fill="#BEBEBE" d="M407.823,34.29l-3.648-9.823h1.805l2.756,8.189h0.037l2.68-8.189h1.69l-3.591,9.823H407.823z"/>
	<path fill="#BEBEBE" d="M421.579,33.663c-0.735,0.558-1.66,0.836-2.774,0.836c-0.786,0-1.466-0.127-2.042-0.38
		c-0.577-0.253-1.062-0.608-1.454-1.063c-0.393-0.457-0.687-1.001-0.884-1.635c-0.196-0.633-0.307-1.323-0.332-2.07
		c0-0.748,0.113-1.432,0.342-2.053c0.229-0.62,0.548-1.158,0.959-1.615c0.412-0.455,0.9-0.811,1.464-1.063s1.181-0.38,1.853-0.38
		c0.873,0,1.599,0.18,2.176,0.541c0.576,0.361,1.038,0.82,1.387,1.378c0.348,0.558,0.589,1.165,0.722,1.823
		c0.133,0.659,0.187,1.286,0.161,1.882h-7.353c-0.013,0.431,0.038,0.839,0.151,1.226c0.115,0.387,0.298,0.729,0.552,1.025
		c0.253,0.298,0.576,0.535,0.969,0.713s0.854,0.266,1.388,0.266c0.684,0,1.244-0.158,1.681-0.475s0.726-0.799,0.864-1.444h1.597
		C422.788,32.276,422.313,33.106,421.579,33.663z M421.188,27.354c-0.145-0.342-0.342-0.636-0.588-0.883
		c-0.248-0.247-0.539-0.443-0.875-0.59c-0.335-0.145-0.705-0.218-1.111-0.218c-0.418,0-0.795,0.073-1.13,0.218
		c-0.336,0.146-0.624,0.346-0.864,0.6c-0.241,0.253-0.432,0.548-0.57,0.883c-0.14,0.336-0.222,0.693-0.247,1.074h5.644
		C421.42,28.058,421.335,27.697,421.188,27.354z"/>
	<path fill="#BEBEBE" d="M426.347,24.467v1.558h0.039c0.671-1.189,1.734-1.785,3.191-1.785c0.646,0,1.185,0.088,1.615,0.266
		c0.43,0.178,0.779,0.425,1.045,0.741c0.266,0.317,0.453,0.693,0.561,1.13c0.107,0.438,0.162,0.922,0.162,1.454v6.46h-1.615v-6.65
		c0-0.607-0.178-1.089-0.532-1.443s-0.843-0.532-1.464-0.532c-0.493,0-0.921,0.076-1.281,0.228
		c-0.361,0.152-0.662,0.368-0.902,0.646c-0.242,0.279-0.422,0.605-0.542,0.979s-0.181,0.782-0.181,1.226v5.548h-1.615v-9.823
		H426.347z"/>
	<path fill="#BEBEBE" d="M439.591,24.467v1.425h-1.957v6.1c0,0.189,0.016,0.342,0.047,0.456s0.092,0.202,0.181,0.266
		s0.212,0.104,0.37,0.124c0.158,0.019,0.364,0.028,0.617,0.028h0.742v1.425h-1.235c-0.418,0-0.776-0.028-1.073-0.086
		c-0.299-0.057-0.539-0.161-0.723-0.312c-0.184-0.152-0.32-0.367-0.408-0.646c-0.089-0.278-0.133-0.646-0.133-1.102v-6.252h-1.672
		v-1.425h1.672v-2.944h1.615v2.944H439.591z"/>
	<path fill="#BEBEBE" d="M441.472,22.7v-1.977h1.614V22.7H441.472z M443.086,24.467v9.823h-1.614v-9.823H443.086z"/>
	<path fill="#BEBEBE" d="M447.114,24.467v1.558h0.037c0.672-1.189,1.736-1.785,3.192-1.785c0.646,0,1.185,0.088,1.615,0.266
		s0.778,0.425,1.045,0.741c0.267,0.317,0.452,0.693,0.561,1.13c0.107,0.438,0.161,0.922,0.161,1.454v6.46h-1.615v-6.65
		c0-0.607-0.177-1.089-0.531-1.443c-0.355-0.354-0.843-0.532-1.463-0.532c-0.494,0-0.922,0.076-1.283,0.228
		c-0.36,0.152-0.662,0.368-0.902,0.646c-0.24,0.279-0.421,0.605-0.541,0.979c-0.121,0.373-0.181,0.782-0.181,1.226v5.548h-1.615
		v-9.823H447.114z"/>
	<path fill="#BEBEBE" d="M463.53,37.063c-0.735,0.799-1.888,1.197-3.459,1.197c-0.455,0-0.921-0.051-1.396-0.152
		c-0.475-0.102-0.905-0.266-1.291-0.493c-0.387-0.228-0.707-0.526-0.96-0.894s-0.393-0.816-0.418-1.349h1.615
		c0.013,0.291,0.104,0.538,0.275,0.741c0.171,0.202,0.38,0.367,0.627,0.494c0.247,0.126,0.517,0.219,0.808,0.275
		s0.57,0.086,0.836,0.086c0.531,0,0.981-0.093,1.35-0.276c0.367-0.184,0.67-0.437,0.911-0.76s0.415-0.712,0.522-1.169
		c0.107-0.455,0.162-0.956,0.162-1.5v-0.646h-0.039c-0.278,0.607-0.699,1.055-1.263,1.34s-1.163,0.428-1.796,0.428
		c-0.734,0-1.375-0.134-1.919-0.4c-0.544-0.266-1.001-0.623-1.368-1.072c-0.367-0.45-0.643-0.976-0.826-1.578
		c-0.184-0.602-0.275-1.237-0.275-1.908c0-0.583,0.076-1.182,0.229-1.797c0.151-0.613,0.404-1.171,0.76-1.672
		c0.354-0.5,0.822-0.912,1.406-1.234c0.582-0.323,1.298-0.484,2.146-0.484c0.621,0,1.19,0.137,1.71,0.408
		c0.519,0.272,0.925,0.682,1.216,1.226h0.02v-1.406h1.52v8.987C464.632,35.062,464.265,36.267,463.53,37.063z M461.468,32.646
		c0.374-0.222,0.676-0.513,0.903-0.874s0.396-0.77,0.503-1.226s0.162-0.911,0.162-1.368c0-0.43-0.051-0.854-0.152-1.272
		s-0.263-0.795-0.484-1.131c-0.222-0.335-0.51-0.604-0.865-0.808c-0.354-0.202-0.785-0.304-1.291-0.304
		c-0.52,0-0.963,0.099-1.33,0.294c-0.367,0.197-0.668,0.46-0.902,0.789c-0.234,0.33-0.406,0.709-0.514,1.141
		c-0.107,0.43-0.161,0.88-0.161,1.348c0,0.444,0.044,0.888,0.133,1.33c0.089,0.444,0.241,0.846,0.456,1.207s0.5,0.652,0.855,0.874
		c0.354,0.222,0.798,0.333,1.33,0.333C460.642,32.979,461.095,32.868,461.468,32.646z"/>
	<path fill="#BEBEBE" d="M471.357,25.892v-1.425h1.653v-1.463c0-0.798,0.23-1.403,0.693-1.814c0.462-0.411,1.137-0.617,2.023-0.617
		c0.152,0,0.326,0.013,0.522,0.038s0.37,0.062,0.522,0.113v1.406c-0.14-0.051-0.291-0.086-0.456-0.104s-0.317-0.028-0.456-0.028
		c-0.393,0-0.697,0.076-0.912,0.229c-0.215,0.151-0.322,0.443-0.322,0.873v1.368h1.899v1.425h-1.899v8.398h-1.615v-8.398H471.357z
		 M478.064,20.724h1.614V22.7h-1.614V20.724z M478.064,24.467h1.614v9.823h-1.614V24.467z"/>
	<path fill="#BEBEBE" d="M483.65,24.467v2.071h0.038c0.393-0.798,0.873-1.387,1.443-1.768c0.57-0.379,1.293-0.557,2.166-0.531v1.71
		c-0.646,0-1.197,0.089-1.652,0.266c-0.457,0.178-0.824,0.437-1.103,0.779c-0.278,0.342-0.481,0.757-0.608,1.245
		c-0.126,0.486-0.189,1.047-0.189,1.681v4.37h-1.615v-9.823H483.65z"/>
	<path fill="#BEBEBE" d="M495.126,33.663c-0.734,0.558-1.659,0.836-2.773,0.836c-0.785,0-1.467-0.127-2.043-0.38
		s-1.061-0.608-1.453-1.063c-0.393-0.457-0.688-1.001-0.883-1.635c-0.197-0.633-0.308-1.323-0.333-2.07
		c0-0.748,0.114-1.432,0.342-2.053c0.228-0.62,0.548-1.158,0.96-1.615c0.411-0.455,0.898-0.811,1.463-1.063
		c0.563-0.253,1.181-0.38,1.852-0.38c0.875,0,1.6,0.18,2.176,0.541s1.039,0.82,1.387,1.378c0.35,0.558,0.59,1.165,0.723,1.823
		c0.133,0.659,0.188,1.286,0.162,1.882h-7.354c-0.013,0.431,0.038,0.839,0.152,1.226c0.113,0.387,0.297,0.729,0.551,1.025
		c0.253,0.298,0.576,0.535,0.969,0.713s0.855,0.266,1.387,0.266c0.685,0,1.244-0.158,1.682-0.475s0.725-0.799,0.865-1.444h1.596
		C496.336,32.276,495.86,33.106,495.126,33.663z M494.737,27.354c-0.146-0.342-0.342-0.636-0.59-0.883
		c-0.246-0.247-0.538-0.443-0.873-0.59c-0.336-0.145-0.707-0.218-1.111-0.218c-0.418,0-0.795,0.073-1.131,0.218
		c-0.336,0.146-0.624,0.346-0.865,0.6c-0.24,0.253-0.43,0.548-0.569,0.883c-0.14,0.336-0.222,0.693-0.247,1.074h5.643
		C494.968,28.058,494.882,27.697,494.737,27.354z"/>
	<path fill="#BEBEBE" d="M511.2,34.499c-0.418,0-0.751-0.117-0.998-0.352c-0.246-0.234-0.37-0.617-0.37-1.149
		c-0.444,0.532-0.96,0.915-1.549,1.149s-1.226,0.352-1.909,0.352c-0.443,0-0.861-0.047-1.254-0.143
		c-0.393-0.095-0.738-0.253-1.035-0.475c-0.299-0.222-0.533-0.507-0.703-0.855c-0.172-0.348-0.257-0.77-0.257-1.264
		c0-0.557,0.095-1.013,0.285-1.367c0.19-0.355,0.44-0.643,0.751-0.865c0.31-0.221,0.664-0.389,1.063-0.504
		c0.399-0.113,0.808-0.209,1.226-0.284c0.443-0.089,0.864-0.155,1.264-0.2c0.398-0.043,0.75-0.107,1.055-0.189
		c0.303-0.082,0.544-0.203,0.721-0.361c0.178-0.158,0.267-0.389,0.267-0.693c0-0.354-0.066-0.639-0.199-0.855
		c-0.134-0.215-0.304-0.379-0.513-0.493s-0.443-0.19-0.703-0.228c-0.26-0.039-0.517-0.058-0.77-0.058
		c-0.685,0-1.254,0.13-1.711,0.39c-0.455,0.26-0.703,0.75-0.74,1.473h-1.615c0.025-0.608,0.152-1.121,0.38-1.539
		s0.532-0.757,0.912-1.017s0.817-0.446,1.312-0.561s1.013-0.171,1.558-0.171c0.443,0,0.884,0.031,1.32,0.095s0.833,0.193,1.188,0.39
		s0.64,0.473,0.854,0.826c0.216,0.355,0.324,0.817,0.324,1.387v5.055c0,0.38,0.021,0.658,0.066,0.836
		c0.044,0.178,0.192,0.266,0.445,0.266c0.141,0,0.305-0.031,0.494-0.095v1.254C512.08,34.417,511.694,34.499,511.2,34.499z
		 M508.938,29.55c-0.329,0.069-0.674,0.127-1.035,0.171s-0.725,0.095-1.092,0.151c-0.368,0.058-0.697,0.149-0.988,0.275
		c-0.292,0.127-0.529,0.308-0.713,0.542s-0.275,0.554-0.275,0.96c0,0.266,0.054,0.49,0.162,0.674
		c0.107,0.184,0.246,0.333,0.418,0.447c0.17,0.113,0.373,0.196,0.607,0.246c0.234,0.051,0.472,0.076,0.713,0.076
		c0.531,0,0.988-0.072,1.367-0.219c0.381-0.145,0.69-0.328,0.932-0.551c0.24-0.221,0.418-0.462,0.531-0.722
		c0.114-0.259,0.172-0.503,0.172-0.731v-1.653C509.534,29.369,509.269,29.479,508.938,29.55z"/>
	<path fill="#BEBEBE" d="M515.38,24.467v1.558h0.038c0.671-1.189,1.735-1.785,3.192-1.785c0.646,0,1.184,0.088,1.615,0.266
		c0.43,0.178,0.778,0.425,1.045,0.741c0.266,0.317,0.452,0.693,0.561,1.13c0.107,0.438,0.161,0.922,0.161,1.454v6.46h-1.615v-6.65
		c0-0.607-0.177-1.089-0.532-1.443c-0.354-0.354-0.842-0.532-1.463-0.532c-0.494,0-0.922,0.076-1.282,0.228
		c-0.36,0.152-0.662,0.368-0.902,0.646c-0.241,0.279-0.421,0.605-0.542,0.979c-0.12,0.373-0.18,0.782-0.18,1.226v5.548h-1.615
		v-9.823H515.38z"/>
	<path fill="#BEBEBE" d="M531.587,34.29v-1.33h-0.038c-0.266,0.545-0.684,0.938-1.254,1.178c-0.569,0.24-1.196,0.361-1.881,0.361
		c-0.761,0-1.422-0.14-1.985-0.418c-0.564-0.278-1.033-0.652-1.406-1.121s-0.655-1.014-0.846-1.634
		c-0.189-0.62-0.285-1.279-0.285-1.976c0-0.697,0.092-1.355,0.275-1.977s0.463-1.162,0.836-1.625
		c0.374-0.462,0.843-0.829,1.406-1.102c0.564-0.271,1.219-0.408,1.967-0.408c0.254,0,0.525,0.025,0.816,0.076
		c0.292,0.051,0.583,0.136,0.875,0.256c0.291,0.121,0.566,0.279,0.826,0.475c0.26,0.197,0.479,0.441,0.655,0.732h0.038v-5.055h1.615
		V34.29H531.587z M525.782,30.804c0.121,0.438,0.305,0.826,0.551,1.168c0.248,0.342,0.564,0.615,0.951,0.817
		c0.386,0.202,0.838,0.304,1.357,0.304c0.545,0,1.008-0.107,1.387-0.322c0.381-0.216,0.691-0.498,0.932-0.846
		c0.24-0.349,0.414-0.744,0.522-1.188c0.107-0.443,0.161-0.893,0.161-1.35c0-0.48-0.057-0.946-0.17-1.396
		c-0.115-0.449-0.295-0.846-0.542-1.188s-0.567-0.617-0.96-0.826s-0.867-0.313-1.425-0.313c-0.544,0-1.007,0.108-1.387,0.323
		s-0.685,0.5-0.912,0.854s-0.393,0.761-0.494,1.216c-0.102,0.457-0.151,0.926-0.151,1.406
		C525.603,29.92,525.662,30.366,525.782,30.804z"/>
	<path fill="#BEBEBE" d="M542.208,32.096c0.152,0.247,0.352,0.443,0.598,0.589c0.248,0.146,0.526,0.25,0.837,0.313
		c0.31,0.063,0.63,0.095,0.96,0.095c0.252,0,0.519-0.019,0.797-0.057c0.279-0.038,0.535-0.107,0.77-0.209s0.428-0.25,0.58-0.447
		c0.152-0.195,0.229-0.445,0.229-0.75c0-0.418-0.159-0.734-0.476-0.949c-0.317-0.216-0.712-0.391-1.188-0.523
		s-0.991-0.253-1.549-0.361c-0.558-0.107-1.073-0.259-1.548-0.455c-0.476-0.196-0.871-0.473-1.188-0.826
		c-0.317-0.355-0.476-0.85-0.476-1.482c0-0.494,0.11-0.918,0.333-1.273c0.221-0.354,0.506-0.643,0.854-0.864
		s0.741-0.386,1.179-0.494c0.437-0.107,0.87-0.161,1.301-0.161c0.558,0,1.07,0.047,1.539,0.143c0.469,0.095,0.884,0.26,1.244,0.494
		c0.361,0.234,0.649,0.551,0.865,0.949c0.215,0.399,0.342,0.896,0.38,1.492h-1.615c-0.025-0.316-0.108-0.58-0.247-0.789
		s-0.316-0.377-0.531-0.504c-0.217-0.126-0.453-0.218-0.713-0.275c-0.26-0.057-0.523-0.085-0.789-0.085
		c-0.24,0-0.484,0.019-0.73,0.058c-0.248,0.037-0.473,0.104-0.676,0.199c-0.202,0.095-0.367,0.221-0.493,0.38
		c-0.127,0.158-0.19,0.364-0.19,0.617c0,0.278,0.098,0.511,0.295,0.693c0.195,0.185,0.446,0.336,0.75,0.456
		c0.305,0.121,0.646,0.222,1.026,0.305c0.38,0.082,0.76,0.168,1.14,0.256c0.405,0.089,0.801,0.197,1.188,0.323
		s0.729,0.294,1.026,0.503s0.538,0.473,0.722,0.789s0.275,0.709,0.275,1.178c0,0.596-0.123,1.09-0.37,1.482s-0.57,0.709-0.97,0.949
		c-0.398,0.241-0.848,0.409-1.348,0.504c-0.501,0.096-0.998,0.143-1.492,0.143c-0.545,0-1.064-0.057-1.559-0.171
		c-0.493-0.114-0.93-0.301-1.311-0.561c-0.38-0.259-0.684-0.602-0.912-1.026c-0.228-0.424-0.354-0.939-0.38-1.549h1.615
		C541.974,31.548,542.056,31.849,542.208,32.096z"/>
	<path fill="#BEBEBE" d="M558.015,34.499c-0.418,0-0.75-0.117-0.996-0.352c-0.248-0.234-0.371-0.617-0.371-1.149
		c-0.443,0.532-0.959,0.915-1.549,1.149c-0.588,0.234-1.225,0.352-1.908,0.352c-0.444,0-0.862-0.047-1.254-0.143
		c-0.394-0.095-0.738-0.253-1.036-0.475s-0.532-0.507-0.703-0.855c-0.171-0.348-0.257-0.77-0.257-1.264
		c0-0.557,0.096-1.013,0.285-1.367c0.19-0.355,0.44-0.643,0.751-0.865c0.31-0.221,0.665-0.389,1.063-0.504
		c0.399-0.113,0.808-0.209,1.226-0.284c0.443-0.089,0.864-0.155,1.264-0.2c0.399-0.043,0.751-0.107,1.055-0.189
		s0.544-0.203,0.722-0.361s0.266-0.389,0.266-0.693c0-0.354-0.066-0.639-0.199-0.855c-0.133-0.215-0.305-0.379-0.514-0.493
		c-0.208-0.114-0.442-0.19-0.702-0.228c-0.26-0.039-0.517-0.058-0.77-0.058c-0.685,0-1.254,0.13-1.71,0.39s-0.703,0.75-0.74,1.473
		h-1.615c0.025-0.608,0.151-1.121,0.379-1.539c0.229-0.418,0.533-0.757,0.912-1.017c0.381-0.26,0.817-0.446,1.312-0.561
		s1.013-0.171,1.558-0.171c0.443,0,0.884,0.031,1.32,0.095c0.438,0.063,0.832,0.193,1.188,0.39s0.639,0.473,0.855,0.826
		c0.215,0.355,0.322,0.817,0.322,1.387v5.055c0,0.38,0.021,0.658,0.066,0.836s0.193,0.266,0.447,0.266
		c0.139,0,0.303-0.031,0.494-0.095v1.254C558.896,34.417,558.509,34.499,558.015,34.499z M555.755,29.55
		c-0.33,0.069-0.674,0.127-1.035,0.171s-0.726,0.095-1.093,0.151c-0.368,0.058-0.696,0.149-0.988,0.275
		c-0.292,0.127-0.528,0.308-0.712,0.542s-0.275,0.554-0.275,0.96c0,0.266,0.053,0.49,0.161,0.674
		c0.107,0.184,0.247,0.333,0.418,0.447c0.171,0.113,0.374,0.196,0.608,0.246c0.234,0.051,0.471,0.076,0.712,0.076
		c0.532,0,0.988-0.072,1.368-0.219c0.38-0.145,0.689-0.328,0.93-0.551c0.242-0.221,0.418-0.462,0.533-0.722
		c0.113-0.259,0.17-0.503,0.17-0.731v-1.653C556.349,29.369,556.083,29.479,555.755,29.55z"/>
	<path fill="#BEBEBE" d="M563.374,34.29l-3.648-9.823h1.805l2.756,8.189h0.037l2.68-8.189h1.691l-3.592,9.823H563.374z"/>
	<path fill="#BEBEBE" d="M570.271,22.7v-1.977h1.615V22.7H570.271z M571.886,24.467v9.823h-1.615v-9.823H571.886z"/>
	<path fill="#BEBEBE" d="M575.913,24.467v1.558h0.039c0.67-1.189,1.734-1.785,3.191-1.785c0.646,0,1.184,0.088,1.615,0.266
		c0.43,0.178,0.779,0.425,1.045,0.741c0.266,0.317,0.453,0.693,0.561,1.13c0.107,0.438,0.16,0.922,0.16,1.454v6.46h-1.613v-6.65
		c0-0.607-0.178-1.089-0.533-1.443c-0.354-0.354-0.842-0.532-1.463-0.532c-0.494,0-0.922,0.076-1.283,0.228
		c-0.359,0.152-0.66,0.368-0.902,0.646c-0.24,0.279-0.42,0.605-0.541,0.979s-0.18,0.782-0.18,1.226v5.548h-1.615v-9.823H575.913z"/>
	<path fill="#BEBEBE" d="M592.329,37.063c-0.734,0.799-1.889,1.197-3.459,1.197c-0.455,0-0.92-0.051-1.396-0.152
		c-0.475-0.102-0.904-0.266-1.291-0.493s-0.707-0.526-0.959-0.894c-0.254-0.367-0.395-0.816-0.418-1.349h1.613
		c0.014,0.291,0.105,0.538,0.275,0.741c0.172,0.202,0.381,0.367,0.627,0.494c0.248,0.126,0.518,0.219,0.809,0.275
		s0.57,0.086,0.836,0.086c0.531,0,0.98-0.093,1.35-0.276c0.367-0.184,0.67-0.437,0.912-0.76c0.24-0.323,0.414-0.712,0.521-1.169
		c0.107-0.455,0.162-0.956,0.162-1.5v-0.646h-0.039c-0.277,0.607-0.699,1.055-1.264,1.34c-0.562,0.285-1.162,0.428-1.795,0.428
		c-0.734,0-1.375-0.134-1.918-0.4c-0.545-0.266-1.002-0.623-1.369-1.072c-0.367-0.45-0.643-0.976-0.826-1.578
		c-0.184-0.602-0.275-1.237-0.275-1.908c0-0.583,0.076-1.182,0.229-1.797c0.152-0.613,0.404-1.171,0.76-1.672
		c0.354-0.5,0.822-0.912,1.406-1.234c0.582-0.323,1.297-0.484,2.146-0.484c0.621,0,1.189,0.137,1.709,0.408
		c0.52,0.272,0.926,0.682,1.217,1.226h0.02v-1.406h1.52v8.987C593.431,35.062,593.063,36.267,592.329,37.063z M590.267,32.646
		c0.375-0.222,0.676-0.513,0.902-0.874c0.229-0.361,0.396-0.77,0.504-1.226s0.162-0.911,0.162-1.368c0-0.43-0.051-0.854-0.152-1.272
		s-0.264-0.795-0.484-1.131c-0.223-0.335-0.51-0.604-0.865-0.808c-0.354-0.202-0.785-0.304-1.291-0.304
		c-0.52,0-0.963,0.099-1.33,0.294c-0.367,0.197-0.668,0.46-0.902,0.789c-0.234,0.33-0.406,0.709-0.514,1.141
		c-0.107,0.43-0.162,0.88-0.162,1.348c0,0.444,0.045,0.888,0.135,1.33c0.088,0.444,0.24,0.846,0.455,1.207s0.5,0.652,0.855,0.874
		c0.354,0.222,0.797,0.333,1.33,0.333C589.44,32.979,589.894,32.868,590.267,32.646z"/>
	<path fill="#BEBEBE" d="M602.854,20.724V34.29h-1.615V20.724H602.854z"/>
	<path fill="#BEBEBE" d="M605.458,22.7v-1.977h1.615V22.7H605.458z M607.073,24.467v9.823h-1.615v-9.823H607.073z"/>
	<path fill="#BEBEBE" d="M612.278,34.29l-3.648-9.823h1.807l2.754,8.189h0.039l2.678-8.189h1.691l-3.592,9.823H612.278z"/>
	<path fill="#BEBEBE" d="M626.034,33.663c-0.734,0.558-1.658,0.836-2.773,0.836c-0.785,0-1.467-0.127-2.043-0.38
		s-1.061-0.608-1.453-1.063c-0.393-0.457-0.688-1.001-0.883-1.635c-0.197-0.633-0.309-1.323-0.334-2.07
		c0-0.748,0.115-1.432,0.344-2.053c0.227-0.62,0.547-1.158,0.959-1.615c0.41-0.455,0.898-0.811,1.463-1.063
		c0.562-0.253,1.182-0.38,1.852-0.38c0.875,0,1.6,0.18,2.176,0.541s1.039,0.82,1.387,1.378c0.35,0.558,0.59,1.165,0.723,1.823
		c0.133,0.659,0.188,1.286,0.162,1.882h-7.354c-0.014,0.431,0.037,0.839,0.152,1.226c0.113,0.387,0.297,0.729,0.551,1.025
		c0.254,0.298,0.576,0.535,0.969,0.713s0.855,0.266,1.387,0.266c0.684,0,1.244-0.158,1.682-0.475s0.725-0.799,0.865-1.444h1.596
		C627.245,32.276,626.769,33.106,626.034,33.663z M625.646,27.354c-0.146-0.342-0.342-0.636-0.59-0.883
		c-0.246-0.247-0.537-0.443-0.873-0.59c-0.336-0.145-0.707-0.218-1.111-0.218c-0.418,0-0.795,0.073-1.131,0.218
		c-0.336,0.146-0.625,0.346-0.865,0.6c-0.24,0.253-0.43,0.548-0.57,0.883c-0.139,0.336-0.221,0.693-0.246,1.074h5.643
		C625.876,28.058,625.79,27.697,625.646,27.354z"/>
	<path fill="#BEBEBE" d="M630.519,32.096c0.15,0.247,0.352,0.443,0.598,0.589c0.248,0.146,0.525,0.25,0.836,0.313
		s0.631,0.095,0.959,0.095c0.254,0,0.52-0.019,0.799-0.057s0.535-0.107,0.77-0.209s0.428-0.25,0.58-0.447
		c0.15-0.195,0.227-0.445,0.227-0.75c0-0.418-0.158-0.734-0.475-0.949c-0.316-0.216-0.713-0.391-1.188-0.523
		s-0.99-0.253-1.549-0.361c-0.557-0.107-1.072-0.259-1.547-0.455c-0.477-0.196-0.871-0.473-1.188-0.826
		c-0.318-0.355-0.477-0.85-0.477-1.482c0-0.494,0.111-0.918,0.334-1.273c0.221-0.354,0.506-0.643,0.854-0.864
		c0.35-0.222,0.742-0.386,1.178-0.494c0.438-0.107,0.871-0.161,1.303-0.161c0.557,0,1.07,0.047,1.539,0.143
		c0.469,0.095,0.883,0.26,1.244,0.494s0.648,0.551,0.865,0.949c0.215,0.399,0.342,0.896,0.379,1.492h-1.615
		c-0.025-0.316-0.107-0.58-0.246-0.789c-0.141-0.209-0.316-0.377-0.533-0.504c-0.215-0.126-0.453-0.218-0.711-0.275
		c-0.26-0.057-0.523-0.085-0.789-0.085c-0.24,0-0.484,0.019-0.732,0.058c-0.246,0.037-0.471,0.104-0.674,0.199
		c-0.203,0.095-0.367,0.221-0.494,0.38c-0.127,0.158-0.189,0.364-0.189,0.617c0,0.278,0.098,0.511,0.295,0.693
		c0.195,0.185,0.445,0.336,0.75,0.456c0.305,0.121,0.646,0.222,1.025,0.305c0.381,0.082,0.76,0.168,1.141,0.256
		c0.404,0.089,0.801,0.197,1.188,0.323s0.729,0.294,1.025,0.503s0.539,0.473,0.723,0.789s0.275,0.709,0.275,1.178
		c0,0.596-0.123,1.09-0.371,1.482c-0.246,0.393-0.57,0.709-0.969,0.949c-0.398,0.241-0.848,0.409-1.35,0.504
		c-0.5,0.096-0.996,0.143-1.49,0.143c-0.545,0-1.064-0.057-1.559-0.171s-0.932-0.301-1.311-0.561
		c-0.381-0.259-0.684-0.602-0.912-1.026c-0.229-0.424-0.355-0.939-0.381-1.549h1.615C630.284,31.548,630.366,31.849,630.519,32.096z
		"/>
</g>
<rect x="206.418" fill="#BEBEBE" width="1.255" height="39.727"/>
</svg>
