<?xml version="1.0" encoding="utf-8"?>
<!-- Generator: Adobe Illustrator 16.0.0, SVG Export Plug-In . SVG Version: 6.00 Build 0)  -->
<!DOCTYPE svg PUBLIC "-//W3C//DTD SVG 1.1//EN" "http://www.w3.org/Graphics/SVG/1.1/DTD/svg11.dtd">
<svg version="1.1" id="Layer_1" xmlns="http://www.w3.org/2000/svg" xmlns:xlink="http://www.w3.org/1999/xlink" x="0px" y="0px"
	 width="546px" height="40px" viewBox="-199.651 11.693 546 40" enable-background="new -199.651 11.693 546 40"
	 xml:space="preserve">
<g>
	<g>
		<path fill="#FFFFFF" d="M-185.488,14.457c2.093,0,4.042,0.334,5.846,1.001c1.804,0.667,3.367,1.668,4.686,3.002
			c1.319,1.335,2.35,3.003,3.094,5.005c0.743,2.002,1.115,4.352,1.115,7.051c0,2.366-0.304,4.551-0.91,6.552
			c-0.607,2.002-1.524,3.731-2.752,5.187c-1.228,1.456-2.76,2.602-4.595,3.436c-1.835,0.834-3.997,1.25-6.483,1.25H-199.5V14.457
			H-185.488z M-185.988,40.935c1.031,0,2.031-0.167,3.002-0.501c0.97-0.333,1.835-0.887,2.593-1.66
			c0.758-0.773,1.365-1.781,1.82-3.025c0.455-1.243,0.682-2.76,0.682-4.549c0-1.639-0.159-3.117-0.478-4.437
			s-0.842-2.448-1.569-3.39c-0.728-0.939-1.691-1.66-2.889-2.16c-1.198-0.501-2.677-0.751-4.436-0.751h-5.096v20.473H-185.988z"/>
		<path fill="#FFFFFF" d="M-142.404,14.457v6.005h-17.152v6.96h15.741v5.551h-15.741v7.962h17.516v6.005h-24.658V14.457H-142.404z"
			/>
		<path fill="#FFFFFF" d="M-115.29,14.457v6.005h-15.696v7.507h13.603v5.551h-13.603v13.42h-7.143V14.457H-115.29z"/>
		<path fill="#FFFFFF" d="M-104.917,14.457v26.478h15.833v6.005h-22.975V14.457H-104.917z"/>
		<path fill="#FFFFFF" d="M-75.255,14.457l12.147,32.483h-7.416l-2.457-7.233h-12.147l-2.548,7.233h-7.188l12.284-32.483H-75.255z
			 M-74.846,34.383l-4.094-11.919h-0.091l-4.231,11.919H-74.846z"/>
		<path fill="#FFFFFF" d="M-51.143,14.457l7.598,22.338h0.091l7.188-22.338h10.055V46.94h-6.688V23.92h-0.091l-7.962,23.02h-5.505
			l-7.961-22.793h-0.091V46.94h-6.688V14.457H-51.143z"/>
		<path fill="#FFFFFF" d="M-21.162,24.079c0.728-2.076,1.774-3.889,3.139-5.436c1.365-1.547,3.04-2.76,5.027-3.64
			c1.986-0.879,4.224-1.319,6.711-1.319c2.517,0,4.761,0.44,6.733,1.319c1.971,0.88,3.64,2.093,5.004,3.64
			c1.365,1.547,2.412,3.36,3.139,5.436c0.728,2.078,1.092,4.33,1.092,6.757c0,2.366-0.364,4.571-1.092,6.619
			c-0.728,2.048-1.774,3.829-3.139,5.346c-1.365,1.517-3.033,2.707-5.004,3.571c-1.972,0.865-4.216,1.297-6.733,1.297
			c-2.487,0-4.725-0.432-6.711-1.297c-1.987-0.864-3.662-2.055-5.027-3.571s-2.411-3.298-3.139-5.346s-1.092-4.253-1.092-6.619
			C-22.254,28.409-21.89,26.157-21.162,24.079z M-14.634,34.816c0.318,1.29,0.826,2.45,1.524,3.48
			c0.697,1.031,1.607,1.858,2.729,2.479c1.122,0.622,2.486,0.933,4.095,0.933c1.607,0,2.972-0.311,4.094-0.933
			c1.122-0.621,2.032-1.448,2.73-2.479c0.697-1.03,1.206-2.19,1.524-3.48c0.318-1.288,0.478-2.616,0.478-3.98
			c0-1.425-0.159-2.806-0.478-4.14c-0.318-1.335-0.827-2.525-1.524-3.572c-0.698-1.046-1.608-1.88-2.73-2.502
			C-3.313,20-4.678,19.689-6.285,19.689c-1.608,0-2.973,0.312-4.095,0.933c-1.123,0.622-2.032,1.456-2.729,2.502
			c-0.698,1.047-1.206,2.237-1.524,3.572c-0.318,1.334-0.478,2.715-0.478,4.14C-15.111,32.2-14.952,33.528-14.634,34.816z"/>
	</g>
</g>
<g>
	<g>
		<path fill="#FFFFFF" d="M33.957,32.533v12.046h7.182v1.52h-8.987V32.533H33.957z"/>
		<path fill="#FFFFFF" d="M49.403,45.471c-0.735,0.559-1.66,0.836-2.774,0.836c-0.786,0-1.466-0.127-2.042-0.379
			c-0.577-0.254-1.061-0.608-1.454-1.064s-0.687-1-0.883-1.635c-0.197-0.633-0.307-1.322-0.333-2.07
			c0-0.747,0.114-1.432,0.342-2.053c0.228-0.619,0.548-1.158,0.959-1.614s0.899-0.811,1.463-1.063
			c0.563-0.254,1.181-0.381,1.852-0.381c0.874,0,1.599,0.181,2.176,0.542c0.576,0.36,1.039,0.819,1.387,1.378
			c0.349,0.557,0.589,1.165,0.722,1.823c0.133,0.659,0.187,1.286,0.162,1.882h-7.353c-0.013,0.43,0.038,0.838,0.152,1.225
			c0.114,0.387,0.297,0.729,0.551,1.026c0.253,0.298,0.576,0.535,0.969,0.712c0.393,0.178,0.855,0.267,1.387,0.267
			c0.684,0,1.244-0.159,1.681-0.476s0.725-0.798,0.865-1.443h1.596C50.613,44.084,50.138,44.915,49.403,45.471z M49.014,39.164
			c-0.146-0.342-0.342-0.636-0.589-0.884c-0.247-0.246-0.539-0.443-0.874-0.589s-0.706-0.218-1.111-0.218
			c-0.418,0-0.795,0.072-1.13,0.218c-0.336,0.146-0.624,0.346-0.865,0.599c-0.241,0.254-0.431,0.549-0.57,0.884
			c-0.14,0.335-0.222,0.693-0.247,1.073h5.643C49.245,39.867,49.159,39.506,49.014,39.164z"/>
		<path fill="#FFFFFF" d="M60.195,46.307c-0.418,0-0.75-0.117-0.997-0.352c-0.247-0.234-0.371-0.617-0.371-1.148
			c-0.444,0.531-0.959,0.914-1.549,1.148c-0.589,0.234-1.225,0.352-1.909,0.352c-0.444,0-0.862-0.047-1.254-0.143
			c-0.393-0.094-0.738-0.252-1.036-0.475c-0.298-0.221-0.532-0.506-0.703-0.855c-0.171-0.348-0.256-0.77-0.256-1.263
			c0-0.558,0.095-1.013,0.285-1.368c0.19-0.354,0.44-0.643,0.75-0.864c0.31-0.222,0.665-0.39,1.064-0.504
			c0.399-0.114,0.807-0.209,1.225-0.284c0.443-0.089,0.865-0.156,1.264-0.2s0.75-0.107,1.055-0.19
			c0.304-0.082,0.544-0.202,0.722-0.36s0.266-0.39,0.266-0.694c0-0.354-0.066-0.639-0.199-0.854
			c-0.133-0.215-0.304-0.38-0.513-0.493c-0.209-0.115-0.443-0.19-0.703-0.229s-0.516-0.057-0.77-0.057
			c-0.684,0-1.254,0.129-1.71,0.389s-0.703,0.751-0.741,1.473H52.5c0.025-0.607,0.152-1.121,0.38-1.539s0.532-0.756,0.912-1.016
			s0.817-0.447,1.311-0.561c0.494-0.115,1.013-0.172,1.558-0.172c0.443,0,0.883,0.032,1.32,0.096
			c0.437,0.062,0.833,0.193,1.188,0.389c0.354,0.197,0.64,0.473,0.855,0.826c0.215,0.355,0.323,0.818,0.323,1.388v5.054
			c0,0.381,0.022,0.659,0.066,0.836c0.044,0.178,0.193,0.267,0.446,0.267c0.14,0,0.304-0.032,0.494-0.095v1.254
			C61.075,46.225,60.689,46.307,60.195,46.307z M57.934,41.358c-0.33,0.07-0.674,0.127-1.036,0.172
			c-0.361,0.044-0.725,0.094-1.092,0.151c-0.368,0.058-0.697,0.149-0.988,0.275c-0.292,0.127-0.529,0.308-0.712,0.542
			s-0.275,0.554-0.275,0.959c0,0.266,0.054,0.491,0.162,0.675c0.107,0.184,0.247,0.333,0.418,0.446
			c0.171,0.114,0.374,0.197,0.608,0.247c0.234,0.051,0.472,0.076,0.712,0.076c0.532,0,0.988-0.073,1.368-0.219
			s0.69-0.329,0.931-0.551s0.418-0.462,0.532-0.722s0.171-0.504,0.171-0.732v-1.652C58.529,41.178,58.263,41.289,57.934,41.358z"/>
		<path fill="#FFFFFF" d="M70.018,46.098v-1.33H69.98c-0.266,0.545-0.684,0.938-1.254,1.179c-0.57,0.24-1.197,0.36-1.881,0.36
			c-0.76,0-1.422-0.139-1.985-0.418c-0.564-0.277-1.033-0.652-1.406-1.121c-0.374-0.468-0.655-1.013-0.845-1.633
			c-0.19-0.621-0.285-1.279-0.285-1.977c0-0.696,0.092-1.355,0.275-1.977c0.184-0.62,0.462-1.162,0.836-1.624
			s0.842-0.829,1.406-1.103c0.563-0.271,1.219-0.408,1.966-0.408c0.253,0,0.525,0.025,0.817,0.076s0.583,0.137,0.874,0.257
			s0.567,0.278,0.827,0.475c0.259,0.196,0.478,0.44,0.655,0.731h0.038v-5.054h1.615v13.565H70.018z M64.214,42.612
			c0.12,0.438,0.304,0.826,0.551,1.169c0.247,0.342,0.563,0.614,0.95,0.817c0.386,0.202,0.839,0.304,1.358,0.304
			c0.544,0,1.007-0.108,1.387-0.323c0.38-0.215,0.69-0.497,0.931-0.846c0.241-0.348,0.415-0.744,0.522-1.188
			c0.107-0.443,0.162-0.893,0.162-1.349c0-0.481-0.057-0.946-0.171-1.396c-0.114-0.45-0.294-0.846-0.542-1.188
			c-0.247-0.343-0.567-0.618-0.959-0.827c-0.393-0.209-0.868-0.312-1.425-0.312c-0.544,0-1.007,0.107-1.387,0.322
			c-0.38,0.216-0.684,0.501-0.912,0.855s-0.393,0.76-0.494,1.216s-0.152,0.925-0.152,1.405
			C64.033,41.729,64.093,42.175,64.214,42.612z"/>
		<path fill="#FFFFFF" d="M74.217,34.508v-1.976h1.615v1.976H74.217z M75.832,36.276v9.822h-1.615v-9.822H75.832z"/>
		<path fill="#FFFFFF" d="M79.859,36.276v1.558h0.038c0.671-1.19,1.735-1.786,3.192-1.786c0.646,0,1.185,0.089,1.615,0.266
			c0.43,0.178,0.779,0.426,1.045,0.742s0.453,0.693,0.561,1.13c0.107,0.437,0.162,0.921,0.162,1.454v6.459h-1.615v-6.649
			c0-0.608-0.177-1.089-0.532-1.444c-0.355-0.354-0.843-0.531-1.463-0.531c-0.494,0-0.921,0.076-1.282,0.228
			s-0.662,0.368-0.902,0.646c-0.241,0.279-0.421,0.605-0.542,0.979c-0.121,0.374-0.181,0.783-0.181,1.227v5.547h-1.615v-9.822
			H79.859z"/>
		<path fill="#FFFFFF" d="M96.275,48.873c-0.735,0.798-1.887,1.197-3.458,1.197c-0.456,0-0.921-0.051-1.396-0.152
			s-0.906-0.266-1.292-0.493c-0.386-0.229-0.706-0.526-0.959-0.894c-0.253-0.368-0.393-0.817-0.418-1.349h1.615
			c0.012,0.291,0.104,0.537,0.275,0.74s0.38,0.367,0.627,0.494s0.516,0.219,0.808,0.275c0.291,0.057,0.57,0.086,0.836,0.086
			c0.532,0,0.981-0.092,1.349-0.275c0.367-0.184,0.671-0.438,0.912-0.76c0.241-0.324,0.415-0.713,0.522-1.169
			c0.108-0.456,0.162-0.956,0.162-1.501v-0.646h-0.038c-0.279,0.608-0.7,1.055-1.263,1.34c-0.564,0.285-1.163,0.428-1.795,0.428
			c-0.735,0-1.375-0.133-1.919-0.399c-0.544-0.266-1-0.624-1.368-1.073c-0.368-0.449-0.643-0.975-0.827-1.577
			c-0.184-0.602-0.275-1.237-0.275-1.909c0-0.582,0.076-1.182,0.228-1.796c0.152-0.614,0.405-1.171,0.76-1.672
			c0.354-0.5,0.823-0.912,1.406-1.235c0.583-0.322,1.298-0.484,2.147-0.484c0.621,0,1.19,0.137,1.71,0.408
			c0.519,0.273,0.924,0.682,1.216,1.227h0.019v-1.406h1.52v8.986C97.377,46.872,97.01,48.075,96.275,48.873z M94.214,44.456
			c0.374-0.222,0.675-0.514,0.903-0.875c0.228-0.36,0.396-0.77,0.503-1.225c0.107-0.457,0.162-0.912,0.162-1.368
			c0-0.431-0.051-0.854-0.152-1.272s-0.263-0.795-0.484-1.131s-0.51-0.605-0.865-0.808s-0.785-0.304-1.292-0.304
			c-0.52,0-0.962,0.098-1.33,0.294c-0.368,0.196-0.668,0.46-0.903,0.788c-0.234,0.33-0.405,0.71-0.513,1.141
			c-0.108,0.431-0.162,0.881-0.162,1.349c0,0.444,0.044,0.888,0.133,1.33c0.088,0.444,0.241,0.846,0.456,1.206
			c0.215,0.361,0.5,0.653,0.855,0.875c0.354,0.221,0.798,0.332,1.33,0.332C93.388,44.788,93.84,44.676,94.214,44.456z"/>
		<path fill="#FFFFFF" d="M114.268,32.533v1.521h-7.106v4.312h6.232v1.52h-6.232v6.213h-1.805V32.533H114.268z"/>
		<path fill="#FFFFFF" d="M117.707,32.533v13.565h-1.615V32.533H117.707z"/>
		<path fill="#FFFFFF" d="M127.757,46.307c-0.418,0-0.75-0.117-0.997-0.352c-0.247-0.234-0.371-0.617-0.371-1.148
			c-0.444,0.531-0.959,0.914-1.549,1.148c-0.589,0.234-1.225,0.352-1.909,0.352c-0.444,0-0.862-0.047-1.254-0.143
			c-0.393-0.094-0.738-0.252-1.036-0.475c-0.298-0.221-0.532-0.506-0.703-0.855c-0.171-0.348-0.256-0.77-0.256-1.263
			c0-0.558,0.095-1.013,0.285-1.368c0.19-0.354,0.44-0.643,0.75-0.864c0.31-0.222,0.665-0.39,1.064-0.504
			c0.399-0.114,0.807-0.209,1.225-0.284c0.443-0.089,0.865-0.156,1.264-0.2s0.75-0.107,1.055-0.19
			c0.304-0.082,0.544-0.202,0.722-0.36s0.266-0.39,0.266-0.694c0-0.354-0.066-0.639-0.199-0.854
			c-0.133-0.215-0.304-0.38-0.513-0.493c-0.209-0.115-0.443-0.19-0.703-0.229s-0.516-0.057-0.77-0.057
			c-0.684,0-1.254,0.129-1.71,0.389s-0.703,0.751-0.741,1.473h-1.615c0.025-0.607,0.152-1.121,0.38-1.539s0.532-0.756,0.912-1.016
			s0.817-0.447,1.311-0.561c0.494-0.115,1.013-0.172,1.558-0.172c0.443,0,0.883,0.032,1.32,0.096
			c0.437,0.062,0.833,0.193,1.188,0.389c0.354,0.197,0.64,0.473,0.855,0.826c0.215,0.355,0.323,0.818,0.323,1.388v5.054
			c0,0.381,0.022,0.659,0.066,0.836c0.044,0.178,0.193,0.267,0.446,0.267c0.14,0,0.304-0.032,0.494-0.095v1.254
			C128.638,46.225,128.251,46.307,127.757,46.307z M125.497,41.358c-0.33,0.07-0.674,0.127-1.036,0.172
			c-0.361,0.044-0.725,0.094-1.092,0.151c-0.368,0.058-0.697,0.149-0.988,0.275c-0.292,0.127-0.529,0.308-0.712,0.542
			s-0.275,0.554-0.275,0.959c0,0.266,0.054,0.491,0.162,0.675c0.107,0.184,0.247,0.333,0.418,0.446
			c0.171,0.114,0.374,0.197,0.608,0.247c0.234,0.051,0.472,0.076,0.712,0.076c0.532,0,0.988-0.073,1.368-0.219
			s0.69-0.329,0.931-0.551s0.418-0.462,0.532-0.722s0.171-0.504,0.171-0.732v-1.652C126.092,41.178,125.826,41.289,125.497,41.358z"
			/>
		<path fill="#FFFFFF" d="M131.938,36.276v1.443h0.038c0.734-1.114,1.792-1.672,3.173-1.672c0.608,0,1.159,0.127,1.653,0.381
			c0.494,0.253,0.842,0.684,1.045,1.291c0.329-0.531,0.763-0.943,1.301-1.234c0.539-0.291,1.131-0.438,1.777-0.438
			c0.494,0,0.94,0.055,1.339,0.162s0.741,0.275,1.026,0.503c0.285,0.228,0.506,0.522,0.665,0.884
			c0.158,0.361,0.238,0.795,0.238,1.301v7.201h-1.615v-6.44c0-0.304-0.025-0.589-0.076-0.854c-0.051-0.267-0.146-0.498-0.285-0.693
			c-0.14-0.197-0.333-0.352-0.58-0.467c-0.247-0.113-0.567-0.17-0.959-0.17c-0.798,0-1.425,0.228-1.881,0.684
			c-0.456,0.456-0.684,1.064-0.684,1.824v6.117h-1.615v-6.44c0-0.316-0.028-0.608-0.085-0.874s-0.155-0.497-0.294-0.693
			c-0.14-0.196-0.326-0.349-0.561-0.456s-0.535-0.161-0.902-0.161c-0.469,0-0.871,0.095-1.207,0.285
			c-0.336,0.189-0.608,0.418-0.817,0.684s-0.361,0.541-0.456,0.826c-0.095,0.285-0.143,0.522-0.143,0.713v6.117h-1.615v-9.822
			H131.938z"/>
		<path fill="#FFFFFF" d="M153.578,45.471c-0.735,0.559-1.66,0.836-2.774,0.836c-0.786,0-1.466-0.127-2.042-0.379
			c-0.577-0.254-1.061-0.608-1.454-1.064s-0.687-1-0.883-1.635c-0.197-0.633-0.307-1.322-0.333-2.07
			c0-0.747,0.114-1.432,0.342-2.053c0.228-0.619,0.548-1.158,0.959-1.614s0.899-0.811,1.463-1.063
			c0.563-0.254,1.181-0.381,1.852-0.381c0.874,0,1.599,0.181,2.176,0.542c0.576,0.36,1.039,0.819,1.387,1.378
			c0.349,0.557,0.589,1.165,0.722,1.823c0.133,0.659,0.187,1.286,0.162,1.882h-7.353c-0.013,0.43,0.038,0.838,0.152,1.225
			c0.114,0.387,0.297,0.729,0.551,1.026c0.253,0.298,0.576,0.535,0.969,0.712c0.393,0.178,0.855,0.267,1.387,0.267
			c0.684,0,1.244-0.159,1.681-0.476s0.725-0.798,0.865-1.443h1.596C154.788,44.084,154.312,44.915,153.578,45.471z M153.188,39.164
			c-0.146-0.342-0.342-0.636-0.589-0.884c-0.247-0.246-0.539-0.443-0.874-0.589s-0.706-0.218-1.111-0.218
			c-0.418,0-0.795,0.072-1.13,0.218c-0.336,0.146-0.624,0.346-0.865,0.599c-0.241,0.254-0.431,0.549-0.57,0.884
			c-0.14,0.335-0.222,0.693-0.247,1.073h5.643C153.419,39.867,153.334,39.506,153.188,39.164z"/>
		<path fill="#FFFFFF" d="M168.759,32.533c1.292,0,2.302,0.317,3.03,0.95c0.728,0.633,1.092,1.5,1.092,2.603
			c0,0.823-0.187,1.546-0.56,2.166c-0.374,0.621-0.973,1.046-1.796,1.272v0.039c0.393,0.076,0.713,0.203,0.959,0.38
			c0.247,0.177,0.443,0.39,0.589,0.636c0.146,0.248,0.253,0.523,0.323,0.827c0.069,0.304,0.124,0.62,0.162,0.95
			c0.025,0.329,0.044,0.664,0.057,1.007c0.012,0.342,0.044,0.678,0.095,1.007c0.051,0.33,0.124,0.643,0.219,0.94
			c0.095,0.298,0.237,0.561,0.427,0.788h-2.014c-0.127-0.139-0.212-0.328-0.257-0.569s-0.073-0.51-0.085-0.808
			c-0.013-0.297-0.025-0.617-0.038-0.959c-0.013-0.343-0.051-0.678-0.114-1.008c-0.051-0.329-0.114-0.643-0.19-0.94
			c-0.076-0.298-0.197-0.558-0.361-0.778c-0.165-0.223-0.38-0.399-0.646-0.533c-0.266-0.133-0.621-0.199-1.064-0.199h-4.408v5.795
			h-1.805V32.533H168.759z M169.139,38.688c0.38-0.062,0.712-0.186,0.998-0.369c0.285-0.184,0.513-0.432,0.684-0.742
			c0.171-0.31,0.256-0.712,0.256-1.206c0-0.685-0.19-1.241-0.57-1.672c-0.38-0.431-0.994-0.646-1.843-0.646h-4.484v4.73h3.762
			C168.36,38.784,168.759,38.752,169.139,38.688z"/>
		<path fill="#FFFFFF" d="M182.078,45.471c-0.735,0.559-1.66,0.836-2.774,0.836c-0.786,0-1.466-0.127-2.042-0.379
			c-0.577-0.254-1.061-0.608-1.454-1.064s-0.687-1-0.883-1.635c-0.197-0.633-0.307-1.322-0.333-2.07
			c0-0.747,0.114-1.432,0.342-2.053c0.228-0.619,0.548-1.158,0.959-1.614s0.899-0.811,1.463-1.063
			c0.563-0.254,1.181-0.381,1.852-0.381c0.874,0,1.599,0.181,2.176,0.542c0.576,0.36,1.039,0.819,1.387,1.378
			c0.349,0.557,0.589,1.165,0.722,1.823c0.133,0.659,0.187,1.286,0.162,1.882h-7.353c-0.013,0.43,0.038,0.838,0.152,1.225
			c0.114,0.387,0.297,0.729,0.551,1.026c0.253,0.298,0.576,0.535,0.969,0.712c0.393,0.178,0.855,0.267,1.387,0.267
			c0.684,0,1.244-0.159,1.681-0.476s0.725-0.798,0.865-1.443h1.596C183.288,44.084,182.812,44.915,182.078,45.471z M181.688,39.164
			c-0.146-0.342-0.342-0.636-0.589-0.884c-0.247-0.246-0.539-0.443-0.874-0.589s-0.706-0.218-1.111-0.218
			c-0.418,0-0.795,0.072-1.13,0.218c-0.336,0.146-0.624,0.346-0.865,0.599c-0.241,0.254-0.431,0.549-0.57,0.884
			c-0.14,0.335-0.222,0.693-0.247,1.073h5.643C181.919,39.867,181.834,39.506,181.688,39.164z"/>
		<path fill="#FFFFFF" d="M189.526,36.276v1.425h-1.957v6.099c0,0.19,0.016,0.342,0.047,0.457c0.032,0.113,0.092,0.202,0.181,0.266
			c0.088,0.062,0.212,0.104,0.371,0.123c0.158,0.02,0.364,0.029,0.617,0.029h0.741v1.424h-1.235c-0.418,0-0.776-0.027-1.074-0.085
			c-0.298-0.058-0.539-0.161-0.722-0.313s-0.32-0.367-0.408-0.646c-0.089-0.277-0.133-0.646-0.133-1.102v-6.251h-1.672v-1.425h1.672
			v-2.945h1.615v2.945H189.526z"/>
		<path fill="#FFFFFF" d="M198.854,46.307c-0.418,0-0.75-0.117-0.997-0.352c-0.247-0.234-0.371-0.617-0.371-1.148
			c-0.444,0.531-0.959,0.914-1.549,1.148c-0.589,0.234-1.225,0.352-1.909,0.352c-0.444,0-0.862-0.047-1.254-0.143
			c-0.393-0.094-0.738-0.252-1.036-0.475c-0.298-0.221-0.532-0.506-0.703-0.855c-0.171-0.348-0.256-0.77-0.256-1.263
			c0-0.558,0.095-1.013,0.285-1.368c0.19-0.354,0.44-0.643,0.75-0.864c0.31-0.222,0.665-0.39,1.064-0.504
			c0.399-0.114,0.807-0.209,1.225-0.284c0.443-0.089,0.865-0.156,1.264-0.2s0.75-0.107,1.055-0.19
			c0.304-0.082,0.544-0.202,0.722-0.36s0.266-0.39,0.266-0.694c0-0.354-0.066-0.639-0.199-0.854
			c-0.133-0.215-0.304-0.38-0.513-0.493c-0.209-0.115-0.443-0.19-0.703-0.229s-0.516-0.057-0.77-0.057
			c-0.684,0-1.254,0.129-1.71,0.389s-0.703,0.751-0.741,1.473h-1.615c0.025-0.607,0.152-1.121,0.38-1.539s0.532-0.756,0.912-1.016
			s0.817-0.447,1.311-0.561c0.494-0.115,1.013-0.172,1.558-0.172c0.443,0,0.883,0.032,1.32,0.096
			c0.437,0.062,0.833,0.193,1.188,0.389c0.354,0.197,0.64,0.473,0.855,0.826c0.215,0.355,0.323,0.818,0.323,1.388v5.054
			c0,0.381,0.022,0.659,0.066,0.836c0.044,0.178,0.193,0.267,0.446,0.267c0.14,0,0.304-0.032,0.494-0.095v1.254
			C199.735,46.225,199.349,46.307,198.854,46.307z M196.594,41.358c-0.33,0.07-0.674,0.127-1.036,0.172
			c-0.361,0.044-0.725,0.094-1.092,0.151c-0.368,0.058-0.697,0.149-0.988,0.275c-0.292,0.127-0.529,0.308-0.712,0.542
			s-0.275,0.554-0.275,0.959c0,0.266,0.054,0.491,0.162,0.675c0.107,0.184,0.247,0.333,0.418,0.446
			c0.171,0.114,0.374,0.197,0.608,0.247c0.234,0.051,0.472,0.076,0.712,0.076c0.532,0,0.988-0.073,1.368-0.219
			s0.69-0.329,0.931-0.551s0.418-0.462,0.532-0.722s0.171-0.504,0.171-0.732v-1.652C197.189,41.178,196.923,41.289,196.594,41.358z"
			/>
		<path fill="#FFFFFF" d="M202.978,36.276v2.07h0.038c0.393-0.797,0.874-1.387,1.444-1.767c0.57-0.38,1.292-0.558,2.166-0.532v1.711
			c-0.646,0-1.197,0.088-1.653,0.266s-0.823,0.437-1.102,0.779c-0.278,0.342-0.481,0.756-0.608,1.244
			c-0.126,0.487-0.19,1.048-0.19,1.682v4.369h-1.615v-9.822H202.978z"/>
		<path fill="#FFFFFF" d="M214.663,46.098v-1.33h-0.038c-0.266,0.545-0.684,0.938-1.254,1.179c-0.57,0.24-1.197,0.36-1.881,0.36
			c-0.76,0-1.422-0.139-1.985-0.418c-0.564-0.277-1.033-0.652-1.406-1.121c-0.374-0.468-0.655-1.013-0.845-1.633
			c-0.19-0.621-0.285-1.279-0.285-1.977c0-0.696,0.092-1.355,0.275-1.977c0.184-0.62,0.462-1.162,0.836-1.624
			s0.842-0.829,1.406-1.103c0.563-0.271,1.219-0.408,1.966-0.408c0.253,0,0.525,0.025,0.817,0.076s0.583,0.137,0.874,0.257
			s0.567,0.278,0.827,0.475c0.259,0.196,0.478,0.44,0.655,0.731h0.038v-5.054h1.615v13.565H214.663z M208.858,42.612
			c0.12,0.438,0.304,0.826,0.551,1.169c0.247,0.342,0.563,0.614,0.95,0.817c0.386,0.202,0.839,0.304,1.358,0.304
			c0.544,0,1.007-0.108,1.387-0.323c0.38-0.215,0.69-0.497,0.931-0.846c0.241-0.348,0.415-0.744,0.522-1.188
			c0.107-0.443,0.162-0.893,0.162-1.349c0-0.481-0.057-0.946-0.171-1.396c-0.114-0.45-0.294-0.846-0.542-1.188
			c-0.247-0.343-0.567-0.618-0.959-0.827c-0.393-0.209-0.868-0.312-1.425-0.312c-0.544,0-1.007,0.107-1.387,0.322
			c-0.38,0.216-0.684,0.501-0.912,0.855s-0.393,0.76-0.494,1.216s-0.152,0.925-0.152,1.405
			C208.678,41.729,208.738,42.175,208.858,42.612z"/>
		<path fill="#FFFFFF" d="M226.309,46.307c-0.418,0-0.75-0.117-0.997-0.352c-0.247-0.234-0.371-0.617-0.371-1.148
			c-0.444,0.531-0.959,0.914-1.549,1.148c-0.589,0.234-1.225,0.352-1.909,0.352c-0.444,0-0.862-0.047-1.254-0.143
			c-0.393-0.094-0.738-0.252-1.036-0.475c-0.298-0.221-0.532-0.506-0.703-0.855c-0.171-0.348-0.256-0.77-0.256-1.263
			c0-0.558,0.095-1.013,0.285-1.368c0.19-0.354,0.44-0.643,0.75-0.864c0.31-0.222,0.665-0.39,1.064-0.504
			c0.399-0.114,0.807-0.209,1.225-0.284c0.443-0.089,0.865-0.156,1.264-0.2s0.75-0.107,1.055-0.19
			c0.304-0.082,0.544-0.202,0.722-0.36s0.266-0.39,0.266-0.694c0-0.354-0.066-0.639-0.199-0.854
			c-0.133-0.215-0.304-0.38-0.513-0.493c-0.209-0.115-0.443-0.19-0.703-0.229s-0.516-0.057-0.77-0.057
			c-0.684,0-1.254,0.129-1.71,0.389s-0.703,0.751-0.741,1.473h-1.615c0.025-0.607,0.152-1.121,0.38-1.539s0.532-0.756,0.912-1.016
			s0.817-0.447,1.311-0.561c0.494-0.115,1.013-0.172,1.558-0.172c0.443,0,0.883,0.032,1.32,0.096
			c0.437,0.062,0.833,0.193,1.188,0.389c0.354,0.197,0.64,0.473,0.855,0.826c0.215,0.355,0.323,0.818,0.323,1.388v5.054
			c0,0.381,0.022,0.659,0.066,0.836c0.044,0.178,0.193,0.267,0.446,0.267c0.14,0,0.304-0.032,0.494-0.095v1.254
			C227.189,46.225,226.803,46.307,226.309,46.307z M224.048,41.358c-0.33,0.07-0.674,0.127-1.036,0.172
			c-0.361,0.044-0.725,0.094-1.092,0.151c-0.368,0.058-0.697,0.149-0.988,0.275c-0.292,0.127-0.529,0.308-0.712,0.542
			s-0.275,0.554-0.275,0.959c0,0.266,0.054,0.491,0.162,0.675c0.107,0.184,0.247,0.333,0.418,0.446
			c0.171,0.114,0.374,0.197,0.608,0.247c0.234,0.051,0.472,0.076,0.712,0.076c0.532,0,0.988-0.073,1.368-0.219
			s0.69-0.329,0.931-0.551s0.418-0.462,0.532-0.722s0.171-0.504,0.171-0.732v-1.652C224.644,41.178,224.377,41.289,224.048,41.358z"
			/>
		<path fill="#FFFFFF" d="M230.489,36.276v1.558h0.038c0.671-1.19,1.735-1.786,3.192-1.786c0.646,0,1.185,0.089,1.615,0.266
			c0.43,0.178,0.779,0.426,1.045,0.742s0.453,0.693,0.561,1.13c0.107,0.437,0.162,0.921,0.162,1.454v6.459h-1.615v-6.649
			c0-0.608-0.177-1.089-0.532-1.444c-0.355-0.354-0.843-0.531-1.463-0.531c-0.494,0-0.921,0.076-1.282,0.228
			s-0.662,0.368-0.902,0.646c-0.241,0.279-0.421,0.605-0.542,0.979c-0.121,0.374-0.181,0.783-0.181,1.227v5.547h-1.615v-9.822
			H230.489z"/>
		<path fill="#FFFFFF" d="M243.732,36.276v1.425h-1.957v6.099c0,0.19,0.016,0.342,0.047,0.457c0.032,0.113,0.092,0.202,0.181,0.266
			c0.088,0.062,0.212,0.104,0.371,0.123c0.158,0.02,0.364,0.029,0.617,0.029h0.741v1.424h-1.235c-0.418,0-0.776-0.027-1.074-0.085
			c-0.298-0.058-0.539-0.161-0.722-0.313s-0.32-0.367-0.408-0.646c-0.089-0.277-0.133-0.646-0.133-1.102v-6.251h-1.672v-1.425h1.672
			v-2.945h1.615v2.945H243.732z"/>
		<path fill="#FFFFFF" d="M249.622,34.053v-1.521h10.849v1.521h-4.522v12.045h-1.805V34.053H249.622z"/>
		<path fill="#FFFFFF" d="M266.551,45.471c-0.735,0.559-1.66,0.836-2.774,0.836c-0.786,0-1.466-0.127-2.042-0.379
			c-0.577-0.254-1.061-0.608-1.454-1.064s-0.687-1-0.883-1.635c-0.197-0.633-0.307-1.322-0.333-2.07
			c0-0.747,0.114-1.432,0.342-2.053c0.228-0.619,0.548-1.158,0.959-1.614s0.899-0.811,1.463-1.063
			c0.563-0.254,1.181-0.381,1.852-0.381c0.874,0,1.599,0.181,2.176,0.542c0.576,0.36,1.039,0.819,1.387,1.378
			c0.349,0.557,0.589,1.165,0.722,1.823c0.133,0.659,0.187,1.286,0.162,1.882h-7.353c-0.013,0.43,0.038,0.838,0.152,1.225
			c0.114,0.387,0.297,0.729,0.551,1.026c0.253,0.298,0.576,0.535,0.969,0.712c0.393,0.178,0.855,0.267,1.387,0.267
			c0.684,0,1.244-0.159,1.681-0.476s0.725-0.798,0.865-1.443h1.596C267.76,44.084,267.285,44.915,266.551,45.471z M266.161,39.164
			c-0.146-0.342-0.342-0.636-0.589-0.884c-0.247-0.246-0.539-0.443-0.874-0.589s-0.706-0.218-1.111-0.218
			c-0.418,0-0.795,0.072-1.13,0.218c-0.336,0.146-0.624,0.346-0.865,0.599c-0.241,0.254-0.431,0.549-0.57,0.884
			c-0.14,0.335-0.222,0.693-0.247,1.073h5.643C266.392,39.867,266.307,39.506,266.161,39.164z"/>
		<path fill="#FFFFFF" d="M275.671,37.986c-0.406-0.343-0.949-0.513-1.635-0.513c-0.582,0-1.071,0.107-1.462,0.322
			c-0.393,0.216-0.707,0.501-0.941,0.855s-0.402,0.764-0.503,1.225c-0.102,0.463-0.152,0.941-0.152,1.436
			c0,0.455,0.054,0.898,0.162,1.33c0.107,0.43,0.275,0.813,0.503,1.148c0.228,0.336,0.525,0.605,0.893,0.809
			c0.367,0.202,0.805,0.304,1.311,0.304c0.799,0,1.422-0.209,1.871-0.628c0.449-0.418,0.725-1.006,0.826-1.766h1.654
			c-0.178,1.215-0.631,2.152-1.359,2.812s-1.719,0.987-2.973,0.987c-0.749,0-1.41-0.12-1.986-0.36
			c-0.577-0.241-1.058-0.583-1.444-1.026c-0.387-0.443-0.678-0.972-0.874-1.586c-0.197-0.615-0.294-1.289-0.294-2.023
			s0.095-1.422,0.285-2.062c0.19-0.639,0.478-1.196,0.864-1.672c0.386-0.475,0.871-0.848,1.454-1.121
			c0.583-0.271,1.261-0.408,2.033-0.408c0.559,0,1.08,0.066,1.568,0.199c0.486,0.134,0.918,0.34,1.291,0.618s0.682,0.63,0.922,1.054
			c0.24,0.426,0.393,0.929,0.457,1.512h-1.674C276.343,38.809,276.075,38.328,275.671,37.986z"/>
		<path fill="#FFFFFF" d="M281.618,32.533v5.187h0.037c0.127-0.304,0.305-0.561,0.531-0.77c0.229-0.209,0.486-0.379,0.77-0.513
			c0.285-0.133,0.584-0.231,0.895-0.294c0.309-0.063,0.609-0.096,0.902-0.096c0.645,0,1.184,0.089,1.615,0.266
			c0.43,0.178,0.777,0.426,1.045,0.742c0.266,0.316,0.451,0.693,0.561,1.13c0.107,0.437,0.16,0.921,0.16,1.454v6.459h-1.615v-6.649
			c0-0.608-0.176-1.089-0.531-1.444c-0.355-0.354-0.842-0.531-1.463-0.531c-0.494,0-0.922,0.076-1.283,0.228
			c-0.359,0.151-0.662,0.368-0.902,0.646c-0.24,0.279-0.42,0.605-0.541,0.979c-0.121,0.374-0.18,0.783-0.18,1.227v5.547h-1.615
			V32.533H281.618z"/>
		<path fill="#FFFFFF" d="M292.087,36.276v1.558h0.037c0.672-1.19,1.736-1.786,3.191-1.786c0.646,0,1.186,0.089,1.615,0.266
			c0.432,0.178,0.779,0.426,1.045,0.742c0.268,0.316,0.453,0.693,0.561,1.13s0.162,0.921,0.162,1.454v6.459h-1.615v-6.649
			c0-0.608-0.178-1.089-0.531-1.444c-0.355-0.354-0.844-0.531-1.463-0.531c-0.494,0-0.922,0.076-1.283,0.228
			s-0.662,0.368-0.902,0.646c-0.24,0.279-0.422,0.605-0.541,0.979c-0.121,0.374-0.182,0.783-0.182,1.227v5.547h-1.615v-9.822
			H292.087z"/>
		<path fill="#FFFFFF" d="M300.901,39.173c0.203-0.628,0.508-1.172,0.912-1.634c0.406-0.463,0.906-0.827,1.502-1.093
			c0.596-0.267,1.279-0.399,2.053-0.399c0.785,0,1.471,0.133,2.061,0.399c0.59,0.266,1.086,0.63,1.492,1.093
			c0.404,0.462,0.709,1.006,0.912,1.634c0.201,0.627,0.303,1.302,0.303,2.023s-0.102,1.394-0.303,2.014
			c-0.203,0.621-0.508,1.163-0.912,1.624c-0.406,0.463-0.902,0.824-1.492,1.084s-1.275,0.389-2.061,0.389
			c-0.773,0-1.457-0.129-2.053-0.389s-1.096-0.621-1.502-1.084c-0.404-0.461-0.709-1.003-0.912-1.624
			c-0.201-0.62-0.303-1.292-0.303-2.014S300.7,39.8,300.901,39.173z M302.546,42.784c0.158,0.462,0.377,0.848,0.656,1.158
			c0.277,0.311,0.604,0.549,0.979,0.713c0.373,0.164,0.77,0.247,1.188,0.247s0.812-0.083,1.188-0.247
			c0.373-0.164,0.699-0.402,0.979-0.713c0.277-0.311,0.496-0.696,0.654-1.158c0.158-0.463,0.238-0.992,0.238-1.587
			s-0.08-1.124-0.238-1.587c-0.158-0.462-0.377-0.852-0.654-1.168c-0.279-0.316-0.605-0.558-0.979-0.723
			c-0.375-0.164-0.77-0.246-1.188-0.246s-0.814,0.082-1.188,0.246c-0.375,0.165-0.701,0.406-0.979,0.723
			c-0.279,0.316-0.498,0.706-0.656,1.168c-0.158,0.463-0.238,0.992-0.238,1.587S302.388,42.321,302.546,42.784z"/>
		<path fill="#FFFFFF" d="M313.745,32.533v13.565h-1.613V32.533H313.745z"/>
		<path fill="#FFFFFF" d="M316.026,39.173c0.201-0.628,0.506-1.172,0.912-1.634c0.404-0.463,0.904-0.827,1.5-1.093
			c0.596-0.267,1.279-0.399,2.053-0.399c0.785,0,1.473,0.133,2.061,0.399c0.59,0.266,1.086,0.63,1.492,1.093
			c0.404,0.462,0.709,1.006,0.912,1.634c0.203,0.627,0.305,1.302,0.305,2.023s-0.102,1.394-0.305,2.014
			c-0.203,0.621-0.508,1.163-0.912,1.624c-0.406,0.463-0.902,0.824-1.492,1.084c-0.588,0.26-1.275,0.389-2.061,0.389
			c-0.773,0-1.457-0.129-2.053-0.389s-1.096-0.621-1.5-1.084c-0.406-0.461-0.711-1.003-0.912-1.624
			c-0.203-0.62-0.305-1.292-0.305-2.014S315.823,39.8,316.026,39.173z M317.669,42.784c0.158,0.462,0.377,0.848,0.656,1.158
			c0.277,0.311,0.604,0.549,0.979,0.713c0.373,0.164,0.77,0.247,1.188,0.247s0.812-0.083,1.188-0.247
			c0.373-0.164,0.699-0.402,0.979-0.713c0.277-0.311,0.496-0.696,0.654-1.158c0.158-0.463,0.238-0.992,0.238-1.587
			s-0.08-1.124-0.238-1.587c-0.158-0.462-0.377-0.852-0.654-1.168c-0.279-0.316-0.605-0.558-0.979-0.723
			c-0.375-0.164-0.77-0.246-1.188-0.246s-0.814,0.082-1.188,0.246c-0.375,0.165-0.701,0.406-0.979,0.723
			c-0.279,0.316-0.498,0.706-0.656,1.168c-0.158,0.463-0.236,0.992-0.236,1.587S317.511,42.321,317.669,42.784z"/>
		<path fill="#FFFFFF" d="M334.532,48.873c-0.736,0.798-1.889,1.197-3.459,1.197c-0.455,0-0.922-0.051-1.396-0.152
			s-0.906-0.266-1.291-0.493c-0.387-0.229-0.707-0.526-0.961-0.894c-0.252-0.368-0.393-0.817-0.418-1.349h1.615
			c0.014,0.291,0.105,0.537,0.275,0.74c0.172,0.203,0.381,0.367,0.627,0.494c0.248,0.127,0.518,0.219,0.809,0.275
			s0.57,0.086,0.836,0.086c0.531,0,0.98-0.092,1.35-0.275c0.367-0.184,0.67-0.438,0.91-0.76c0.242-0.324,0.416-0.713,0.523-1.169
			s0.162-0.956,0.162-1.501v-0.646h-0.039c-0.279,0.608-0.699,1.055-1.264,1.34c-0.562,0.285-1.162,0.428-1.795,0.428
			c-0.734,0-1.375-0.133-1.92-0.399c-0.543-0.266-1-0.624-1.367-1.073s-0.643-0.975-0.826-1.577
			c-0.184-0.602-0.275-1.237-0.275-1.909c0-0.582,0.076-1.182,0.229-1.796c0.15-0.614,0.404-1.171,0.76-1.672
			c0.354-0.5,0.822-0.912,1.406-1.235c0.582-0.322,1.297-0.484,2.146-0.484c0.621,0,1.189,0.137,1.709,0.408
			c0.52,0.273,0.926,0.682,1.217,1.227h0.02v-1.406h1.52v8.986C335.634,46.872,335.267,48.075,334.532,48.873z M332.47,44.456
			c0.373-0.222,0.676-0.514,0.902-0.875c0.229-0.36,0.396-0.77,0.504-1.225c0.107-0.457,0.162-0.912,0.162-1.368
			c0-0.431-0.051-0.854-0.152-1.272s-0.264-0.795-0.484-1.131c-0.223-0.336-0.51-0.605-0.865-0.808
			c-0.354-0.202-0.785-0.304-1.291-0.304c-0.52,0-0.963,0.098-1.33,0.294s-0.668,0.46-0.902,0.788
			c-0.234,0.33-0.406,0.71-0.514,1.141s-0.162,0.881-0.162,1.349c0,0.444,0.045,0.888,0.133,1.33
			c0.09,0.444,0.242,0.846,0.457,1.206c0.215,0.361,0.5,0.653,0.855,0.875c0.354,0.221,0.797,0.332,1.33,0.332
			C331.644,44.788,332.097,44.676,332.47,44.456z"/>
		<path fill="#FFFFFF" d="M341.362,48.606c-0.184,0.33-0.387,0.6-0.609,0.809c-0.221,0.209-0.465,0.36-0.73,0.455
			c-0.266,0.096-0.582,0.143-0.949,0.143c-0.191,0-0.381-0.012-0.57-0.037c-0.191-0.025-0.375-0.07-0.551-0.133V48.36
			c0.15,0.051,0.307,0.102,0.465,0.152c0.158,0.05,0.32,0.075,0.484,0.075c0.33,0,0.596-0.075,0.799-0.228
			c0.201-0.152,0.379-0.374,0.531-0.665l0.664-1.653l-3.895-9.766h1.824l2.869,8.037h0.037l2.756-8.037h1.711l-4.275,11.115
			C341.731,47.872,341.546,48.278,341.362,48.606z"/>
	</g>
</g>
<rect x="20.413" y="11.83" fill="#FFFFFF" width="1" height="39.727"/>
</svg>
