<?xml version="1.0" encoding="utf-8"?>
<!-- Generator: Adobe Illustrator 16.0.0, SVG Export Plug-In . SVG Version: 6.00 Build 0)  -->
<!DOCTYPE svg PUBLIC "-//W3C//DTD SVG 1.1//EN" "http://www.w3.org/Graphics/SVG/1.1/DTD/svg11.dtd">
<svg version="1.1" id="Layer_1" xmlns="http://www.w3.org/2000/svg" xmlns:xlink="http://www.w3.org/1999/xlink" x="0px" y="0px"
	 width="545.697px" height="36.386px" viewBox="0 0 545.697 36.386" enable-background="new 0 0 545.697 36.386"
	 xml:space="preserve">
<g>
	<g>
		<path fill="#FFFFFF" d="M48.488-1.551l5.414,32.483h-7.098l-1.046-7.233H33.611l-4.095,7.233H22.01L41.163-1.551H48.488z
			 M45.121,18.376l-1.592-12.92h-0.091l-7.006,12.92H45.121z"/>
		<path fill="#FFFFFF" d="M63.865,7.412v3.003h0.091c0.789-1.274,1.79-2.199,3.003-2.775c1.212-0.576,2.547-0.864,4.003-0.864
			c1.85,0,3.442,0.349,4.777,1.046c1.334,0.698,2.441,1.623,3.321,2.775c0.879,1.153,1.531,2.495,1.956,4.026
			c0.424,1.532,0.637,3.132,0.637,4.799c0,1.578-0.213,3.094-0.637,4.55c-0.425,1.456-1.069,2.745-1.934,3.867
			c-0.864,1.122-1.941,2.018-3.23,2.685c-1.29,0.666-2.798,1-4.527,1c-1.456,0-2.798-0.295-4.026-0.887
			c-1.228-0.592-2.237-1.463-3.025-2.615h-0.091v11.146h-6.46V7.412H63.865z M72.259,26.064c0.712-0.424,1.289-0.979,1.729-1.66
			c0.439-0.683,0.75-1.479,0.933-2.389s0.273-1.835,0.273-2.775c0-0.939-0.099-1.865-0.296-2.775
			c-0.197-0.91-0.523-1.721-0.978-2.434c-0.455-0.712-1.039-1.289-1.751-1.729c-0.713-0.439-1.585-0.66-2.616-0.66
			c-1.062,0-1.949,0.221-2.662,0.66c-0.713,0.44-1.29,1.009-1.729,1.706c-0.44,0.698-0.75,1.501-0.933,2.412
			c-0.182,0.91-0.273,1.85-0.273,2.82c0,0.94,0.098,1.865,0.296,2.775c0.197,0.91,0.515,1.706,0.955,2.389
			c0.439,0.682,1.024,1.236,1.752,1.66c0.728,0.426,1.607,0.637,2.639,0.637C70.659,26.701,71.546,26.49,72.259,26.064z"/>
		<path fill="#FFFFFF" d="M93.3,37.939c-1.244,0.818-2.973,1.228-5.187,1.228c-0.667,0-1.327-0.022-1.979-0.067
			c-0.653-0.046-1.312-0.1-1.979-0.16v-5.322c0.606,0.061,1.228,0.121,1.865,0.182c0.637,0.061,1.274,0.075,1.911,0.045
			c0.849-0.09,1.479-0.424,1.888-1c0.409-0.576,0.614-1.214,0.614-1.911c0-0.515-0.091-1.001-0.273-1.456L81.926,7.412h6.87
			l5.323,16.106h0.091l5.141-16.106h6.688l-9.827,26.432C95.514,35.755,94.543,37.12,93.3,37.939z"/>
		<path fill="#FFFFFF" d="M113.818,7.412v4.368h0.091c0.303-0.728,0.712-1.402,1.229-2.024c0.515-0.622,1.107-1.152,1.774-1.592
			c0.667-0.439,1.379-0.781,2.138-1.024c0.758-0.242,1.547-0.364,2.366-0.364c0.424,0,0.894,0.076,1.41,0.228v6.005
			c-0.303-0.061-0.667-0.114-1.092-0.16c-0.425-0.045-0.834-0.068-1.229-0.068c-1.183,0-2.184,0.197-3.002,0.591
			c-0.819,0.395-1.479,0.933-1.979,1.615c-0.5,0.682-0.857,1.479-1.069,2.388c-0.212,0.91-0.318,1.896-0.318,2.957v10.601h-6.46
			V7.412H113.818z"/>
		<path fill="#FFFFFF" d="M140.796,30.933v-3.276h-0.136c-0.819,1.365-1.881,2.352-3.185,2.958s-2.639,0.909-4.003,0.909
			c-1.729,0-3.147-0.227-4.254-0.682c-1.107-0.455-1.979-1.1-2.616-1.934s-1.085-1.85-1.342-3.049
			c-0.258-1.197-0.387-2.524-0.387-3.98V7.412h6.46v13.285c0,1.941,0.303,3.39,0.91,4.345c0.606,0.955,1.683,1.434,3.23,1.434
			c1.759,0,3.032-0.523,3.821-1.57c0.789-1.047,1.183-2.768,1.183-5.164V7.412h6.46v23.521H140.796z"/>
		<path fill="#FFFFFF" d="M157.401,7.412v3.185h0.091c0.849-1.212,1.872-2.153,3.071-2.82c1.198-0.667,2.57-1.001,4.117-1.001
			c1.486,0,2.843,0.289,4.072,0.864c1.229,0.577,2.161,1.592,2.798,3.048c0.698-1.031,1.645-1.941,2.844-2.73
			c1.198-0.788,2.616-1.183,4.253-1.183c1.244,0,2.396,0.152,3.458,0.455c1.061,0.303,1.971,0.789,2.729,1.456
			c0.758,0.667,1.349,1.54,1.774,2.616c0.424,1.077,0.637,2.374,0.637,3.89v15.741h-6.46v-13.33c0-0.788-0.031-1.531-0.091-2.229
			c-0.061-0.698-0.228-1.304-0.5-1.82c-0.273-0.516-0.675-0.925-1.206-1.229c-0.531-0.303-1.251-0.455-2.161-0.455
			c-0.91,0-1.646,0.175-2.207,0.523c-0.562,0.349-1.001,0.804-1.319,1.365c-0.319,0.562-0.531,1.198-0.637,1.911
			c-0.106,0.713-0.159,1.433-0.159,2.161v13.103h-6.46V17.739c0-0.698-0.016-1.388-0.045-2.07c-0.03-0.682-0.159-1.312-0.387-1.888
			s-0.607-1.039-1.137-1.388c-0.531-0.349-1.312-0.523-2.343-0.523c-0.303,0-0.705,0.068-1.206,0.205
			c-0.5,0.136-0.986,0.394-1.456,0.773c-0.471,0.38-0.873,0.926-1.206,1.638c-0.334,0.713-0.5,1.646-0.5,2.798v13.648h-6.46V7.412
			H157.401z"/>
	</g>
	<g>
		<g>
			<path fill="#FFFFFF" d="M212.929,17.366v12.046h7.182v1.52h-8.987V17.366H212.929z"/>
			<path fill="#FFFFFF" d="M228.376,30.305c-0.735,0.559-1.66,0.836-2.774,0.836c-0.786,0-1.466-0.127-2.042-0.379
				c-0.577-0.254-1.061-0.608-1.454-1.064s-0.687-1-0.883-1.635c-0.197-0.633-0.307-1.322-0.333-2.07
				c0-0.747,0.114-1.432,0.342-2.053c0.228-0.619,0.548-1.158,0.959-1.614s0.899-0.811,1.463-1.063
				c0.563-0.254,1.181-0.381,1.852-0.381c0.874,0,1.599,0.181,2.176,0.542c0.576,0.36,1.039,0.819,1.387,1.378
				c0.349,0.557,0.589,1.165,0.722,1.823c0.133,0.659,0.187,1.286,0.162,1.882H222.6c-0.013,0.43,0.038,0.838,0.152,1.225
				c0.114,0.387,0.297,0.729,0.551,1.026c0.253,0.298,0.576,0.535,0.969,0.712c0.393,0.178,0.855,0.267,1.387,0.267
				c0.684,0,1.244-0.159,1.681-0.476s0.725-0.798,0.865-1.443h1.596C229.585,28.918,229.11,29.748,228.376,30.305z M227.986,23.997
				c-0.146-0.342-0.342-0.636-0.589-0.884c-0.247-0.246-0.539-0.443-0.874-0.589s-0.706-0.218-1.111-0.218
				c-0.418,0-0.795,0.072-1.13,0.218c-0.336,0.146-0.624,0.346-0.865,0.599c-0.241,0.254-0.431,0.549-0.57,0.884
				c-0.14,0.335-0.222,0.693-0.247,1.073h5.643C228.217,24.7,228.132,24.34,227.986,23.997z"/>
			<path fill="#FFFFFF" d="M239.167,31.141c-0.418,0-0.75-0.117-0.997-0.352c-0.247-0.234-0.371-0.617-0.371-1.148
				c-0.444,0.531-0.959,0.914-1.549,1.148c-0.589,0.234-1.225,0.352-1.909,0.352c-0.444,0-0.862-0.047-1.254-0.143
				c-0.393-0.094-0.738-0.252-1.036-0.475c-0.298-0.221-0.532-0.506-0.703-0.855c-0.171-0.348-0.256-0.77-0.256-1.263
				c0-0.558,0.095-1.013,0.285-1.368c0.19-0.354,0.44-0.643,0.75-0.864c0.31-0.222,0.665-0.39,1.064-0.504
				c0.399-0.114,0.807-0.209,1.225-0.284c0.443-0.089,0.865-0.156,1.264-0.2s0.75-0.107,1.055-0.19
				c0.304-0.082,0.544-0.202,0.722-0.36s0.266-0.39,0.266-0.694c0-0.354-0.066-0.639-0.199-0.854
				c-0.133-0.215-0.304-0.38-0.513-0.493c-0.209-0.115-0.443-0.19-0.703-0.229s-0.516-0.057-0.77-0.057
				c-0.684,0-1.254,0.129-1.71,0.389s-0.703,0.751-0.741,1.473h-1.615c0.025-0.607,0.152-1.121,0.38-1.539s0.532-0.756,0.912-1.016
				s0.817-0.447,1.311-0.561c0.494-0.115,1.013-0.172,1.558-0.172c0.443,0,0.883,0.032,1.32,0.096
				c0.437,0.062,0.833,0.193,1.188,0.389c0.354,0.197,0.64,0.473,0.855,0.826c0.215,0.355,0.323,0.818,0.323,1.388v5.054
				c0,0.381,0.022,0.659,0.066,0.836c0.044,0.178,0.193,0.267,0.446,0.267c0.14,0,0.304-0.032,0.494-0.095v1.254
				C240.048,31.059,239.662,31.141,239.167,31.141z M236.907,26.191c-0.33,0.07-0.674,0.127-1.036,0.172
				c-0.361,0.044-0.725,0.094-1.092,0.151c-0.368,0.058-0.697,0.149-0.988,0.275c-0.292,0.127-0.529,0.308-0.712,0.542
				s-0.275,0.554-0.275,0.959c0,0.266,0.054,0.491,0.162,0.675c0.107,0.184,0.247,0.333,0.418,0.446
				c0.171,0.114,0.374,0.197,0.608,0.247c0.234,0.051,0.472,0.076,0.712,0.076c0.532,0,0.988-0.073,1.368-0.219
				s0.69-0.329,0.931-0.551s0.418-0.462,0.532-0.722s0.171-0.504,0.171-0.732v-1.652C237.502,26.012,237.236,26.122,236.907,26.191z
				"/>
			<path fill="#FFFFFF" d="M248.99,30.932v-1.33h-0.038c-0.266,0.545-0.684,0.938-1.254,1.179c-0.57,0.24-1.197,0.36-1.881,0.36
				c-0.76,0-1.422-0.139-1.985-0.418c-0.564-0.277-1.033-0.652-1.406-1.121c-0.374-0.468-0.655-1.013-0.845-1.633
				c-0.19-0.621-0.285-1.279-0.285-1.977c0-0.696,0.092-1.355,0.275-1.977c0.184-0.62,0.462-1.162,0.836-1.624
				s0.842-0.829,1.406-1.103c0.563-0.271,1.219-0.408,1.966-0.408c0.253,0,0.525,0.025,0.817,0.076s0.583,0.137,0.874,0.257
				s0.567,0.278,0.827,0.475c0.259,0.196,0.478,0.44,0.655,0.731h0.038v-5.054h1.615v13.565H248.99z M243.186,27.445
				c0.12,0.438,0.304,0.826,0.551,1.169c0.247,0.342,0.563,0.614,0.95,0.817c0.386,0.202,0.839,0.304,1.358,0.304
				c0.544,0,1.007-0.108,1.387-0.323c0.38-0.215,0.69-0.497,0.931-0.846c0.241-0.348,0.415-0.744,0.522-1.188
				c0.107-0.443,0.162-0.893,0.162-1.349c0-0.481-0.057-0.946-0.171-1.396c-0.114-0.45-0.294-0.846-0.542-1.188
				c-0.247-0.343-0.567-0.618-0.959-0.827c-0.393-0.209-0.868-0.312-1.425-0.312c-0.544,0-1.007,0.107-1.387,0.322
				c-0.38,0.216-0.684,0.501-0.912,0.855s-0.393,0.76-0.494,1.216s-0.152,0.925-0.152,1.405
				C243.005,26.562,243.065,27.009,243.186,27.445z"/>
			<path fill="#FFFFFF" d="M253.189,19.342v-1.976h1.615v1.976H253.189z M254.804,21.109v9.822h-1.615v-9.822H254.804z"/>
			<path fill="#FFFFFF" d="M258.832,21.109v1.558h0.038c0.671-1.19,1.735-1.786,3.192-1.786c0.646,0,1.185,0.089,1.615,0.266
				c0.43,0.178,0.779,0.426,1.045,0.742s0.453,0.693,0.561,1.13c0.107,0.437,0.162,0.921,0.162,1.454v6.459h-1.615v-6.649
				c0-0.608-0.177-1.089-0.532-1.444c-0.355-0.354-0.843-0.531-1.463-0.531c-0.494,0-0.921,0.076-1.282,0.228
				s-0.662,0.368-0.902,0.646c-0.241,0.279-0.421,0.605-0.542,0.979c-0.121,0.374-0.181,0.783-0.181,1.227v5.547h-1.615v-9.822
				H258.832z"/>
			<path fill="#FFFFFF" d="M275.248,33.706c-0.734,0.798-1.887,1.197-3.458,1.197c-0.456,0-0.921-0.051-1.396-0.152
				s-0.906-0.266-1.292-0.493c-0.386-0.229-0.706-0.526-0.959-0.894c-0.253-0.368-0.393-0.817-0.418-1.349h1.615
				c0.012,0.291,0.104,0.537,0.275,0.74s0.38,0.367,0.627,0.494s0.516,0.219,0.808,0.275c0.291,0.057,0.57,0.086,0.836,0.086
				c0.532,0,0.981-0.092,1.349-0.275c0.367-0.184,0.671-0.438,0.912-0.76c0.24-0.324,0.414-0.713,0.521-1.169
				c0.108-0.456,0.162-0.956,0.162-1.501V29.26h-0.038c-0.278,0.608-0.7,1.055-1.263,1.34c-0.564,0.285-1.163,0.428-1.796,0.428
				c-0.735,0-1.375-0.133-1.919-0.399c-0.544-0.266-1-0.624-1.368-1.073c-0.368-0.449-0.643-0.975-0.827-1.577
				c-0.184-0.602-0.275-1.237-0.275-1.909c0-0.582,0.076-1.182,0.228-1.796c0.152-0.614,0.405-1.171,0.76-1.672
				c0.354-0.5,0.823-0.912,1.406-1.235c0.583-0.322,1.298-0.484,2.147-0.484c0.621,0,1.19,0.137,1.71,0.408
				c0.519,0.273,0.924,0.682,1.215,1.227h0.02v-1.406h1.52v8.986C276.349,31.705,275.982,32.908,275.248,33.706z M273.186,29.289
				c0.374-0.222,0.675-0.514,0.903-0.875c0.228-0.36,0.395-0.77,0.503-1.225c0.107-0.457,0.161-0.912,0.161-1.368
				c0-0.431-0.051-0.854-0.152-1.272s-0.262-0.795-0.484-1.131c-0.221-0.336-0.51-0.605-0.864-0.808s-0.785-0.304-1.292-0.304
				c-0.52,0-0.962,0.098-1.33,0.294c-0.368,0.196-0.668,0.46-0.903,0.788c-0.234,0.33-0.405,0.71-0.513,1.141
				c-0.108,0.431-0.162,0.881-0.162,1.349c0,0.444,0.044,0.888,0.133,1.33c0.088,0.444,0.241,0.846,0.456,1.206
				c0.215,0.361,0.5,0.653,0.855,0.875c0.354,0.221,0.798,0.332,1.33,0.332C272.36,29.621,272.812,29.51,273.186,29.289z"/>
			<path fill="#FFFFFF" d="M293.241,17.366v1.521h-7.106v4.312h6.232v1.52h-6.232v6.213h-1.805V17.366H293.241z"/>
			<path fill="#FFFFFF" d="M296.679,17.366v13.565h-1.615V17.366H296.679z"/>
			<path fill="#FFFFFF" d="M306.73,31.141c-0.418,0-0.75-0.117-0.997-0.352s-0.37-0.617-0.37-1.148
				c-0.444,0.531-0.96,0.914-1.549,1.148c-0.59,0.234-1.226,0.352-1.91,0.352c-0.443,0-0.861-0.047-1.254-0.143
				c-0.393-0.094-0.738-0.252-1.035-0.475c-0.298-0.221-0.532-0.506-0.703-0.855c-0.171-0.348-0.256-0.77-0.256-1.263
				c0-0.558,0.094-1.013,0.285-1.368c0.189-0.354,0.439-0.643,0.75-0.864s0.664-0.39,1.064-0.504
				c0.398-0.114,0.807-0.209,1.225-0.284c0.443-0.089,0.865-0.156,1.264-0.2s0.75-0.107,1.055-0.19
				c0.304-0.082,0.545-0.202,0.722-0.36s0.267-0.39,0.267-0.694c0-0.354-0.066-0.639-0.199-0.854
				c-0.134-0.215-0.305-0.38-0.514-0.493c-0.209-0.115-0.443-0.19-0.703-0.229s-0.516-0.057-0.77-0.057
				c-0.684,0-1.254,0.129-1.71,0.389s-0.703,0.751-0.741,1.473h-1.615c0.025-0.607,0.152-1.121,0.381-1.539
				c0.228-0.418,0.531-0.756,0.912-1.016c0.379-0.26,0.816-0.447,1.311-0.561c0.494-0.115,1.014-0.172,1.559-0.172
				c0.443,0,0.883,0.032,1.32,0.096c0.437,0.062,0.832,0.193,1.188,0.389c0.354,0.197,0.639,0.473,0.854,0.826
				c0.216,0.355,0.323,0.818,0.323,1.388v5.054c0,0.381,0.021,0.659,0.066,0.836c0.045,0.178,0.193,0.267,0.446,0.267
				c0.14,0,0.304-0.032,0.494-0.095v1.254C307.611,31.059,307.224,31.141,306.73,31.141z M304.469,26.191
				c-0.329,0.07-0.675,0.127-1.036,0.172c-0.36,0.044-0.725,0.094-1.092,0.151s-0.697,0.149-0.988,0.275
				c-0.291,0.127-0.529,0.308-0.713,0.542s-0.275,0.554-0.275,0.959c0,0.266,0.055,0.491,0.162,0.675s0.247,0.333,0.418,0.446
				c0.171,0.114,0.373,0.197,0.607,0.247c0.234,0.051,0.473,0.076,0.713,0.076c0.532,0,0.988-0.073,1.368-0.219
				s0.69-0.329,0.931-0.551s0.418-0.462,0.532-0.722s0.171-0.504,0.171-0.732v-1.652C305.064,26.012,304.798,26.122,304.469,26.191z
				"/>
			<path fill="#FFFFFF" d="M310.91,21.109v1.443h0.038c0.734-1.114,1.792-1.672,3.173-1.672c0.608,0,1.159,0.127,1.653,0.381
				c0.494,0.253,0.843,0.684,1.045,1.291c0.329-0.531,0.763-0.943,1.302-1.234c0.538-0.291,1.131-0.438,1.776-0.438
				c0.493,0,0.94,0.055,1.339,0.162c0.399,0.107,0.742,0.275,1.026,0.503c0.285,0.228,0.507,0.522,0.665,0.884
				s0.238,0.795,0.238,1.301v7.201h-1.615v-6.44c0-0.304-0.025-0.589-0.076-0.854c-0.051-0.267-0.146-0.498-0.285-0.693
				c-0.14-0.197-0.332-0.352-0.58-0.467c-0.246-0.113-0.566-0.17-0.959-0.17c-0.798,0-1.426,0.228-1.881,0.684
				c-0.456,0.456-0.684,1.064-0.684,1.824v6.117h-1.615v-6.44c0-0.316-0.029-0.608-0.086-0.874s-0.155-0.497-0.295-0.693
				c-0.139-0.196-0.326-0.349-0.561-0.456s-0.535-0.161-0.902-0.161c-0.469,0-0.871,0.095-1.206,0.285
				c-0.336,0.189-0.608,0.418-0.817,0.684s-0.361,0.541-0.455,0.826c-0.096,0.285-0.143,0.522-0.143,0.713v6.117h-1.615v-9.822
				H310.91z"/>
			<path fill="#FFFFFF" d="M332.55,30.305c-0.734,0.559-1.659,0.836-2.773,0.836c-0.785,0-1.467-0.127-2.043-0.379
				c-0.576-0.254-1.061-0.608-1.453-1.064s-0.688-1-0.883-1.635c-0.197-0.633-0.308-1.322-0.333-2.07
				c0-0.747,0.114-1.432,0.342-2.053c0.228-0.619,0.548-1.158,0.96-1.614c0.411-0.456,0.898-0.811,1.463-1.063
				c0.563-0.254,1.181-0.381,1.852-0.381c0.875,0,1.6,0.181,2.176,0.542c0.576,0.36,1.039,0.819,1.387,1.378
				c0.35,0.557,0.59,1.165,0.723,1.823c0.133,0.659,0.188,1.286,0.162,1.882h-7.354c-0.013,0.43,0.038,0.838,0.152,1.225
				c0.113,0.387,0.297,0.729,0.551,1.026c0.253,0.298,0.576,0.535,0.969,0.712c0.393,0.178,0.855,0.267,1.387,0.267
				c0.685,0,1.244-0.159,1.682-0.476s0.725-0.798,0.865-1.443h1.596C333.76,28.918,333.285,29.748,332.55,30.305z M332.162,23.997
				c-0.146-0.342-0.342-0.636-0.59-0.884c-0.246-0.246-0.538-0.443-0.873-0.589c-0.336-0.146-0.707-0.218-1.111-0.218
				c-0.418,0-0.795,0.072-1.131,0.218s-0.624,0.346-0.865,0.599c-0.24,0.254-0.43,0.549-0.569,0.884s-0.222,0.693-0.247,1.073h5.643
				C332.392,24.7,332.306,24.34,332.162,23.997z"/>
			<path fill="#FFFFFF" d="M347.732,17.366c1.292,0,2.302,0.317,3.03,0.95c0.728,0.633,1.093,1.5,1.093,2.603
				c0,0.823-0.188,1.546-0.561,2.166c-0.374,0.621-0.973,1.046-1.796,1.272v0.039c0.393,0.076,0.713,0.203,0.96,0.38
				c0.246,0.177,0.443,0.39,0.589,0.636c0.146,0.248,0.253,0.523,0.323,0.827c0.068,0.304,0.123,0.62,0.161,0.95
				c0.025,0.329,0.044,0.664,0.058,1.007c0.012,0.342,0.043,0.678,0.094,1.007c0.051,0.33,0.124,0.643,0.219,0.94
				c0.096,0.298,0.238,0.561,0.428,0.788h-2.014c-0.127-0.139-0.213-0.328-0.257-0.569s-0.073-0.51-0.085-0.808
				c-0.014-0.297-0.025-0.617-0.039-0.959c-0.012-0.343-0.051-0.678-0.113-1.008c-0.051-0.329-0.114-0.643-0.189-0.94
				c-0.076-0.298-0.197-0.558-0.361-0.778c-0.165-0.223-0.381-0.399-0.646-0.533c-0.266-0.133-0.621-0.199-1.064-0.199h-4.407v5.795
				h-1.806V17.366H347.732z M348.112,23.521c0.38-0.062,0.712-0.186,0.997-0.369s0.514-0.432,0.685-0.742
				c0.171-0.31,0.257-0.712,0.257-1.206c0-0.685-0.19-1.241-0.57-1.672c-0.381-0.431-0.994-0.646-1.844-0.646h-4.483v4.73h3.762
				C347.333,23.617,347.732,23.586,348.112,23.521z"/>
			<path fill="#FFFFFF" d="M361.05,30.305c-0.734,0.559-1.659,0.836-2.773,0.836c-0.785,0-1.467-0.127-2.043-0.379
				c-0.576-0.254-1.061-0.608-1.453-1.064s-0.688-1-0.883-1.635c-0.197-0.633-0.308-1.322-0.333-2.07
				c0-0.747,0.114-1.432,0.342-2.053c0.228-0.619,0.548-1.158,0.96-1.614c0.411-0.456,0.898-0.811,1.463-1.063
				c0.563-0.254,1.181-0.381,1.852-0.381c0.875,0,1.6,0.181,2.176,0.542c0.576,0.36,1.039,0.819,1.387,1.378
				c0.35,0.557,0.59,1.165,0.723,1.823c0.133,0.659,0.188,1.286,0.162,1.882h-7.354c-0.013,0.43,0.038,0.838,0.152,1.225
				c0.113,0.387,0.297,0.729,0.551,1.026c0.253,0.298,0.576,0.535,0.969,0.712c0.393,0.178,0.855,0.267,1.387,0.267
				c0.685,0,1.244-0.159,1.682-0.476s0.725-0.798,0.865-1.443h1.596C362.26,28.918,361.785,29.748,361.05,30.305z M360.662,23.997
				c-0.146-0.342-0.342-0.636-0.59-0.884c-0.246-0.246-0.538-0.443-0.873-0.589c-0.336-0.146-0.707-0.218-1.111-0.218
				c-0.418,0-0.795,0.072-1.131,0.218s-0.624,0.346-0.865,0.599c-0.24,0.254-0.43,0.549-0.569,0.884s-0.222,0.693-0.247,1.073h5.643
				C360.892,24.7,360.806,24.34,360.662,23.997z"/>
			<path fill="#FFFFFF" d="M368.499,21.109v1.425h-1.957v6.099c0,0.19,0.016,0.342,0.048,0.457c0.031,0.113,0.092,0.202,0.18,0.266
				c0.089,0.062,0.213,0.104,0.371,0.123s0.363,0.029,0.617,0.029h0.741v1.424h-1.235c-0.418,0-0.775-0.027-1.073-0.085
				s-0.538-0.161-0.722-0.313s-0.32-0.367-0.408-0.646c-0.09-0.277-0.134-0.646-0.134-1.102v-6.251h-1.672v-1.425h1.672v-2.945
				h1.615v2.945H368.499z"/>
			<path fill="#FFFFFF" d="M377.828,31.141c-0.418,0-0.751-0.117-0.998-0.352c-0.246-0.234-0.37-0.617-0.37-1.148
				c-0.444,0.531-0.96,0.914-1.549,1.148s-1.226,0.352-1.909,0.352c-0.443,0-0.861-0.047-1.254-0.143
				c-0.393-0.094-0.738-0.252-1.035-0.475c-0.299-0.221-0.533-0.506-0.703-0.855c-0.172-0.348-0.257-0.77-0.257-1.263
				c0-0.558,0.095-1.013,0.285-1.368c0.19-0.354,0.44-0.643,0.751-0.864c0.31-0.222,0.664-0.39,1.063-0.504s0.808-0.209,1.226-0.284
				c0.443-0.089,0.864-0.156,1.264-0.2c0.398-0.044,0.75-0.107,1.055-0.19c0.303-0.082,0.544-0.202,0.721-0.36
				c0.178-0.158,0.267-0.39,0.267-0.694c0-0.354-0.066-0.639-0.199-0.854c-0.134-0.215-0.304-0.38-0.513-0.493
				c-0.209-0.115-0.443-0.19-0.703-0.229s-0.517-0.057-0.77-0.057c-0.685,0-1.254,0.129-1.711,0.389
				c-0.455,0.26-0.703,0.751-0.74,1.473h-1.615c0.025-0.607,0.152-1.121,0.38-1.539s0.532-0.756,0.912-1.016
				s0.817-0.447,1.312-0.561c0.494-0.115,1.013-0.172,1.558-0.172c0.443,0,0.884,0.032,1.32,0.096
				c0.437,0.062,0.833,0.193,1.188,0.389c0.354,0.197,0.64,0.473,0.854,0.826c0.216,0.355,0.324,0.818,0.324,1.388v5.054
				c0,0.381,0.021,0.659,0.066,0.836c0.044,0.178,0.192,0.267,0.445,0.267c0.141,0,0.305-0.032,0.494-0.095v1.254
				C378.708,31.059,378.322,31.141,377.828,31.141z M375.566,26.191c-0.329,0.07-0.674,0.127-1.035,0.172
				c-0.361,0.044-0.725,0.094-1.092,0.151c-0.368,0.058-0.697,0.149-0.988,0.275c-0.292,0.127-0.529,0.308-0.713,0.542
				s-0.275,0.554-0.275,0.959c0,0.266,0.054,0.491,0.162,0.675c0.107,0.184,0.246,0.333,0.418,0.446
				c0.17,0.114,0.373,0.197,0.607,0.247c0.234,0.051,0.472,0.076,0.713,0.076c0.531,0,0.988-0.073,1.367-0.219
				c0.381-0.146,0.69-0.329,0.932-0.551c0.24-0.222,0.418-0.462,0.531-0.722c0.114-0.26,0.172-0.504,0.172-0.732v-1.652
				C376.162,26.012,375.896,26.122,375.566,26.191z"/>
			<path fill="#FFFFFF" d="M381.951,21.109v2.07h0.037c0.393-0.797,0.874-1.387,1.444-1.767c0.569-0.38,1.292-0.558,2.166-0.532
				v1.711c-0.646,0-1.197,0.088-1.653,0.266s-0.823,0.437-1.102,0.779c-0.279,0.342-0.482,0.756-0.608,1.244
				c-0.126,0.487-0.19,1.048-0.19,1.682v4.369h-1.614v-9.822H381.951z"/>
			<path fill="#FFFFFF" d="M393.634,30.932v-1.33h-0.037c-0.266,0.545-0.684,0.938-1.254,1.179c-0.57,0.24-1.197,0.36-1.881,0.36
				c-0.761,0-1.422-0.139-1.986-0.418c-0.563-0.277-1.032-0.652-1.406-1.121c-0.373-0.468-0.654-1.013-0.845-1.633
				c-0.19-0.621-0.285-1.279-0.285-1.977c0-0.696,0.092-1.355,0.275-1.977c0.184-0.62,0.462-1.162,0.836-1.624
				s0.843-0.829,1.406-1.103c0.563-0.271,1.219-0.408,1.966-0.408c0.254,0,0.525,0.025,0.817,0.076s0.583,0.137,0.874,0.257
				s0.566,0.278,0.826,0.475s0.479,0.44,0.656,0.731h0.037v-5.054h1.615v13.565H393.634z M387.831,27.445
				c0.12,0.438,0.304,0.826,0.551,1.169c0.247,0.342,0.563,0.614,0.95,0.817c0.387,0.202,0.839,0.304,1.358,0.304
				c0.544,0,1.007-0.108,1.387-0.323s0.69-0.497,0.931-0.846c0.241-0.348,0.415-0.744,0.523-1.188
				c0.107-0.443,0.161-0.893,0.161-1.349c0-0.481-0.058-0.946-0.171-1.396c-0.114-0.45-0.295-0.846-0.541-1.188
				c-0.248-0.343-0.568-0.618-0.96-0.827c-0.394-0.209-0.868-0.312-1.425-0.312c-0.545,0-1.008,0.107-1.387,0.322
				c-0.381,0.216-0.685,0.501-0.912,0.855c-0.229,0.354-0.393,0.76-0.494,1.216s-0.152,0.925-0.152,1.405
				C387.65,26.562,387.71,27.009,387.831,27.445z"/>
			<path fill="#FFFFFF" d="M405.281,31.141c-0.418,0-0.75-0.117-0.996-0.352c-0.248-0.234-0.371-0.617-0.371-1.148
				c-0.443,0.531-0.959,0.914-1.549,1.148c-0.589,0.234-1.225,0.352-1.909,0.352c-0.444,0-0.862-0.047-1.254-0.143
				c-0.394-0.094-0.738-0.252-1.036-0.475c-0.297-0.221-0.531-0.506-0.703-0.855c-0.17-0.348-0.256-0.77-0.256-1.263
				c0-0.558,0.095-1.013,0.285-1.368c0.189-0.354,0.439-0.643,0.75-0.864s0.665-0.39,1.064-0.504
				c0.398-0.114,0.807-0.209,1.225-0.284c0.443-0.089,0.865-0.156,1.264-0.2c0.399-0.044,0.751-0.107,1.055-0.19
				c0.305-0.082,0.545-0.202,0.723-0.36c0.177-0.158,0.266-0.39,0.266-0.694c0-0.354-0.066-0.639-0.199-0.854
				c-0.133-0.215-0.305-0.38-0.514-0.493c-0.209-0.115-0.443-0.19-0.703-0.229s-0.516-0.057-0.77-0.057
				c-0.684,0-1.254,0.129-1.709,0.389c-0.457,0.26-0.703,0.751-0.741,1.473h-1.615c0.025-0.607,0.151-1.121,0.38-1.539
				s0.532-0.756,0.912-1.016s0.816-0.447,1.311-0.561c0.494-0.115,1.014-0.172,1.559-0.172c0.443,0,0.883,0.032,1.32,0.096
				c0.438,0.062,0.833,0.193,1.188,0.389c0.354,0.197,0.64,0.473,0.855,0.826c0.215,0.355,0.322,0.818,0.322,1.388v5.054
				c0,0.381,0.022,0.659,0.066,0.836c0.045,0.178,0.193,0.267,0.447,0.267c0.139,0,0.304-0.032,0.494-0.095v1.254
				C406.162,31.059,405.775,31.141,405.281,31.141z M403.021,26.191c-0.33,0.07-0.675,0.127-1.036,0.172
				c-0.36,0.044-0.726,0.094-1.093,0.151s-0.696,0.149-0.988,0.275c-0.291,0.127-0.528,0.308-0.712,0.542s-0.275,0.554-0.275,0.959
				c0,0.266,0.054,0.491,0.161,0.675s0.248,0.333,0.418,0.446c0.172,0.114,0.374,0.197,0.608,0.247
				c0.234,0.051,0.472,0.076,0.712,0.076c0.533,0,0.988-0.073,1.369-0.219c0.379-0.146,0.689-0.329,0.93-0.551
				c0.241-0.222,0.419-0.462,0.533-0.722c0.113-0.26,0.17-0.504,0.17-0.732v-1.652C403.616,26.012,403.349,26.122,403.021,26.191z"
				/>
			<path fill="#FFFFFF" d="M409.46,21.109v1.558h0.039c0.671-1.19,1.734-1.786,3.191-1.786c0.646,0,1.185,0.089,1.615,0.266
				c0.43,0.178,0.779,0.426,1.045,0.742s0.453,0.693,0.561,1.13s0.162,0.921,0.162,1.454v6.459h-1.615v-6.649
				c0-0.608-0.178-1.089-0.532-1.444c-0.354-0.354-0.843-0.531-1.464-0.531c-0.493,0-0.921,0.076-1.281,0.228
				c-0.361,0.151-0.662,0.368-0.902,0.646c-0.242,0.279-0.422,0.605-0.542,0.979c-0.12,0.374-0.181,0.783-0.181,1.227v5.547h-1.615
				v-9.822H409.46z"/>
			<path fill="#FFFFFF" d="M422.705,21.109v1.425h-1.957v6.099c0,0.19,0.016,0.342,0.047,0.457c0.031,0.113,0.092,0.202,0.181,0.266
				c0.089,0.062,0.212,0.104,0.37,0.123s0.364,0.029,0.617,0.029h0.742v1.424h-1.235c-0.418,0-0.776-0.027-1.073-0.085
				c-0.299-0.058-0.539-0.161-0.723-0.313s-0.32-0.367-0.408-0.646c-0.089-0.277-0.133-0.646-0.133-1.102v-6.251h-1.672v-1.425
				h1.672v-2.945h1.615v2.945H422.705z"/>
			<path fill="#FFFFFF" d="M428.594,18.887v-1.521h10.849v1.521h-4.521v12.045h-1.805V18.887H428.594z"/>
			<path fill="#FFFFFF" d="M445.523,30.305c-0.734,0.559-1.66,0.836-2.773,0.836c-0.786,0-1.467-0.127-2.043-0.379
				c-0.576-0.254-1.061-0.608-1.453-1.064s-0.688-1-0.884-1.635c-0.196-0.633-0.308-1.322-0.333-2.07
				c0-0.747,0.114-1.432,0.342-2.053c0.229-0.619,0.549-1.158,0.96-1.614s0.899-0.811,1.464-1.063
				c0.562-0.254,1.18-0.381,1.852-0.381c0.874,0,1.6,0.181,2.176,0.542c0.576,0.36,1.039,0.819,1.387,1.378
				c0.349,0.557,0.59,1.165,0.723,1.823c0.133,0.659,0.187,1.286,0.161,1.882h-7.353c-0.014,0.43,0.037,0.838,0.151,1.225
				s0.298,0.729,0.552,1.026c0.252,0.298,0.576,0.535,0.969,0.712c0.393,0.178,0.854,0.267,1.387,0.267
				c0.684,0,1.244-0.159,1.682-0.476c0.437-0.316,0.725-0.798,0.864-1.443h1.597C446.732,28.918,446.257,29.748,445.523,30.305z
				 M445.133,23.997c-0.146-0.342-0.342-0.636-0.589-0.884c-0.247-0.246-0.539-0.443-0.874-0.589s-0.706-0.218-1.111-0.218
				c-0.418,0-0.795,0.072-1.13,0.218c-0.336,0.146-0.625,0.346-0.865,0.599c-0.24,0.254-0.431,0.549-0.57,0.884
				c-0.139,0.335-0.221,0.693-0.246,1.073h5.643C445.365,24.7,445.279,24.34,445.133,23.997z"/>
			<path fill="#FFFFFF" d="M454.642,22.819c-0.404-0.343-0.949-0.513-1.633-0.513c-0.584,0-1.071,0.107-1.463,0.322
				c-0.394,0.216-0.707,0.501-0.941,0.855s-0.402,0.764-0.504,1.225c-0.102,0.463-0.151,0.941-0.151,1.436
				c0,0.455,0.054,0.898,0.161,1.33c0.107,0.43,0.275,0.813,0.504,1.148c0.229,0.336,0.525,0.605,0.893,0.809
				c0.367,0.202,0.805,0.304,1.312,0.304c0.798,0,1.421-0.209,1.871-0.628c0.45-0.418,0.726-1.006,0.827-1.766h1.652
				c-0.178,1.215-0.63,2.152-1.358,2.812s-1.72,0.987-2.974,0.987c-0.747,0-1.409-0.12-1.985-0.36
				c-0.577-0.241-1.058-0.583-1.444-1.026s-0.678-0.972-0.873-1.586c-0.197-0.615-0.295-1.289-0.295-2.023s0.095-1.422,0.285-2.062
				c0.189-0.639,0.478-1.196,0.864-1.672c0.386-0.475,0.87-0.848,1.454-1.121c0.582-0.271,1.26-0.408,2.032-0.408
				c0.558,0,1.08,0.066,1.567,0.199c0.488,0.134,0.918,0.34,1.293,0.618c0.373,0.278,0.68,0.63,0.921,1.054
				c0.24,0.426,0.393,0.929,0.456,1.512h-1.672C455.314,23.643,455.048,23.161,454.642,22.819z"/>
			<path fill="#FFFFFF" d="M460.589,17.366v5.187h0.038c0.126-0.304,0.304-0.561,0.532-0.77c0.228-0.209,0.484-0.379,0.77-0.513
				c0.285-0.133,0.582-0.231,0.893-0.294c0.311-0.063,0.611-0.096,0.902-0.096c0.646,0,1.185,0.089,1.615,0.266
				c0.43,0.178,0.779,0.426,1.045,0.742s0.453,0.693,0.561,1.13s0.162,0.921,0.162,1.454v6.459h-1.615v-6.649
				c0-0.608-0.178-1.089-0.532-1.444c-0.354-0.354-0.843-0.531-1.464-0.531c-0.493,0-0.921,0.076-1.281,0.228
				c-0.361,0.151-0.662,0.368-0.902,0.646c-0.242,0.279-0.422,0.605-0.542,0.979c-0.12,0.374-0.181,0.783-0.181,1.227v5.547h-1.615
				V17.366H460.589z"/>
			<path fill="#FFFFFF" d="M471.058,21.109v1.558h0.038c0.671-1.19,1.735-1.786,3.192-1.786c0.646,0,1.184,0.089,1.615,0.266
				c0.43,0.178,0.778,0.426,1.045,0.742c0.266,0.316,0.452,0.693,0.561,1.13c0.107,0.437,0.161,0.921,0.161,1.454v6.459h-1.615
				v-6.649c0-0.608-0.177-1.089-0.532-1.444c-0.354-0.354-0.842-0.531-1.463-0.531c-0.494,0-0.922,0.076-1.282,0.228
				s-0.662,0.368-0.902,0.646c-0.241,0.279-0.421,0.605-0.542,0.979c-0.12,0.374-0.18,0.783-0.18,1.227v5.547h-1.615v-9.822H471.058
				z"/>
			<path fill="#FFFFFF" d="M479.875,24.007c0.202-0.628,0.506-1.172,0.912-1.634c0.404-0.463,0.905-0.827,1.5-1.093
				c0.596-0.267,1.279-0.399,2.053-0.399c0.785,0,1.473,0.133,2.062,0.399c0.589,0.266,1.086,0.63,1.491,1.093
				c0.405,0.462,0.709,1.006,0.912,1.634c0.203,0.627,0.305,1.302,0.305,2.023s-0.102,1.394-0.305,2.014
				c-0.203,0.621-0.507,1.163-0.912,1.624c-0.405,0.463-0.902,0.824-1.491,1.084s-1.276,0.389-2.062,0.389
				c-0.773,0-1.457-0.129-2.053-0.389c-0.595-0.26-1.096-0.621-1.5-1.084c-0.406-0.461-0.71-1.003-0.912-1.624
				c-0.203-0.62-0.305-1.292-0.305-2.014S479.671,24.634,479.875,24.007z M481.517,27.617c0.158,0.462,0.377,0.848,0.656,1.158
				c0.278,0.311,0.604,0.549,0.979,0.713c0.373,0.164,0.77,0.247,1.188,0.247s0.813-0.083,1.188-0.247
				c0.373-0.164,0.699-0.402,0.979-0.713c0.278-0.311,0.497-0.696,0.655-1.158c0.158-0.463,0.237-0.992,0.237-1.587
				s-0.079-1.124-0.237-1.587c-0.158-0.462-0.377-0.852-0.655-1.168c-0.279-0.316-0.605-0.558-0.979-0.723
				c-0.374-0.164-0.77-0.246-1.188-0.246s-0.814,0.082-1.188,0.246c-0.374,0.165-0.7,0.406-0.979,0.723
				c-0.279,0.316-0.498,0.706-0.656,1.168c-0.158,0.463-0.236,0.992-0.236,1.587S481.359,27.154,481.517,27.617z"/>
			<path fill="#FFFFFF" d="M492.718,17.366v13.565h-1.615V17.366H492.718z"/>
			<path fill="#FFFFFF" d="M494.998,24.007c0.203-0.628,0.507-1.172,0.912-1.634c0.405-0.463,0.906-0.827,1.501-1.093
				c0.595-0.267,1.279-0.399,2.052-0.399c0.785,0,1.473,0.133,2.062,0.399c0.588,0.266,1.086,0.63,1.49,1.093
				c0.406,0.462,0.71,1.006,0.912,1.634c0.203,0.627,0.305,1.302,0.305,2.023s-0.102,1.394-0.305,2.014
				c-0.202,0.621-0.506,1.163-0.912,1.624c-0.404,0.463-0.902,0.824-1.49,1.084c-0.59,0.26-1.277,0.389-2.062,0.389
				c-0.772,0-1.457-0.129-2.052-0.389s-1.096-0.621-1.501-1.084c-0.405-0.461-0.709-1.003-0.912-1.624
				c-0.203-0.62-0.304-1.292-0.304-2.014S494.794,24.634,494.998,24.007z M496.641,27.617c0.158,0.462,0.377,0.848,0.655,1.158
				c0.279,0.311,0.605,0.549,0.979,0.713c0.374,0.164,0.77,0.247,1.188,0.247s0.814-0.083,1.188-0.247
				c0.374-0.164,0.7-0.402,0.979-0.713c0.279-0.311,0.498-0.696,0.656-1.158c0.158-0.463,0.237-0.992,0.237-1.587
				s-0.079-1.124-0.237-1.587c-0.158-0.462-0.377-0.852-0.656-1.168c-0.278-0.316-0.604-0.558-0.979-0.723
				c-0.373-0.164-0.77-0.246-1.188-0.246s-0.813,0.082-1.188,0.246c-0.373,0.165-0.699,0.406-0.979,0.723
				c-0.278,0.316-0.497,0.706-0.655,1.168c-0.158,0.463-0.237,0.992-0.237,1.587S496.483,27.154,496.641,27.617z"/>
			<path fill="#FFFFFF" d="M513.503,33.706c-0.734,0.798-1.887,1.197-3.458,1.197c-0.456,0-0.921-0.051-1.396-0.152
				s-0.905-0.266-1.292-0.493c-0.387-0.229-0.706-0.526-0.959-0.894c-0.254-0.368-0.393-0.817-0.418-1.349h1.615
				c0.012,0.291,0.104,0.537,0.275,0.74c0.17,0.203,0.379,0.367,0.627,0.494c0.246,0.127,0.516,0.219,0.807,0.275
				s0.57,0.086,0.836,0.086c0.532,0,0.982-0.092,1.35-0.275s0.671-0.438,0.912-0.76c0.24-0.324,0.414-0.713,0.521-1.169
				c0.108-0.456,0.162-0.956,0.162-1.501V29.26h-0.038c-0.278,0.608-0.7,1.055-1.263,1.34c-0.564,0.285-1.163,0.428-1.796,0.428
				c-0.735,0-1.375-0.133-1.919-0.399c-0.545-0.266-1.001-0.624-1.368-1.073c-0.368-0.449-0.644-0.975-0.827-1.577
				c-0.184-0.602-0.275-1.237-0.275-1.909c0-0.582,0.076-1.182,0.229-1.796s0.405-1.171,0.76-1.672
				c0.354-0.5,0.823-0.912,1.406-1.235c0.582-0.322,1.299-0.484,2.146-0.484c0.621,0,1.191,0.137,1.711,0.408
				c0.519,0.273,0.924,0.682,1.215,1.227h0.02v-1.406h1.52v8.986C514.605,31.705,514.238,32.908,513.503,33.706z M511.442,29.289
				c0.374-0.222,0.675-0.514,0.903-0.875c0.228-0.36,0.395-0.77,0.503-1.225c0.107-0.457,0.161-0.912,0.161-1.368
				c0-0.431-0.051-0.854-0.152-1.272s-0.262-0.795-0.484-1.131c-0.221-0.336-0.51-0.605-0.864-0.808s-0.785-0.304-1.292-0.304
				c-0.52,0-0.963,0.098-1.33,0.294s-0.668,0.46-0.902,0.788c-0.234,0.33-0.405,0.71-0.513,1.141
				c-0.108,0.431-0.161,0.881-0.161,1.349c0,0.444,0.044,0.888,0.133,1.33c0.088,0.444,0.24,0.846,0.455,1.206
				c0.216,0.361,0.501,0.653,0.855,0.875c0.354,0.221,0.799,0.332,1.33,0.332C510.616,29.621,511.068,29.51,511.442,29.289z"/>
			<path fill="#FFFFFF" d="M520.333,33.439c-0.184,0.33-0.387,0.6-0.607,0.809c-0.223,0.209-0.466,0.36-0.732,0.455
				c-0.266,0.096-0.582,0.143-0.949,0.143c-0.189,0-0.381-0.012-0.57-0.037s-0.373-0.07-0.551-0.133v-1.482
				c0.152,0.051,0.307,0.102,0.465,0.152c0.158,0.05,0.32,0.075,0.484,0.075c0.33,0,0.596-0.075,0.799-0.228
				c0.202-0.152,0.38-0.374,0.531-0.665l0.666-1.653l-3.896-9.766h1.824l2.869,8.037h0.038l2.755-8.037h1.71l-4.275,11.115
				C520.705,32.705,520.517,33.111,520.333,33.439z"/>
		</g>
	</g>
	<rect x="199.385" y="-3.337" fill="#FFFFFF" width="1" height="39.727"/>
</g>
<g>
	<g>
		<path fill="#398740" d="M14.012,0.773c2.093,0,4.042,0.334,5.846,1.001c1.804,0.668,3.367,1.668,4.686,3.002
			c1.319,1.336,2.35,3.004,3.094,5.005c0.743,2.002,1.115,4.353,1.115,7.052c0,2.365-0.304,4.55-0.91,6.551
			c-0.607,2.002-1.524,3.731-2.752,5.188c-1.228,1.455-2.76,2.601-4.595,3.435c-1.835,0.835-3.997,1.251-6.483,1.251H0V0.773H14.012
			z M13.512,27.251c1.031,0,2.031-0.166,3.002-0.5c0.97-0.334,1.835-0.887,2.593-1.66c0.758-0.773,1.365-1.781,1.82-3.025
			s0.682-2.76,0.682-4.55c0-1.638-0.159-3.116-0.478-4.437c-0.318-1.318-0.842-2.448-1.569-3.389
			c-0.728-0.939-1.691-1.66-2.889-2.161c-1.198-0.501-2.677-0.751-4.436-0.751H7.143v20.473H13.512z"/>
		<path fill="#398740" d="M57.096,0.773v6.005H39.944v6.961h15.741v5.551H39.944v7.961H57.46v6.006H32.802V0.773H57.096z"/>
		<path fill="#398740" d="M84.21,0.773v6.005H68.515v7.508h13.603v5.55H68.515v13.421h-7.143V0.773H84.21z"/>
		<path fill="#398740" d="M94.583,0.773v26.478h15.833v6.006H87.44V0.773H94.583z"/>
		<path fill="#398740" d="M124.245,0.773l12.147,32.483h-7.416l-2.457-7.234h-12.147l-2.548,7.234h-7.188L116.92,0.773H124.245z
			 M124.654,20.7L120.56,8.78h-0.091l-4.231,11.92H124.654z"/>
		<path fill="#398740" d="M148.357,0.773l7.598,22.338h0.091l7.188-22.338h10.055v32.483h-6.688V10.236h-0.091l-7.962,23.021h-5.505
			l-7.961-22.793h-0.091v22.793h-6.688V0.773H148.357z"/>
		<path fill="#398740" d="M178.338,10.396c0.728-2.077,1.774-3.89,3.139-5.437s3.04-2.76,5.027-3.64
			C188.491,0.44,190.728,0,193.215,0c2.517,0,4.761,0.44,6.733,1.319c1.971,0.88,3.64,2.093,5.004,3.64
			c1.365,1.547,2.412,3.359,3.139,5.437c0.728,2.078,1.092,4.33,1.092,6.756c0,2.366-0.364,4.572-1.092,6.619
			c-0.728,2.048-1.774,3.83-3.139,5.346c-1.365,1.518-3.033,2.707-5.004,3.572c-1.972,0.864-4.216,1.297-6.733,1.297
			c-2.487,0-4.725-0.433-6.711-1.297c-1.987-0.865-3.662-2.055-5.027-3.572c-1.365-1.516-2.411-3.298-3.139-5.346
			c-0.728-2.047-1.092-4.253-1.092-6.619C177.247,14.726,177.61,12.474,178.338,10.396z M184.867,21.132
			c0.318,1.29,0.826,2.45,1.524,3.48c0.697,1.031,1.607,1.859,2.729,2.48c1.122,0.621,2.486,0.932,4.095,0.932
			c1.607,0,2.972-0.311,4.094-0.932c1.122-0.621,2.032-1.449,2.73-2.48c0.697-1.03,1.206-2.19,1.524-3.48
			c0.318-1.288,0.478-2.615,0.478-3.98c0-1.425-0.159-2.805-0.478-4.14s-0.827-2.524-1.524-3.571
			c-0.698-1.047-1.608-1.881-2.73-2.502c-1.123-0.621-2.487-0.934-4.094-0.934c-1.608,0-2.973,0.312-4.095,0.934
			c-1.123,0.621-2.032,1.455-2.729,2.502c-0.698,1.047-1.206,2.236-1.524,3.571s-0.478,2.715-0.478,4.14
			C184.389,18.517,184.548,19.844,184.867,21.132z"/>
	</g>
	<g>
		<path fill="#398740" d="M233.457,18.849v12.047h7.182v1.52h-8.987V18.849H233.457z"/>
		<path fill="#398740" d="M248.904,31.788c-0.735,0.558-1.66,0.836-2.774,0.836c-0.786,0-1.466-0.127-2.042-0.38
			c-0.577-0.253-1.061-0.608-1.454-1.063c-0.393-0.457-0.687-1.001-0.883-1.635c-0.197-0.633-0.307-1.323-0.333-2.07
			c0-0.748,0.114-1.432,0.342-2.053c0.228-0.62,0.548-1.158,0.959-1.615c0.412-0.455,0.899-0.811,1.463-1.063
			c0.563-0.253,1.181-0.38,1.852-0.38c0.874,0,1.599,0.18,2.176,0.541c0.576,0.361,1.039,0.82,1.387,1.378
			c0.349,0.558,0.589,1.165,0.722,1.823c0.133,0.659,0.187,1.286,0.162,1.882h-7.353c-0.013,0.431,0.038,0.839,0.152,1.226
			c0.114,0.387,0.297,0.729,0.551,1.025c0.253,0.298,0.576,0.535,0.969,0.713s0.855,0.266,1.387,0.266
			c0.684,0,1.244-0.158,1.681-0.475s0.725-0.799,0.865-1.444h1.596C250.113,30.401,249.638,31.231,248.904,31.788z M248.514,25.479
			c-0.146-0.342-0.342-0.636-0.589-0.883s-0.539-0.443-0.874-0.59c-0.335-0.145-0.706-0.218-1.111-0.218
			c-0.418,0-0.795,0.073-1.13,0.218c-0.336,0.146-0.624,0.346-0.865,0.6c-0.241,0.253-0.431,0.548-0.57,0.883
			c-0.14,0.336-0.222,0.693-0.247,1.074h5.643C248.745,26.183,248.66,25.822,248.514,25.479z"/>
		<path fill="#398740" d="M259.695,32.624c-0.418,0-0.75-0.117-0.997-0.352c-0.247-0.234-0.371-0.617-0.371-1.149
			c-0.444,0.532-0.959,0.915-1.549,1.149c-0.589,0.234-1.225,0.352-1.909,0.352c-0.444,0-0.862-0.047-1.254-0.143
			c-0.393-0.095-0.738-0.253-1.036-0.475c-0.298-0.222-0.532-0.507-0.703-0.855c-0.171-0.348-0.256-0.77-0.256-1.264
			c0-0.557,0.095-1.013,0.285-1.367c0.19-0.355,0.44-0.643,0.75-0.865c0.31-0.221,0.665-0.389,1.064-0.504
			c0.399-0.113,0.807-0.209,1.225-0.284c0.443-0.089,0.865-0.155,1.264-0.2c0.399-0.043,0.75-0.107,1.055-0.189
			c0.304-0.082,0.544-0.203,0.722-0.361s0.266-0.389,0.266-0.693c0-0.354-0.066-0.639-0.199-0.855
			c-0.133-0.215-0.304-0.379-0.513-0.493s-0.443-0.19-0.703-0.228c-0.26-0.039-0.516-0.058-0.77-0.058
			c-0.684,0-1.254,0.13-1.71,0.39s-0.703,0.75-0.741,1.473H252c0.025-0.608,0.152-1.121,0.38-1.539s0.532-0.757,0.912-1.017
			s0.817-0.446,1.311-0.561s1.013-0.171,1.558-0.171c0.443,0,0.883,0.031,1.32,0.095s0.833,0.193,1.188,0.39s0.64,0.473,0.855,0.826
			c0.215,0.355,0.323,0.817,0.323,1.387v5.055c0,0.38,0.022,0.658,0.066,0.836s0.193,0.266,0.446,0.266
			c0.14,0,0.304-0.031,0.494-0.095v1.254C260.576,32.542,260.189,32.624,259.695,32.624z M257.435,27.675
			c-0.33,0.069-0.674,0.127-1.036,0.171c-0.361,0.044-0.725,0.095-1.092,0.151c-0.368,0.058-0.697,0.149-0.988,0.275
			c-0.292,0.127-0.529,0.308-0.712,0.542s-0.275,0.554-0.275,0.96c0,0.266,0.054,0.49,0.162,0.674
			c0.107,0.184,0.247,0.333,0.418,0.447c0.171,0.113,0.374,0.196,0.608,0.246c0.234,0.051,0.472,0.076,0.712,0.076
			c0.532,0,0.988-0.072,1.368-0.219c0.38-0.145,0.69-0.328,0.931-0.551c0.241-0.221,0.418-0.462,0.532-0.722
			c0.114-0.259,0.171-0.503,0.171-0.731v-1.653C258.03,27.494,257.764,27.604,257.435,27.675z"/>
		<path fill="#398740" d="M269.518,32.415v-1.33h-0.038c-0.266,0.545-0.684,0.938-1.254,1.178c-0.57,0.24-1.197,0.361-1.881,0.361
			c-0.76,0-1.422-0.14-1.985-0.418c-0.564-0.278-1.033-0.652-1.406-1.121s-0.655-1.014-0.845-1.634
			c-0.19-0.62-0.285-1.279-0.285-1.976c0-0.697,0.092-1.355,0.275-1.977s0.462-1.162,0.836-1.625
			c0.374-0.462,0.842-0.829,1.406-1.102c0.563-0.271,1.219-0.408,1.966-0.408c0.253,0,0.525,0.025,0.817,0.076
			s0.583,0.136,0.874,0.256c0.292,0.121,0.567,0.279,0.827,0.475c0.259,0.197,0.478,0.441,0.655,0.732h0.038v-5.055h1.615v13.566
			H269.518z M263.714,28.929c0.12,0.438,0.304,0.826,0.551,1.168s0.563,0.615,0.95,0.817c0.386,0.202,0.839,0.304,1.358,0.304
			c0.544,0,1.007-0.107,1.387-0.322c0.38-0.216,0.69-0.498,0.931-0.846c0.241-0.349,0.415-0.744,0.522-1.188
			c0.107-0.443,0.162-0.893,0.162-1.35c0-0.48-0.057-0.946-0.171-1.396c-0.114-0.449-0.294-0.846-0.542-1.188
			s-0.567-0.617-0.959-0.826c-0.393-0.209-0.868-0.313-1.425-0.313c-0.544,0-1.007,0.108-1.387,0.323
			c-0.38,0.215-0.684,0.5-0.912,0.854s-0.393,0.761-0.494,1.216c-0.102,0.457-0.152,0.926-0.152,1.406
			C263.533,28.045,263.593,28.491,263.714,28.929z"/>
		<path fill="#398740" d="M273.716,20.825v-1.977h1.615v1.977H273.716z M275.332,22.592v9.823h-1.615v-9.823H275.332z"/>
		<path fill="#398740" d="M279.359,22.592v1.558h0.039c0.671-1.189,1.734-1.785,3.191-1.785c0.646,0,1.185,0.088,1.615,0.266
			c0.43,0.178,0.779,0.425,1.045,0.741c0.266,0.317,0.453,0.693,0.561,1.13c0.107,0.438,0.162,0.922,0.162,1.454v6.46h-1.615v-6.65
			c0-0.607-0.178-1.089-0.532-1.443s-0.843-0.532-1.464-0.532c-0.493,0-0.921,0.076-1.281,0.228
			c-0.361,0.152-0.662,0.368-0.902,0.646c-0.242,0.279-0.422,0.605-0.542,0.979s-0.181,0.782-0.181,1.226v5.548h-1.615v-9.823
			H279.359z"/>
		<path fill="#398740" d="M295.775,35.188c-0.734,0.799-1.887,1.197-3.457,1.197c-0.457,0-0.922-0.051-1.396-0.152
			c-0.476-0.102-0.906-0.266-1.293-0.493c-0.386-0.228-0.705-0.526-0.959-0.894s-0.393-0.816-0.418-1.349h1.615
			c0.012,0.291,0.104,0.538,0.275,0.741c0.171,0.202,0.38,0.367,0.627,0.494c0.247,0.126,0.516,0.219,0.808,0.275
			c0.291,0.057,0.569,0.086,0.836,0.086c0.532,0,0.981-0.093,1.349-0.276s0.672-0.437,0.912-0.76s0.415-0.712,0.522-1.169
			c0.108-0.455,0.161-0.956,0.161-1.5v-0.646h-0.037c-0.279,0.607-0.7,1.055-1.264,1.34c-0.564,0.285-1.162,0.428-1.795,0.428
			c-0.735,0-1.375-0.134-1.92-0.4c-0.545-0.266-1-0.623-1.367-1.072c-0.368-0.45-0.644-0.976-0.827-1.578
			c-0.184-0.602-0.275-1.237-0.275-1.908c0-0.583,0.075-1.182,0.228-1.797c0.152-0.613,0.406-1.171,0.76-1.672
			c0.355-0.5,0.824-0.912,1.406-1.234c0.583-0.323,1.299-0.484,2.147-0.484c0.62,0,1.19,0.137,1.71,0.408
			c0.52,0.272,0.924,0.682,1.216,1.226h0.019v-1.406h1.521v8.987C296.877,33.188,296.509,34.392,295.775,35.188z M293.714,30.771
			c0.373-0.222,0.674-0.513,0.902-0.874s0.396-0.77,0.504-1.226c0.107-0.456,0.161-0.911,0.161-1.368
			c0-0.43-0.051-0.854-0.152-1.272s-0.263-0.795-0.484-1.131c-0.222-0.335-0.511-0.604-0.864-0.808
			c-0.355-0.202-0.785-0.304-1.293-0.304c-0.52,0-0.962,0.099-1.329,0.294c-0.368,0.197-0.669,0.46-0.903,0.789
			c-0.234,0.33-0.404,0.709-0.512,1.141c-0.108,0.43-0.162,0.88-0.162,1.348c0,0.444,0.045,0.888,0.133,1.33
			c0.088,0.444,0.24,0.846,0.456,1.207s0.501,0.652,0.854,0.874c0.355,0.222,0.799,0.333,1.33,0.333
			C292.888,31.104,293.34,30.993,293.714,30.771z"/>
		<path fill="#398740" d="M313.769,18.849v1.521h-7.106v4.313h6.231v1.52h-6.231v6.213h-1.806V18.849H313.769z"/>
		<path fill="#398740" d="M317.207,18.849v13.566h-1.615V18.849H317.207z"/>
		<path fill="#398740" d="M327.257,32.624c-0.418,0-0.75-0.117-0.996-0.352c-0.248-0.234-0.371-0.617-0.371-1.149
			c-0.443,0.532-0.959,0.915-1.549,1.149s-1.225,0.352-1.91,0.352c-0.443,0-0.861-0.047-1.254-0.143
			c-0.393-0.095-0.738-0.253-1.035-0.475s-0.531-0.507-0.703-0.855c-0.17-0.348-0.256-0.77-0.256-1.264
			c0-0.557,0.094-1.013,0.285-1.367c0.189-0.355,0.439-0.643,0.75-0.865c0.311-0.221,0.664-0.389,1.064-0.504
			c0.398-0.113,0.807-0.209,1.225-0.284c0.443-0.089,0.865-0.155,1.264-0.2c0.398-0.043,0.75-0.107,1.055-0.189
			s0.545-0.203,0.723-0.361c0.176-0.158,0.266-0.389,0.266-0.693c0-0.354-0.066-0.639-0.199-0.855
			c-0.133-0.215-0.305-0.379-0.514-0.493s-0.443-0.19-0.703-0.228c-0.26-0.039-0.516-0.058-0.77-0.058
			c-0.684,0-1.254,0.13-1.709,0.39c-0.457,0.26-0.703,0.75-0.742,1.473h-1.615c0.025-0.608,0.152-1.121,0.381-1.539
			s0.531-0.757,0.912-1.017c0.379-0.26,0.816-0.446,1.311-0.561s1.014-0.171,1.559-0.171c0.443,0,0.883,0.031,1.32,0.095
			s0.832,0.193,1.188,0.39c0.354,0.196,0.639,0.473,0.855,0.826c0.215,0.355,0.322,0.817,0.322,1.387v5.055
			c0,0.38,0.021,0.658,0.066,0.836s0.193,0.266,0.447,0.266c0.139,0,0.303-0.031,0.494-0.095v1.254
			C328.138,32.542,327.751,32.624,327.257,32.624z M324.998,27.675c-0.33,0.069-0.676,0.127-1.037,0.171
			c-0.359,0.044-0.725,0.095-1.092,0.151c-0.367,0.058-0.697,0.149-0.988,0.275c-0.291,0.127-0.529,0.308-0.713,0.542
			s-0.275,0.554-0.275,0.96c0,0.266,0.055,0.49,0.162,0.674s0.248,0.333,0.418,0.447c0.172,0.113,0.373,0.196,0.607,0.246
			c0.234,0.051,0.473,0.076,0.713,0.076c0.533,0,0.988-0.072,1.369-0.219c0.379-0.145,0.689-0.328,0.93-0.551
			c0.24-0.221,0.418-0.462,0.533-0.722c0.113-0.259,0.17-0.503,0.17-0.731v-1.653C325.591,27.494,325.326,27.604,324.998,27.675z"/>
		<path fill="#398740" d="M331.437,22.592v1.444h0.039c0.734-1.115,1.791-1.672,3.172-1.672c0.609,0,1.16,0.127,1.654,0.38
			s0.842,0.685,1.045,1.292c0.328-0.532,0.762-0.943,1.301-1.234c0.539-0.292,1.131-0.438,1.777-0.438
			c0.492,0,0.939,0.054,1.338,0.161c0.4,0.108,0.742,0.276,1.027,0.503c0.285,0.229,0.506,0.523,0.664,0.885
			c0.158,0.36,0.238,0.795,0.238,1.301v7.201h-1.615v-6.441c0-0.304-0.025-0.588-0.076-0.854s-0.146-0.497-0.285-0.693
			s-0.332-0.352-0.58-0.466c-0.246-0.113-0.566-0.171-0.959-0.171c-0.797,0-1.426,0.228-1.881,0.685
			c-0.455,0.455-0.684,1.063-0.684,1.823v6.118h-1.615v-6.441c0-0.316-0.029-0.607-0.086-0.873
			c-0.057-0.267-0.154-0.498-0.295-0.693c-0.139-0.197-0.326-0.35-0.561-0.457s-0.535-0.161-0.902-0.161
			c-0.469,0-0.871,0.095-1.205,0.285c-0.336,0.19-0.609,0.418-0.818,0.684c-0.209,0.267-0.361,0.542-0.455,0.827
			c-0.096,0.285-0.143,0.521-0.143,0.712v6.118h-1.615v-9.823H331.437z"/>
		<path fill="#398740" d="M353.078,31.788c-0.734,0.558-1.658,0.836-2.773,0.836c-0.785,0-1.467-0.127-2.043-0.38
			s-1.061-0.608-1.453-1.063c-0.393-0.457-0.688-1.001-0.883-1.635c-0.197-0.633-0.307-1.323-0.332-2.07
			c0-0.748,0.113-1.432,0.342-2.053c0.227-0.62,0.547-1.158,0.959-1.615c0.412-0.455,0.898-0.811,1.463-1.063s1.182-0.38,1.852-0.38
			c0.875,0,1.6,0.18,2.176,0.541s1.039,0.82,1.387,1.378c0.35,0.558,0.59,1.165,0.723,1.823c0.133,0.659,0.188,1.286,0.162,1.882
			h-7.354c-0.012,0.431,0.039,0.839,0.152,1.226s0.297,0.729,0.551,1.025c0.254,0.298,0.576,0.535,0.969,0.713
			s0.855,0.266,1.387,0.266c0.686,0,1.244-0.158,1.682-0.475s0.725-0.799,0.865-1.444h1.596
			C354.289,30.401,353.812,31.231,353.078,31.788z M352.689,25.479c-0.146-0.342-0.342-0.636-0.59-0.883
			c-0.246-0.247-0.537-0.443-0.873-0.59c-0.336-0.145-0.707-0.218-1.111-0.218c-0.418,0-0.795,0.073-1.131,0.218
			c-0.336,0.146-0.623,0.346-0.865,0.6c-0.24,0.253-0.43,0.548-0.568,0.883c-0.141,0.336-0.223,0.693-0.248,1.074h5.643
			C352.919,26.183,352.833,25.822,352.689,25.479z"/>
		<path fill="#398740" d="M368.259,18.849c1.293,0,2.303,0.317,3.031,0.95c0.727,0.634,1.092,1.501,1.092,2.603
			c0,0.824-0.188,1.547-0.561,2.166c-0.373,0.621-0.973,1.046-1.795,1.273v0.038c0.393,0.076,0.713,0.203,0.959,0.38
			c0.246,0.178,0.443,0.39,0.59,0.637c0.145,0.247,0.252,0.522,0.322,0.826c0.068,0.305,0.123,0.621,0.162,0.95
			c0.025,0.329,0.043,0.665,0.057,1.007c0.012,0.342,0.043,0.678,0.094,1.008c0.051,0.329,0.125,0.643,0.219,0.939
			c0.096,0.299,0.238,0.561,0.428,0.789h-2.014c-0.127-0.139-0.213-0.329-0.256-0.57c-0.045-0.24-0.074-0.51-0.086-0.807
			c-0.014-0.298-0.025-0.618-0.039-0.96c-0.012-0.343-0.051-0.678-0.113-1.007c-0.051-0.33-0.113-0.643-0.189-0.941
			c-0.076-0.297-0.197-0.557-0.361-0.778s-0.381-0.399-0.646-0.532s-0.621-0.199-1.064-0.199h-4.406v5.795h-1.807V18.849H368.259z
			 M368.64,25.005c0.379-0.062,0.711-0.187,0.996-0.37s0.514-0.431,0.686-0.741c0.17-0.311,0.256-0.713,0.256-1.207
			c0-0.684-0.189-1.24-0.57-1.672c-0.381-0.43-0.994-0.646-1.844-0.646h-4.482v4.731h3.762
			C367.861,25.101,368.259,25.068,368.64,25.005z"/>
		<path fill="#398740" d="M381.578,31.788c-0.734,0.558-1.658,0.836-2.773,0.836c-0.785,0-1.467-0.127-2.043-0.38
			s-1.061-0.608-1.453-1.063c-0.393-0.457-0.688-1.001-0.883-1.635c-0.197-0.633-0.307-1.323-0.332-2.07
			c0-0.748,0.113-1.432,0.342-2.053c0.227-0.62,0.547-1.158,0.959-1.615c0.412-0.455,0.898-0.811,1.463-1.063s1.182-0.38,1.852-0.38
			c0.875,0,1.6,0.18,2.176,0.541s1.039,0.82,1.387,1.378c0.35,0.558,0.59,1.165,0.723,1.823c0.133,0.659,0.188,1.286,0.162,1.882
			h-7.354c-0.012,0.431,0.039,0.839,0.152,1.226s0.297,0.729,0.551,1.025c0.254,0.298,0.576,0.535,0.969,0.713
			s0.855,0.266,1.387,0.266c0.686,0,1.244-0.158,1.682-0.475s0.725-0.799,0.865-1.444h1.596
			C382.789,30.401,382.312,31.231,381.578,31.788z M381.189,25.479c-0.146-0.342-0.342-0.636-0.59-0.883
			c-0.246-0.247-0.537-0.443-0.873-0.59c-0.336-0.145-0.707-0.218-1.111-0.218c-0.418,0-0.795,0.073-1.131,0.218
			c-0.336,0.146-0.623,0.346-0.865,0.6c-0.24,0.253-0.43,0.548-0.568,0.883c-0.141,0.336-0.223,0.693-0.248,1.074h5.643
			C381.419,26.183,381.333,25.822,381.189,25.479z"/>
		<path fill="#398740" d="M389.027,22.592v1.425h-1.957v6.1c0,0.189,0.016,0.342,0.047,0.456s0.092,0.202,0.18,0.266
			c0.09,0.063,0.213,0.104,0.371,0.124c0.158,0.019,0.363,0.028,0.617,0.028h0.742v1.425h-1.236c-0.418,0-0.775-0.028-1.072-0.086
			c-0.299-0.057-0.539-0.161-0.723-0.312c-0.184-0.152-0.32-0.367-0.408-0.646c-0.09-0.278-0.133-0.646-0.133-1.102v-6.252h-1.672
			v-1.425h1.672v-2.944h1.615v2.944H389.027z"/>
		<path fill="#398740" d="M398.355,32.624c-0.418,0-0.75-0.117-0.998-0.352c-0.246-0.234-0.369-0.617-0.369-1.149
			c-0.445,0.532-0.961,0.915-1.549,1.149c-0.59,0.234-1.227,0.352-1.91,0.352c-0.443,0-0.861-0.047-1.254-0.143
			c-0.393-0.095-0.738-0.253-1.035-0.475c-0.299-0.222-0.533-0.507-0.703-0.855c-0.172-0.348-0.256-0.77-0.256-1.264
			c0-0.557,0.094-1.013,0.285-1.367c0.189-0.355,0.439-0.643,0.75-0.865c0.311-0.221,0.664-0.389,1.064-0.504
			c0.398-0.113,0.807-0.209,1.225-0.284c0.443-0.089,0.865-0.155,1.264-0.2c0.398-0.043,0.75-0.107,1.055-0.189
			c0.303-0.082,0.545-0.203,0.721-0.361c0.178-0.158,0.268-0.389,0.268-0.693c0-0.354-0.066-0.639-0.199-0.855
			c-0.135-0.215-0.305-0.379-0.514-0.493s-0.443-0.19-0.703-0.228c-0.26-0.039-0.516-0.058-0.77-0.058
			c-0.684,0-1.254,0.13-1.711,0.39c-0.455,0.26-0.703,0.75-0.74,1.473h-1.615c0.025-0.608,0.152-1.121,0.381-1.539
			c0.227-0.418,0.531-0.757,0.912-1.017c0.379-0.26,0.816-0.446,1.311-0.561s1.014-0.171,1.559-0.171
			c0.443,0,0.883,0.031,1.32,0.095c0.436,0.063,0.832,0.193,1.188,0.39c0.354,0.196,0.639,0.473,0.854,0.826
			c0.217,0.355,0.324,0.817,0.324,1.387v5.055c0,0.38,0.021,0.658,0.066,0.836s0.193,0.266,0.445,0.266
			c0.141,0,0.305-0.031,0.494-0.095v1.254C399.236,32.542,398.849,32.624,398.355,32.624z M396.093,27.675
			c-0.328,0.069-0.674,0.127-1.035,0.171s-0.725,0.095-1.092,0.151c-0.367,0.058-0.697,0.149-0.988,0.275
			c-0.291,0.127-0.529,0.308-0.713,0.542s-0.275,0.554-0.275,0.96c0,0.266,0.055,0.49,0.162,0.674s0.246,0.333,0.418,0.447
			c0.17,0.113,0.373,0.196,0.607,0.246c0.234,0.051,0.473,0.076,0.713,0.076c0.531,0,0.988-0.072,1.367-0.219
			c0.381-0.145,0.691-0.328,0.932-0.551c0.24-0.221,0.418-0.462,0.531-0.722c0.115-0.259,0.172-0.503,0.172-0.731v-1.653
			C396.689,27.494,396.423,27.604,396.093,27.675z"/>
		<path fill="#398740" d="M402.478,22.592v2.071h0.037c0.393-0.798,0.875-1.387,1.445-1.768c0.568-0.379,1.291-0.557,2.166-0.531
			v1.71c-0.646,0-1.197,0.089-1.654,0.266c-0.455,0.178-0.822,0.437-1.102,0.779c-0.279,0.342-0.482,0.757-0.607,1.245
			c-0.127,0.486-0.191,1.047-0.191,1.681v4.37h-1.613v-9.823H402.478z"/>
		<path fill="#398740" d="M414.162,32.415v-1.33h-0.037c-0.266,0.545-0.684,0.938-1.254,1.178s-1.197,0.361-1.881,0.361
			c-0.76,0-1.422-0.14-1.986-0.418c-0.562-0.278-1.031-0.652-1.406-1.121c-0.373-0.469-0.654-1.014-0.844-1.634
			c-0.191-0.62-0.285-1.279-0.285-1.976c0-0.697,0.092-1.355,0.275-1.977s0.461-1.162,0.836-1.625
			c0.373-0.462,0.842-0.829,1.406-1.102c0.562-0.271,1.219-0.408,1.965-0.408c0.254,0,0.525,0.025,0.818,0.076
			c0.291,0.051,0.582,0.136,0.873,0.256c0.291,0.121,0.566,0.279,0.826,0.475c0.26,0.197,0.479,0.441,0.656,0.732h0.037v-5.055
			h1.615v13.566H414.162z M408.359,28.929c0.119,0.438,0.303,0.826,0.551,1.168c0.246,0.342,0.562,0.615,0.949,0.817
			s0.84,0.304,1.359,0.304c0.543,0,1.006-0.107,1.387-0.322c0.379-0.216,0.689-0.498,0.93-0.846
			c0.242-0.349,0.416-0.744,0.523-1.188s0.162-0.893,0.162-1.35c0-0.48-0.059-0.946-0.172-1.396
			c-0.113-0.449-0.295-0.846-0.541-1.188c-0.248-0.342-0.568-0.617-0.959-0.826c-0.395-0.209-0.869-0.313-1.426-0.313
			c-0.545,0-1.008,0.108-1.387,0.323c-0.381,0.215-0.684,0.5-0.912,0.854s-0.393,0.761-0.494,1.216
			c-0.102,0.457-0.152,0.926-0.152,1.406C408.177,28.045,408.238,28.491,408.359,28.929z"/>
		<path fill="#398740" d="M425.808,32.624c-0.418,0-0.75-0.117-0.996-0.352c-0.248-0.234-0.371-0.617-0.371-1.149
			c-0.443,0.532-0.959,0.915-1.549,1.149c-0.588,0.234-1.225,0.352-1.908,0.352c-0.445,0-0.863-0.047-1.254-0.143
			c-0.395-0.095-0.738-0.253-1.037-0.475c-0.297-0.222-0.531-0.507-0.703-0.855c-0.17-0.348-0.256-0.77-0.256-1.264
			c0-0.557,0.096-1.013,0.285-1.367c0.189-0.355,0.439-0.643,0.75-0.865c0.311-0.221,0.666-0.389,1.064-0.504
			c0.398-0.113,0.807-0.209,1.225-0.284c0.443-0.089,0.865-0.155,1.264-0.2c0.4-0.043,0.752-0.107,1.055-0.189
			c0.305-0.082,0.545-0.203,0.723-0.361s0.266-0.389,0.266-0.693c0-0.354-0.066-0.639-0.199-0.855
			c-0.133-0.215-0.305-0.379-0.514-0.493s-0.443-0.19-0.703-0.228c-0.26-0.039-0.516-0.058-0.77-0.058
			c-0.684,0-1.254,0.13-1.709,0.39c-0.457,0.26-0.703,0.75-0.74,1.473h-1.615c0.025-0.608,0.15-1.121,0.379-1.539
			s0.533-0.757,0.912-1.017c0.381-0.26,0.816-0.446,1.311-0.561s1.014-0.171,1.559-0.171c0.443,0,0.883,0.031,1.32,0.095
			s0.834,0.193,1.188,0.39c0.355,0.196,0.641,0.473,0.855,0.826c0.215,0.355,0.322,0.817,0.322,1.387v5.055
			c0,0.38,0.023,0.658,0.066,0.836c0.045,0.178,0.193,0.266,0.447,0.266c0.139,0,0.305-0.031,0.494-0.095v1.254
			C426.689,32.542,426.302,32.624,425.808,32.624z M423.548,27.675c-0.33,0.069-0.674,0.127-1.035,0.171s-0.727,0.095-1.094,0.151
			c-0.367,0.058-0.695,0.149-0.988,0.275c-0.291,0.127-0.527,0.308-0.711,0.542s-0.275,0.554-0.275,0.96
			c0,0.266,0.053,0.49,0.16,0.674s0.248,0.333,0.418,0.447c0.172,0.113,0.375,0.196,0.609,0.246
			c0.234,0.051,0.471,0.076,0.711,0.076c0.533,0,0.988-0.072,1.369-0.219c0.379-0.145,0.689-0.328,0.93-0.551
			c0.242-0.221,0.42-0.462,0.533-0.722c0.113-0.259,0.17-0.503,0.17-0.731v-1.653C424.144,27.494,423.876,27.604,423.548,27.675z"/>
		<path fill="#398740" d="M429.988,22.592v1.558h0.039c0.672-1.189,1.734-1.785,3.191-1.785c0.646,0,1.186,0.088,1.615,0.266
			s0.779,0.425,1.045,0.741c0.266,0.317,0.453,0.693,0.561,1.13c0.107,0.438,0.162,0.922,0.162,1.454v6.46h-1.615v-6.65
			c0-0.607-0.178-1.089-0.531-1.443c-0.355-0.354-0.844-0.532-1.465-0.532c-0.492,0-0.92,0.076-1.281,0.228
			c-0.361,0.152-0.662,0.368-0.902,0.646c-0.242,0.279-0.422,0.605-0.541,0.979c-0.121,0.373-0.182,0.782-0.182,1.226v5.548h-1.615
			v-9.823H429.988z"/>
		<path fill="#398740" d="M443.232,22.592v1.425h-1.957v6.1c0,0.189,0.016,0.342,0.047,0.456s0.092,0.202,0.182,0.266
			c0.088,0.063,0.211,0.104,0.369,0.124c0.158,0.019,0.365,0.028,0.617,0.028h0.742v1.425h-1.234c-0.418,0-0.777-0.028-1.074-0.086
			c-0.299-0.057-0.539-0.161-0.723-0.312c-0.184-0.152-0.32-0.367-0.408-0.646c-0.088-0.278-0.133-0.646-0.133-1.102v-6.252h-1.672
			v-1.425h1.672v-2.944h1.615v2.944H443.232z"/>
		<path fill="#398740" d="M449.123,20.369v-1.521h10.848v1.521h-4.521v12.046h-1.805V20.369H449.123z"/>
		<path fill="#398740" d="M466.05,31.788c-0.734,0.558-1.66,0.836-2.773,0.836c-0.785,0-1.467-0.127-2.043-0.38
			s-1.061-0.608-1.453-1.063c-0.393-0.457-0.688-1.001-0.883-1.635c-0.197-0.633-0.309-1.323-0.334-2.07
			c0-0.748,0.115-1.432,0.342-2.053c0.229-0.62,0.549-1.158,0.961-1.615c0.41-0.455,0.898-0.811,1.463-1.063
			c0.562-0.253,1.18-0.38,1.852-0.38c0.875,0,1.6,0.18,2.176,0.541s1.039,0.82,1.387,1.378c0.35,0.558,0.59,1.165,0.723,1.823
			c0.133,0.659,0.188,1.286,0.162,1.882h-7.354c-0.014,0.431,0.037,0.839,0.152,1.226c0.113,0.387,0.297,0.729,0.551,1.025
			c0.252,0.298,0.576,0.535,0.969,0.713s0.855,0.266,1.387,0.266c0.684,0,1.244-0.158,1.682-0.475s0.725-0.799,0.865-1.444h1.596
			C467.259,30.401,466.785,31.231,466.05,31.788z M465.662,25.479c-0.146-0.342-0.342-0.636-0.59-0.883
			c-0.246-0.247-0.539-0.443-0.873-0.59c-0.336-0.145-0.707-0.218-1.111-0.218c-0.418,0-0.795,0.073-1.131,0.218
			c-0.336,0.146-0.625,0.346-0.865,0.6c-0.24,0.253-0.43,0.548-0.57,0.883c-0.139,0.336-0.221,0.693-0.246,1.074h5.643
			C465.892,26.183,465.806,25.822,465.662,25.479z"/>
		<path fill="#398740" d="M475.169,24.302c-0.404-0.342-0.949-0.513-1.633-0.513c-0.584,0-1.07,0.108-1.463,0.323
			s-0.707,0.5-0.941,0.854s-0.402,0.764-0.504,1.226c-0.102,0.463-0.15,0.94-0.15,1.435c0,0.456,0.053,0.899,0.16,1.33
			s0.275,0.813,0.504,1.149s0.525,0.605,0.893,0.808s0.805,0.304,1.312,0.304c0.797,0,1.42-0.209,1.871-0.627
			c0.449-0.418,0.725-1.007,0.826-1.767h1.652c-0.178,1.216-0.629,2.153-1.357,2.812c-0.729,0.659-1.721,0.988-2.975,0.988
			c-0.746,0-1.408-0.121-1.984-0.361c-0.578-0.24-1.059-0.582-1.445-1.025s-0.678-0.973-0.873-1.587
			c-0.197-0.614-0.295-1.288-0.295-2.023c0-0.734,0.096-1.422,0.285-2.062c0.189-0.639,0.479-1.197,0.865-1.672
			c0.385-0.475,0.869-0.849,1.453-1.121c0.582-0.271,1.26-0.408,2.033-0.408c0.557,0,1.08,0.066,1.566,0.199
			c0.488,0.133,0.918,0.339,1.293,0.617c0.373,0.279,0.68,0.631,0.922,1.055c0.24,0.425,0.393,0.928,0.455,1.511h-1.672
			C475.841,25.126,475.576,24.644,475.169,24.302z"/>
		<path fill="#398740" d="M481.117,18.849v5.188h0.039c0.125-0.305,0.303-0.561,0.531-0.77s0.484-0.38,0.77-0.514
			c0.285-0.133,0.582-0.23,0.893-0.294s0.611-0.095,0.902-0.095c0.646,0,1.186,0.088,1.615,0.266s0.779,0.425,1.045,0.741
			c0.266,0.317,0.453,0.693,0.561,1.13c0.107,0.438,0.162,0.922,0.162,1.454v6.46h-1.615v-6.65c0-0.607-0.178-1.089-0.531-1.443
			c-0.355-0.354-0.844-0.532-1.465-0.532c-0.492,0-0.92,0.076-1.281,0.228c-0.361,0.152-0.662,0.368-0.902,0.646
			c-0.242,0.279-0.422,0.605-0.541,0.979c-0.121,0.373-0.182,0.782-0.182,1.226v5.548h-1.615V18.849H481.117z"/>
		<path fill="#398740" d="M491.585,22.592v1.558h0.039c0.67-1.189,1.734-1.785,3.191-1.785c0.646,0,1.184,0.088,1.615,0.266
			c0.43,0.178,0.779,0.425,1.045,0.741c0.266,0.317,0.453,0.693,0.561,1.13c0.107,0.438,0.162,0.922,0.162,1.454v6.46h-1.615v-6.65
			c0-0.607-0.178-1.089-0.533-1.443c-0.354-0.354-0.842-0.532-1.463-0.532c-0.494,0-0.922,0.076-1.281,0.228
			c-0.361,0.152-0.662,0.368-0.902,0.646c-0.242,0.279-0.422,0.605-0.543,0.979c-0.119,0.373-0.18,0.782-0.18,1.226v5.548h-1.615
			v-9.823H491.585z"/>
		<path fill="#398740" d="M500.402,25.489c0.203-0.627,0.506-1.172,0.912-1.634c0.404-0.462,0.906-0.827,1.5-1.093
			c0.596-0.266,1.279-0.398,2.053-0.398c0.785,0,1.473,0.133,2.062,0.398c0.588,0.266,1.086,0.631,1.49,1.093
			c0.406,0.462,0.709,1.007,0.912,1.634s0.305,1.302,0.305,2.023c0,0.723-0.102,1.395-0.305,2.014
			c-0.203,0.621-0.506,1.163-0.912,1.625c-0.404,0.463-0.902,0.824-1.49,1.083c-0.59,0.26-1.277,0.39-2.062,0.39
			c-0.773,0-1.457-0.13-2.053-0.39c-0.594-0.259-1.096-0.62-1.5-1.083c-0.406-0.462-0.709-1.004-0.912-1.625
			c-0.203-0.619-0.305-1.291-0.305-2.014C500.097,26.791,500.199,26.116,500.402,25.489z M502.044,29.1
			c0.158,0.462,0.377,0.849,0.656,1.159s0.605,0.548,0.979,0.713c0.373,0.164,0.77,0.246,1.188,0.246s0.814-0.082,1.188-0.246
			c0.373-0.165,0.699-0.402,0.979-0.713s0.498-0.697,0.656-1.159s0.236-0.991,0.236-1.587c0-0.595-0.078-1.123-0.236-1.586
			s-0.377-0.852-0.656-1.169c-0.279-0.316-0.605-0.558-0.979-0.722s-0.77-0.247-1.188-0.247s-0.814,0.083-1.188,0.247
			s-0.699,0.405-0.979,0.722c-0.279,0.317-0.498,0.706-0.656,1.169s-0.236,0.991-0.236,1.586
			C501.808,28.108,501.886,28.638,502.044,29.1z"/>
		<path fill="#398740" d="M513.246,18.849v13.566h-1.615V18.849H513.246z"/>
		<path fill="#398740" d="M515.525,25.489c0.203-0.627,0.508-1.172,0.912-1.634c0.406-0.462,0.906-0.827,1.502-1.093
			c0.594-0.266,1.279-0.398,2.051-0.398c0.785,0,1.473,0.133,2.062,0.398c0.588,0.266,1.086,0.631,1.49,1.093
			c0.406,0.462,0.711,1.007,0.912,1.634c0.203,0.627,0.305,1.302,0.305,2.023c0,0.723-0.102,1.395-0.305,2.014
			c-0.201,0.621-0.506,1.163-0.912,1.625c-0.404,0.463-0.902,0.824-1.49,1.083c-0.59,0.26-1.277,0.39-2.062,0.39
			c-0.771,0-1.457-0.13-2.051-0.39c-0.596-0.259-1.096-0.62-1.502-1.083c-0.404-0.462-0.709-1.004-0.912-1.625
			c-0.203-0.619-0.303-1.291-0.303-2.014C515.222,26.791,515.322,26.116,515.525,25.489z M517.169,29.1
			c0.158,0.462,0.377,0.849,0.654,1.159c0.279,0.311,0.605,0.548,0.979,0.713c0.375,0.164,0.77,0.246,1.188,0.246
			s0.814-0.082,1.188-0.246c0.375-0.165,0.701-0.402,0.979-0.713c0.279-0.311,0.498-0.697,0.656-1.159s0.238-0.991,0.238-1.587
			c0-0.595-0.08-1.123-0.238-1.586s-0.377-0.852-0.656-1.169c-0.277-0.316-0.604-0.558-0.979-0.722
			c-0.373-0.164-0.77-0.247-1.188-0.247s-0.812,0.083-1.188,0.247c-0.373,0.164-0.699,0.405-0.979,0.722
			c-0.277,0.317-0.496,0.706-0.654,1.169s-0.238,0.991-0.238,1.586C516.931,28.108,517.011,28.638,517.169,29.1z"/>
		<path fill="#398740" d="M534.031,35.188c-0.734,0.799-1.887,1.197-3.457,1.197c-0.457,0-0.922-0.051-1.396-0.152
			c-0.477-0.102-0.906-0.266-1.293-0.493s-0.705-0.526-0.959-0.894s-0.393-0.816-0.418-1.349h1.615
			c0.012,0.291,0.104,0.538,0.275,0.741c0.17,0.202,0.379,0.367,0.627,0.494c0.246,0.126,0.516,0.219,0.807,0.275
			s0.57,0.086,0.836,0.086c0.533,0,0.982-0.093,1.35-0.276s0.672-0.437,0.912-0.76s0.414-0.712,0.521-1.169
			c0.109-0.455,0.162-0.956,0.162-1.5v-0.646h-0.037c-0.279,0.607-0.701,1.055-1.264,1.34c-0.564,0.285-1.162,0.428-1.795,0.428
			c-0.736,0-1.375-0.134-1.92-0.4c-0.545-0.266-1-0.623-1.367-1.072c-0.369-0.45-0.645-0.976-0.828-1.578
			c-0.184-0.602-0.275-1.237-0.275-1.908c0-0.583,0.076-1.182,0.229-1.797c0.152-0.613,0.406-1.171,0.76-1.672
			c0.355-0.5,0.824-0.912,1.406-1.234c0.582-0.323,1.299-0.484,2.146-0.484c0.621,0,1.191,0.137,1.711,0.408
			c0.52,0.272,0.924,0.682,1.215,1.226h0.02v-1.406h1.52v8.987C535.132,33.188,534.765,34.392,534.031,35.188z M531.97,30.771
			c0.373-0.222,0.674-0.513,0.902-0.874s0.395-0.77,0.504-1.226c0.107-0.456,0.16-0.911,0.16-1.368c0-0.43-0.051-0.854-0.152-1.272
			s-0.262-0.795-0.484-1.131c-0.221-0.335-0.51-0.604-0.863-0.808c-0.355-0.202-0.785-0.304-1.293-0.304
			c-0.52,0-0.963,0.099-1.33,0.294c-0.367,0.197-0.668,0.46-0.902,0.789c-0.234,0.33-0.404,0.709-0.512,1.141
			c-0.109,0.43-0.162,0.88-0.162,1.348c0,0.444,0.045,0.888,0.133,1.33c0.088,0.444,0.24,0.846,0.455,1.207
			c0.217,0.361,0.502,0.652,0.855,0.874c0.355,0.222,0.799,0.333,1.33,0.333C531.144,31.104,531.595,30.993,531.97,30.771z"/>
		<path fill="#398740" d="M540.861,34.923c-0.184,0.33-0.387,0.599-0.607,0.808c-0.223,0.209-0.465,0.36-0.732,0.456
			c-0.266,0.096-0.582,0.143-0.949,0.143c-0.189,0-0.381-0.013-0.57-0.038s-0.373-0.069-0.551-0.133v-1.481
			c0.152,0.05,0.307,0.101,0.465,0.151c0.158,0.05,0.32,0.075,0.484,0.075c0.33,0,0.596-0.075,0.799-0.227
			c0.203-0.152,0.381-0.375,0.531-0.666l0.666-1.652l-3.895-9.767h1.824l2.869,8.037h0.037l2.756-8.037h1.709l-4.275,11.115
			C541.232,34.188,541.044,34.594,540.861,34.923z"/>
	</g>
</g>
</svg>
