<?xml version="1.0" encoding="utf-8"?>
<!-- Generator: Adobe Illustrator 16.0.0, SVG Export Plug-In . SVG Version: 6.00 Build 0)  -->
<!DOCTYPE svg PUBLIC "-//W3C//DTD SVG 1.1//EN" "http://www.w3.org/Graphics/SVG/1.1/DTD/svg11.dtd">
<svg version="1.1" id="Layer_1" xmlns="http://www.w3.org/2000/svg" xmlns:xlink="http://www.w3.org/1999/xlink" x="0px" y="0px"
	 width="546.755px" height="33.873px" viewBox="0 0 546.755 33.873" enable-background="new 0 0 546.755 33.873"
	 xml:space="preserve">
<g>
	<g>
		<path fill="#589C3F" d="M9.647,5.623c1.44,0,2.783,0.23,4.025,0.688c1.242,0.46,2.317,1.149,3.226,2.068
			c0.909,0.918,1.618,2.066,2.131,3.445c0.511,1.378,0.768,2.996,0.768,4.854c0,1.629-0.21,3.133-0.627,4.511
			c-0.418,1.379-1.049,2.569-1.895,3.571s-1.901,1.791-3.164,2.365c-1.264,0.574-2.751,0.86-4.464,0.86H0V5.623H9.647z
			 M9.304,23.853c0.709,0,1.398-0.114,2.067-0.345c0.668-0.229,1.263-0.61,1.785-1.143c0.521-0.532,0.939-1.227,1.252-2.083
			c0.313-0.855,0.471-1.9,0.471-3.132c0-1.128-0.109-2.146-0.329-3.055s-0.579-1.686-1.081-2.334
			c-0.5-0.646-1.164-1.143-1.989-1.487C10.655,9.93,9.637,9.758,8.426,9.758H4.918v14.095H9.304z"/>
		<path fill="#589C3F" d="M39.311,5.623v4.135H27.502v4.792H38.34v3.821H27.502v5.481h12.06v4.135H22.584V5.623H39.311z"/>
		<path fill="#589C3F" d="M57.979,5.623v4.135H47.173v5.168h9.366v3.822h-9.366v9.239h-4.918V5.623H57.979z"/>
		<path fill="#589C3F" d="M65.121,5.623v18.229h10.9v4.135H60.203V5.623H65.121z"/>
		<path fill="#589C3F" d="M85.543,5.623l8.363,22.364H88.8l-1.69-4.98h-8.364l-1.754,4.98h-4.949L80.5,5.623H85.543z M85.824,19.342
			l-2.818-8.206h-0.063l-2.913,8.206H85.824z"/>
		<path fill="#589C3F" d="M102.144,5.623l5.231,15.38h0.062l4.949-15.38h6.922v22.364h-4.604V12.139h-0.062l-5.482,15.849h-3.79
			l-5.481-15.693h-0.062v15.693h-4.604V5.623H102.144z"/>
		<path fill="#589C3F" d="M122.785,12.247c0.502-1.43,1.223-2.677,2.162-3.742c0.939-1.064,2.093-1.9,3.461-2.506
			c1.367-0.605,2.908-0.908,4.62-0.908c1.733,0,3.278,0.303,4.636,0.908s2.506,1.441,3.445,2.506
			c0.94,1.065,1.661,2.312,2.161,3.742c0.502,1.432,0.753,2.981,0.753,4.652c0,1.629-0.251,3.147-0.753,4.558
			c-0.5,1.409-1.221,2.636-2.161,3.681c-0.939,1.044-2.088,1.863-3.445,2.458c-1.357,0.596-2.902,0.894-4.636,0.894
			c-1.712,0-3.253-0.298-4.62-0.894c-1.368-0.595-2.521-1.414-3.461-2.458c-0.939-1.045-1.66-2.271-2.162-3.681
			c-0.5-1.41-0.751-2.929-0.751-4.558C122.034,15.229,122.285,13.679,122.785,12.247z M127.28,19.64
			c0.22,0.889,0.569,1.688,1.05,2.396c0.48,0.71,1.105,1.279,1.879,1.707c0.772,0.429,1.712,0.643,2.819,0.643
			c1.106,0,2.046-0.214,2.819-0.643c0.771-0.428,1.398-0.997,1.879-1.707c0.48-0.709,0.831-1.508,1.05-2.396
			c0.22-0.887,0.328-1.801,0.328-2.74c0-0.98-0.108-1.932-0.328-2.85c-0.219-0.92-0.569-1.739-1.05-2.46
			c-0.48-0.72-1.107-1.294-1.879-1.723c-0.773-0.428-1.713-0.642-2.819-0.642c-1.107,0-2.047,0.214-2.819,0.642
			c-0.773,0.429-1.398,1.003-1.879,1.723c-0.48,0.721-0.83,1.54-1.05,2.46c-0.219,0.918-0.329,1.869-0.329,2.85
			C126.951,17.839,127.062,18.753,127.28,19.64z"/>
	</g>
	<path fill="#589C3F" d="M166.314,14.444v5.574h6.828v-5.574h1.725v12.965h-1.725v-5.938h-6.828v5.938h-1.725V14.444H166.314z"/>
	<path fill="#589C3F" d="M177.535,16.333v-1.889h1.544v1.889H177.535z M179.079,18.021v9.389h-1.544v-9.389H179.079z"/>
	<path fill="#589C3F" d="M188.521,30.06c-0.703,0.763-1.805,1.145-3.305,1.145c-0.436,0-0.881-0.049-1.336-0.146
		c-0.453-0.097-0.864-0.254-1.234-0.472c-0.369-0.218-0.675-0.503-0.917-0.854c-0.242-0.351-0.375-0.78-0.399-1.288h1.544
		c0.012,0.277,0.1,0.514,0.264,0.707c0.163,0.194,0.362,0.352,0.599,0.473s0.493,0.209,0.771,0.264s0.545,0.082,0.799,0.082
		c0.509,0,0.938-0.089,1.289-0.264c0.352-0.176,0.642-0.418,0.872-0.727c0.229-0.309,0.396-0.681,0.499-1.117
		c0.104-0.436,0.154-0.913,0.154-1.434v-0.618h-0.036c-0.267,0.581-0.669,1.009-1.207,1.28c-0.538,0.272-1.11,0.408-1.717,0.408
		c-0.702,0-1.313-0.126-1.833-0.381c-0.521-0.254-0.957-0.596-1.309-1.025c-0.351-0.431-0.614-0.932-0.789-1.508
		c-0.176-0.574-0.264-1.184-0.264-1.824c0-0.557,0.073-1.129,0.219-1.717c0.145-0.587,0.387-1.119,0.726-1.598
		s0.786-0.871,1.344-1.18c0.557-0.31,1.241-0.464,2.052-0.464c0.593,0,1.139,0.131,1.635,0.392c0.496,0.26,0.884,0.65,1.162,1.171
		h0.018v-1.345h1.453v8.589C189.574,28.147,189.223,29.297,188.521,30.06z M186.551,25.839c0.357-0.213,0.645-0.491,0.863-0.836
		c0.218-0.346,0.377-0.735,0.48-1.172c0.103-0.436,0.154-0.871,0.154-1.307c0-0.411-0.049-0.816-0.146-1.217
		c-0.097-0.399-0.251-0.76-0.463-1.08s-0.487-0.578-0.826-0.772c-0.339-0.192-0.751-0.29-1.234-0.29
		c-0.497,0-0.921,0.094-1.271,0.281s-0.639,0.439-0.862,0.754c-0.225,0.314-0.388,0.678-0.49,1.089
		c-0.104,0.411-0.154,0.842-0.154,1.29c0,0.424,0.043,0.847,0.127,1.271c0.085,0.424,0.23,0.808,0.436,1.153
		c0.206,0.345,0.479,0.623,0.818,0.836c0.338,0.211,0.762,0.316,1.271,0.316C185.761,26.155,186.194,26.05,186.551,25.839z"/>
	<path fill="#589C3F" d="M193.442,14.444v4.957h0.036c0.12-0.291,0.29-0.536,0.508-0.735c0.219-0.2,0.463-0.363,0.736-0.49
		c0.271-0.127,0.557-0.222,0.852-0.282c0.298-0.061,0.585-0.091,0.864-0.091c0.617,0,1.131,0.086,1.543,0.255
		c0.411,0.17,0.744,0.405,0.998,0.707c0.255,0.303,0.433,0.664,0.536,1.082c0.103,0.416,0.154,0.88,0.154,1.389v6.174h-1.543v-6.355
		c0-0.581-0.171-1.041-0.509-1.38c-0.34-0.339-0.805-0.509-1.397-0.509c-0.473,0-0.881,0.072-1.227,0.218
		c-0.345,0.145-0.633,0.352-0.862,0.618c-0.229,0.266-0.402,0.578-0.518,0.935c-0.116,0.357-0.172,0.748-0.172,1.171v5.303h-1.544
		V14.444H193.442z"/>
	<path fill="#589C3F" d="M212.979,14.444c1.308,0,2.298,0.335,2.97,1.008c0.672,0.672,1.008,1.613,1.008,2.824
		c0,1.21-0.336,2.153-1.008,2.831c-0.672,0.679-1.662,1.012-2.97,0.999h-3.958v5.303h-1.725V14.444H212.979z M212.398,20.653
		c0.98,0.014,1.698-0.188,2.152-0.599s0.682-1.005,0.682-1.778c0-0.775-0.228-1.365-0.682-1.771
		c-0.454-0.405-1.172-0.607-2.152-0.607h-3.377v4.756H212.398z"/>
	<path fill="#589C3F" d="M225.455,26.81c-0.702,0.533-1.587,0.799-2.651,0.799c-0.751,0-1.402-0.121-1.952-0.363
		c-0.551-0.242-1.014-0.581-1.389-1.017c-0.376-0.436-0.657-0.956-0.845-1.562c-0.188-0.605-0.294-1.266-0.318-1.979
		c0-0.714,0.109-1.367,0.327-1.961c0.219-0.593,0.523-1.107,0.917-1.543s0.86-0.774,1.397-1.017c0.539-0.242,1.13-0.364,1.771-0.364
		c0.835,0,1.527,0.173,2.078,0.519c0.551,0.345,0.993,0.783,1.326,1.316c0.332,0.532,0.562,1.113,0.69,1.743
		c0.126,0.629,0.178,1.229,0.154,1.797h-7.027c-0.013,0.412,0.036,0.802,0.146,1.171c0.108,0.369,0.283,0.696,0.526,0.981
		c0.241,0.284,0.55,0.511,0.926,0.681c0.375,0.169,0.817,0.254,1.325,0.254c0.654,0,1.189-0.151,1.607-0.454
		c0.418-0.302,0.692-0.763,0.826-1.38h1.525C226.61,25.484,226.156,26.276,225.455,26.81z M225.082,20.781
		c-0.139-0.327-0.326-0.608-0.562-0.845c-0.236-0.235-0.515-0.424-0.836-0.562c-0.32-0.14-0.675-0.209-1.062-0.209
		c-0.399,0-0.76,0.069-1.08,0.209c-0.321,0.139-0.596,0.33-0.826,0.572c-0.229,0.242-0.411,0.523-0.545,0.844
		c-0.133,0.321-0.211,0.663-0.235,1.026h5.393C225.303,21.453,225.221,21.107,225.082,20.781z"/>
	<path fill="#589C3F" d="M229.957,18.021v1.98h0.037c0.375-0.764,0.834-1.326,1.38-1.689c0.545-0.363,1.234-0.532,2.069-0.509v1.635
		c-0.617,0-1.145,0.085-1.58,0.254c-0.436,0.17-0.786,0.418-1.053,0.745c-0.267,0.326-0.46,0.723-0.581,1.189
		c-0.121,0.466-0.182,1.001-0.182,1.606v4.177h-1.544v-9.389H229.957z"/>
	<path fill="#589C3F" d="M233.661,19.383v-1.362h1.58v-1.397c0-0.763,0.221-1.341,0.663-1.734c0.441-0.393,1.086-0.59,1.934-0.59
		c0.146,0,0.312,0.012,0.499,0.036s0.354,0.061,0.499,0.109v1.344c-0.133-0.049-0.278-0.082-0.436-0.101
		c-0.157-0.018-0.303-0.027-0.436-0.027c-0.375,0-0.666,0.073-0.872,0.218c-0.205,0.146-0.309,0.425-0.309,0.836v1.307h1.816v1.362
		h-1.816v8.026h-1.543v-8.026H233.661z"/>
	<path fill="#589C3F" d="M239.763,20.79c0.193-0.6,0.483-1.12,0.871-1.562s0.865-0.79,1.435-1.044s1.223-0.382,1.961-0.382
		c0.75,0,1.408,0.128,1.97,0.382c0.563,0.254,1.038,0.603,1.426,1.044c0.387,0.441,0.678,0.962,0.872,1.562
		c0.192,0.6,0.29,1.244,0.29,1.934c0,0.69-0.098,1.332-0.29,1.925c-0.194,0.594-0.485,1.11-0.872,1.554
		c-0.388,0.441-0.862,0.786-1.426,1.034c-0.562,0.248-1.22,0.372-1.97,0.372c-0.738,0-1.392-0.124-1.961-0.372
		s-1.047-0.593-1.435-1.034c-0.388-0.443-0.678-0.96-0.871-1.554c-0.194-0.593-0.291-1.234-0.291-1.925
		C239.472,22.034,239.568,21.39,239.763,20.79z M241.333,24.24c0.151,0.442,0.36,0.812,0.627,1.107
		c0.266,0.297,0.577,0.523,0.935,0.681c0.357,0.158,0.735,0.236,1.135,0.236s0.777-0.078,1.135-0.236
		c0.357-0.157,0.669-0.384,0.936-0.681c0.266-0.296,0.475-0.665,0.627-1.107c0.15-0.441,0.227-0.947,0.227-1.517
		c0-0.568-0.076-1.074-0.227-1.516c-0.152-0.441-0.361-0.814-0.627-1.117c-0.267-0.303-0.578-0.532-0.936-0.689
		s-0.735-0.236-1.135-0.236s-0.777,0.079-1.135,0.236s-0.669,0.387-0.935,0.689c-0.267,0.303-0.476,0.676-0.627,1.117
		s-0.228,0.947-0.228,1.516C241.105,23.293,241.182,23.799,241.333,24.24z"/>
	<path fill="#589C3F" d="M251.801,18.021v1.98h0.037c0.375-0.764,0.834-1.326,1.38-1.689c0.544-0.363,1.234-0.532,2.069-0.509v1.635
		c-0.617,0-1.145,0.085-1.58,0.254c-0.436,0.17-0.787,0.418-1.053,0.745c-0.267,0.326-0.46,0.723-0.581,1.189
		c-0.121,0.466-0.182,1.001-0.182,1.606v4.177h-1.544v-9.389H251.801z"/>
	<path fill="#589C3F" d="M257.901,18.021v1.381h0.036c0.702-1.065,1.713-1.599,3.032-1.599c0.581,0,1.108,0.122,1.58,0.364
		s0.805,0.653,0.999,1.234c0.314-0.508,0.729-0.902,1.244-1.181c0.514-0.278,1.08-0.418,1.697-0.418c0.472,0,0.898,0.052,1.28,0.154
		c0.382,0.104,0.708,0.264,0.979,0.481c0.273,0.218,0.484,0.5,0.637,0.845c0.151,0.346,0.227,0.76,0.227,1.243v6.883h-1.543v-6.156
		c0-0.291-0.024-0.562-0.072-0.816c-0.049-0.255-0.14-0.476-0.273-0.663c-0.133-0.188-0.317-0.336-0.554-0.444
		c-0.235-0.109-0.542-0.164-0.916-0.164c-0.763,0-1.362,0.218-1.798,0.654c-0.436,0.436-0.654,1.016-0.654,1.743v5.847h-1.543
		v-6.156c0-0.303-0.027-0.581-0.082-0.835c-0.054-0.254-0.148-0.475-0.281-0.663c-0.133-0.187-0.312-0.332-0.536-0.436
		c-0.224-0.103-0.512-0.154-0.862-0.154c-0.447,0-0.832,0.091-1.152,0.272c-0.321,0.182-0.582,0.399-0.781,0.653
		c-0.2,0.254-0.346,0.518-0.436,0.789c-0.091,0.273-0.137,0.501-0.137,0.683v5.847h-1.543v-9.389H257.901z"/>
	<path fill="#589C3F" d="M279.146,27.608c-0.399,0-0.717-0.111-0.953-0.336c-0.236-0.224-0.354-0.59-0.354-1.099
		c-0.425,0.509-0.918,0.875-1.48,1.099c-0.562,0.225-1.172,0.336-1.825,0.336c-0.424,0-0.823-0.045-1.198-0.136
		s-0.705-0.242-0.99-0.454c-0.283-0.212-0.508-0.484-0.671-0.816c-0.163-0.334-0.245-0.736-0.245-1.208
		c0-0.532,0.091-0.968,0.272-1.308c0.182-0.338,0.42-0.614,0.717-0.826c0.296-0.212,0.636-0.372,1.017-0.482
		c0.382-0.108,0.771-0.198,1.171-0.271c0.424-0.084,0.827-0.147,1.208-0.19c0.382-0.042,0.717-0.103,1.008-0.182
		c0.29-0.079,0.521-0.193,0.69-0.345c0.169-0.151,0.254-0.372,0.254-0.663c0-0.338-0.063-0.611-0.19-0.817
		c-0.127-0.205-0.291-0.362-0.491-0.472c-0.199-0.108-0.423-0.182-0.671-0.218c-0.249-0.036-0.493-0.055-0.735-0.055
		c-0.653,0-1.198,0.125-1.635,0.372c-0.436,0.249-0.672,0.718-0.708,1.407h-1.544c0.024-0.581,0.146-1.071,0.363-1.471
		s0.509-0.723,0.872-0.971c0.363-0.249,0.781-0.428,1.253-0.536c0.472-0.109,0.968-0.164,1.488-0.164
		c0.425,0,0.845,0.03,1.263,0.091s0.796,0.186,1.135,0.373s0.611,0.45,0.817,0.789c0.206,0.34,0.309,0.781,0.309,1.326v4.83
		c0,0.363,0.021,0.629,0.063,0.799c0.043,0.169,0.185,0.254,0.427,0.254c0.133,0,0.291-0.029,0.473-0.091v1.199
		C279.988,27.53,279.619,27.608,279.146,27.608z M276.985,22.879c-0.314,0.065-0.644,0.121-0.989,0.163
		c-0.346,0.043-0.692,0.091-1.044,0.145c-0.352,0.055-0.666,0.143-0.944,0.264s-0.506,0.294-0.682,0.518
		c-0.175,0.225-0.263,0.53-0.263,0.917c0,0.255,0.052,0.47,0.154,0.645c0.103,0.176,0.236,0.317,0.399,0.427
		c0.164,0.109,0.357,0.188,0.581,0.236c0.225,0.048,0.451,0.072,0.682,0.072c0.509,0,0.944-0.07,1.307-0.208
		c0.363-0.14,0.66-0.315,0.89-0.527c0.23-0.211,0.4-0.441,0.51-0.69c0.108-0.247,0.162-0.48,0.162-0.699v-1.579
		C277.555,22.706,277.301,22.812,276.985,22.879z"/>
	<path fill="#589C3F" d="M283.141,18.021v1.49h0.037c0.641-1.139,1.658-1.708,3.05-1.708c0.617,0,1.132,0.086,1.544,0.255
		c0.412,0.17,0.744,0.405,0.998,0.707c0.255,0.303,0.433,0.664,0.536,1.082c0.103,0.416,0.154,0.88,0.154,1.389v6.174h-1.543v-6.355
		c0-0.581-0.17-1.041-0.509-1.38s-0.805-0.509-1.398-0.509c-0.472,0-0.881,0.072-1.226,0.218c-0.345,0.145-0.633,0.352-0.862,0.618
		c-0.23,0.266-0.402,0.578-0.518,0.935c-0.115,0.357-0.172,0.748-0.172,1.171v5.303h-1.545v-9.389H283.141z"/>
	<path fill="#589C3F" d="M297.395,19.655c-0.388-0.326-0.908-0.49-1.562-0.49c-0.557,0-1.023,0.104-1.397,0.309
		c-0.376,0.206-0.676,0.479-0.899,0.817c-0.225,0.339-0.384,0.729-0.481,1.171c-0.097,0.441-0.145,0.899-0.145,1.371
		c0,0.436,0.051,0.859,0.154,1.271c0.102,0.412,0.264,0.778,0.481,1.099c0.218,0.322,0.501,0.578,0.854,0.772
		c0.351,0.193,0.769,0.29,1.252,0.29c0.763,0,1.359-0.199,1.789-0.599s0.692-0.962,0.79-1.688h1.579
		c-0.169,1.162-0.602,2.058-1.298,2.687c-0.696,0.63-1.643,0.944-2.842,0.944c-0.715,0-1.347-0.115-1.897-0.345
		s-1.011-0.557-1.38-0.98s-0.647-0.929-0.836-1.517c-0.188-0.587-0.281-1.231-0.281-1.934s0.092-1.359,0.273-1.97
		c0.181-0.611,0.456-1.145,0.826-1.599c0.368-0.453,0.832-0.811,1.389-1.07c0.557-0.261,1.204-0.392,1.943-0.392
		c0.532,0,1.031,0.064,1.498,0.19c0.465,0.128,0.877,0.324,1.234,0.591c0.356,0.266,0.65,0.603,0.881,1.009
		c0.229,0.404,0.375,0.886,0.436,1.442h-1.599C298.037,20.442,297.782,19.982,297.395,19.655z"/>
	<path fill="#589C3F" d="M308.181,26.81c-0.702,0.533-1.586,0.799-2.65,0.799c-0.751,0-1.402-0.121-1.953-0.363
		s-1.014-0.581-1.389-1.017s-0.656-0.956-0.845-1.562c-0.188-0.605-0.293-1.266-0.317-1.979c0-0.714,0.109-1.367,0.327-1.961
		c0.218-0.593,0.523-1.107,0.917-1.543c0.393-0.436,0.859-0.774,1.397-1.017c0.539-0.242,1.129-0.364,1.771-0.364
		c0.835,0,1.528,0.173,2.079,0.519c0.551,0.345,0.992,0.783,1.326,1.316c0.332,0.532,0.562,1.113,0.689,1.743
		c0.127,0.629,0.179,1.229,0.154,1.797h-7.027c-0.012,0.412,0.037,0.802,0.146,1.171s0.284,0.696,0.527,0.981
		c0.241,0.284,0.55,0.511,0.926,0.681c0.374,0.169,0.816,0.254,1.325,0.254c0.653,0,1.189-0.151,1.606-0.454
		c0.419-0.302,0.693-0.763,0.827-1.38h1.525C309.337,25.484,308.883,26.276,308.181,26.81z M307.808,20.781
		c-0.138-0.327-0.326-0.608-0.562-0.845c-0.236-0.235-0.516-0.424-0.836-0.562c-0.32-0.14-0.675-0.209-1.062-0.209
		c-0.399,0-0.76,0.069-1.08,0.209c-0.321,0.139-0.596,0.33-0.826,0.572c-0.229,0.242-0.411,0.523-0.545,0.844
		c-0.133,0.321-0.212,0.663-0.236,1.026h5.394C308.029,21.453,307.947,21.107,307.808,20.781z"/>
	<path fill="#589C3F" d="M325.104,14.444v1.453h-6.791v4.121h5.956v1.452h-5.956v5.938h-1.725V14.444H325.104z"/>
	<path fill="#589C3F" d="M328.391,14.444v12.965h-1.544V14.444H328.391z"/>
	<path fill="#589C3F" d="M337.996,27.608c-0.4,0-0.718-0.111-0.954-0.336c-0.235-0.224-0.354-0.59-0.354-1.099
		c-0.425,0.509-0.917,0.875-1.48,1.099c-0.562,0.225-1.171,0.336-1.825,0.336c-0.423,0-0.822-0.045-1.197-0.136
		c-0.376-0.091-0.706-0.242-0.99-0.454s-0.508-0.484-0.672-0.816c-0.163-0.334-0.245-0.736-0.245-1.208
		c0-0.532,0.091-0.968,0.272-1.308c0.182-0.338,0.42-0.614,0.717-0.826s0.637-0.372,1.018-0.482
		c0.381-0.108,0.771-0.198,1.171-0.271c0.423-0.084,0.826-0.147,1.207-0.19c0.382-0.042,0.718-0.103,1.008-0.182
		c0.291-0.079,0.521-0.193,0.69-0.345s0.255-0.372,0.255-0.663c0-0.338-0.064-0.611-0.191-0.817
		c-0.127-0.205-0.29-0.362-0.491-0.472c-0.198-0.108-0.423-0.182-0.67-0.218c-0.249-0.036-0.494-0.055-0.736-0.055
		c-0.653,0-1.198,0.125-1.635,0.372c-0.436,0.249-0.671,0.718-0.707,1.407h-1.544c0.024-0.581,0.146-1.071,0.362-1.471
		c0.219-0.399,0.509-0.723,0.873-0.971c0.362-0.249,0.78-0.428,1.252-0.536c0.473-0.109,0.969-0.164,1.488-0.164
		c0.425,0,0.845,0.03,1.264,0.091c0.417,0.061,0.796,0.186,1.135,0.373s0.61,0.45,0.816,0.789c0.206,0.34,0.309,0.781,0.309,1.326
		v4.83c0,0.363,0.021,0.629,0.063,0.799c0.043,0.169,0.185,0.254,0.427,0.254c0.133,0,0.291-0.029,0.473-0.091v1.199
		C338.837,27.53,338.468,27.608,337.996,27.608z M335.835,22.879c-0.315,0.065-0.645,0.121-0.99,0.163
		c-0.345,0.043-0.692,0.091-1.043,0.145c-0.353,0.055-0.667,0.143-0.945,0.264s-0.505,0.294-0.681,0.518
		c-0.176,0.225-0.263,0.53-0.263,0.917c0,0.255,0.051,0.47,0.153,0.645c0.104,0.176,0.237,0.317,0.399,0.427
		c0.164,0.109,0.358,0.188,0.581,0.236c0.225,0.048,0.451,0.072,0.682,0.072c0.509,0,0.944-0.07,1.308-0.208
		c0.362-0.14,0.659-0.315,0.89-0.527c0.229-0.211,0.399-0.441,0.509-0.69c0.108-0.247,0.163-0.48,0.163-0.699v-1.579
		C336.403,22.706,336.149,22.812,335.835,22.879z"/>
	<path fill="#589C3F" d="M341.99,18.021v1.381h0.036c0.702-1.065,1.713-1.599,3.032-1.599c0.581,0,1.107,0.122,1.58,0.364
		c0.472,0.242,0.805,0.653,0.998,1.234c0.315-0.508,0.729-0.902,1.244-1.181s1.08-0.418,1.698-0.418c0.472,0,0.898,0.052,1.28,0.154
		c0.381,0.104,0.707,0.264,0.98,0.481c0.271,0.218,0.483,0.5,0.635,0.845c0.152,0.346,0.228,0.76,0.228,1.243v6.883h-1.544v-6.156
		c0-0.291-0.024-0.562-0.072-0.816c-0.049-0.255-0.139-0.476-0.271-0.663c-0.135-0.188-0.319-0.336-0.555-0.444
		c-0.236-0.109-0.542-0.164-0.917-0.164c-0.763,0-1.362,0.218-1.798,0.654c-0.436,0.436-0.653,1.016-0.653,1.743v5.847h-1.544
		v-6.156c0-0.303-0.027-0.581-0.081-0.835c-0.055-0.254-0.149-0.475-0.282-0.663c-0.133-0.187-0.312-0.332-0.535-0.436
		c-0.225-0.103-0.512-0.154-0.862-0.154c-0.448,0-0.833,0.091-1.153,0.272c-0.321,0.182-0.581,0.399-0.781,0.653
		c-0.199,0.254-0.344,0.518-0.436,0.789c-0.09,0.273-0.136,0.501-0.136,0.683v5.847h-1.544v-9.389H341.99z"/>
	<path fill="#589C3F" d="M362.671,26.81c-0.702,0.533-1.585,0.799-2.65,0.799c-0.75,0-1.401-0.121-1.952-0.363
		s-1.014-0.581-1.389-1.017c-0.376-0.436-0.656-0.956-0.844-1.562c-0.188-0.605-0.295-1.266-0.318-1.979
		c0-0.714,0.108-1.367,0.326-1.961c0.219-0.593,0.524-1.107,0.918-1.543c0.393-0.436,0.858-0.774,1.398-1.017
		c0.537-0.242,1.128-0.364,1.77-0.364c0.836,0,1.528,0.173,2.079,0.519c0.551,0.345,0.993,0.783,1.325,1.316
		c0.334,0.532,0.563,1.113,0.689,1.743c0.129,0.629,0.18,1.229,0.155,1.797h-7.026c-0.014,0.412,0.036,0.802,0.145,1.171
		c0.109,0.369,0.285,0.696,0.526,0.981c0.242,0.284,0.551,0.511,0.927,0.681c0.375,0.169,0.816,0.254,1.325,0.254
		c0.653,0,1.189-0.151,1.606-0.454c0.418-0.302,0.693-0.763,0.827-1.38h1.524C363.828,25.484,363.373,26.276,362.671,26.81z
		 M362.299,20.781c-0.139-0.327-0.326-0.608-0.562-0.845c-0.235-0.235-0.515-0.424-0.835-0.562c-0.321-0.14-0.675-0.209-1.062-0.209
		c-0.4,0-0.76,0.069-1.081,0.209c-0.321,0.139-0.597,0.33-0.826,0.572c-0.23,0.242-0.411,0.523-0.545,0.844
		c-0.133,0.321-0.212,0.663-0.235,1.026h5.393C362.521,21.453,362.438,21.107,362.299,20.781z"/>
	<path fill="#589C3F" d="M377.18,14.444c1.234,0,2.199,0.303,2.896,0.908c0.695,0.605,1.044,1.434,1.044,2.486
		c0,0.788-0.179,1.478-0.536,2.07c-0.356,0.594-0.929,0.999-1.716,1.217v0.037c0.376,0.072,0.682,0.193,0.917,0.363
		c0.236,0.169,0.424,0.371,0.562,0.607c0.14,0.236,0.242,0.5,0.31,0.79c0.066,0.29,0.118,0.594,0.154,0.907
		c0.024,0.315,0.042,0.636,0.055,0.963c0.011,0.326,0.042,0.648,0.091,0.963c0.048,0.314,0.118,0.614,0.208,0.898
		c0.092,0.284,0.228,0.536,0.409,0.754h-1.925c-0.121-0.133-0.203-0.314-0.245-0.545c-0.043-0.229-0.07-0.487-0.081-0.771
		c-0.013-0.285-0.025-0.591-0.036-0.917c-0.014-0.327-0.05-0.647-0.109-0.963c-0.049-0.315-0.109-0.614-0.182-0.898
		c-0.073-0.285-0.188-0.532-0.346-0.745c-0.157-0.211-0.363-0.381-0.617-0.508s-0.593-0.191-1.017-0.191h-4.213v5.539h-1.726V14.444
		H377.18z M377.543,20.327c0.363-0.061,0.682-0.178,0.953-0.354c0.272-0.175,0.49-0.411,0.654-0.708
		c0.163-0.297,0.245-0.681,0.245-1.152c0-0.654-0.182-1.187-0.545-1.598c-0.363-0.412-0.95-0.617-1.761-0.617h-4.286v4.521h3.596
		C376.799,20.418,377.18,20.389,377.543,20.327z"/>
	<path fill="#589C3F" d="M389.908,26.81c-0.701,0.533-1.585,0.799-2.65,0.799c-0.751,0-1.401-0.121-1.952-0.363
		c-0.552-0.242-1.014-0.581-1.39-1.017c-0.375-0.436-0.656-0.956-0.844-1.562s-0.293-1.266-0.317-1.979
		c0-0.714,0.108-1.367,0.326-1.961c0.218-0.593,0.523-1.107,0.917-1.543c0.393-0.436,0.859-0.774,1.398-1.017
		c0.538-0.242,1.129-0.364,1.771-0.364c0.835,0,1.528,0.173,2.079,0.519c0.551,0.345,0.992,0.783,1.325,1.316
		c0.333,0.532,0.563,1.113,0.69,1.743c0.127,0.629,0.179,1.229,0.154,1.797h-7.027c-0.012,0.412,0.036,0.802,0.145,1.171
		c0.109,0.369,0.285,0.696,0.527,0.981c0.242,0.284,0.551,0.511,0.926,0.681c0.375,0.169,0.817,0.254,1.326,0.254
		c0.652,0,1.188-0.151,1.606-0.454c0.418-0.302,0.693-0.763,0.826-1.38h1.525C391.064,25.484,390.61,26.276,389.908,26.81z
		 M389.536,20.781c-0.139-0.327-0.327-0.608-0.562-0.845c-0.236-0.235-0.515-0.424-0.835-0.562c-0.321-0.14-0.676-0.209-1.062-0.209
		c-0.399,0-0.76,0.069-1.081,0.209c-0.32,0.139-0.596,0.33-0.825,0.572c-0.23,0.242-0.412,0.523-0.545,0.844
		c-0.134,0.321-0.213,0.663-0.236,1.026h5.393C389.758,21.453,389.676,21.107,389.536,20.781z"/>
	<path fill="#589C3F" d="M397.026,18.021v1.362h-1.87v5.829c0,0.182,0.015,0.326,0.045,0.436s0.088,0.193,0.172,0.254
		c0.085,0.061,0.203,0.1,0.355,0.119c0.15,0.018,0.347,0.026,0.59,0.026h0.708v1.362h-1.181c-0.398,0-0.741-0.027-1.025-0.082
		c-0.285-0.055-0.515-0.154-0.689-0.3c-0.176-0.146-0.307-0.351-0.391-0.617c-0.085-0.267-0.128-0.617-0.128-1.053v-5.975h-1.598
		v-1.362h1.598v-2.814h1.544v2.814H397.026z"/>
	<path fill="#589C3F" d="M405.941,27.608c-0.399,0-0.717-0.111-0.953-0.336c-0.236-0.224-0.354-0.59-0.354-1.099
		c-0.423,0.509-0.916,0.875-1.479,1.099c-0.562,0.225-1.171,0.336-1.825,0.336c-0.423,0-0.823-0.045-1.198-0.136
		s-0.705-0.242-0.989-0.454s-0.509-0.484-0.672-0.816c-0.163-0.334-0.245-0.736-0.245-1.208c0-0.532,0.091-0.968,0.272-1.308
		c0.182-0.338,0.42-0.614,0.717-0.826s0.636-0.372,1.017-0.482c0.382-0.108,0.771-0.198,1.172-0.271
		c0.423-0.084,0.826-0.147,1.207-0.19c0.381-0.042,0.718-0.103,1.008-0.182c0.291-0.079,0.521-0.193,0.689-0.345
		c0.17-0.151,0.255-0.372,0.255-0.663c0-0.338-0.063-0.611-0.19-0.817c-0.127-0.205-0.291-0.362-0.49-0.472
		c-0.199-0.108-0.424-0.182-0.672-0.218s-0.493-0.055-0.735-0.055c-0.654,0-1.198,0.125-1.635,0.372
		c-0.436,0.249-0.671,0.718-0.708,1.407h-1.543c0.023-0.581,0.145-1.071,0.362-1.471s0.509-0.723,0.872-0.971
		c0.363-0.249,0.781-0.428,1.253-0.536c0.472-0.109,0.968-0.164,1.489-0.164c0.424,0,0.845,0.03,1.262,0.091
		c0.418,0.061,0.796,0.186,1.135,0.373s0.611,0.45,0.817,0.789c0.206,0.34,0.309,0.781,0.309,1.326v4.83
		c0,0.363,0.021,0.629,0.063,0.799c0.042,0.169,0.185,0.254,0.427,0.254c0.133,0,0.29-0.029,0.472-0.091v1.199
		C406.783,27.53,406.414,27.608,405.941,27.608z M403.781,22.879c-0.315,0.065-0.646,0.121-0.99,0.163
		c-0.345,0.043-0.693,0.091-1.044,0.145c-0.352,0.055-0.666,0.143-0.944,0.264s-0.506,0.294-0.681,0.518
		c-0.176,0.225-0.263,0.53-0.263,0.917c0,0.255,0.051,0.47,0.153,0.645c0.103,0.176,0.237,0.317,0.399,0.427
		c0.164,0.109,0.357,0.188,0.581,0.236c0.225,0.048,0.451,0.072,0.682,0.072c0.509,0,0.944-0.07,1.308-0.208
		c0.362-0.14,0.659-0.315,0.889-0.527c0.23-0.211,0.399-0.441,0.509-0.69c0.108-0.247,0.163-0.48,0.163-0.699v-1.579
		C404.35,22.706,404.096,22.812,403.781,22.879z"/>
	<path fill="#589C3F" d="M409.882,18.021v1.98h0.036c0.375-0.764,0.835-1.326,1.38-1.689s1.235-0.532,2.07-0.509v1.635
		c-0.617,0-1.144,0.085-1.579,0.254c-0.438,0.17-0.788,0.418-1.055,0.745c-0.266,0.326-0.459,0.723-0.58,1.189
		c-0.121,0.466-0.182,1.001-0.182,1.606v4.177h-1.544v-9.389H409.882z"/>
	<path fill="#589C3F" d="M421.049,27.409v-1.271h-0.036c-0.254,0.521-0.653,0.896-1.199,1.126c-0.544,0.229-1.144,0.345-1.797,0.345
		c-0.727,0-1.359-0.133-1.897-0.399c-0.539-0.267-0.987-0.623-1.344-1.071c-0.357-0.447-0.627-0.969-0.809-1.562
		c-0.182-0.593-0.272-1.222-0.272-1.888c0-0.665,0.089-1.295,0.264-1.889c0.176-0.592,0.442-1.11,0.799-1.552
		c0.357-0.442,0.805-0.793,1.345-1.053c0.537-0.261,1.164-0.392,1.879-0.392c0.242,0,0.502,0.025,0.78,0.073
		c0.278,0.049,0.557,0.13,0.835,0.245s0.542,0.267,0.79,0.454s0.457,0.42,0.627,0.698h0.036v-4.829h1.543v12.965H421.049z
		 M415.501,24.077c0.115,0.417,0.291,0.789,0.527,1.116s0.538,0.587,0.907,0.781c0.369,0.193,0.802,0.29,1.299,0.29
		c0.521,0,0.962-0.102,1.325-0.309c0.363-0.205,0.659-0.476,0.891-0.809c0.229-0.332,0.396-0.71,0.499-1.134
		c0.103-0.424,0.154-0.854,0.154-1.29c0-0.459-0.055-0.904-0.164-1.334c-0.108-0.43-0.281-0.809-0.518-1.135
		c-0.235-0.327-0.541-0.59-0.917-0.79c-0.375-0.2-0.829-0.3-1.361-0.3c-0.521,0-0.963,0.104-1.325,0.309
		c-0.363,0.206-0.654,0.479-0.872,0.817s-0.375,0.727-0.472,1.162s-0.146,0.884-0.146,1.344
		C415.329,23.232,415.387,23.659,415.501,24.077z"/>
	<path fill="#589C3F" d="M432.18,27.608c-0.399,0-0.717-0.111-0.953-0.336c-0.236-0.224-0.354-0.59-0.354-1.099
		c-0.424,0.509-0.916,0.875-1.479,1.099c-0.562,0.225-1.171,0.336-1.825,0.336c-0.424,0-0.823-0.045-1.198-0.136
		s-0.705-0.242-0.989-0.454s-0.509-0.484-0.672-0.816c-0.163-0.334-0.245-0.736-0.245-1.208c0-0.532,0.09-0.968,0.271-1.308
		c0.182-0.338,0.422-0.614,0.718-0.826c0.297-0.212,0.636-0.372,1.017-0.482c0.382-0.108,0.771-0.198,1.172-0.271
		c0.423-0.084,0.826-0.147,1.207-0.19c0.381-0.042,0.717-0.103,1.008-0.182s0.521-0.193,0.689-0.345
		c0.17-0.151,0.255-0.372,0.255-0.663c0-0.338-0.063-0.611-0.19-0.817c-0.127-0.205-0.291-0.362-0.49-0.472
		c-0.199-0.108-0.424-0.182-0.672-0.218s-0.493-0.055-0.735-0.055c-0.654,0-1.199,0.125-1.635,0.372
		c-0.436,0.249-0.672,0.718-0.708,1.407h-1.543c0.023-0.581,0.145-1.071,0.362-1.471c0.219-0.399,0.509-0.723,0.872-0.971
		c0.363-0.249,0.781-0.428,1.253-0.536c0.472-0.109,0.968-0.164,1.489-0.164c0.424,0,0.844,0.03,1.262,0.091
		s0.796,0.186,1.135,0.373s0.611,0.45,0.817,0.789c0.206,0.34,0.309,0.781,0.309,1.326v4.83c0,0.363,0.021,0.629,0.063,0.799
		c0.042,0.169,0.185,0.254,0.427,0.254c0.133,0,0.29-0.029,0.472-0.091v1.199C433.021,27.53,432.652,27.608,432.18,27.608z
		 M430.019,22.879c-0.314,0.065-0.645,0.121-0.989,0.163c-0.345,0.043-0.693,0.091-1.044,0.145
		c-0.352,0.055-0.666,0.143-0.944,0.264s-0.506,0.294-0.682,0.518c-0.175,0.225-0.263,0.53-0.263,0.917
		c0,0.255,0.052,0.47,0.154,0.645c0.103,0.176,0.236,0.317,0.399,0.427c0.164,0.109,0.357,0.188,0.582,0.236
		c0.224,0.048,0.45,0.072,0.68,0.072c0.51,0,0.945-0.07,1.309-0.208c0.362-0.14,0.659-0.315,0.889-0.527
		c0.23-0.211,0.399-0.441,0.509-0.69c0.108-0.247,0.163-0.48,0.163-0.699v-1.579C430.588,22.706,430.334,22.812,430.019,22.879z"/>
	<path fill="#589C3F" d="M436.174,18.021v1.49h0.037c0.641-1.139,1.658-1.708,3.051-1.708c0.617,0,1.131,0.086,1.543,0.255
		c0.411,0.17,0.744,0.405,0.999,0.707c0.254,0.303,0.432,0.664,0.535,1.082c0.103,0.416,0.154,0.88,0.154,1.389v6.174h-1.543v-6.355
		c0-0.581-0.17-1.041-0.509-1.38s-0.805-0.509-1.398-0.509c-0.472,0-0.881,0.072-1.226,0.218c-0.345,0.145-0.633,0.352-0.862,0.618
		c-0.23,0.266-0.402,0.578-0.518,0.935c-0.115,0.357-0.172,0.748-0.172,1.171v5.303h-1.544v-9.389H436.174z"/>
	<path fill="#589C3F" d="M448.83,18.021v1.362h-1.87v5.829c0,0.182,0.015,0.326,0.046,0.436c0.029,0.109,0.087,0.193,0.172,0.254
		c0.084,0.061,0.203,0.1,0.354,0.119c0.151,0.018,0.347,0.026,0.59,0.026h0.708v1.362h-1.181c-0.399,0-0.741-0.027-1.025-0.082
		c-0.285-0.055-0.515-0.154-0.69-0.3s-0.306-0.351-0.39-0.617c-0.086-0.267-0.127-0.617-0.127-1.053v-5.975h-1.599v-1.362h1.599
		v-2.814h1.543v2.814H448.83z"/>
	<path fill="#589C3F" d="M454.459,15.897v-1.453h10.369v1.453h-4.322v11.512h-1.725V15.897H454.459z"/>
	<path fill="#589C3F" d="M470.638,26.81c-0.703,0.533-1.586,0.799-2.651,0.799c-0.751,0-1.401-0.121-1.951-0.363
		c-0.552-0.242-1.016-0.581-1.39-1.017c-0.376-0.436-0.657-0.956-0.845-1.562s-0.294-1.266-0.318-1.979
		c0-0.714,0.109-1.367,0.327-1.961c0.218-0.593,0.524-1.107,0.917-1.543c0.394-0.436,0.859-0.774,1.398-1.017
		s1.129-0.364,1.771-0.364c0.835,0,1.528,0.173,2.079,0.519c0.551,0.345,0.992,0.783,1.325,1.316
		c0.333,0.532,0.563,1.113,0.69,1.743c0.127,0.629,0.178,1.229,0.154,1.797h-7.027c-0.012,0.412,0.037,0.802,0.146,1.171
		s0.284,0.696,0.526,0.981c0.242,0.284,0.551,0.511,0.926,0.681c0.375,0.169,0.817,0.254,1.326,0.254
		c0.653,0,1.189-0.151,1.607-0.454c0.417-0.302,0.691-0.763,0.826-1.38h1.524C471.793,25.484,471.34,26.276,470.638,26.81z
		 M470.266,20.781c-0.14-0.327-0.327-0.608-0.563-0.845c-0.235-0.235-0.515-0.424-0.835-0.562c-0.321-0.14-0.675-0.209-1.062-0.209
		c-0.399,0-0.76,0.069-1.08,0.209c-0.32,0.139-0.597,0.33-0.826,0.572c-0.23,0.242-0.412,0.523-0.545,0.844
		c-0.133,0.321-0.212,0.663-0.236,1.026h5.394C470.485,21.453,470.404,21.107,470.266,20.781z"/>
	<path fill="#589C3F" d="M479.353,19.655c-0.388-0.326-0.907-0.49-1.562-0.49c-0.557,0-1.023,0.104-1.398,0.309
		c-0.375,0.206-0.675,0.479-0.898,0.817c-0.225,0.339-0.384,0.729-0.48,1.171c-0.098,0.441-0.146,0.899-0.146,1.371
		c0,0.436,0.051,0.859,0.153,1.271c0.104,0.412,0.264,0.778,0.482,1.099c0.217,0.322,0.502,0.578,0.853,0.772
		c0.351,0.193,0.769,0.29,1.253,0.29c0.763,0,1.359-0.199,1.789-0.599s0.692-0.962,0.79-1.688h1.579
		c-0.169,1.162-0.603,2.058-1.298,2.687c-0.696,0.63-1.644,0.944-2.842,0.944c-0.715,0-1.347-0.115-1.897-0.345
		s-1.011-0.557-1.38-0.98s-0.647-0.929-0.835-1.517c-0.188-0.587-0.282-1.231-0.282-1.934s0.091-1.359,0.272-1.97
		c0.182-0.611,0.457-1.145,0.826-1.599c0.369-0.453,0.832-0.811,1.389-1.07c0.558-0.261,1.205-0.392,1.943-0.392
		c0.533,0,1.031,0.064,1.498,0.19c0.467,0.128,0.878,0.324,1.234,0.591c0.357,0.266,0.651,0.603,0.881,1.009
		c0.23,0.404,0.375,0.886,0.436,1.442h-1.598C479.994,20.442,479.74,19.982,479.353,19.655z"/>
	<path fill="#589C3F" d="M485.037,14.444v4.957h0.036c0.121-0.291,0.29-0.536,0.509-0.735c0.217-0.2,0.463-0.363,0.734-0.49
		c0.273-0.127,0.558-0.222,0.854-0.282c0.297-0.061,0.584-0.091,0.863-0.091c0.617,0,1.131,0.086,1.543,0.255
		c0.411,0.17,0.744,0.405,0.999,0.707c0.254,0.303,0.433,0.664,0.536,1.082c0.102,0.416,0.153,0.88,0.153,1.389v6.174h-1.543v-6.355
		c0-0.581-0.17-1.041-0.509-1.38s-0.805-0.509-1.398-0.509c-0.472,0-0.88,0.072-1.225,0.218c-0.346,0.145-0.633,0.352-0.863,0.618
		c-0.229,0.266-0.402,0.578-0.517,0.935c-0.116,0.357-0.173,0.748-0.173,1.171v5.303h-1.544V14.444H485.037z"/>
	<path fill="#589C3F" d="M495.041,18.021v1.49h0.037c0.641-1.139,1.658-1.708,3.051-1.708c0.617,0,1.131,0.086,1.543,0.255
		c0.411,0.17,0.744,0.405,0.999,0.707c0.254,0.303,0.432,0.664,0.535,1.082c0.103,0.416,0.154,0.88,0.154,1.389v6.174h-1.543v-6.355
		c0-0.581-0.17-1.041-0.509-1.38s-0.805-0.509-1.398-0.509c-0.472,0-0.881,0.072-1.226,0.218c-0.345,0.145-0.633,0.352-0.862,0.618
		c-0.23,0.266-0.402,0.578-0.518,0.935c-0.115,0.357-0.172,0.748-0.172,1.171v5.303h-1.544v-9.389H495.041z"/>
	<path fill="#589C3F" d="M503.467,20.79c0.193-0.6,0.484-1.12,0.872-1.562s0.865-0.79,1.435-1.044
		c0.568-0.254,1.222-0.382,1.961-0.382c0.75,0,1.407,0.128,1.97,0.382c0.563,0.254,1.038,0.603,1.426,1.044s0.678,0.962,0.871,1.562
		c0.194,0.6,0.291,1.244,0.291,1.934c0,0.69-0.097,1.332-0.291,1.925c-0.193,0.594-0.483,1.11-0.871,1.554
		c-0.388,0.441-0.862,0.786-1.426,1.034c-0.562,0.248-1.22,0.372-1.97,0.372c-0.739,0-1.393-0.124-1.961-0.372
		c-0.569-0.248-1.047-0.593-1.435-1.034c-0.388-0.443-0.679-0.96-0.872-1.554c-0.193-0.593-0.29-1.234-0.29-1.925
		C503.177,22.034,503.273,21.39,503.467,20.79z M505.037,24.24c0.151,0.442,0.361,0.812,0.627,1.107
		c0.267,0.297,0.578,0.523,0.936,0.681c0.357,0.158,0.735,0.236,1.135,0.236s0.777-0.078,1.135-0.236
		c0.357-0.157,0.668-0.384,0.936-0.681c0.266-0.296,0.475-0.665,0.626-1.107c0.151-0.441,0.228-0.947,0.228-1.517
		c0-0.568-0.076-1.074-0.228-1.516s-0.36-0.814-0.626-1.117c-0.268-0.303-0.578-0.532-0.936-0.689s-0.735-0.236-1.135-0.236
		s-0.777,0.079-1.135,0.236s-0.669,0.387-0.936,0.689c-0.266,0.303-0.476,0.676-0.627,1.117c-0.15,0.441-0.227,0.947-0.227,1.516
		C504.811,23.293,504.887,23.799,505.037,24.24z"/>
	<path fill="#589C3F" d="M515.741,14.444v12.965h-1.544V14.444H515.741z"/>
	<path fill="#589C3F" d="M517.92,20.79c0.193-0.6,0.484-1.12,0.872-1.562s0.865-0.79,1.435-1.044
		c0.568-0.254,1.222-0.382,1.961-0.382c0.75,0,1.407,0.128,1.97,0.382c0.563,0.254,1.038,0.603,1.426,1.044s0.678,0.962,0.871,1.562
		c0.194,0.6,0.29,1.244,0.29,1.934c0,0.69-0.096,1.332-0.29,1.925c-0.193,0.594-0.483,1.11-0.871,1.554
		c-0.388,0.441-0.862,0.786-1.426,1.034c-0.562,0.248-1.22,0.372-1.97,0.372c-0.739,0-1.393-0.124-1.961-0.372
		c-0.569-0.248-1.047-0.593-1.435-1.034c-0.388-0.443-0.679-0.96-0.872-1.554c-0.193-0.593-0.291-1.234-0.291-1.925
		C517.629,22.034,517.727,21.39,517.92,20.79z M519.49,24.24c0.151,0.442,0.361,0.812,0.627,1.107
		c0.267,0.297,0.578,0.523,0.936,0.681c0.356,0.158,0.735,0.236,1.135,0.236s0.777-0.078,1.135-0.236
		c0.357-0.157,0.668-0.384,0.936-0.681c0.266-0.296,0.475-0.665,0.626-1.107c0.151-0.441,0.228-0.947,0.228-1.517
		c0-0.568-0.076-1.074-0.228-1.516s-0.36-0.814-0.626-1.117c-0.268-0.303-0.578-0.532-0.936-0.689s-0.735-0.236-1.135-0.236
		s-0.778,0.079-1.135,0.236c-0.357,0.157-0.669,0.387-0.936,0.689c-0.266,0.303-0.476,0.676-0.627,1.117
		c-0.15,0.441-0.227,0.947-0.227,1.516C519.264,23.293,519.34,23.799,519.49,24.24z"/>
	<path fill="#589C3F" d="M535.605,30.06c-0.702,0.763-1.804,1.145-3.305,1.145c-0.436,0-0.881-0.049-1.334-0.146
		c-0.454-0.097-0.866-0.254-1.235-0.472s-0.675-0.503-0.917-0.854c-0.242-0.351-0.375-0.78-0.399-1.288h1.544
		c0.012,0.277,0.1,0.514,0.263,0.707c0.164,0.194,0.363,0.352,0.6,0.473c0.235,0.121,0.493,0.209,0.771,0.264
		s0.545,0.082,0.799,0.082c0.509,0,0.938-0.089,1.289-0.264c0.351-0.176,0.642-0.418,0.872-0.727
		c0.229-0.309,0.396-0.681,0.499-1.117c0.103-0.436,0.154-0.913,0.154-1.434v-0.618h-0.036c-0.267,0.581-0.669,1.009-1.207,1.28
		c-0.539,0.272-1.111,0.408-1.717,0.408c-0.702,0-1.313-0.126-1.834-0.381c-0.52-0.254-0.956-0.596-1.307-1.025
		c-0.352-0.431-0.615-0.932-0.79-1.508c-0.176-0.574-0.264-1.184-0.264-1.824c0-0.557,0.072-1.129,0.218-1.717
		c0.146-0.587,0.388-1.119,0.727-1.598s0.787-0.871,1.344-1.18c0.557-0.31,1.24-0.464,2.052-0.464c0.593,0,1.138,0.131,1.634,0.392
		c0.496,0.26,0.884,0.65,1.163,1.171h0.018v-1.345h1.452v8.589C536.658,28.147,536.308,29.297,535.605,30.06z M533.636,25.839
		c0.356-0.213,0.644-0.491,0.862-0.836c0.219-0.346,0.378-0.735,0.48-1.172c0.104-0.436,0.155-0.871,0.155-1.307
		c0-0.411-0.049-0.816-0.146-1.217c-0.098-0.399-0.251-0.76-0.463-1.08s-0.487-0.578-0.826-0.772
		c-0.339-0.192-0.751-0.29-1.234-0.29c-0.497,0-0.921,0.094-1.271,0.281c-0.352,0.188-0.639,0.439-0.862,0.754
		c-0.225,0.314-0.388,0.678-0.491,1.089c-0.103,0.411-0.153,0.842-0.153,1.29c0,0.424,0.042,0.847,0.127,1.271
		s0.229,0.808,0.436,1.153c0.206,0.345,0.478,0.623,0.817,0.836c0.338,0.211,0.763,0.316,1.271,0.316
		C532.846,26.155,533.278,26.05,533.636,25.839z"/>
	<path fill="#589C3F" d="M542.134,29.806c-0.176,0.314-0.369,0.572-0.581,0.771s-0.445,0.345-0.699,0.436
		c-0.254,0.092-0.557,0.137-0.908,0.137c-0.181,0-0.362-0.013-0.544-0.036c-0.183-0.024-0.358-0.066-0.527-0.127V29.57
		c0.146,0.048,0.294,0.096,0.445,0.146c0.151,0.047,0.306,0.072,0.463,0.072c0.315,0,0.569-0.072,0.763-0.218
		c0.193-0.146,0.363-0.358,0.508-0.636l0.636-1.58l-3.722-9.334h1.743l2.741,7.682h0.037l2.633-7.682h1.634l-4.085,10.623
		C542.488,29.104,542.309,29.491,542.134,29.806z"/>
	<g>
		<line fill="#589C3F" x1="154.577" y1="0" x2="154.577" y2="33.873"/>
		<rect x="154.232" fill="#589C3F" width="0.688" height="33.873"/>
	</g>
</g>
</svg>
