<?xml version="1.0" encoding="utf-8"?>
<!-- Generator: Adobe Illustrator 17.1.0, SVG Export Plug-In . SVG Version: 6.00 Build 0)  -->
<!DOCTYPE svg PUBLIC "-//W3C//DTD SVG 1.1//EN" "http://www.w3.org/Graphics/SVG/1.1/DTD/svg11.dtd">
<svg version="1.1" id="Layer_1" xmlns="http://www.w3.org/2000/svg" xmlns:xlink="http://www.w3.org/1999/xlink" x="0px" y="0px"
	 width="1243px" height="1563px" viewBox="0 0 1243 1563" enable-background="new 0 0 1243 1563" xml:space="preserve">
<path fill="none" stroke="#FFFFFF" stroke-miterlimit="10" d="M741.2,1519.9c0,0,204.7,10.9,229.1-357.2c0,0,1.4-185-96.4-321.3
	c-97.9-136.2-137-191.1-137-191.1s176.4,321.3,126.3,561.2C813.2,1451.5,684.6,1476.6,741.2,1519.9z"/>
<path fill="none" stroke="#FFFFFF" stroke-miterlimit="10" d="M694.4,800.8c0,0,121.3,162.7,127.6,313.2
	c6.3,150.5-44.2,242-128,239.9c0,0-105.3-20.3-82.3-146.4C634.7,1081.4,726.1,996,694.4,800.8z"/>
<path fill="none" stroke="#FFFFFF" stroke-miterlimit="10" d="M574.8,374.5c0,0,90.5,143.4,91.5,337.4
	c1.4,277.2-93.9,363.3-91.5,528c2.4,164.7,127.3,201.3,84.5,256.2c-42.7,54.9-239.7-58.5-236.7-274.5
	c3.4-242.6,111.8-261.2,144.8-515.1C596.6,481.6,596.4,440.3,574.8,374.5z"/>
<path fill="none" stroke="#FFFFFF" stroke-miterlimit="10" d="M485.6,852.7C514.9,793,588,624.1,543.5,503.2
	c-55-149.1-125.3-176.2-143.7-260.3C381.3,158.9,394,55.8,394,55.8s-103.5,160-51.1,317.2c39.2,117.6,128.3,196,143.5,336.9
	c4.1,37.7,6.5,97.9-4.8,144.3C479.8,862.1,478.8,866.7,485.6,852.7z"/>
<path fill="none" stroke="#FFFFFF" stroke-miterlimit="10" d="M252.5,1482c0,0,209.3-307.3,177.5-685.5
	C404.6,494.4,196.8,468.8,313.8,1.1c0,0-127.6,68.3-111.8,163.2c15.9,94.9,11.6,147.2-35.2,160.8c-46.7,13.6-65.3-86.2-81.3-205.5
	c-10.2-76.2-38.8,28.1-31.3,144.9C70,511.8,264,555.1,347.6,797.7c14,40.6,30.4,83,39.1,132.6C426.4,1155.3,252.5,1482,252.5,1482z"
	/>
<path fill="none" stroke="#FFFFFF" stroke-miterlimit="10" d="M958,941.1c0,0-15.8-73.2-51.1-130.1
	c-35.2-56.9-97.8-126.1-97.8-126.1s-0.4-126.1-31.8-227.7C745.8,355.4,718,188.7,830.8,78.9c0,0-54.1,162.7-18.8,248.1
	C847.3,412.4,1070.6,774.3,958,941.1z"/>
<path fill="none" stroke="#FFFFFF" stroke-miterlimit="10" d="M766,619.8c0,0-0.4-150.5-43.5-231.8
	c-43.1-81.3-97.9-142.3-97.9-142.3s43.2,93.5,43.4,174.9c0.2,81.3,4.3,146.4,4.3,146.4L766,619.8z"/>
<path fill="none" stroke="#FFFFFF" stroke-miterlimit="10" d="M889.4,1514.5c0,0,93.4-73.2,104.6-227.8
	c11.3-154.5-12.5-284.7-12.5-284.7s50.4-113.9,34.5-219.6c-15.9-105.7-67-239.9-63.3-345.7c3.6-105.7,112.3-284.7,112.3-284.7
	s-77.4,211.5,8.8,357.9c86.2,146.4,250.9,479.9,119,719.8C1060.8,1469.8,889.4,1514.5,889.4,1514.5z"/>
<path fill="none" stroke="#FFFFFF" stroke-miterlimit="10" d="M183.6,1477.9c0,0,197.4-303.7,157.8-502.9
	C301.8,775.7,146,598.8,86.6,499.2C16.5,381.4,19.5,202.3,19.5,202.3s-56.8,176.7,28.2,342.2c84.8,165.2,271.1,283.9,264.9,544.4
	C308.8,1247.5,183.6,1477.9,183.6,1477.9z"/>
<path fill="none" stroke="#FFFFFF" stroke-miterlimit="10" d="M12.1,1557.9c0,0,82,44.7,178.9-146.4c42.4-83.6,105-168,104-238.4
	c-1.7-124-39.1-226.3-81.1-302.3c-28.6-51.9-56.6-91-82.2-117.7c-10.6-11.1-21-20.7-22.9-20.1c-2,0.6,3.7,6.2,13,22.9
	c9.6,17.3,19.7,37.9,29.2,60.4c33.9,80.4,69.2,226.9,31,397.2C128.6,1451.6-34.8,1509.1,12.1,1557.9z"/>
</svg>
