<?xml version="1.0" encoding="utf-8"?>
<!-- Generator: Adobe Illustrator 16.0.0, SVG Export Plug-In . SVG Version: 6.00 Build 0)  -->
<!DOCTYPE svg PUBLIC "-//W3C//DTD SVG 1.1//EN" "http://www.w3.org/Graphics/SVG/1.1/DTD/svg11.dtd">
<svg version="1.1" id="Layer_1" xmlns="http://www.w3.org/2000/svg" xmlns:xlink="http://www.w3.org/1999/xlink" x="0px" y="0px"
	 width="702px" height="502px" viewBox="0 0 702 502" enable-background="new 0 0 702 502" xml:space="preserve">
<g>
	<defs>
		<rect id="SVGID_1_" width="702" height="502"/>
	</defs>
	<clipPath id="SVGID_2_">
		<use xlink:href="#SVGID_1_"  overflow="visible"/>
	</clipPath>
	<g clip-path="url(#SVGID_2_)">
		<path fill="none" stroke="#FFFFFF" stroke-miterlimit="10" d="M605.236,511.482c29.318-59.712,67.629-194.753,31-333.255
			c-32-121-123.572-192.465-142-276.518c-18.434-84.051,6.344-187.081,6.344-187.081s-103.529,159.97-51.098,317.226
			c39.211,117.627,128.25,195.951,143.523,336.881c4.09,37.729,6.518,97.896-4.807,144.311
			C586.289,520.879,598.379,525.451,605.236,511.482z"/>
		<path fill="none" stroke="#FFFFFF" stroke-miterlimit="10" d="M358.99,1140.771c0,0,209.289-307.302,177.514-685.483
			c-25.379-302.079-233.197-327.716-116.203-795.432c0,0-127.624,68.333-111.764,163.226
			c15.86,94.894,11.559,147.201-35.187,160.758c-46.746,13.558-65.328-86.18-81.256-205.479
			c-10.169-76.173-38.753,28.086-31.304,144.854c15.779,247.346,237.579,282.821,293.36,533.238
			C530.299,798.299,358.99,1140.771,358.99,1140.771z"/>
		<path fill="none" stroke="#FFFFFF" stroke-miterlimit="10" d="M290.1,1136.704c0,0,197.359-303.65,157.812-502.932
			c-39.543-199.28-195.373-376.177-254.759-475.83c-70.15-117.715-67.111-296.887-67.111-296.887S69.237,37.728,154.237,203.228
			c84.85,165.208,271.05,283.908,264.892,544.419C415.379,906.251,290.1,1136.704,290.1,1136.704z"/>
		<path fill="none" stroke="#FFFFFF" stroke-miterlimit="10" d="M118.631,1216.648c0,0,82.003,44.74,178.945-146.41
			c42.39-83.585,104.953-168.006,104.007-238.363c-1.666-124.017-39.145-226.255-81.088-302.3
			c-28.629-51.912-56.621-90.971-82.155-117.716c-10.572-11.075-21.036-20.653-22.949-20.095
			c-2.048,0.594,3.717,6.237,12.989,22.891c9.648,17.334,19.72,37.906,29.208,60.428c33.883,80.403,69.202,226.9,30.994,397.245
			C235.184,1110.435,71.705,1167.845,118.631,1216.648z"/>
	</g>
</g>
</svg>
