<?xml version="1.0" encoding="utf-8"?>
<!-- Generator: Adobe Illustrator 16.0.0, SVG Export Plug-In . SVG Version: 6.00 Build 0)  -->
<!DOCTYPE svg PUBLIC "-//W3C//DTD SVG 1.1//EN" "http://www.w3.org/Graphics/SVG/1.1/DTD/svg11.dtd">
<svg version="1.1" id="Layer_1" xmlns="http://www.w3.org/2000/svg" xmlns:xlink="http://www.w3.org/1999/xlink" x="0px" y="0px"
	 width="1243px" height="1563px" viewBox="0 0 1243 1563" enable-background="new 0 0 1243 1563" xml:space="preserve">
<path fill="none" stroke="#FFFFFF" stroke-miterlimit="10" d="M485.6,852.7C514.9,793,588,624.1,543.5,503.2
	C488.5,354.1,418.2,327,399.8,242.9c-18.5-84-5.8-187.1-5.8-187.1s-103.5,160-51.1,317.2c39.2,117.6,128.3,196,143.5,336.9
	c4.1,37.699,6.5,97.899-4.801,144.3C479.8,862.1,478.8,866.7,485.6,852.7z"/>
<path fill="none" stroke="#FFFFFF" stroke-miterlimit="10" d="M252.5,1482c0,0,209.3-307.3,177.5-685.5
	C404.6,494.4,196.8,468.8,313.8,1.1c0,0-127.6,68.3-111.8,163.2c15.9,94.9,11.6,147.2-35.2,160.8c-46.7,13.601-65.3-86.2-81.3-205.5
	c-10.2-76.2-38.8,28.1-31.3,144.9C70,511.8,264,555.1,347.6,797.7c14,40.6,30.4,83,39.1,132.6C426.4,1155.3,252.5,1482,252.5,1482z"
	/>
<path fill="none" stroke="#FFFFFF" stroke-miterlimit="10" d="M183.6,1477.9c0,0,197.4-303.7,157.8-502.9
	C301.8,775.7,146,598.8,86.6,499.2C16.5,381.4,19.5,202.3,19.5,202.3S-37.3,379,47.7,544.5c84.8,165.2,271.1,283.9,264.9,544.4
	C308.8,1247.5,183.6,1477.9,183.6,1477.9z"/>
<path fill="none" stroke="#FFFFFF" stroke-miterlimit="10" d="M12.1,1557.9c0,0,82,44.699,178.9-146.4c42.4-83.6,105-168,104-238.4
	c-1.7-124-39.1-226.3-81.1-302.3c-28.6-51.899-56.6-91-82.2-117.7c-10.6-11.1-21-20.699-22.9-20.1c-2,0.6,3.7,6.2,13,22.9
	c9.6,17.3,19.7,37.899,29.2,60.399c33.9,80.4,69.2,226.9,31,397.2C128.6,1451.6-34.8,1509.1,12.1,1557.9z"/>
</svg>
